<?xml version="1.0" standalone="no"?>
<!DOCTYPE svg PUBLIC "-//W3C//DTD SVG 20010904//EN"
 "http://www.w3.org/TR/2001/REC-SVG-20010904/DTD/svg10.dtd">
<svg version="1.0" xmlns="http://www.w3.org/2000/svg"
 width="1181.000000pt" height="1181.000000pt" viewBox="0 0 1181.000000 1181.000000"
 preserveAspectRatio="xMidYMid meet">
<metadata>
Created by potrace 1.11, written by Peter Selinger 2001-2013
</metadata>
<g transform="translate(0.000000,1181.000000) scale(0.100000,-0.100000)"
fill="#000000" stroke="none">
<path d="M5868 11057 c-20 -34 -45 -78 -55 -97 -11 -19 -52 -89 -90 -155 -39
-66 -81 -140 -95 -165 -14 -25 -56 -97 -93 -160 -37 -63 -137 -236 -223 -385
-85 -148 -163 -283 -173 -300 -10 -16 -24 -41 -32 -55 -13 -24 -138 -241 -426
-739 -78 -134 -141 -246 -141 -248 0 -3 -8 -17 -19 -31 -10 -15 -31 -49 -46
-77 -16 -27 -40 -70 -54 -95 l-26 -45 -80 -2 c-247 -4 -480 -150 -607 -381
l-35 -63 -33 73 c-89 201 -144 304 -172 327 -88 70 -220 67 -296 -7 -36 -35
-74 -111 -318 -647 -12 -27 -45 -99 -73 -159 -28 -59 -51 -110 -51 -111 0 -2
-23 -52 -51 -111 -59 -125 -68 -187 -38 -251 23 -50 37 -65 81 -95 l36 -25
-1079 0 c-1066 0 -1080 0 -1107 -20 -15 -11 -33 -31 -39 -44 -10 -19 -13 -249
-12 -1049 1 -933 4 -1078 24 -1205 51 -314 189 -629 388 -885 108 -139 309
-323 465 -425 25 -17 41 -34 38 -41 -3 -8 -106 -188 -230 -401 -123 -214 -236
-410 -251 -438 -15 -27 -31 -54 -35 -60 -7 -9 -133 -227 -183 -315 -10 -19
-46 -80 -78 -136 -33 -55 -59 -103 -59 -107 0 -3 2387 -5 5305 -5 2918 0 5305
2 5305 5 0 3 -20 40 -44 82 -24 42 -52 92 -63 111 -11 19 -69 121 -130 225
-116 199 -321 555 -355 615 -11 19 -42 72 -69 118 -27 45 -49 86 -49 90 0 4
158 7 351 7 383 0 396 2 425 56 17 34 18 73 2 102 -6 12 -110 155 -232 317
-121 162 -310 417 -421 565 -111 149 -304 407 -429 575 -126 167 -230 309
-232 315 -3 6 75 118 173 248 918 1222 1146 1532 1150 1569 6 42 -12 77 -53
104 -23 16 -113 17 -1067 17 -1016 -1 -1040 0 -1006 18 20 10 50 34 67 53 63
72 64 157 4 286 -22 47 -76 165 -121 263 -45 97 -95 208 -112 245 -17 37 -50
110 -74 162 -164 362 -168 369 -229 405 -87 51 -203 35 -274 -37 -23 -23 -42
-45 -42 -50 0 -9 -170 -380 -179 -390 -3 -4 -6 62 -6 148 0 185 -10 229 -65
283 -52 50 -94 61 -244 61 -132 0 -171 -9 -222 -49 -25 -19 -25 -19 -79 5 -30
13 -76 29 -102 35 -27 7 -53 16 -60 21 -6 5 -38 55 -70 111 -71 125 -57 100
-183 319 -58 100 -117 202 -131 227 -45 79 -318 551 -374 646 -29 50 -156 270
-283 490 -126 220 -275 478 -331 574 -56 95 -101 175 -101 178 0 2 -10 19 -23
38 l-23 34 -36 -62z m-2443 -2903 c40 -87 147 -323 239 -523 91 -200 166 -371
166 -381 0 -22 -35 -27 -145 -20 l-80 5 -38 78 -38 77 -208 0 -208 0 -27 -62
c-43 -98 -43 -98 -163 -98 -80 0 -105 3 -109 14 -5 14 4 37 82 205 24 51 44
95 44 96 0 2 21 47 46 102 25 54 68 145 94 203 26 58 62 137 80 175 96 208
110 238 110 245 0 4 9 19 20 33 37 47 55 27 135 -149z m1115 130 c82 -30 190
-103 190 -128 0 -6 -32 -45 -70 -86 -66 -72 -70 -74 -92 -61 -78 49 -111 62
-170 68 -131 12 -241 -49 -300 -167 -29 -58 -33 -73 -32 -145 0 -62 5 -91 24
-128 41 -85 124 -154 210 -172 47 -10 127 -8 167 6 31 10 33 13 33 58 l0 47
-47 -1 c-76 -2 -79 1 -78 99 1 47 6 91 12 97 15 15 333 15 343 -1 9 -14 10
-434 1 -448 -19 -30 -185 -88 -283 -100 -197 -24 -357 27 -483 154 -100 101
-155 227 -160 372 -7 205 94 391 269 496 145 87 299 100 466 40z m1327 -61
c50 -48 176 -171 280 -273 104 -102 199 -193 210 -203 l21 -18 0 275 c-1 194
2 279 11 289 17 21 209 19 220 -2 13 -24 11 -1053 -1 -1068 -28 -34 -54 -12
-360 299 l-307 313 -1 -297 c0 -216 -3 -299 -12 -304 -13 -8 -204 -8 -217 0
-8 6 -13 1038 -5 1068 5 18 42 29 59 17 6 -4 51 -47 102 -96z m1553 81 c71
-16 167 -66 218 -113 40 -37 38 -40 -52 -130 l-64 -64 -44 32 c-119 85 -272
80 -375 -13 -111 -100 -140 -256 -74 -391 83 -169 289 -221 451 -114 l45 30
63 -68 c88 -94 89 -95 46 -132 -90 -79 -191 -121 -314 -128 -316 -19 -581 231
-581 547 0 41 2 84 5 95 41 190 144 328 301 406 44 22 100 43 125 48 72 14
180 12 250 -5z m1187 4 c6 -7 44 -87 86 -178 41 -91 90 -196 107 -235 18 -38
42 -92 55 -120 12 -27 36 -79 53 -115 182 -391 193 -417 171 -430 -15 -10
-199 -8 -215 3 -6 3 -25 39 -43 79 l-32 73 -209 0 -210 0 -26 -62 c-42 -97
-44 -99 -165 -98 -87 1 -104 3 -107 17 -3 15 36 108 126 298 22 47 60 130 85
185 25 55 63 138 85 185 22 47 51 110 65 140 13 30 41 90 61 132 20 42 36 80
36 83 0 3 7 17 16 30 18 27 46 33 61 13z m-3049 -10 c8 -7 12 -41 12 -103 0
-62 -4 -96 -12 -103 -8 -6 -92 -10 -208 -10 -107 -1 -204 -1 -215 -1 -19 -1
-20 -7 -19 -92 1 -51 6 -94 12 -98 5 -3 86 -5 179 -5 92 1 173 -2 178 -7 12
-9 13 -189 1 -207 -5 -8 -61 -11 -186 -9 -115 1 -180 -2 -181 -8 -1 -13 -1
-166 0 -186 1 -14 27 -16 215 -16 118 0 219 -4 225 -7 15 -10 15 -202 0 -212
-15 -9 -657 -9 -667 0 -10 11 -11 1049 -1 1062 12 15 648 16 667 2z m2440 -2
c9 -5 12 -132 12 -532 l0 -524 -22 -9 c-28 -10 -189 -8 -206 3 -9 5 -12 131
-11 532 2 514 2 526 21 533 26 9 190 7 206 -3z m-3861 -2468 c-1 -541 -6 -992
-9 -1003 -3 -11 -9 -40 -13 -65 -11 -66 -12 -71 -25 -120 -81 -312 -227 -567
-450 -790 -141 -141 -266 -230 -445 -318 -241 -119 -483 -176 -745 -176 -73 0
-238 12 -248 18 -4 2 -28 7 -53 10 -283 38 -661 234 -885 461 -82 82 -238 278
-255 321 -2 5 -23 43 -46 85 -91 162 -150 349 -189 594 -4 22 -8 473 -9 1003
l-2 962 1689 0 1689 0 -4 -982z m2170 944 c282 -65 504 -186 696 -376 93 -93
209 -250 254 -346 111 -236 148 -391 147 -630 0 -141 -8 -206 -40 -335 -62
-249 -200 -478 -397 -660 l-86 -80 33 -60 c40 -71 94 -173 166 -310 29 -55 67
-127 85 -160 18 -33 51 -95 74 -137 100 -189 125 -234 134 -245 7 -10 -1 -13
-34 -13 -59 -1 -2821 -1 -2880 0 l-47 0 0 1690 0 1691 902 -4 c880 -3 903 -4
993 -25z m4597 16 c-9 -15 -557 -749 -971 -1300 l-282 -377 271 -363 c149
-200 285 -382 302 -406 17 -23 39 -52 49 -65 10 -12 53 -69 95 -126 43 -57
181 -244 309 -415 128 -171 230 -312 228 -314 -2 -2 -744 -4 -1649 -5 l-1646
-2 0 88 c-1 114 -1 2997 0 3167 l0 130 1651 0 c1317 0 1649 -3 1643 -12z"/>
<path d="M3291 7792 c-14 -31 -39 -87 -57 -124 l-32 -68 56 -1 c67 -1 176 1
178 4 3 4 -111 247 -116 247 -3 0 -16 -26 -29 -58z"/>
<path d="M8543 7777 c-17 -39 -42 -97 -56 -128 l-25 -56 119 0 c65 0 117 2
115 6 -1 3 -10 22 -18 41 -55 122 -97 210 -100 210 -2 0 -17 -33 -35 -73z"/>
<path d="M562 1646 c-10 -16 -10 -558 0 -579 7 -14 19 -17 56 -15 l47 3 3 106
3 106 74 1 c139 2 225 81 225 205 0 59 -57 138 -119 165 -43 18 -278 25 -289
8z m246 -110 c29 -9 52 -54 45 -88 -9 -47 -42 -68 -114 -71 l-64 -2 -3 79 c-2
51 1 82 8 86 14 9 96 6 128 -4z"/>
<path d="M1061 1636 c-4 -12 -7 -111 -6 -221 2 -217 6 -236 64 -298 45 -50 98
-71 176 -71 81 0 125 17 178 71 57 56 64 91 64 321 0 223 1 219 -62 218 -55
-2 -55 -2 -55 -212 0 -215 -6 -241 -60 -269 -37 -19 -93 -19 -130 0 -51 26
-57 53 -58 270 -1 109 -4 200 -7 204 -4 3 -27 6 -52 6 -37 1 -46 -3 -52 -19z"/>
<path d="M1682 1646 c-11 -17 -10 -569 1 -583 12 -16 225 -18 280 -2 135 37
170 209 56 278 l-30 19 24 19 c93 73 66 218 -48 264 -39 15 -274 19 -283 5z
m245 -118 c28 -26 30 -67 4 -99 -15 -19 -30 -24 -80 -26 -67 -3 -63 -7 -63 72
0 79 -3 75 59 75 44 0 62 -5 80 -22z m20 -252 c25 -30 23 -70 -7 -100 -15 -15
-35 -20 -85 -21 l-65 -2 0 77 0 77 67 -3 c58 -2 71 -6 90 -28z"/>
<path d="M2211 1645 c-12 -15 -11 -568 1 -582 13 -17 323 -18 333 -2 11 17 8
81 -4 88 -6 4 -58 7 -116 6 l-105 -1 -1 26 c0 14 -1 123 -1 243 -1 148 -4 220
-12 225 -17 10 -86 9 -95 -3z"/>
<path d="M2648 1649 c-10 -6 -13 -63 -12 -287 1 -154 4 -287 7 -296 7 -19 92
-23 103 -5 8 14 9 577 1 586 -10 9 -83 11 -99 2z"/>
<path d="M3043 1635 c-63 -28 -122 -86 -154 -151 -33 -69 -34 -187 0 -261 76
-170 296 -232 454 -127 45 30 47 54 7 88 l-30 25 -49 -24 c-138 -70 -284 18
-284 170 0 59 11 90 47 132 58 69 150 84 235 38 l51 -28 30 28 c17 16 30 36
30 46 0 19 -59 61 -112 78 -57 19 -165 12 -225 -14z"/>
<path d="M3498 1649 c-12 -7 -15 -570 -4 -588 9 -15 93 -14 102 0 9 15 10 535
1 570 -6 23 -11 26 -48 25 -22 -1 -45 -4 -51 -7z"/>
<path d="M3758 1649 c-11 -6 -13 -66 -12 -291 1 -156 2 -289 3 -297 1 -11 29
-12 149 -9 168 5 209 17 279 88 62 61 86 120 87 210 1 63 -4 84 -27 132 -35
71 -102 131 -170 154 -54 18 -283 28 -309 13z m290 -123 c61 -32 101 -108 97
-187 -4 -75 -53 -144 -120 -169 -29 -11 -153 -16 -162 -6 -4 4 -7 250 -4 358
l1 27 78 -3 c46 -2 92 -10 110 -20z"/>
<path d="M4532 1598 c-16 -35 -51 -110 -78 -168 -26 -58 -71 -156 -101 -219
-29 -63 -56 -125 -59 -138 -6 -22 -4 -23 50 -23 l57 0 24 55 25 55 128 0 128
0 25 -52 c24 -52 25 -53 73 -56 27 -2 52 0 56 5 7 7 -22 75 -129 308 -15 33
-52 113 -81 178 -38 82 -59 117 -71 117 -11 0 -27 -22 -47 -62z m99 -275 l27
-63 -69 0 c-38 0 -72 1 -76 3 -13 4 -6 30 29 106 l32 72 15 -28 c9 -15 27 -56
42 -90z"/>
<path d="M4958 1652 c-21 -4 -20 20 -20 -320 -1 -171 3 -267 10 -274 6 -6 60
-9 148 -6 161 4 201 17 273 88 63 62 85 118 86 210 0 96 -22 148 -91 216 -70
70 -124 87 -274 89 -63 0 -123 -1 -132 -3z m272 -121 c86 -46 125 -138 99
-235 -25 -92 -92 -136 -207 -136 l-72 0 0 194 0 194 78 -2 c42 -1 88 -8 102
-15z"/>
<path d="M5713 1653 c-20 -7 -16 -21 30 -86 24 -34 69 -99 100 -144 l56 -82 3
-143 3 -143 44 -3 c24 -2 48 1 54 7 6 6 10 66 9 145 l0 134 61 89 c162 232
163 232 77 229 -56 -3 -47 5 -133 -121 -27 -38 -53 -70 -59 -70 -6 0 -36 37
-68 83 -31 46 -62 88 -68 94 -10 10 -88 18 -109 11z"/>
<path d="M6527 1653 c-3 -5 -10 -42 -17 -83 -7 -41 -14 -84 -16 -95 -13 -66
-26 -140 -29 -163 -2 -15 -11 -67 -20 -117 -27 -147 -28 -140 32 -143 58 -3
57 -4 69 83 3 28 7 57 9 65 1 8 6 40 11 70 4 30 9 58 10 63 1 4 2 17 3 30 2
23 54 -75 121 -231 53 -124 67 -122 130 21 24 56 57 131 74 167 l30 65 7 -40
c4 -22 10 -62 14 -89 4 -27 8 -56 10 -65 1 -9 6 -39 9 -66 10 -72 15 -77 72
-73 54 3 55 5 42 78 -5 25 -11 59 -13 75 -3 17 -10 53 -15 80 -5 28 -12 66
-15 85 -3 19 -12 71 -20 115 -8 44 -17 98 -21 120 -7 50 -11 55 -33 55 -13 0
-33 -34 -75 -122 -32 -68 -74 -158 -94 -200 -21 -43 -40 -78 -43 -78 -4 0 -12
15 -20 33 -7 17 -44 97 -82 177 -38 80 -73 155 -78 168 -8 21 -43 31 -52 15z"/>
<path d="M7404 1648 c-6 -7 -41 -80 -79 -163 -37 -82 -88 -193 -113 -245 -80
-172 -83 -180 -68 -186 8 -3 33 -4 57 -2 42 3 45 5 68 56 l25 52 128 0 129 0
21 -50 c22 -54 39 -64 99 -58 44 4 43 16 -14 138 -24 52 -58 127 -76 165 -17
39 -56 122 -84 185 -51 111 -73 136 -93 108z m96 -379 c0 -5 -36 -9 -80 -9
l-80 0 14 33 c8 17 26 58 40 91 l27 58 39 -82 c22 -45 40 -86 40 -91z"/>
<path d="M7796 1648 c-11 -6 -14 -58 -14 -285 0 -153 2 -286 5 -295 3 -14 15
-18 48 -18 24 0 47 6 52 13 4 6 8 57 9 112 1 55 2 103 3 107 1 10 80 3 91 -8
5 -5 33 -56 62 -114 l54 -105 59 0 c74 0 74 -2 -1 135 -44 80 -53 105 -42 111
7 5 16 9 19 9 4 0 19 12 34 28 95 93 67 246 -55 300 -38 17 -297 25 -324 10z
m301 -133 c31 -35 25 -79 -13 -112 -21 -20 -36 -23 -105 -23 l-79 0 -1 33 c-2
32 -2 73 0 114 1 21 4 22 87 19 81 -2 88 -4 111 -31z"/>
<path d="M8360 1650 c-15 -9 -18 -576 -3 -591 6 -6 32 -9 59 -7 l49 3 0 138
c0 75 1 137 2 137 0 0 47 -57 104 -127 56 -71 109 -134 118 -141 19 -16 123
-12 128 4 2 7 -33 56 -78 110 -45 55 -98 119 -118 143 -20 24 -36 47 -36 51 0
5 41 55 92 112 138 155 134 150 123 163 -6 7 -31 11 -60 10 -55 -2 -46 5 -163
-128 -29 -33 -64 -73 -79 -90 l-28 -31 0 117 c0 82 -4 118 -12 124 -17 10 -84
12 -98 3z"/>
<path d="M8909 1644 c-5 -7 -8 -128 -7 -300 l3 -289 170 -3 c94 -1 179 0 190
2 17 4 21 13 20 47 0 53 -8 56 -152 54 -75 -1 -113 2 -114 9 -4 30 -5 122 -2
132 3 6 42 10 109 9 67 -1 108 3 110 9 10 27 11 63 2 79 -7 15 -24 17 -116 17
l-107 0 0 68 0 69 128 0 c70 0 131 3 134 7 11 11 10 87 -1 94 -19 12 -356 9
-367 -4z"/>
<path d="M9351 1645 c-9 -12 -9 -81 1 -90 3 -4 36 -7 72 -7 36 0 66 -3 66 -7
1 -3 1 -112 2 -241 0 -165 4 -237 12 -242 6 -4 30 -8 53 -8 31 0 43 4 47 18 2
9 5 105 5 212 0 107 0 211 0 231 l1 36 66 1 c36 0 68 2 70 5 9 9 11 75 3 88
-6 11 -49 14 -199 14 -119 0 -194 -3 -199 -10z"/>
<path d="M9853 1647 c-8 -14 -7 -572 1 -586 9 -15 93 -14 102 1 9 14 10 576 1
585 -11 10 -98 10 -104 0z"/>
<path d="M10109 1648 c-1 -7 -2 -141 -3 -296 -1 -207 2 -286 11 -293 6 -6 31
-9 55 -7 l43 3 5 188 5 189 29 -34 c16 -18 50 -56 75 -83 25 -28 84 -93 131
-145 131 -145 130 -144 147 -117 4 6 8 142 8 300 0 317 2 306 -60 302 -17 -1
-36 -4 -42 -8 -6 -4 -10 -58 -11 -144 0 -76 -1 -156 -1 -178 l-2 -40 -41 45
c-244 265 -309 330 -329 330 -10 0 -20 -6 -20 -12z"/>
<path d="M10905 1633 c-173 -83 -233 -301 -126 -457 81 -118 242 -163 391
-111 87 31 86 29 84 151 -1 60 -2 115 -3 122 -2 17 -174 17 -189 -1 -12 -14
-11 -55 2 -75 4 -7 23 -12 42 -12 32 0 34 -2 34 -35 0 -42 -23 -55 -96 -55
-56 0 -106 21 -140 57 -121 131 -21 348 153 330 30 -3 66 -15 82 -26 16 -12
35 -21 42 -21 12 0 69 58 69 71 0 3 -15 18 -33 32 -80 61 -220 75 -312 30z"/>
</g>
</svg>
