<?xml version="1.0" encoding="utf-8"?>
<!-- Generator: Adobe Illustrator 24.2.0, SVG Export Plug-In . SVG Version: 6.00 Build 0)  -->
<svg version="1.1" id="Layer_1" xmlns="http://www.w3.org/2000/svg" xmlns:xlink="http://www.w3.org/1999/xlink" x="0px" y="0px"
	 viewBox="0 0 89 89" style="enable-background:new 0 0 89 89;" xml:space="preserve">
<style type="text/css">
	.st0{fill:#777777;}
</style>
<path class="st0" d="M83.7,67.8c0,0,0,0,0-0.1l0,0H73.2l0,0l0,0v0.2c0.1,2,0.4,4.1,0.6,5.9v0.3c0.1,0.6,0.2,1.2,0.2,1.8v0.1
	c0,0,0,0.1,0.1,0.1h9.4h0.1c0,0,0,0,0-0.1l-2.8-3.9L83.7,67.8z"/>
<path class="st0" d="M15.3,67.8L15.3,67.8L15.3,67.8H5.1l0,0c-0.1,0-0.1,0-0.1,0l2.9,4.4l-2.8,3.9c0,0,0,0,0,0.1c0,0,0,0,0.1,0h9.2
	c0,0,0.1,0,0.1-0.1v-0.1c0.1-0.7,0.2-1.4,0.3-2.1c0.2-1.8,0.5-3.9,0.6-5.9L15.3,67.8z"/>
<path class="st0" d="M74.3,77.3L74.3,77.3c0,0,0,0,0,0.1v0.2c0.2,2,0.3,3.6,0.3,5.1v0.4l-0.4,0.1c-9.8,1.8-19.9,2.7-29.9,2.7
	c-9.9,0-20.1-0.9-29.9-2.6l-0.4-0.1v-0.4c0-1.5,0.1-3.1,0.3-5.1v-0.2l0,0l0,0H3.1l3.6-4.9c0,0,0,0,0-0.1L3.1,67h12.1
	c0,0,0.1,0,0.1-0.1v-0.2c0-0.4,0-0.7,0-1.1V65l0.6,0.1c1.3,0.2,3,0.4,4.3,0.6c0.6,0.5,1.2,0.9,1.8,1.4c-1.8-0.3-3.6-0.5-5.4-0.9
	h-0.2l0,0c0,0,0,0,0,0.1l-1.1,11.3c-0.2,1.8-0.3,3.2-0.3,4.5v0.2c0,0,0,0.1,0.1,0.1h0.1c9.6,1.7,19.4,2.5,29.1,2.5
	s19.6-0.8,29.1-2.5h0.1c0,0,0.1,0,0.1-0.1v-0.1c0-1.3-0.1-2.7-0.3-4.5l-1.1-10.9v-0.4l0,0l0,0H72c-0.6,0.1-1.2,0.2-1.7,0.3
	c0.4-0.4,0.8-0.8,1.2-1.2c0.4-0.1,0.8-0.1,1.2-0.2l0.6-0.1v0.6c0,0.4,0,0.7,0,1.1v0.2c0,0,0,0.1,0.1,0.1h12.3l-3.6,5.4v0.1l3.7,5
	H74.3V77.3z M16.3,54.9L16.3,54.9c0.5,0.1,0.9,0.1,1.3,0.2c0-0.1,0-0.3,0-0.4l0,0c0-0.1,0-0.1,0-0.2l0,0c0-0.1,0-0.1,0-0.2l0,0
	c0-0.1,0-0.1,0-0.2l0,0c-0.6-1.6-2.7-2.4-2.6-5.4c0.5,0.2,1,0.4,1.4,0.6c0.1,0,0.2,0.1,0.2,0.1l0,0c0.2,0.1,0.3,0.2,0.5,0.2l0,0
	c0.1,0,0.1,0.1,0.2,0.1l0,0c0.1,0,0.1,0.1,0.2,0.1l0,0c0.1,0.1,0.3,0.2,0.4,0.2l0,0c0.1,0,0.1,0.1,0.2,0.1l0,0
	c0.1,0,0.1,0.1,0.2,0.1l0,0c0.1,0.1,0.2,0.2,0.3,0.2l0,0c0.1,0,0.1,0.1,0.1,0.1l0,0c0.1,0,0.1,0.1,0.1,0.1l0,0l0.1,0.1l0,0l0.1,0.1
	l0,0l0.1,0.1l0,0l0.1,0.1l0,0l0.1,0.1l0,0l0.1,0.1c0,0,0,0,0.1,0.1l0.1,0.1c0,0,0,0,0.1,0.1c0,0,0,0,0.1,0.1l0.1,0.1l0,0
	c0.4,0.4,0.8,0.8,1.2,1.2l0,0c0.1,0.1,0.1,0.1,0.2,0.2l0,0c0.1,0.1,0.1,0.1,0.2,0.2l0,0c0.1,0.1,0.1,0.1,0.2,0.2
	c0.8-0.6,0.4-1.7,0.7-3.2c2.8,2.1,3.7,4.9,6.1,7.3v0.1c0,0.2-0.1,0.4-0.1,0.6v0.1c0,0.2-0.1,0.4-0.2,0.6c0,0,0,0,0,0.1
	c-0.1,0.2-0.1,0.4-0.2,0.6l0,0c-0.2,0.7-0.4,1.4-0.6,2.2c0,0.1-0.1,0.3-0.1,0.4s0,0.1-0.1,0.2c0,0.2-0.1,0.4-0.1,0.5v0.1
	c-0.4,1.4-0.7,2.8-1,4.2c-0.8-0.1-1.5-0.2-2.3-0.3c-5.3-4.2-11.5-8-14.1-13.3C11,54.2,14.1,54.6,16.3,54.9 M13.9,53.6
	c0-3.9,0-7.8,0-11.6c0-6.3,0-12.6,0-19c0-0.9,0.8-1.2,1.4-1.5c1-0.6,2-1.2,3.1-1.8l10-6c5-3,10.1-6,15.2-9c0.4-0.2,0.8-0.2,1.2,0
	c4.4,2.6,8.8,5.2,13.1,7.8c5.3,3.1,10.6,6.3,16,9.4c0.7,0.4,0.6,1.3,0.6,2c0,1.2,0,2.4,0,3.6c0,4,0,8,0,11.9c0,4.9,0,9.8,0,14.7
	c-0.6,0.1-1.1,0.3-1.5,0.4c0.9-3.7,0.8-3.1,1.2-6.1c0-0.4-0.8-0.6-2-0.2c0-2.4,0-4.9,0-7.3c0-5.8,0-11.5,0-17.4
	c-4.4-2.6-8.9-5.3-13.4-7.9L44.2,6.9c-4.4,2.7-8.9,5.3-13.3,8c-4.8,2.9-9.7,5.8-14.6,8.7c0,5.3,0,10.6,0,16c0,3,0,5.9,0,8.8
	c-0.5-0.2-1.1-0.3-1.7-0.4c-1.7,3.4,2.3,6.3,1.3,6.1c-0.8-0.1-1.2-0.2-1.8-0.3C13.9,53.8,13.9,53.7,13.9,53.6 M32.1,36.6
	c-0.1,0.1-0.1,0.1-0.2,0.2h-2.1c-0.1,0-0.2-0.1-0.2-0.2l-1-2.8H23l-1,2.8c0,0.1-0.1,0.2-0.2,0.2h-2.4c-0.1,0-0.1,0-0.2-0.1
	c0-0.1-0.1-0.1,0-0.2l5.6-15c0-0.1,0.1-0.2,0.2-0.2h1.9c0.1,0,0.2,0.1,0.2,0.2l5.5,14.9C32.4,36.4,32.3,36.5,32.1,36.6 M55.5,23.7
	c0,0.1-0.1,0.3-0.2,0.3h-3.9v12.6c0,0.1-0.1,0.3-0.2,0.3h-0.4c0.1-0.7,0.2-1.2-0.1-1.4c-0.5-0.6-1.2-0.7-2-0.5V23.9h-3.9
	c-0.1,0-0.2-0.1-0.2-0.2v-2c0-0.1,0.1-0.2,0.3-0.2h10.6c0.1,0,0.3,0.1,0.3,0.3v1.9H55.5z M50,40.7c-0.6-0.5-4.8-3.9-12.6,3.2
	c-0.4-0.6-0.5-1.2-1.9-1.6c0.2-1.6-4-3.9-2.4-5.5c0.9-1.1,6,1.3,6,1.3s-0.1-2.9,2.2-2.4c5.3,1,8-1.1,8.8,0.3
	C50.7,37.3,49.3,38.5,50,40.7 M66.6,35.3c-1.1,1.1-2.5,1.7-4.2,1.7c-1.6,0-3-0.6-4.1-1.7c-1.5-1.5-1.5-3.2-1.5-6v-0.2
	c0-2.8,0-4.5,1.6-6c1.1-1.1,2.5-1.7,4.2-1.7c1.7,0,3.1,0.6,4.2,1.7c1.5,1.5,1.5,3.2,1.5,5.9v0.5C68.1,32.1,68.1,33.8,66.6,35.3
	 M44.6,34.3c0.1,0,0.2,0.1,0.2,0.3v1c-0.3,0-0.6,0-0.9,0c-4.4-1-5.2,0-5.3,1.4h-1.2c-0.8-0.4-1.8-0.8-2.7-0.9V21.7
	c0-0.1,0.1-0.2,0.3-0.2h2.3c0.1,0,0.3,0.1,0.3,0.3v12.6h7V34.3z M59.2,71.4c0.8-1,1.8-1.7,3.2-1.9c1.3-0.2,2.5,0.1,3.5,0.9
	c1.1,0.9,1.8,2.2,2.1,3.9c0.3,1.7,0.1,3.1-0.6,4.4c-0.7,1.4-1.9,2.2-3.4,2.4c-1.5,0.2-2.9-0.2-3.9-1.3c-1-1-1.6-2.4-1.7-4.1
	C58.1,74,58.4,72.6,59.2,71.4 M30.7,75.9c0.2-1.8,0.8-3.1,1.8-4.1c0.9-0.9,2.1-1.3,3.5-1.2c1.4,0.1,2.4,0.6,3.3,1.6
	c0.9,1.1,1.3,2.5,1.3,4.3c0,1.7-0.5,3.1-1.5,4.2c-1,1.2-2.2,1.7-3.7,1.6c-1.5-0.1-2.7-0.8-3.6-2.1C30.9,79.1,30.6,77.6,30.7,75.9
	 M24.6,69.6c1.7,0.3,3,0.8,3.9,1.6c1.1,0.9,1.6,2.2,1.4,3.7c-0.1,1.3-0.7,2.4-1.6,3.1c-1,0.7-2.2,1-3.7,0.7
	c-0.1,0.7-0.2,1.4-0.4,2.1c-1.4-0.2-2.7-0.4-4.1-0.6c0.2-1.8,0.4-3.5,0.7-5.3c0.2-1.4,0.4-3.2,0.7-5.6
	C22.1,69.2,23.2,69.3,24.6,69.6 M48.4,80.2c0.2,0,0.5-0.1,0.8-0.2c0,0.2-0.1,0.6-0.2,1.1c-0.1,0.3-0.1,0.7-0.1,1.1
	c-2.3,0.1-4.5,0.1-6.8,0.1c0-1.1,0-2.9-0.1-5.5c0-1.3-0.1-3.1-0.2-5.4c1.6,0,3.2,0,4.8,0c-0.1,3-0.2,6.1-0.3,9.1
	C46.8,80.4,47.5,80.4,48.4,80.2 M57.8,79.5c0,0.2-0.1,0.6-0.2,1.1c0,0.3-0.1,0.7-0.1,1.1c-2.3,0.2-4.5,0.4-6.8,0.5
	c-0.1-1.1-0.2-2.9-0.4-5.5c-0.1-1.3-0.3-3.1-0.6-5.4c1.6-0.1,3.2-0.2,4.8-0.3c0.1,3,0.2,6.1,0.3,9.1c0.5,0,1.2-0.1,2.2-0.3
	C57.2,79.7,57.5,79.6,57.8,79.5 M68.7,66.6c-3.6,0.6-7.1,1-10.5,1.3H30.4c-1.2-0.1-2.3-0.2-3.5-0.4c0.3-1.2,0.6-2.5,1-3.9l0,0
	c0.6-2.4,1.2-4.9,1.8-6.8c0-0.1,0.1-0.2,0.1-0.3l0,0v-0.1l0,0c0-0.1,0-0.1,0.1-0.2c0,0,0,0,0-0.1V56c0,0,0,0,0-0.1v-0.1
	c0,0,0-0.1,0.1-0.1c0,0,0,0,0-0.1v-0.1c0,0,0,0,0-0.1c0,0,0-0.1,0.1-0.1c0,0,0,0,0-0.1v-0.1c0,0,0,0,0-0.1c0,0,0-0.1,0.1-0.1l0,0
	v-0.1l0,0v-0.1l0,0c0,0,0-0.1,0.1-0.1l0,0v-0.1l0,0c0,0,0-0.1,0.1-0.1l0,0c0,0,0,0,0-0.1l0,0c0,0,0,0,0-0.1l0,0l0,0l0,0l0,0l0,0l0,0
	l0,0l0,0l0,0l0,0l0,0l0,0l0,0l0,0l0,0l0,0l0,0l0,0l0,0l0,0l0,0l0,0c0,0,0,0,0-0.1l0,0c0,0,0,0,0-0.1l0,0c0,0,0,0,0-0.1l0,0
	c0,0,0,0,0-0.1l0,0c0,0,0,0,0-0.1l0,0v-0.1l0,0v-0.1l0,0v-0.1l0,0v-0.1l0,0v-0.1l0,0v-0.1l0,0c0.1-0.4,0.2-0.9,0.3-1.4l0,0
	c0-0.1,0-0.1,0-0.2l0,0c0-0.1,0-0.1,0-0.2l0,0c0-0.1,0-0.1,0-0.2l0,0c0-0.1,0-0.1,0-0.2l0,0c0-0.1,0-0.1,0-0.2l0,0
	c0-0.1,0-0.1,0-0.2l0,0c0,0,0-0.1,0-0.2l0,0c0,0,0-0.1,0-0.2l0,0c0,0,0-0.1,0-0.2l0,0c0,0,0-0.1,0-0.2c0,0,0,0,0-0.1
	c0,0,0-0.1,0.1-0.2c0,0,0,0,0-0.1c0,0,0-0.1,0.1-0.2c0,0,0,0,0-0.1c0,0,0-0.1,0.1-0.2c0,0,0,0,0-0.1c0,0,0-0.1,0.1-0.2
	c0,0,0,0,0-0.1c0,0,0-0.1,0.1-0.2c0,0,0,0,0-0.1c0,0,0-0.1,0.1-0.2l0,0c0,0,0-0.1,0.1-0.2l0,0c0,0,0-0.1,0.1-0.2l0,0
	c0,0,0-0.1,0.1-0.2l0,0c0,0,0-0.1,0.1-0.2l0,0c0,0,0-0.1,0.1-0.2l0,0c0,0,0-0.1,0.1-0.2l0,0c0,0,0.1-0.1,0.1-0.2l0,0
	c0,0,0.1-0.1,0.1-0.2l0,0c0,0,0.1-0.1,0.1-0.2l0,0c0,0,0.1-0.1,0.1-0.2l0,0c0,0,0.1-0.1,0.1-0.2l0,0c0,0,0.1-0.1,0.1-0.2l0,0
	c0.4-0.6,0.8-1.1,1.2-1.6c0.1,0,0.1-0.1,0.2-0.1c1,0.1,1,1.7,2,1.8c2.8-3.3,8.1-5.8,12.4-3.6c0.2,0.1,0.4,0.3,0.6,0.4
	c0.1,0.1,0.1,0.1,0.2,0.1l0,0c0.1,0.1,0.1,0.1,0.2,0.1l0,0c0.1,0.1,0.1,0.1,0.2,0.2l0,0c0.1,0.1,0.1,0.1,0.1,0.2l0,0
	c0.1,0.1,0.1,0.1,0.1,0.2l0,0c0,0.1,0.1,0.1,0.1,0.2l0,0c0,0.1,0.1,0.1,0.1,0.2l0,0c1.5,2.4,0.7,6.1,1,9.7l0,0c0,0.1,0,0.2,0,0.3
	v0.1c0,0.1,0,0.2,0,0.2V54c0,0.1,0,0.1,0,0.2v0.1c0,0.1,0,0.1,0,0.2v0.1c0,0.1,0,0.1,0,0.2c0,0.1,0,0.1,0,0.1c0,0.1,0,0.1,0,0.2
	c0,0.1,0,0.1,0,0.2c0,0.1,0,0.1,0,0.2s0,0.1,0,0.2c0,0.1,0,0.1,0,0.2c0,0.1,0,0.1,0,0.2s0,0.1,0,0.2c0,0.1,0,0.1,0.1,0.2
	c0,0.1,0,0.1,0.1,0.1c0,0.1,0,0.1,0.1,0.2c0,0.1,0,0.1,0.1,0.1c0,0.1,0,0.1,0.1,0.2c0,0,0,0.1,0.1,0.1c0,0.1,0,0.1,0.1,0.2
	c0,0,0,0.1,0.1,0.1c0,0.1,0.1,0.1,0.1,0.2c0,0,0,0.1,0.1,0.1c0,0.1,0.1,0.1,0.1,0.2c0,0,0,0.1,0.1,0.1c0,0.1,0.1,0.1,0.1,0.2
	c0,0,0,0.1,0.1,0.1c0,0.1,0.1,0.1,0.1,0.2c0,0,0,0.1,0.1,0.1c0,0.1,0.1,0.1,0.1,0.2c0,0,0,0.1,0.1,0.1c0,0.1,0.1,0.1,0.1,0.2l0,0
	c0.1,0.2,0.3,0.3,0.4,0.5c1.1,0,2.6-0.7,4.4-1.8c2.3-1.5,4.9-3.7,7.2-6.5c0.1,0.2,0.2,0.5,0.3,0.7c0.7,2.2,0.6,3.8,0.7,4.8
	c0.5-0.9,1-2,1.5-3.1c0,0,0-0.1,0.1-0.1c0,0,0.1-0.1,0.1-0.2l0.1-0.1c0,0,0-0.1,0.1-0.1c0-0.1,0.1-0.1,0.1-0.2c0,0,0,0,0-0.1
	s0.1-0.1,0.1-0.2l0,0c0-0.1,0.1-0.1,0.1-0.2l0,0c0.1-0.1,0.1-0.1,0.1-0.2l0,0c0.1-0.1,0.1-0.1,0.2-0.2l0,0c0.1-0.1,0.1-0.1,0.2-0.2
	l0,0c0.1-0.1,0.1-0.1,0.2-0.2l0,0c0.1-0.1,0.1-0.1,0.2-0.2l0,0c0.1-0.1,0.2-0.3,0.4-0.4l0,0c0.1-0.1,0.1-0.1,0.2-0.2l0,0
	c0.2-0.2,0.4-0.3,0.6-0.5l0,0c0.2-0.1,0.4-0.3,0.6-0.4l0,0c0.1,0,0.1-0.1,0.2-0.1c0.4-0.2,0.9-0.3,1.4-0.3c0,2.1-0.8,4-1.3,5.8l0,0
	c0,0.1-0.1,0.2-0.1,0.3v0.1c0,0.1,0,0.2-0.1,0.3l0,0c0,0.1,0,0.2-0.1,0.3v0.1c0,0.1,0,0.2-0.1,0.3c0.1,0,0.2-0.1,0.3-0.1
	c3.8-1,5-1,7.5,0C75.2,58.1,72.5,63.2,68.7,66.6 M88.5,76.7l-2.9-4l2.9-4.4c0.5-0.7,0.5-1.7,0.1-2.5c-0.4-0.8-1.2-1.3-2-1.3H76.4
	c0.5-1.1,2-4.5,2-4.5v-2.6c1-1.1,1.8-1.8,2.2-1.7c-0.4-0.8-1.2-1.3-2.2-1.5l-0.1-33.9L44.1,0L10,20.4l0.1,33
	c-0.5-0.1-1.1-0.1-1.7-0.2c0.2,1.1,0.8,2.2,1.7,3.4v3.5l0.2,0.5c0.6,1.1,1.3,2.7,1.9,3.8H2.5c-0.8,0-1.6,0.5-2,1.2v0.1
	c-0.4,0.8-0.4,1.7,0.1,2.5l2.9,4.4l-3,4c-0.5,0.7-0.6,1.7-0.2,2.5c0.4,0.8,1.2,1.3,2.1,1.3h9c0,0.9-0.1,1.7-0.1,2.5v0.8
	c0,1.2,0.8,2.2,2,2.4l0.6,0.1C24,88.1,34.2,89,44.3,89s20.4-0.9,30.4-2.7l0.8-0.1c1.1-0.2,1.9-1.2,1.9-2.4V83c0-0.8,0-1.6-0.1-2.5
	h9.2c0.9,0,1.7-0.5,2.1-1.3C89.2,78.4,89.1,77.4,88.5,76.7"/>
<path class="st0" d="M62.4,23.8c-0.8,0-1.6,0.3-2.1,0.8c-0.7,0.7-0.8,1.5-0.8,4.4s0.2,3.7,0.8,4.4c0.5,0.5,1.3,0.9,2.1,0.9
	s1.6-0.3,2.1-0.8c0.7-0.7,0.8-1.5,0.8-4.4s-0.1-3.7-0.8-4.4C64,24.1,63.2,23.8,62.4,23.8"/>
<polygon class="st0" points="23.9,31.4 27.8,31.4 25.9,25.8 "/>
<path class="st0" d="M33.4,58.3c0.8-0.7,3.5-3.8,4.4-4.5c1.9,0.4-1.9,1.9-3,3.7c2.4,0,8.2-2.6,8.2-4.6
	C44.6,55.6,37.2,64.8,33.4,58.3 M32.9,53.8c-0.1-3.5,2.3-5.5,9.4-3.1c0.1-0.2,0.1-0.1,0.1-0.2c0-0.1-2.9-0.8-3-0.9
	c-1.2-0.4-2.2-0.5-3.1-0.4c0.5-0.7,0.2-2.4-0.7-2.3c-0.5,0.2-0.9,2-0.2,2.4c-2.3,0.7-3.1,3-2.9,5c1.3,0,1.9-1.3,4.5-1
	c-0.3,1.3-1.8,2.1-4.2,4.9c1.4,6.8,9.7,6.1,8.7,0.1c1.9-1.9,2.3-4.9,2.1-6.5C42.9,54.3,35.2,51.5,32.9,53.8"/>
<path class="st0" d="M62.5,78.1c0.3,0.5,0.7,0.7,1.1,0.6c0.4,0,0.7-0.4,0.9-0.9c0.2-0.5,0.3-1,0.2-1.5c-0.2-1.3-0.7-1.9-1.6-1.8
	c-0.9,0.1-1.2,0.8-1.1,2.2C62.1,77.2,62.2,77.7,62.5,78.1"/>
<path class="st0" d="M26.8,75.8c0.1-0.7-0.3-1.2-1.2-1.3c-0.1,0-0.2,0-0.3,0c-0.1,0.8-0.3,1.6-0.4,2.5C26,77,26.7,76.7,26.8,75.8"/>
<path class="st0" d="M35.4,79.9c0.4,0,0.7-0.2,1.1-0.7c0.3-0.5,0.5-0.9,0.5-1.5c0.1-1.3-0.3-2-1.2-2.1c-0.9,0-1.4,0.6-1.4,1.9
	c0,0.5,0,1,0.3,1.5C34.7,79.6,35,79.8,35.4,79.9"/>
<path class="st0" d="M43.7,46.5c0,0-0.1,0-0.1-0.1c0,0,0,0-0.1,0c0,0,0,0-0.1,0h-0.1l0,0h-0.1c-0.3,0.1-0.7,0.9-0.8,1.7
	c-0.1,1,0.1,2,1.1,1.9c0.1,0,0.2,0,0.3,0l0,0C44.8,49.6,44.8,47.1,43.7,46.5"/>
</svg>
