<?xml version="1.0" encoding="utf-8"?>
<!-- Generator: Adobe Illustrator 24.2.0, SVG Export Plug-In . SVG Version: 6.00 Build 0)  -->
<svg version="1.1" id="Layer_1" xmlns="http://www.w3.org/2000/svg" xmlns:xlink="http://www.w3.org/1999/xlink" x="0px" y="0px"
	 viewBox="0 0 82 81" style="enable-background:new 0 0 82 81;" xml:space="preserve">
<style type="text/css">
	.st0{fill:#777777;}
</style>
<path class="st0" d="M36.2,31.3l0.6,0.7C37.2,30.7,36.2,31.3,36.2,31.3"/>
<path class="st0" d="M36.2,32.5l-0.6-0.8C34.7,33.2,36.2,32.5,36.2,32.5"/>
<path class="st0" d="M31.6,39l-1.2-0.2C30.6,40.5,31.6,39,31.6,39"/>
<path class="st0" d="M31,38.4c0.5,0,0.5-0.8,0-0.8C30.5,37.5,30.5,38.4,31,38.4"/>
<path class="st0" d="M39.2,53.6c-0.6,0.5-1.1,0.5-1.7,0c0.2,0.8-0.2,1.2-1.1,1.5c1.1,0.2,1.1,0.7,1,1.4c0.9-0.3,0.9-0.3,1.8,0.1
	c-0.2-0.8,0.2-1.2,0.9-1.4C39.2,54.5,39.2,54.5,39.2,53.6"/>
<polygon class="st0" points="35.8,23.7 35.8,23.7 35,26 36.5,26 "/>
<path class="st0" d="M37.7,43.4c0,0-0.5,0.9,0.9,0.7c0,0,0.3,0.8,0.9,0.2c0,0,0.2-0.4-0.6-0.7c0,0-0.2-0.6,0.8-0.5
	c0,0,2.7-1,3.2-1.7c0,0-0.6-0.4-1.9-0.4C40.9,41,38.3,42.6,37.7,43.4"/>
<path class="st0" d="M53.3,32.5c0,0-0.8-1.2-1.3-0.9c0,0-0.3,0-0.7,0.8c0,0-0.5,0.5-1.9-0.2c0,0-0.8-0.7-2.2-0.1c0,0-2.6,1.3-3,1.9
	c0,0-0.1,0.4,0,0.8c0,0,0,1.2-0.8,0.1c-1.1,0.1-3.2,1.4-2.1,3.9c0,0-0.2,2,1.1,2.1c0,0,1.5,0.4,1.2-1.4c0,0,0.6-0.1,0.4-1.9
	c0,0,0.3-1.1,1.6-0.9c0,0,1.5-0.9,2.4-0.4c0.5,0.5-1.6,2.9-2,4.2c0.3,0.4-1.6,1-0.8,1.9c1.7,0.4,0.3-0.6,1.6-1.5
	c0,0,2.2-2.8,3.4-5.7c0,0,0.3-1.6,1.6-1.5c0,0,1,1.4,1,0c0,0,1,0.4,1-0.7C53.7,32.9,53.8,32.6,53.3,32.5"/>
<path class="st0" d="M52.8,31.1c-0.1,0.5,0.3,0.8,0.3,0.8C53.3,32.3,54,32,54,32C54,30.9,52.8,31.1,52.8,31.1"/>
<path class="st0" d="M45.6,39.9c0.3-0.7,0.9-1.5,0.9-1.5c1-1.6,0.2-1.8-0.4-1.5c-0.4,0.5-1.1,0.4-1.1,0.4c-0.5-0.1-0.3,1.1-0.3,1.1
	v0.7c-0.9,1.1-0.3,1.9-0.3,1.9C44.9,41.5,45.6,39.9,45.6,39.9"/>
<path class="st0" d="M41,1.2c-52.8,1.4-52.8,77.2,0,78.6C93.8,78.4,93.8,2.6,41,1.2 M41,81c-54.5-1.4-54.5-79.6,0-81
	C95.4,1.4,95.4,79.6,41,81"/>
<path class="st0" d="M41,11.7c-38.8,1-38.8,56.8,0,57.8C79.8,68.3,79.8,12.7,41,11.7 M41,70c-39.6-1-39.6-58,0-59
	C80.7,12.1,80.7,68.9,41,70"/>
<path class="st0" d="M40.1,73.2c-1.6-2.5-3,1.9-1.7,3C40.2,77.3,40.6,74.4,40.1,73.2"/>
<path class="st0" d="M18.5,13.8c0.2-0.4-0.4-1-0.8-0.9c-0.3,0.1-0.6,0.4-0.8,0.6l1,1.1C18.1,14.3,18.4,14.1,18.5,13.8"/>
<polygon class="st0" points="29.7,73.2 29.9,70.8 29.9,70.8 28.4,72.7 "/>
<path class="st0" d="M34.6,72.1c-0.2-0.1-0.7-0.2-1-0.3l-0.8,3.7c0.5,0.1,1.1,0.3,1.6-0.1C35.1,74.8,35.7,72.8,34.6,72.1"/>
<path class="st0" d="M25.7,69c-0.2-0.2-0.6-0.4-0.9-0.6L23,71.8c0.5,0.3,1,0.6,1.5,0.4C25.4,71.7,26.5,69.9,25.7,69"/>
<polygon class="st0" points="25.9,10.3 24.2,8.6 24.2,8.6 24.6,11 "/>
<path class="st0" d="M19.8,15.9c1-0.6,0-2-0.9-1.5c-0.2,0.1-0.5,0.4-0.6,0.5l1.1,1.3L19.8,15.9z"/>
<path class="st0" d="M47.2,8.9c1.7,1.4,2.8-2.1,1.9-3.3C47.4,4.2,46.3,7.7,47.2,8.9"/>
<path class="st0" d="M61.9,15.8c1.2,1.1,3.7-2,2.5-3C63.2,11.9,60.7,14.8,61.9,15.8"/>
<path class="st0" d="M35,8.9c1.7-0.1,1.3-2.7,0.5-3.6c-0.4-0.3-1-0.2-1.6-0.1L34.5,9L35,8.9z"/>
<path class="st0" d="M61.6,66.2c-1.3-0.2-1.2,1.5-0.1,1.8C62.6,68.2,62.6,66.4,61.6,66.2"/>
<path class="st0" d="M76.1,42.3c-2.1,0-2.1-3.2,0-3.1C78.1,39.1,78.1,42.3,76.1,42.3 M70.1,25.7l0.9,1.7l-0.5,0.3l-1.2-2.3l4.5-2.2
	l0.3,0.6L70.1,25.7z M41,70.4c-40.2-1-40.2-58.8,0-59.9C81.3,11.7,81.3,69.4,41,70.4 M69.5,64.1l-0.4-0.3c-0.1-1.1-0.1-2.7-1-3.5
	c-0.6-0.6-1.6,0.5-0.9,1l-0.5,0.6c-1.7-2.3,3.2-4.6,3,1.2l1.3-1.6l0.4,0.3L69.5,64.1z M67.3,66.5c-0.5,0.5-1.3,0.8-1.9,0.3l0.6-0.6
	c0.5,0.5,1.3-0.2,1.2-0.7c-0.1-1.1-1.9-1.4-1.8,0L64.9,66l-1.8-1.9l1.8-1.7l0.4,0.4L64,64.1l1,1.1C65.7,62.5,69.3,64.7,67.3,66.5
	 M64.1,69.1c-0.4,0.8-1.7,1.4-2.3,0.6l0.6-0.5c0.4,0.5,1.2,0,1.1-0.6c0-0.5-0.4-0.9-0.7-1.3c-0.2,2-3,1.5-2.8-0.4
	C61,63.8,64.6,67,64.1,69.1 M59.4,72.3l-2-3.4l-0.5,0.9l-0.3-0.5l0.6-1l0.5-0.3l2.3,3.9L59.4,72.3z M52.8,75.2L49.7,72l0,0l1.2,3.8
	L50.3,76l-1.5-4.7l0.9-0.3l3.1,3.1l0,0l-1.1-3.7l0.6-0.2l1.5,4.7L52.8,75.2z M45.7,76.8l-0.8-4.9l2.7-0.4l0.1,0.6l-2,0.3l0.2,1.5
	l1.9-0.3l0.1,0.6L46,74.5l0.3,1.7l2.1-0.3l0.1,0.6L45.7,76.8z M41,74.6c0.1,3.4-4.4,3.2-3.9-0.2C37.1,71,41.5,71.2,41,74.6
	 M35.9,74.2c-0.4,2.4-2,2.3-3.9,1.8l1-4.8C34.9,71.4,36.4,71.9,35.9,74.2 M30.4,75.6l-0.7-0.3v-1.5L28,73.2l-0.9,1.2l-0.7-0.3
	l3.3-4.1l0.9,0.3L30.4,75.6z M25.5,72.4c-1,1.1-2.4,0.2-3.5-0.4l2.4-4.4C27.2,68.7,27.4,70.2,25.5,72.4 M19.5,70.3l0.8-4.4l0,0
	l-2.4,3.2l-0.5-0.4l3-4l0.7,0.5l-0.8,4.3l0,0l2.4-3.1l0.5,0.4l-3,4L19.5,70.3z M15.7,66.8c-1.2-0.1-2.4-1.8-1.2-2.9l2.5-2.4l0.5,0.5
	l-2.4,2.4c-0.5,0.4-0.6,1-0.1,1.5c0.5,0.5,1.1,0.4,1.5-0.1l2.4-2.4l0.5,0.5C18.6,64.4,16.7,67,15.7,66.8 M13,60.9l-1.8,1.4l-0.4-0.6
	l4-3l1.6,2.1l-0.5,0.4l-1.2-1.5l-1.2,0.9l1.1,1.5l-0.5,0.4L13,60.9z M9.2,26.2c-2.4-0.8-1.9-4.4,0.7-3.6l-0.4,0.7
	c-0.4-0.2-0.9-0.2-1.1,0.3c-0.5,1.2,1.1,1.8,2,2.1c1.2,0.5,2.2-0.6,1.9-1.7l0.6,0.3C12.9,26.3,10.9,27.3,9.2,26.2 M6.1,42.3
	c-2.1,0-2.1-3.2,0-3.1C8.2,39.1,8.2,42.3,6.1,42.3 M10,20.1l3.7,2.5l1.1-1.6l0.5,0.3l-1.5,2.2l-4.1-2.8L10,20.1z M12.5,16.8L15,19
	c0.4,0.4,1.1,0.6,1.5,0c0.5-0.5,0.3-1.1-0.2-1.5l-2.5-2.2l0.5-0.5c0.9,1.1,4.5,2.9,2.7,4.6c-1.6,2-3.7-1.3-4.9-2.1L12.5,16.8z
	 M17,12.5c0.9-1,2.7,0.3,1.9,1.4l0,0c0.9-0.6,2.3,0.5,1.9,1.5c-0.2,0.7-1.2,1.3-1.7,1.7l-3.2-3.8L17,12.5z M24.3,7.8l3.8,3.6
	l-0.7,0.4l-1.1-1l-1.6,0.8l0.2,1.5l-0.7,0.4l-0.8-5.2L24.3,7.8z M28.3,6.1l3.1,3.1l0,0l-1.2-3.7l0.6-0.2l1.6,4.7l-0.8,0.3l-3.2-3.1
	l0,0l1.3,3.8l-0.6,0.2l-1.6-4.8L28.3,6.1z M34.4,4.6c2.3-0.6,3.1,2.6,2.3,4.2c-0.5,0.8-1.8,0.8-2.7,0.9l-0.8-4.9L34.4,4.6z M39.1,4
	l0.3,4.9h-0.7L38.4,4L39.1,4z M41.1,4H42l1.8,4l0,0L44,4.1h0.7L44.4,9h-0.9l-1.8-4.1l0,0l-0.2,4h-0.7L41.1,4z M46.2,6.8
	c0.4-3.4,4.9-2.5,3.9,0.8C49.6,11,45.2,10.1,46.2,6.8 M55.3,6.8l2.5,1.1l-0.2,0.6l-1.9-0.8L55.1,9l1.8,0.8l-0.2,0.5l-1.8-0.8
	l-0.7,1.6l1.9,0.9l-0.2,0.5l-2.6-1.2L55.3,6.8z M59.1,11.9c-1.9-2.6,0.6-3.8,2.5-1.7l-0.4,0.6c-0.7-1.2-2.8-1.4-1.7,0.4
	c1.9,2.7-1.1,3.8-2.8,1.6l0.4-0.6C57.7,13.6,60.2,14,59.1,11.9 M62.4,12.5c1.2-1.2,3.3-0.1,3.1,1.5c-0.2,1.2-1.4,2.5-2.6,2.8l0,0
	l0.8,0.5l-0.4,0.4C60.9,16,59.7,14.8,62.4,12.5 M68.2,15.6l-2.6,2.2c-0.5,0.4-0.7,1-0.2,1.4c0.4,0.6,1.1,0.4,1.5,0l2.6-2.2l0.5,0.5
	c-1.2,0.8-3.4,4.1-5,2.1c-1.8-1.8,1.8-3.5,2.7-4.6L68.2,15.6z M72.8,21.5l-0.5,0.3l-1.1-1.7l-1.3,0.8l1.1,1.7l-0.5,0.3l-1.1-1.6
	l-1.4,1l1.2,1.7l-0.5,0.3L67.1,22l4.2-2.7L72.8,21.5z M41,2.4c-51.2,1.3-51.2,74.8,0,76.2C92.2,77.3,92.2,3.8,41,2.4"/>
<path class="st0" d="M58.3,22.5c0.4,0.3,0.8,0.6,1.2,0.9v-4.4h-6.1c0.6,0.4,1.3,0.8,1.8,1.2h3.1V22.5z"/>
<path class="st0" d="M29.4,60.3c-0.3,0.2-0.7,0.5-1.1,0.8c0.5-0.7,1-1.5,1.3-2l0.6,0.5C29.9,59.9,29.6,60.2,29.4,60.3 M58.3,24.5V53
	L41.1,67L24.3,53V20.3h28c-0.6-0.5-1.3-0.9-1.9-1.2H23.1v34.5l5.6,4.7c-0.3,0.7-4.6,6.3-1.8,5.5c0.1-0.2,3.3-2.3,4.3-3.4l10,8.3
	l18.5-15.1V25.1C59.1,24.9,58.7,24.7,58.3,24.5"/>
<path class="st0" d="M41.7,13.1c0,0,4.4,0.9,10.8,5.9c0,0,9.6,6.4,9.7,7.7c0,0-5.4-5.5-7.9-0.9c0,0,1.8-4.7-1.1-1.4
	c0,0,1.9-2.7-1-4.6L41.7,13.1z"/>
<path class="st0" d="M51.7,26.2l1.3,1.3c0,0,1.7-2.9,1.4-3.7C54.4,23.8,52.6,26.2,51.7,26.2"/>
<path class="st0" d="M27.6,42.7c0-0.3,0-0.7,0-1c-0.3-0.7-0.5-1.5-0.7-2.2C27.1,40.6,27.3,41.7,27.6,42.7"/>
<path class="st0" d="M57.7,26.3v-1.2c0,0-1.8-1.5-4,2.2c0,0-0.2,0.6,0.2,1c0.6,1.5-3.6-2-3.7-1.9c0,0-0.4-0.8,0.3-0.4
	c0,0,1.2,0.7,2.1-1.8c0,0,1.1-1.6-0.4-3.2h-7.1l0,0H25.4v31.7l16,13.1l16.4-13.3V26.3L57.7,26.3z M43.5,27h1v1h-1V27z M40.4,23h2.8
	v0.6h-2v1.5h2v0.6h-1.9v1.7h2.1V28h-2.8v-5H40.4z M38.4,27h1v1h-1V27z M35.3,23h0.9l1.7,4.9h-0.8l-0.5-1.4h-1.8l-0.5,1.4h-0.7
	L35.3,23z M32.1,27h1v1h-1V27z M28.3,24.5c0.2-1.9,3.4-2.1,3.4-0.1h-0.8c0-0.5-0.3-0.9-0.8-0.9c-1.3,0.1-1.1,1.8-1,2.7
	c0.1,1.3,1.6,1.6,2.5,0.9v0.7C29.2,28.9,27.7,26.7,28.3,24.5z M35.8,57.8c-0.5,0-0.2-0.8-0.7-0.7c-0.3,0.1-0.2,0.4-0.2,0.6
	c0,0.3-0.3,0.4-0.4,0.2c-0.3-0.6-0.6-0.2-0.9-0.1c-0.3,0.1-0.5-0.2-0.2-0.4s0.7-0.3,0.4-0.8c-0.1-0.2,0.2-0.3,0.4-0.2
	c0.2,0.1,0.4,0.3,0.6,0.1c0.2-0.2-0.1-0.3-0.2-0.4c-0.4-0.3,0-0.7,0.4-0.4c0.8,0.4,1,0.9,1,1.7C36,57.6,36,57.8,35.8,57.8z
	 M35.2,52.9c0.3,0.1,0.3-0.2,0.3-0.4c0.3-0.6,0.7-0.2,0.5,0.4c0.1,0.6-0.4,1-1,1.4c-0.3,0.3-0.7-0.1-0.4-0.4
	c0.6-0.3,0.1-0.8-0.3-0.4c-0.1,0.2-0.6,0.1-0.5-0.2c0.5-0.5-0.1-0.6-0.3-0.8c-0.3-0.2-0.1-0.5,0.2-0.3c0.3,0.2,0.6,0.4,0.9-0.1
	c0.2-0.2,0.3,0.1,0.3,0.3C35,52.6,35,52.8,35.2,52.9z M39.5,58.6c-0.2,0.4-0.7-0.2-0.9,0.1c-0.2,0.5,0.6,0.4,0.5,0.9
	c-0.8-0.1-0.5,0.8-0.9,1c-0.1,0.1-0.2-0.2-0.2-0.4c0-0.3,0-0.5-0.4-0.6c-0.5-0.1-0.1-0.4,0.1-0.5c0.2-0.1,0.3-0.2,0.3-0.4
	c-0.2-0.4-0.7,0.3-0.9-0.2c-0.1-0.2,0.2-0.3,0.3-0.4C38,57.6,39.4,57.8,39.5,58.6z M39.8,57.8c-1.1-0.7-2-1.3-3.2,0.1
	c0.4-1.5,0-2.5-1.6-2.9c1.5-0.4,2.1-1.3,1.6-2.7c0.5-0.1,0.7,0.2,0.9,0.4c1,1,1.5-0.2,2.5-0.3c-0.4,1.3,0,2.3,1.7,2.6
	C39.9,55.8,39.7,55.8,39.8,57.8z M37.7,50.9c-0.2-0.1-0.4-0.3-0.2-0.3c0.8-0.1,0.5-0.9,0.8-1.2c0.5,0.3,0,0.9,0.4,1
	c1.3,0.2-0.2,0.4-0.1,1c0.2,0.4,0.7-0.2,0.9,0.2c0.1,0.3-0.2,0.3-0.4,0.4c-0.6,0.5-1.2,0.3-1.8-0.1c-0.1-0.1-0.4-0.1-0.3-0.3
	c0.1-0.2,0.3-0.2,0.4-0.2c0.2,0,0.3,0.2,0.4,0C38.1,51.1,38,50.9,37.7,50.9z M43.1,58c-0.4,0.4-0.7-0.6-1.2,0.1
	c-0.6,0.6-0.2-0.8-0.6-0.8c-0.2,0-0.2,0.2-0.3,0.4c-0.2,0.6-0.7,0.3-0.5-0.3c-0.1-0.7,0.5-1.1,1.1-1.4c0.3-0.3,0.7,0.1,0.3,0.4
	c-0.1,0.1-0.4,0.2-0.2,0.4c0.2,0.2,0.4,0.1,0.6,0c0.2-0.2,0.6,0,0.4,0.2C42.2,57.5,43.2,57.4,43.1,58z M43,52.7
	c-0.3,0.2-0.6,0.3-0.3,0.8c0.1,0.2-0.2,0.3-0.4,0.2c-0.2-0.1-0.4-0.3-0.6-0.1c-0.2,0.3,0.1,0.3,0.2,0.5c0.3,0.3-0.1,0.6-0.4,0.4
	c-0.5-0.4-1.2-0.7-1-1.4c-0.2-0.7,0.4-1,0.6-0.3c0.1,0.1,0,0.4,0.3,0.3c0.6-0.1,0-1.6,0.8-0.6c0.2,0.3,0.4,0,0.6-0.1
	C43.1,52.1,43.5,52.4,43,52.7z M55.2,33.4c-1.7-1.2-1.1,0.5-1.1,0.5c0,0.6-0.9,0.5-0.9,0.5c-1,1.3-1.4-1-2.1,0.5
	c-1.5,3.5-3.2,5.2-4,6.6C47,43.1,46,42.8,46,42.8c-1.5,1.2-2.2-1-2.1-1.3c-1.4,1-4,2.2-4,2.2c0.4,0.5,0.7,1.9,0.7,1.9l9.6,4.3
	c1.6,1,3.3-1.3,3.2-0.1L52,50.5c1.2,1.2,2.3,0.2,2.3,0.2c0.9-1.1,0.9-0.3,0.9-0.3c-0.8,1.7-2.5,1.1-2.5,1.1L27.9,40.8l-0.8-1l9.5,4
	l2-1.9c1.5-0.5,0.5-1.2,0.5-1.2l-6.8-1.6c-1.7,2.5-2.5-0.3-2.5-0.3l-1.5-0.9l1.5-0.1c1.9-2.3,2.5,0.6,2.5,0.6
	c0.9,0.1,7.8,2.1,8.4,1.7v-1.5c-0.5-1.3-0.3-2.6-0.3-2.6l-3.9-3.2c-2.7,0.6-1.2-1.4-1.2-1.4l-0.6-1.1l1.1,0.5c2.2-1,1.3,1.5,1.3,1.5
	l3.2,2.7c0.2,0.3,0.7,0.3,0.7,0.3c1.1-0.8,2.4-1.1,2.4-1.1c0.5-1.7,3.5-2.6,3.5-2.6c2.6-1.3,3.3,1,4.3-0.1c2.1-2.2,3.8-0.5,3.5,0.6
	C55.5,33.2,55.2,33.4,55.2,33.4z"/>
</svg>
