<?xml version="1.0" encoding="utf-8"?>
<!-- Generator: Adobe Illustrator 24.2.0, SVG Export Plug-In . SVG Version: 6.00 Build 0)  -->
<svg version="1.1" id="Layer_1" xmlns="http://www.w3.org/2000/svg" xmlns:xlink="http://www.w3.org/1999/xlink" x="0px" y="0px"
	 viewBox="0 0 132 68" style="enable-background:new 0 0 132 68;" xml:space="preserve">
<style type="text/css">
	.st0{fill:#777777;}
</style>
<path class="st0" d="M70.9,35.4c0.9,0,1.7-0.4,2.5-0.5c0.1,0.8,0,1.7-0.1,2.5c-0.1,3.2-0.3,6.4-0.5,9.6c0,0.2-0.1,0.5,0.1,0.7
	c0.3,0,0.3-0.3,0.3-0.5c0.7-2.4,1.5-4.8,2.2-7.2c0.6-1.9,1.2-3.8,1.8-5.7c0.1-0.3,0.3-0.5,0.6-0.5c2-0.5,4.1-1,6.1-1.5
	c0.5-0.1,0.4,0.2,0.4,0.5c-0.5,2.6-0.9,5.1-1.4,7.7c-1,5.7-2,11.4-3.1,17.1c-0.1,0.3-0.2,0.6-0.2,1c-0.1,0.3-0.2,0.6-0.2,1
	c0,0.5-0.3,0.7-0.8,0.7c-1.2,0.1-2.5,0.2-3.7,0.4c-0.5,0.1-0.7,0-0.5-0.6c0.9-4.7,1.7-9.5,2.6-14.3c0-0.2,0.1-0.4-0.1-0.7
	c-0.2,0.8-0.4,1.4-0.6,2.1c-1.3,4.4-2.6,8.8-3.9,13.2c-0.1,0.4-0.2,0.8-0.7,0.7c-0.5,0-1,0-1.4,0.1c-0.6,0.1-0.9-0.1-0.8-0.8
	c0.1-1.3,0.2-2.5,0.2-3.8c0.1-2.3,0.3-4.7,0.4-7c0-0.5,0-1.1,0.2-1.6c0.1-0.3,0-0.7,0-1c0-0.1-0.1-0.2-0.2-0.3
	c-0.3-0.5-0.3-0.4-0.3-0.3c-0.3,0.5-0.3,1.2-0.4,1.7c-0.3,2.1-0.7,4.1-1.1,6.2c-0.4,2.3-0.8,4.5-1.2,6.8c-1.2,0.2-2.5,0.1-3.7,0.5
	c-0.2,0.1-0.7,0.1-0.6-0.6c0.6-3.1,1.2-6.3,1.7-9.4c0.9-4.8,1.8-9.7,2.7-14.5c0.1-0.7,0.4-1,1.1-1.1C69.1,35.9,70,35.6,70.9,35.4"/>
<path class="st0" d="M107.8,33c1-0.7,1.9-1.4,3-1.8c0.7-0.3,1.5-0.5,2.3-0.5c2.3-0.1,3.5,1.2,3.2,3.5c-0.3,2.4-0.7,4.7-1.1,7.1
	c-0.9,5-1.7,9.9-2.6,14.8c-0.1,0.6-0.3,0.8-0.9,0.8c-1.8,0.1-3.6,0.3-5.4,0.5c-0.5,0.1-0.6-0.1-0.5-0.6c0.9-5.1,1.9-10.3,2.8-15.4
	c0.2-1.3,0.5-2.5,0.7-3.8c0.1-0.4,0.3-1-0.3-1.2c-0.4-0.2-1.2,0.1-1.5,0.7c-0.4,0.7-0.5,1.6-0.6,2.4c-1,5.4-1.9,10.9-2.9,16.3
	c-0.1,0.7,0,1.5-0.4,1.9c-0.4,0.4-1.3,0.2-1.9,0.3c-1.2,0.2-2.4,0.2-3.5,0.4c-0.5,0.1-0.7,0-0.6-0.6c1.1-5.9,2.1-11.8,3.2-17.7
	c0.4-2.1,0.7-4.1,1.1-6.2c0.1-0.4,0.4-0.4,0.6-0.5c1.7-0.4,3.5-0.7,5.2-1.1c0.5-0.1,0.7-0.1,0.5,0.5C107.8,32.6,107.8,32.7,107.8,33
	"/>
<path class="st0" d="M90.4,48.8c-1,0.5-1.9,0.9-2.1,2c-0.2,1.2-0.5,2.4-0.7,3.6c-0.1,0.6,0.3,0.9,0.8,0.8c0.6-0.1,0.9-0.5,1-1.1
	C89.8,52.4,90.1,50.6,90.4,48.8 M88.7,58.2c-0.4,0-0.6,0.2-0.8,0.4c-1,0.6-2.1,1-3.3,1c-1.7,0-2.6-0.8-2.5-2.6
	c0.1-1.1,0.3-2.2,0.5-3.3c0.1-0.8,0.3-1.6,0.5-2.5c0.3-1.6,1.2-2.8,2.5-3.7c1.7-1.1,3.5-2.3,5.2-3.5c0.4-0.3,0.6-0.6,0.7-1.1
	c0.1-0.8,0.3-1.7,0.4-2.5c0.1-0.4,0.3-0.8-0.2-1.1c-0.4-0.2-1.2,0.2-1.4,0.7c-0.1,0.3-0.2,0.7-0.3,1.1c-0.1,0.7-0.2,1.3-0.3,2
	c0,0.4-0.2,0.6-0.6,0.6c-1.5,0.2-2.9,0.5-4.4,0.8c-0.2,0-0.5,0.1-0.4-0.3c0.3-1.9,0.6-3.9,1.5-5.7c0.5-1,1.3-1.6,2.2-2
	c2.5-1,5-1.6,7.7-1.7c1.6,0,2.3,0.7,2.3,2.4c-0.1,1.6-0.4,3.1-0.7,4.7c-0.9,5.4-1.9,10.8-2.8,16.1c-0.1,0.5-0.2,0.7-0.8,0.7
	c-1.4,0.1-2.7,0.2-4.1,0.4C88.9,59,88.4,59.1,88.7,58.2"/>
<path class="st0" d="M56.4,57.6c0,0.4-0.1,0.7,0.3,0.8c0.3,0.1,0.6,0,0.7-0.3c0.2-0.3,0.3-0.7,0.4-1c0.3-1.7,0.6-3.4,0.9-5.1
	c0.3-1.8,0.6-3.5,0.9-5.3c0.1-0.3,0.2-0.6-0.2-0.7c-0.4-0.1-0.6,0.1-0.8,0.4c-0.2,0.3-0.3,0.6-0.3,1c-0.3,1.8-0.6,3.5-1,5.3
	C57.1,54.3,56.7,56,56.4,57.6 M59.2,43.2c0.5-0.3,0.9-0.7,1.4-1c0.4-0.2,0.9-0.4,1.4-0.5c1.1-0.1,1.8,0.4,2,1.6
	c0.2,1.2-0.2,2.4-0.4,3.6c-0.6,3.6-1.3,7.1-2,10.7c-0.2,1.1-0.5,2.3-1.3,3.2c-1.1,1.4-2.6,1.7-4.1,0.7c-0.5-0.3-0.4,0.1-0.4,0.3
	c-0.3,1.4-0.5,2.7-0.7,4.1c-0.1,0.6-0.3,0.9-1,0.9s-1.5,0-2.2,0.1c-0.5,0.1-0.6-0.1-0.5-0.6c0.7-3.8,1.4-7.7,2.1-11.5
	c0.7-3.7,1.4-7.4,2-11.1c0.1-0.5,0.3-0.7,0.8-0.8c0.8-0.1,1.6-0.3,2.4-0.5C59,42.5,59.3,42.5,59.2,43.2"/>
<path class="st0" d="M36.2,64.2h-0.3c-1.8,0-2.4-0.9-1.9-2.8c0.5-2,0.8-4,1.1-6c0.5-2.9,1.1-5.8,1.6-8.7c0.1-0.4,0.2-0.8,0.3-1.2
	c0.4-1.2,1.2-2.1,2.4-2.5c1.3-0.4,2.5-0.7,3.9-0.9c1.2-0.1,1.6,0.3,1.5,1.5c0,1.8-0.5,3.5-0.8,5.2c0,0.3-0.2,0.3-0.4,0.4
	c-0.9,0.2-1.8,0.3-2.7,0.5c-0.4,0.1-0.5-0.1-0.4-0.4c0.2-0.8,0.3-1.7,0.5-2.5c0-0.2,0.1-0.6-0.2-0.7c-0.3-0.1-0.6,0.1-0.7,0.4
	c-0.2,0.5-0.3,1-0.4,1.5c-0.7,3.8-1.4,7.6-2.1,11.3c0,0.3-0.1,0.6-0.1,0.8c0,0.2,0,0.5,0.2,0.5c0.3,0.1,0.4-0.1,0.6-0.3
	c0.2-0.3,0.2-0.6,0.3-1c0.2-1.3,0.5-2.7,0.7-4c0.1-0.3,0.1-0.5,0.5-0.5c0.9-0.1,1.8-0.3,2.6-0.4c0.4-0.1,0.5,0,0.5,0.5
	c-0.4,2.1-0.8,4.3-1.3,6.4c-0.4,1.6-1.3,2.6-3,2.8c-0.8,0.1-1.6,0.2-2.4,0.3C36.2,64.2,36.2,64.2,36.2,64.2"/>
<path class="st0" d="M48.4,55.1c-0.7,0.3-1.2,0.6-1.3,1.3c-0.2,1-0.4,2-0.5,2.9c0,0.3-0.1,0.6,0.3,0.7c0.4,0.1,0.6-0.2,0.7-0.5
	C47.8,58.1,48.1,56.6,48.4,55.1 M46.9,62.4c-0.5,0.3-1,0.5-1.5,0.8c-0.4,0.2-0.9,0.2-1.3,0.1c-0.5-0.1-0.9-0.4-1-1
	c0-0.4-0.1-0.9,0-1.3c0.2-1.5,0.5-2.9,0.8-4.4c0.2-1.1,0.8-2,1.7-2.6c1.1-0.8,2.1-1.7,3.1-2.5c0.3-0.2,0.5-0.5,0.6-0.9
	c0.1-0.7,0.3-1.4,0.4-2.1c0.1-0.3,0.2-0.7-0.2-0.7c-0.4-0.1-0.7,0.2-0.7,0.6c-0.2,0.7-0.3,1.4-0.4,2.1c-0.1,0.5-0.3,0.7-0.8,0.8
	c-0.7,0.1-1.4,0.2-2.2,0.4c-0.3,0.1-0.5,0.1-0.4-0.4c0.3-1.4,0.5-2.8,1-4.2c0.3-0.9,0.9-1.5,1.7-1.8c1.3-0.6,2.7-0.9,4.1-0.9
	c1.2,0,1.6,0.4,1.6,1.6c0,1-0.2,1.9-0.4,2.9c-0.8,4.4-1.6,8.9-2.4,13.3c-0.1,0.6-0.3,0.9-0.9,0.9c-0.7,0-1.4,0.1-2,0.2
	C47.1,63,46.8,62.9,46.9,62.4"/>
<path class="st0" d="M123.4,50.5c0-0.1,0.1-0.4-0.2-0.4c-0.2,0-0.2,0.2-0.2,0.3c-0.1,0.4-0.1,0.8-0.2,1.2c0,0.1,0,0.3,0.1,0.3
	c0.1,0,0.2-0.1,0.2-0.2C123.3,51.3,123.4,50.8,123.4,50.5 M124.9,50c-0.2,0.8,0,1.8-0.7,2.5c-0.1,0.1-0.1,0.2,0,0.3
	c0.6,1.1,0,2.1-0.1,3.2c-0.1,0.5-0.7,0.3-1.1,0.3c-0.4,0-0.2-0.4-0.2-0.6c0.1-0.6,0.2-1.2,0.2-1.8c0-0.1,0.1-0.3-0.1-0.4
	c-0.2-0.1-0.2,0.2-0.3,0.3c-0.1,0.7-0.2,1.4-0.3,2.1c-0.1,0.4-1,0.7-1.3,0.5c-0.2-0.1-0.1-0.3-0.1-0.4c0.3-2.1,0.6-4.3,0.9-6.4
	c0-0.3,0.2-0.4,0.5-0.5c0.6,0,1.2-0.1,1.8-0.1C124.7,48.9,124.9,49.1,124.9,50"/>
<path class="st0" d="M117.1,53.6C117.1,53.6,117.1,53.5,117.1,53.6c-0.5-0.4-1.1-0.5-1.2-1.1c-0.2-0.8,0.1-1.7,0.2-2.5
	c0-0.2,0.3-0.5,0.6-0.6c0.6-0.2,1.3-0.2,1.9-0.2c0.4,0,0.7,0.3,0.6,0.7c0,0.4-0.1,0.8-0.1,1.2c0,0.4-0.2,0.5-0.5,0.6
	c-0.9,0.1-0.9,0.1-0.8-0.8c0-0.2,0.1-0.4-0.1-0.5c-0.2,0-0.2,0.2-0.3,0.4c-0.2,0.7,0,1.2,0.7,1.4c0.7,0.2,0.8,0.7,0.7,1.4
	c-0.1,0.6-0.2,1.2-0.2,1.7c-0.1,0.7-0.5,1.1-1.1,1.2c-2.1,0.3-2.2,0.1-1.9-1.9C115.8,53.6,115.8,53.6,117.1,53.6
	c0,0.5-0.1,0.9-0.1,1.4c0,0.1,0,0.2,0.1,0.3c0.1,0,0.1,0,0.2-0.1C117.4,55,117.4,53.9,117.1,53.6"/>
<path class="st0" d="M105.5,61.6c-0.3,0-0.6,0-0.5,0.4c0,0.3-0.1,0.7,0.4,0.6c0.3,0,0.7-0.1,0.7-0.5
	C106.1,61.7,105.8,61.6,105.5,61.6 M103.5,61.1c-0.1-0.4,0.1-0.6,0.6-0.6c0.6,0,1.2-0.1,1.8-0.1s1.1,0.2,1.4,0.8
	c0.3,0.6,0.4,1.3,0,1.8c-0.3,0.4-0.3,0.8-0.1,1.2c0.1,0.2,0.2,0.4,0.3,0.6c0.4,1,0.3,1.2-0.8,1.1c-0.3,0-0.3-0.2-0.4-0.4
	c-0.2-0.4-0.3-0.8-0.5-1.2c-0.1-0.1-0.1-0.3-0.3-0.3c-0.2,0-0.2,0.3-0.1,0.4c0,0.2,0,0.5,0.1,0.7c0.2,0.7,0,1-0.7,1
	c-0.4,0-0.6,0-0.6-0.5C103.8,64.1,103.7,62.7,103.5,61.1"/>
<path class="st0" d="M125,60.2c0.1,0.3-0.1,0.7,0.4,0.6c0.3,0,0.7-0.1,0.7-0.5s-0.2-0.6-0.6-0.6C125.3,59.8,125,59.7,125,60.2
	 M125.3,63.1c-0.1,0.3,0.5,0.9-0.4,1c-0.9,0.1-0.9,0.1-0.9-0.7c-0.1-1.3-0.2-2.7-0.4-4c0-0.4,0.1-0.6,0.5-0.6c0.6,0,1.2-0.1,1.8-0.1
	s1.1,0.2,1.4,0.8s0.4,1.3-0.1,1.8c-0.3,0.4-0.2,0.7-0.1,1c0.2,0.4,0.3,0.8,0.5,1.2c0.2,0.3,0,0.4-0.3,0.5c-1,0.2-1,0.1-1.4-0.8
	c0-0.1-0.1-0.2-0.1-0.3c-0.2-0.3-0.1-0.7-0.5-0.8C125.2,62,125.2,62.1,125.3,63.1"/>
<path class="st0" d="M94.6,63.9C94.6,63.9,94.6,63.9,94.6,63.9C94.6,64.1,94.7,64.1,94.6,63.9L94.6,63.9
	C94.6,63.9,94.6,63.9,94.6,63.9 M93,63.8c0.1,0.9,0.1,1.7,0.2,2.5c0.1,0.4,0,0.6-0.5,0.7s-0.6-0.2-0.6-0.5c-0.1-1.4-0.2-2.7-0.3-4.1
	c0-0.3-0.2-0.7,0.3-0.7c0.4,0,0.9-0.3,1.2,0.3c0.3,0.7,0.7,1.3,1.1,1.9c0.1,0,0.1,0,0.2,0c0-0.6-0.1-1.1-0.1-1.7
	c0-0.4-0.1-0.7,0.5-0.7c0.5,0,0.6,0.2,0.6,0.6c0.1,1.4,0.2,2.7,0.4,4.1c0,0.2,0.2,0.6-0.2,0.7c-0.4,0-0.8,0.2-1-0.3
	c-0.4-0.8-0.9-1.6-1.4-2.3C93.2,64,93.2,64,93,63.8"/>
<path class="st0" d="M98,66.6c-0.6,0.2-1.1-0.3-1.5-0.7c-0.2-0.1-0.3-0.6-0.1-0.8c0.3-0.2,0.7-0.6,1.2-0.2c0.2,0.2,0.5,0.4,0.8,0.3
	c0.2,0,0.4-0.1,0.4-0.3s-0.2-0.3-0.3-0.3c-0.3-0.1-0.6-0.1-0.9-0.2c-0.9-0.3-1.2-0.8-1.2-1.7c0-0.8,0.6-1.4,1.4-1.6
	c0.8-0.2,1.7,0.2,2,0.8c0.1,0.2,0.1,0.3,0,0.4c-0.3,0.2-0.6,0.5-1,0.3c-0.1-0.1-0.2-0.2-0.4-0.3c-0.2-0.1-0.5-0.1-0.6,0.2
	s0.2,0.4,0.4,0.4c0.2,0.1,0.4,0.1,0.5,0.1c1.2,0.3,1.7,0.9,1.6,2C100,65.9,99.2,66.6,98,66.6"/>
<path class="st0" d="M88.8,64.2c0,0.5,0.1,0.9,0.2,1.4c0.1,0.3,0.3,0.5,0.6,0.5c0.3,0,0.4-0.3,0.5-0.6c0.1-0.4,0.1-0.9,0-1.3
	c-0.1-0.5-0.1-1.1-0.7-1.1C88.8,63.1,88.8,63.8,88.8,64.2 M91.5,65c0,0.1,0,0.3,0,0.5c-0.2,1.1-0.9,1.8-1.8,1.9
	c-0.9,0.1-1.8-0.7-2.1-1.7c-0.2-0.8-0.2-1.6,0-2.4c0.2-0.8,0.8-1.3,1.6-1.5c0.8-0.1,1.5,0.2,1.9,0.9C91.4,63.3,91.6,64.1,91.5,65"/>
<path class="st0" d="M122,62.1c0-0.5,0-0.9-0.2-1.4c-0.1-0.2-0.2-0.5-0.6-0.5c-0.4,0-0.5,0.3-0.5,0.6c-0.1,0.6,0,1.2,0.1,1.7
	c0.1,0.3,0.2,0.7,0.7,0.7c0.4,0,0.5-0.4,0.5-0.8C122,62.3,122,62.2,122,62.1 M119.2,61.6c0-0.4,0.1-0.9,0.2-1.3
	c0.3-0.8,0.8-1.2,1.6-1.3c0.8-0.1,1.4,0.2,1.8,0.9c0.7,1.1,0.8,2.3,0.3,3.5c-0.3,0.7-0.9,1.1-1.6,1.1c-0.8,0-1.4-0.3-1.8-1
	C119.3,62.9,119.2,62.2,119.2,61.6"/>
<path class="st0" d="M111.5,63c0,0.3,0,0.5,0,0.7c0,1.2-0.5,1.8-1.6,1.8c-1.2,0.1-1.8-0.4-1.9-1.6c-0.1-1.1-0.2-2.2-0.3-3.3
	c-0.1-0.5,0.2-0.5,0.6-0.5c0.3,0,0.8-0.2,0.8,0.4c0.1,1,0.2,1.9,0.3,2.9c0,0.4,0.2,0.8,0.6,0.7c0.5,0,0.5-0.4,0.5-0.8
	c-0.1-0.9-0.2-1.9-0.3-2.8c0-0.4,0.2-0.5,0.5-0.6c0.4,0,0.5,0.1,0.6,0.5C111.4,61.3,111.5,62.2,111.5,63"/>
<path class="st0" d="M129.7,60.2L129.7,60.2c-0.1,0.3-0.2,0.6-0.2,0.9c0,0.2,0.1,0.3,0.3,0.3c0.3,0,0.3-0.1,0.2-0.4
	C129.9,60.7,129.8,60.4,129.7,60.2 M131.3,63.5c-0.5,0.2-0.6-0.1-0.7-0.4c-0.1-0.4-0.2-0.6-0.7-0.5s-0.7,0.2-0.7,0.7
	c0,0.4-0.6,0.7-1,0.5c-0.2-0.1-0.1-0.3-0.1-0.4c0.3-1.6,0.5-3.1,0.8-4.7c0.1-0.6,0.6-0.4,0.9-0.5c0.3-0.1,0.6-0.1,0.7,0.3
	c0.5,1.5,1,2.9,1.5,4.4C132.3,63.9,131.4,63.2,131.3,63.5"/>
<path class="st0" d="M112,62.2c0-0.7,0.1-1.2,0.4-1.7c0.5-0.7,1-1,1.9-0.8c0.7,0.1,1.3,0.7,1.5,1.5c0.1,0.2,0.1,0.5-0.2,0.5
	s-0.7,0.4-1-0.1c0-0.1-0.1-0.2-0.1-0.3c-0.1-0.2-0.2-0.4-0.5-0.4c-0.2,0-0.3,0.2-0.4,0.4c-0.2,0.8-0.1,1.5,0.2,2.3
	c0.1,0.2,0.2,0.4,0.5,0.4s0.4-0.2,0.5-0.5c0.2-0.4,0.8-0.7,1.2-0.5c0.1,0.1,0.1,0.2,0.1,0.3c0,0.7-0.5,1.5-1.2,1.8
	c-0.7,0.3-1.5,0.1-2-0.6C112.1,63.7,112,63,112,62.2"/>
<path class="st0" d="M84.6,64.8c0,0.4,0.1,0.8,0.2,1.2c0.1,0.2,0.2,0.5,0.5,0.5s0.4-0.2,0.5-0.5c0.2-0.4,0.8-0.6,1.1-0.5
	c0.2,0.1,0.2,0.3,0.2,0.5c-0.1,0.8-0.7,1.6-1.5,1.7c-0.8,0.2-1.7-0.3-2-1.2c-0.4-1.1-0.5-2.2-0.1-3.3c0.3-0.7,1.1-1.2,1.9-1
	c0.8,0.1,1.5,0.9,1.5,1.7c0,0.2,0,0.4-0.2,0.4c-0.3,0-0.7,0.3-1,0c-0.2-0.3-0.2-0.8-0.7-0.7C84.7,63.5,84.6,64.1,84.6,64.8"/>
<path class="st0" d="M126.9,55.8c-0.5,0.1-0.4-0.2-0.4-0.5c0.2-1.7,0.5-3.3,0.7-5c0.1-0.5,0.2-0.9,0.2-1.4c0-0.3,0.1-0.4,0.4-0.4
	c1-0.2,1-0.2,0.9,0.9c-0.2,1.5-0.4,3.1-0.6,4.6c0,0.2-0.2,0.5,0.3,0.5c0.2,0,0.5,0,0.4,0.3c-0.1,0.3,0.1,0.8-0.5,0.9
	C127.8,55.7,127.3,55.8,126.9,55.8"/>
<path class="st0" d="M118.1,59.3c0.2,0.1,0.7-0.3,0.7,0.3c0,0.4,0.4,1-0.5,1.1c-0.3,0-0.3,0.3-0.3,0.5c0.1,1,0.1,2,0.3,2.9
	c0.1,0.7-0.3,0.7-0.7,0.7c-0.5,0.1-0.6-0.2-0.6-0.6c-0.1-0.9-0.2-1.9-0.2-2.8c0-0.4-0.1-0.6-0.5-0.6c-0.7,0.1-0.4-0.6-0.5-0.9
	c-0.1-0.4,0.2-0.4,0.5-0.4C116.8,59.4,117.5,59.3,118.1,59.3"/>
<path class="st0" d="M101.9,66.1c-0.4,0.2-0.5-0.1-0.5-0.5c-0.1-1-0.2-1.9-0.2-2.9c0-0.4-0.1-0.6-0.6-0.5c-0.7,0.1-0.3-0.5-0.5-0.8
	c-0.1-0.3,0-0.5,0.4-0.5c0.8,0,1.5-0.1,2.3-0.2c0.5,0,0.5,0.3,0.5,0.6c0,0.3,0.3,0.7-0.3,0.7c-0.4,0-0.5,0.2-0.5,0.6
	c0.1,0.9,0.2,1.9,0.2,2.8C102.7,66.1,102.7,66.1,101.9,66.1"/>
<path class="st0" d="M129.7,55.6c-0.2,0-0.4,0-0.4-0.3c0-0.6,0.4-1.3,0.8-1.2c0.2,0,0.6,0,0.6,0.4C130.6,55.3,130.4,55.6,129.7,55.6
	"/>
<path class="st0" d="M119.9,55.1c0.2,0,0.4-0.2,0.5,0.3c0.1,0.8-0.2,1.1-0.9,1.1c-0.2,0-0.4,0.1-0.4-0.3
	C119,55.3,119.1,55.1,119.9,55.1"/>
<path class="st0" d="M125,55.9c-0.1,0-0.4,0.1-0.4-0.3c0-0.8,0.2-1,0.8-1.1c0.2,0,0.5-0.2,0.5,0.3C126,55.6,125.8,55.9,125,55.9"/>
<path class="st0" d="M94.6,63.9L94.6,63.9C94.6,63.9,94.6,63.9,94.6,63.9C94.6,64.1,94.5,64.1,94.6,63.9
	C94.6,63.9,94.6,63.9,94.6,63.9"/>
<path class="st0" d="M80.8,57.5L80.8,57.5c-0.2,0-0.2,0.1-0.3,0.1c0,0.1,0,0.2-0.1,0.3c0,0.1-0.1,0.3-0.1,0.3v0.1v0.1
	c0,0.1,0,0.2-0.1,0.3c0,0.1,0,0.2-0.1,0.3c0.4,1.1,0.5,2.3-0.2,3.4c-0.9,1.3-2.2,1.6-3.7,1.4c-0.9-0.1-1.7-0.2-2.5-0.7
	c-0.7-0.4-1.2-1.1-1.8-1.7c-0.1,0-0.3,0-0.4,0s-0.3,0-0.4,0c-0.3,0-0.6,0-0.9,0c-0.2,0-0.9,0.1-1.3-0.4c-0.3-0.3-0.4-0.8-0.4-1.3
	c0.1-1.2,0.2-2.4,0.2-3.6c0,0.2-0.1,0.5-0.1,0.7c-0.3,1.4-0.5,2.8-0.7,4.3l-0.1,0.6l-0.3,0.1c0,0.1,0.1,0.1,0.1,0.2
	c1.1,2.3,2.5,4.3,5,5.1c3.4,1.1,6.5,0.7,9.1-2c1.2-1.2,1.6-2.8,1.3-4.5C82.5,59.3,81.4,58.7,80.8,57.5"/>
<path class="st0" d="M47.9,22.5c-1.7,1.5-3.5,2.9-5.1,4.5c-2,2-3.9,4.1-5.7,6.2c-0.9,1.1-2,2-2.9,3.1c-1.6,1.8-3.2,3.5-4.9,5.3
	c-1.1,1.2-2.1,2.3-3.2,3.4c-0.1,0.1-0.2,0.2-0.3,0.2c-0.2,0-0.3-0.1-0.3-0.3c-0.5-1.3-0.9-2.6-1.4-3.8c-0.2-0.5,0.2-0.6,0.4-0.8
	c0.8-0.7,1.7-1.3,2.5-1.9c2-1.6,4-3.2,6.1-4.7c1.5-1.1,2.9-2.4,4.4-3.5c2.7-2,5.3-4.1,8-6.2c0.7-0.6,1.4-1.1,2.1-1.7
	c0.2-0.1,0.4-0.3,0.5-0.1C48.3,22.2,48.1,22.3,47.9,22.5 M22.2,47.1c-1,0-2,0-2.9,0l0,0c-0.9,0-1.9,0-2.8,0c-0.4,0-0.6-0.1-0.6-0.6
	c0-1.7,0-3.4,0-5.2c0-0.4,0.2-0.5,0.6-0.5c1.1,0,2.2,0,3.4,0c1.2,0,1.2,0,1.5,1.1c0.4,1.5,0.9,3,1.4,4.4
	C22.8,46.8,22.8,47.1,22.2,47.1 M72.6,6.2c0-0.5,0.2-0.6,0.6-0.5c0.3,0.1,0.5,0,0.8-0.1c0.7-0.3,0.9-0.1,0.9,0.6c0,2.5,0,4.9,0,7.4
	s0,4.9,0,7.3c0,0.5-0.1,0.7-0.6,0.5c-0.3-0.1-0.7-0.1-1-0.1c-0.6,0-0.7-0.3-0.7-0.8c0.1-3.8,0.1-7.6,0-11.4
	C72.5,8.2,72.6,7.2,72.6,6.2 M70.7,7.4c0.1-0.2,0.3-0.3,0.5-0.3c0.3,0.1,0.2,0.4,0.2,0.5c0,4.6,0,9.1,0,13.7c0,0.5-0.1,0.8-0.4,1.1
	c-1,1.3-1.1,2.8,0,4.1c0.6,0.7,0.8,1.4,0.7,2.2c-0.1,1-0.3,2.1-0.4,3.1c-0.1,0.9-0.3,1.8-0.4,2.7c0.4,0,0.8-0.1,1.2-0.3
	c0.4-0.1,0.8-0.2,1.2-0.3h0.2c0.1-0.8,0.3-1.6,0.3-2.4c0-0.4,0.1-0.7,0.1-1.1c0.1-0.9,0.5-1.6,0.4-2.5c0-0.5,0.1-0.8,0.6-1
	c1.3-0.6,2.1-2.4,1.4-3.9c-0.2-0.3-0.2-0.7-0.2-1.1c0-5.3-0.1-10.6,0.1-16c0-0.9,0-1.8,0-2.7c0-0.5,0-1-0.3-1.5
	c-0.4-1.1-1.4-1.7-2.8-1.6c-1.1,0.1-2,0.8-2.3,1.9c-0.3,1.2-1.1,1.9-2.1,2.4c-0.1,0.1-0.1,0.1-0.1,0.2c0,0.1-0.1,0.2-0.2,0.3
	c-0.9,0.3-1.4,1.2-2.3,1.7c-0.9,0.5-1.6,1.3-2.4,1.9c-0.8,0.5-1.5,1.2-2.3,1.7c-0.6,0.4-1.2,1-1.8,1.5c-2.9,2.3-5.9,4.4-8.8,6.7
	c-2,1.6-4.1,3.1-6.1,4.6c-1.9,1.4-3.7,2.8-5.6,4.2c-1.4,1.1-2.8,2.1-4.2,3.2c-1.3,1-2.7,2-4,3c-1.5,1.1-2.9,2.3-4.4,3.4
	c-0.9,0.7-1.8,1.4-2.7,2c-0.2,0.2-0.5,0.3-0.6,0c-0.2-0.7-0.7-0.6-1.3-0.6c-2.6,0-5.2,0-7.9,0c-1,0-1.1,0-1.2,1.1c0,0.2,0,0.5,0,0.7
	c0,1.2,0,2.4,0,3.6c0,0.3,0,0.5-0.4,0.5c-3,0-6,0-9-0.1c-0.4,0-0.5,0.1-0.6,0.5c-0.4,1.6-0.9,3.2-1.3,4.8c-0.4,1.4-0.8,2.9-1.1,4.3
	c-0.2,0.9-0.1,1.1,0.8,1.1c2.6,0,5.2,0,7.8,0c1,0,1,0,1.1,1.1c0,1.3,0,1.3-1.2,1.3c-1.9,0-3.9,0-5.8,0c-1.5,0-2.8,0.9-3.1,2.2
	c-0.4,1.7,0.2,3.1,1.6,3.9c0.5,0.3,1.1,0.5,1.8,0.5c7.8,0,15.7,0,23.4,0c1.5,0,3-1.1,3.2-2.5c0.5-2.2-0.8-4-3.1-4.1
	c-1.8-0.1-3.6,0-5.3,0c-1,0-1,0-0.9-1c0-0.2,0-0.4,0-0.6c-0.2-0.6,0.1-0.8,0.7-0.8c2.1,0,4.2,0,6.2,0c0.6,0,0.7-0.2,0.6-0.8
	c-0.3-1.1-0.8-2-1.9-2.6c-0.1-0.1-0.4-0.1-0.3-0.3c0.2-0.4,0.1-0.9,0.6-1.2c0.5-0.3,0.9-0.7,1.3-1.1c0.9-0.9,2.1-1.4,2.9-2.3
	c0.2-0.2,0.5-0.5,0.7-0.7c1.5-1.2,3.1-2.3,4.6-3.6c0.9-0.8,1.9-1.4,2.8-2.3c1.2-1.2,2.6-2.2,3.9-3.3c1.7-1.4,3.6-2.8,5.2-4.3
	c2-2,3.9-4.1,5.8-6.2c1.3-1.4,2.7-2.8,4-4.3c0.8-0.9,1.7-1.7,2.5-2.6c1.8-2.1,3.7-4.1,5.6-6.2C67.4,10.9,69.2,9.3,70.7,7.4"/>
</svg>
