<?xml version="1.0" encoding="utf-8"?>
<!-- Generator: Adobe Illustrator 24.2.0, SVG Export Plug-In . SVG Version: 6.00 Build 0)  -->
<svg version="1.1" id="Layer_1" xmlns="http://www.w3.org/2000/svg" xmlns:xlink="http://www.w3.org/1999/xlink" x="0px" y="0px"
	 viewBox="0 0 183 43" style="enable-background:new 0 0 183 43;" xml:space="preserve">
<style type="text/css">
	.st0{fill:#777777;}
</style>
<path class="st0" d="M33.7,11.9c-0.8,0.1-1.7-0.1-2.3,0.2c-3.3,2-5.3,5.1-6.9,8.5c-0.5,1,0,1.6,1.6,1.6c0.6-0.4,1.8-0.7,2.5-1.6
	c1.8-2.1,3.4-4.3,4.9-6.6C33.8,13.7,33.6,12.7,33.7,11.9"/>
<path class="st0" d="M48.9,24.9c3.8-5.4,7.5-10.8,11.3-16.2c0.6-0.8,1.2-1.3,2.2-1.2c3,0.1,5.9,0,9.2,0c-1,1.4-1.7,2.5-2.5,3.5
	c-0.3,0.3-0.8,0.5-1.2,0.5c-1.1,0.1-2.3,0-3.4,0c-2.7,0-2.8,0.1-4.1,2.9h5.8c-1,1.4-1.7,2.5-2.5,3.6c-0.2,0.3-0.7,0.4-1.1,0.4
	c-0.7,0.1-1.5,0-2.3,0c-3.5,0-3.5,0-5.3,3.6h6.2c-0.9,3.1-2.6,4.5-5.4,4.5h-7.9C48.4,25.8,48.6,25.3,48.9,24.9 M42.3,26.3
	c2.5-3.6,5-7.1,7.3-10.5c-0.1-0.1-0.1-0.1-0.2-0.2c-0.3,0.3-0.6,0.5-0.8,0.8c-2.5,2.9-5,5.7-7.4,8.5c-1.6,1.8-1.6,1.8-4.3,1.6
	c2-3.8,3.9-7.3,5.8-10.9c-0.1-0.1-0.2-0.1-0.3-0.2c-0.3,0.4-0.6,0.9-1,1.3c-1.9,2.7-3.7,5.4-5.6,7.9c-1.6,2.3-1.6,2.3-4.5,1.9
	c0.3-0.5,0.5-0.9,0.8-1.3c3.7-5.4,7.4-10.6,11.1-16c0.9-1.2,1.8-1.8,3.2-1.6c1,0.1,1.9,0,3.2,0c-1.8,3.5-3.6,6.9-5.3,10.1
	c0,0.1,0.1,0.1,0.1,0.2c0.3-0.3,0.6-0.5,0.8-0.8c2.3-2.7,4.7-5.3,6.9-7.9c1-1.2,2-1.8,3.5-1.6c0.9,0.1,1.9,0,3.1,0
	c-0.4,0.7-0.7,1.2-1,1.6c-3.6,5.2-7.3,10.3-10.8,15.6C45.7,26.5,44.3,26.8,42.3,26.3 M28.1,24.8c-1.7,1.1-3.7,1.6-4.6,2
	c-3.8,0-5-1.4-4-4.1c2.7-6.7,6.9-12,13.4-14.9c1.2-0.5,2.6-0.6,3.9-0.5c1.7,0.1,2.4,1.1,2.2,2.9c-0.1,0.9-0.3,1.8-0.7,2.6
	C35.8,17.6,32.7,21.8,28.1,24.8 M22.4,13.2c-0.8,1.2-1.4,1.9-2.1,2.9c-0.8-0.5-1.5-1-2.5-1.6C19.5,14,20.7,13.7,22.4,13.2 M8.3,26.7
	c-4.8,0.8-6.6-1.4-4.6-6c3.1-7,7.5-12.6,14-16.6c2.2-1.3,4.6-2,7.1-1.7c2,0.2,2.8,1.3,2.5,3.5c-0.4,2.4-1.1,4.5-3.9,4.7
	c-0.8,0.1-1.6,0.4-2.7,0.7c0.2-0.7,0.4-1,0.4-1.4c0.3-1.5-0.3-2.3-1.7-1.7c-1.2,0.5-2.6,1.1-3.4,2.1c-2.2,2.7-4.2,5.6-6.2,8.4
	c-0.4,0.6-0.2,1.5-0.3,2.3c0.8,0,1.8,0.4,2.4,0c1.8-1.1,3.4-2.6,5.2-4c0.7,0.5,1.6,1.1,2.8,1.8C16.6,22.3,13.3,25.9,8.3,26.7
	 M75.4,7.4c1.9,0.1,3.8,0,5.7,0.1c2.5,0.1,3,1.1,1.9,3.5c-1.4,3.1-4.1,5.7-7.3,7.1c0.3,2.9-1.3,5.3-2.1,7.9c-0.1,0.3-0.7,0.5-1,0.5
	c-1.1,0.1-2.2,0-3.6,0c0.7-2.1,1.4-4,2-6c0.2-0.5,0-1.1,0-1.7c-0.4,0.3-1,0.5-1.3,0.9c-1.1,1.5-2.3,2.9-3.1,4.5
	c-1.2,2.5-3.2,2.4-5.4,2.1c0.3-0.5,0.5-0.9,0.7-1.2c3.9-5.5,7.7-11,11.5-16.5C73.8,7.8,74.4,7.4,75.4,7.4 M91.1,7.5
	c0.4-0.2,0.8-0.3,1.3-0.3c1.4-0.1,3-0.5,3.8,0.9c0.9,1.5,0,3-0.6,4.5c-0.1,0.3-0.6,0.6-1,0.7c-1,0.3-2.1,0.6-3.1,0.8
	c-0.1-0.9-0.2-1.6-0.2-2.3c-0.8,0.1-1.8,0-2.4,0.5c-3.1,2-5.1,5.1-6.7,8.4c-0.6,1.2,0.1,1.9,1.3,1.5c1-0.3,1.9-1,2.7-1.6
	c0.6-0.5,1.1-1.2,1.8-2c0.9,0.6,1.6,1.1,2.6,1.7c-2.4,2.7-4.8,5.2-8,6.2c-1,0.3-2.1,0.4-3.2,0.3c-1.9-0.2-2.5-1.1-2.2-3.1
	c0-0.1,0-0.2,0.1-0.3C79.8,16.2,84.1,10.6,91.1,7.5 M99.4,10.2c1.3-2.4,3-3.3,5.8-2.5c-0.3,0.5-0.6,1-0.9,1.4
	c-3.5,5-7.1,9.8-10.3,14.9c-1.5,2.3-3.1,3-5.7,2.3c2.5-3.5,4.8-6.9,7.2-10.2C96.7,14.1,98.2,12.2,99.4,10.2 M109.4,9.7
	c1.9-2.1,3.8-2.6,6.4-2c-0.2,0.5-0.4,1-0.6,1.5c-2.3,5.1-4.6,10-6.8,15.2c-0.7,1.7-1.6,2.5-3.4,2.2c-0.5-0.1-1-0.1-1.7-0.1
	c0.5-1,0.8-1.9,1.3-3c-2.3-0.2-4.5-0.7-5.9,1.8c-1.2,2-3.1,1.1-5.2,1.3c1.7-1.8,3.1-3.3,4.5-4.8C101.8,17.8,105.8,13.9,109.4,9.7
	 M120.2,9.8c1.9-2.7,1.9-2.7,5.5-2.1c-3.3,4.7-6.5,9.2-9.7,14h6.1c-1.2,1.7-2.1,3.1-3.1,4.4c-0.2,0.3-0.6,0.4-1,0.4c-3,0-6,0-9.2,0
	c0.4-0.6,0.6-1,0.8-1.4C113.1,20.1,116.7,14.9,120.2,9.8 M73.2,28.8c0.8,0,1.7-0.5,2.8-0.9c1.5,1.4,3.7,1.5,6,1.1
	c0.5-0.1,1.1-0.3,1.6-0.3c4.5,0,8.8,0.2,13.3,0.1c1,0,2-0.5,3-0.7c0-0.1,0,0.3-0.1,0.7c6.6,0,13,0,19.5,0c0.4,0,1-0.4,1.3-0.8
	c2-2.7,3.9-5.5,6.1-8.7h-6.1c3.4-4.9,6.6-9.4,9.9-14.2c-2.5,0-4.6,0.2-6.7,0c-2.3-0.2-3.8,0.5-4.8,2.6c-0.1,0.3-0.4,0.5-0.6,0.8
	l-0.1-0.1c0.4-1,0.8-2,1.3-3.2c-2.5,0-4.7,0.1-7,0c-1.3-0.1-2.4,0.2-3.2,1.4c-0.1,0.1-0.2,0.1-0.5,0.3c0.3-0.6,0.5-1,0.9-1.6
	c-2.2,0-4.2,0-6.1,0c-2,0-4.2-0.5-5,2.4c-2.3-3.6-7.4-3.5-12.9,0.3c-1.1-2.4-3.3-2.6-5.5-2.6c-11.2,0-22.4,0.1-33.7,0
	c-2.2,0-4.1,0.2-5.2,2.5c0,0.1-0.2,0.1-0.3,0.1c-2.2-3.5-4.2-3.7-11.4-1.2c0-0.2-0.1-0.4-0.1-0.6c0-3.8-1.5-5.6-5.2-5.8
	c-3.4-0.2-6.5,1-9.2,2.9c-5.3,3.6-9.1,8.5-12.3,14.1c-1,1.4-1.8,3.4-2.2,5.4c-0.7,3.9,1.2,6.2,5.1,6.5c3.2,0.3,6.1-0.7,8.6-2.5
	c0.8-0.5,1.5-1,2.2-1.5c1.5,3.3,3.3,4.4,6.7,4c1.7-0.2,3.3-0.4,5.1-0.4C43.4,28.9,58.3,28.9,73.2,28.8"/>
<path class="st0" d="M145.3,39.2c-1.2,2.2-3.3,1.9-5.3,1.7c-1.6-0.2-2.6-1.1-2.9-3c1.2-0.1,2.4-0.9,3.3,0.7c0.2,0.4,1.1,0.3,1.7,0.3
	c0.2,0,0.5-0.7,0.5-0.7c-0.4-0.4-0.8-0.8-1.3-1c-0.9-0.4-1.9-0.5-2.7-1c-1.3-0.7-1.5-2.1-0.8-3.3c1.2-1.9,5.9-1.9,7.1,0
	c0.2,0.3,0.3,0.7,0.4,1.2c-1.2,0.2-2.3,0.7-3.3-0.5c-0.3-0.3-1.1-0.2-1.6-0.2c0,0.2-0.1,0.4-0.2,0.6c0.5,0.2,0.9,0.5,1.4,0.7
	c0.9,0.3,1.9,0.5,2.7,1C145.6,36.4,146,38,145.3,39.2 M136,40.9h-7.6V32h7.4v1.8h-4.4c-0.3,1.5-0.3,1.5,1.4,1.5c0.9,0,1.8,0,2.8,0
	v1.9h-4.2c-0.4,1.3-0.1,1.8,1,1.8c1.2,0,2.4,0,3.7,0L136,40.9L136,40.9z M122.8,38.8c-0.3-0.6-0.8-1.1-1.3-1.6
	c-0.1,0.1-0.3,0.2-0.4,0.2v3.4h-2.9v-8.9c1.8,0,3.5,0,5.1,0c1.4,0,2.7,0.2,3.2,1.7c0.5,1.5-0.2,2.6-1.5,3.3c0.8,1.3,1.5,2.6,2.3,3.9
	C124.3,41.3,124.2,41.3,122.8,38.8 M111.6,41.1c-3.2-0.1-4.8-1.8-4.7-5c0.1-2.8,2-4.5,5-4.4c3.1,0.1,4.8,1.8,4.7,4.9
	C116.5,39.5,114.7,41.2,111.6,41.1 M106.3,34.1c-0.9,0.1-1.8,0.2-2.8,0.2v6.7h-2.9v-6.7c-1.1-0.1-1.9-0.1-2.9-0.2V32h8.5
	C106.3,32,106.3,34.1,106.3,34.1z M92.1,41.1c-3.1-0.1-4.8-1.8-4.8-4.8c0.1-2.9,2-4.7,5-4.6c3.1,0.1,4.8,1.8,4.7,4.9
	C97.1,39.5,95.3,41.2,92.1,41.1 M85.9,40.8h-2.2v-5.2c-0.1,0-0.3-0.1-0.4-0.1c-0.4,1.4-0.7,2.7-1.1,4.1C82,40.4,81.8,41,80.8,41
	s-1.3-0.4-1.5-1.3c-0.3-1.4-0.7-2.9-1.1-4.3c-0.1,0-0.3,0.1-0.4,0.1v5.4h-2.1v-9.1c1.3,0.3,3,0.1,3.7,0.9c0.9,0.9,0.9,2.7,1.6,4.1
	c0.3-1,0.6-2,0.8-3.1c0.2-1.4,0.9-1.9,2.2-1.7c0.6,0.1,1.3,0,2.1,0v8.8H85.9z M69,41.1c-3.1-0.1-4.8-1.8-4.7-4.9
	c0.1-2.9,2-4.7,5-4.6c3.1,0.1,4.8,1.9,4.7,4.9C74,39.6,72.2,41.2,69,41.1 M63.8,34.1c-0.9,0.1-1.8,0.1-2.8,0.2v6.7h-3v-6.6
	c-1-0.1-1.9-0.1-2.8-0.2v-2h8.6L63.8,34.1L63.8,34.1z M53.7,38.4c0,0.3-0.2,0.6-0.4,0.9c-0.9,1.6-3.3,2.2-5.9,1.6
	c-1.6-0.4-2.6-1.7-2.7-3.7c-0.1-1.7,0-3.4,0-5.3h3c0,1.8,0,3.4,0,5.1c0,1.2,0.4,1.9,1.6,1.9c1.1,0,1.6-0.8,1.5-1.9
	c0-1.7,0-3.3,0-5.1h2.8C53.8,34.2,53.8,36.2,53.7,38.4 M40.9,39.8c-0.2-0.5-2.7-0.5-3,0c-0.9,1.8-2.2,1-3.6,1.1
	c1.2-3,2.2-5.8,3.4-8.5c0.4-0.9,3.3-0.8,3.6,0.1c1.1,2.7,2.1,5.5,3.3,8.3C43.1,40.7,41.8,41.6,40.9,39.8 M147.2,35.8
	c-0.1-4.2-1.9-6.2-5.9-5.9c-2.1,0.2-4.2,0-6.2,0.1c-3.1,0.1-6.1,0.4-9.1,0.5c-2.8,0-5.6-0.3-8.2-0.4c-0.5,0-1.1,0.5-1.5,0.7
	c-1.6-0.3-3.3-0.7-5-0.8c-1.5,0-3,0.3-4.6,0.1c-3-0.3-6.1-0.1-9.1-0.1c-0.8,0-1.7,0.5-2.4,0.3c-2.5-0.7-4.9-0.6-6.8,0.6
	c-0.7-0.4-1.2-0.9-1.6-0.9c-3.9-0.1-7.7-0.1-11.7,0c-0.5,0-1.1,0.5-1.5,0.7c-1.6-0.3-3.3-0.8-5-0.7c-1.5,0-3.1,0.1-4.6,0.1
	c-6.4-0.1-12.7,0-19.1,0c-0.6,0-1.1,0.1-1.7,0.1c-0.1,0.7-0.1,1.2-0.2,1.7c-0.5-0.6-0.9-1.6-1.5-1.7c-1.5-0.2-3-0.1-4.5,0
	c-0.3,0-0.8,0.7-1,1.1c-0.9,2.3-1.8,4.7-2.7,7c-0.5,1.4-1.1,2.9-1.7,4.6c1.5,0,2.7,0,4,0c1.4,0,3,0.5,3.6-1.3
	c0.7,0.5,1.3,1.2,1.9,1.3c3,0.2,6,0.3,8.9,0.2c3.5-0.1,5.4-2.1,5.6-5.8c0-0.4,0.1-0.8,0.2-1.1c0.1,0,0.3,0,0.4,0v6.7h6.6v-3.8
	c2.9,4.3,5.8,5,10.3,3.1c0.9,0.4,1.5,0.8,2,0.8c3.8,0.1,7.5,0.1,11.4,0c0.6,0,1.1-0.4,2-0.8c1.6,1,3.6,1.2,5.8,0.8
	c2.2-0.4,3.6-1.9,4.8-3.9v3.8h6.4v-4.1c2.4,4.6,6,5.5,10.8,3.4c0.6,0.4,1.2,0.8,1.8,0.8c7.8,0.2,15.6-0.2,23.4,0.2
	c0.9,0,1.7-0.1,2.6-0.3c2.4-0.7,3.7-2.9,3.4-5.4C147.2,36.7,147.2,36.3,147.2,35.8"/>
<path class="st0" d="M179.3,10.8c-1.7,3.3-4.1,5.9-6.9,7c-1,3-1.8,5.7-2.6,8.2c-0.1,0.2-0.6,0.4-0.9,0.5c-1.1,0.1-2.2,0-3.7,0
	c0.6-1.9,1.3-3.7,1.8-5.5c0.2-0.7,0.1-1.4,0.1-2.2c-0.5,0.5-1.2,0.8-1.6,1.4c-1,1.3-2,2.5-2.7,3.9c-1.2,2.4-3.1,2.7-5.5,2.1
	c0.4-0.5,0.7-1,1-1.5c3.8-5.4,7.5-10.7,11.2-16.1c0.6-0.9,1.3-1.3,2.4-1.2c1.9,0.1,3.8,0,5.6,0.1C179.8,7.6,180.4,8.6,179.3,10.8
	 M149.6,26.6c-1.4,0.1-3.3,0-4.1-0.9c-1.1-1.2-0.2-3,0.6-4.3c3-4.5,6.1-8.9,9-13.3c0.2-0.3,0.8-0.5,1.2-0.6c0.9-0.1,1.8,0,3,0
	c-0.3,0.5-0.4,0.9-0.7,1.2c-2.4,3.5-4.9,7-7.2,10.4c-0.6,0.8-1.8,1.9-0.7,2.8c0.5,0.4,2.1-0.2,3-0.8c0.9-0.5,1.6-1.5,2.2-2.4
	c2.1-2.9,4.3-5.8,6.1-8.8c1.4-2.3,3.1-3,5.8-2.2c-3.6,4.9-6.9,9.6-10.5,14.2C155.4,24.3,152.8,26.4,149.6,26.6 M134.7,26.6
	c-1.3,0.3-2.8,0.1-4.1-0.1c-1.4-0.2-2.1-1.3-1.6-2.7c0.5-1.6,1.3-3.2,2-4.7c0.1-0.3,0.6-0.5,0.9-0.6c1.4-0.2,2.8-0.3,4.3-0.4
	c-0.4,0.9-0.7,1.6-0.9,2.3c-0.3,1.2,0.2,1.9,1.4,1.7c1.8-0.3,3.1-1.5,3.9-3.2c0.5-0.9,0-1.4-0.8-1.9c-3.9-2.4-4.2-3.9-1.4-7.7
	c3-4.1,6.7-7.1,11.9-7c3,0.1,3.7,1.4,2.8,4.4c-1,3.5-3.7,2.9-6.2,3.1c0-0.2,0-0.3,0-0.3c0.1-0.8,0.2-1.6,0.3-2.4c-0.7,0-1.5-0.3-2,0
	c-0.8,0.6-1.5,1.5-2.1,2.4c0,0.1,0.5,0.8,0.9,1c3.7,1.3,5.2,3.1,1.8,7.9C143.1,22.4,139.6,25.7,134.7,26.6 M181.6,7.2
	c-1.1-2-3.1-2-5-2c-6.4,0-12.7,0-19.1,0h-1.7c-0.5-3.4-1.8-4.9-5-5.1c-6.5-0.5-11,3.1-14.7,8.2c-1.6,2.2-2.6,4.7-1.7,7.5
	c-1.3,0.1-2.5,0.2-3.6,0.4c-0.5,0.1-1.2,0.3-1.3,0.7c-1,2.1-2.2,4.1-2.9,6.3c-0.8,2.9,0.6,5.3,3.4,5.7c2.1,0.3,4.4,0.3,6.5-0.3
	c2.1-0.6,4.1-1.9,6.2-2.9c0.3,1.6,1.4,2.9,3.1,3.2c1.4,0.3,2.8,0.2,4.2,0.2c1.3,0,2.6-0.2,3.8-0.2c5.5,0,10.9,0,16.4-0.1
	c0.5,0,1.3-0.6,1.5-1.1c0.9-2.4,1.6-5,2.5-7.3c0.2-0.5,0.7-0.9,1.1-1.3c1.9-2,4-3.9,5.7-6.1C182.1,11.3,182.7,9.2,181.6,7.2"/>
<path class="st0" d="M78,11.7c-2.7-0.8-3.7-0.1-5.1,3.3C75.7,15.4,77.2,14.4,78,11.7"/>
<path class="st0" d="M107,18.7c1-1.5,1.7-3.3,2.5-4.9c-0.1-0.1-0.2-0.1-0.2-0.2c-1.6,1.8-3.2,3.5-4.8,5.3c0.1,0.2,0.1,0.4,0.2,0.5
	C105.6,19.2,106.6,19.2,107,18.7"/>
<path class="st0" d="M123.1,34c-0.6-0.1-1.3,0-2,0v2c1-0.5,1.7-0.9,2.4-1.2C123.4,34.5,123.3,34,123.1,34"/>
<path class="st0" d="M69.2,33.9c-1.2,0-2,0.9-2,2.5s0.7,2.6,1.9,2.6c1.2,0,1.9-0.9,2-2.5C71.1,34.9,70.5,34,69.2,33.9"/>
<path class="st0" d="M92.2,33.9c-1.2,0-1.9,1-1.9,2.6s0.8,2.5,2,2.5c1.2,0,1.9-0.9,1.9-2.6C94.2,34.8,93.5,33.9,92.2,33.9"/>
<path class="st0" d="M111.7,33.9c-1.2,0-1.9,1-1.8,2.6c0,1.6,0.7,2.5,2,2.5c1.2,0,1.9-0.9,1.8-2.6C113.6,34.8,112.9,33.9,111.7,33.9
	"/>
<path class="st0" d="M38.5,37.2h1.8c-0.3-0.9-0.5-1.6-0.9-2.8C39,35.7,38.7,36.4,38.5,37.2"/>
<path class="st0" d="M169.4,15c2.8,0.5,4.9-1,4.9-3.4C171.6,11.1,171.1,11.4,169.4,15"/>
</svg>
