<?xml version="1.0" encoding="utf-8"?>
<!-- Generator: Adobe Illustrator 24.2.0, SVG Export Plug-In . SVG Version: 6.00 Build 0)  -->
<svg version="1.1" id="Layer_1" xmlns="http://www.w3.org/2000/svg" xmlns:xlink="http://www.w3.org/1999/xlink" x="0px" y="0px"
	 viewBox="0 0 133 36" style="enable-background:new 0 0 133 36;" xml:space="preserve">
<style type="text/css">
	.st0{fill:#777777;}
</style>
<path class="st0" d="M123.4,22.9c2.3,0,4.7-2.3,4.7-4.6s-2.3-4.6-4.7-4.6c-2.3,0-4.6,2.3-4.6,4.6S121.1,22.9,123.4,22.9 M102.6,15.3
	c-0.8-1.9-2.4-2.9-4-4c0.2-0.2,0.3-0.4,0.5-0.6c2.6-2.9,5.3-5.8,7.9-8.7c0.3-0.4,0.7-0.5,1.2-0.5c1.2,0,2.4,0,3.6,0
	c1,0,1.3,0.3,1.3,1.3c0,2.2,0,4.5,0,6.7c0,0.7,0,1.4,0,2.3c0.5-1,0.8-1.9,1.3-2.7c1-1.5,2-3,3.3-4.2c3.1-3.1,6.9-4.1,11.2-3
	c1.3,0.3,2.4,1.1,2,2.9c-0.2,1.2-0.4,2.3-0.8,3.4c-0.3,0.9-0.7,1-1.5,0.5c-0.4-0.3-0.7-0.6-1.1-0.8c-1.7-1.1-3.5-0.9-5.2,0.1
	c-1.4,0.8-2.3,2-3.2,3.3c-0.1,0.2-0.2,0.4-0.3,0.7c0.2-0.1,0.3-0.1,0.4-0.1c3-2,6.9-1.9,9.7,0.4c5.1,4.1,5.4,11.7,1.3,16.4
	c-2.4,2.8-6.7,3.5-10.2,2c-1.9-0.8-3.4-2.2-4.6-3.9c-0.7-1-1.4-2.1-2.2-3.4c0.1,0.9,0.2,1.5,0.3,2.2c0.1,0.6,0.2,1.3,0.2,1.9
	c0,1.5-0.8,2.8-2.2,3.3c-1.4,0.6-2.9,0.6-4.4,0c-0.6-0.2-0.9-0.7-1-1.3c-0.1-0.6-0.1-1.2-0.1-1.9c0-4.8,0-9.7,0-14.6
	c0-0.2,0-0.4,0-0.6C104.6,13.3,103.7,14.3,102.6,15.3"/>
<path class="st0" d="M31.7,10.9c-3.2,0-6.2,0-9.3,0c-0.2,0-0.5-0.2-0.7-0.4C19.1,7.4,15,6.1,11.1,7.1c-3.8,1.1-6.5,4.3-7,8.2
	c-0.6,4.9,3.1,9.8,8,10.5c4.1,0.6,7.3-0.9,9.8-4.2c0.2-0.2,0.5-0.5,0.8-0.5c3,0,5.9,0,8.9,0c0.1,0,0.2,0.1,0.3,0.1
	c-0.5,6-8.6,11.7-16.3,11.5c-8.2-0.3-15-6.9-15.5-15.1c-0.7-9.2,6-16.2,13.8-17.3C23.2-1.1,30.1,5.4,31.7,10.9"/>
<path class="st0" d="M91.8,14.8c-3.5,0-6,2.6-6,6c0,3.5,2.7,6.2,6.1,6.2c3.3,0,6-2.7,6-6.2C98,17.5,95.2,14.8,91.8,14.8 M84.8,26.5
	c0,0.5-0.1,0.8-0.1,1c0,2.5,0,4.9,0,7.4c0,0.7-0.2,1-0.9,0.9c-1.1,0-2.2,0-3.4,0c-0.6,0-0.8-0.2-0.8-0.8c0-7.8,0-15.7,0-23.6
	c0-0.6,0.2-0.8,0.8-0.8c1.1,0,2.2,0,3.4,0c0.5,0,0.8,0.2,0.8,0.7c0.1,1.1,0.1,2.2,0.2,3.5c2.9-3.2,6.3-4.8,10.6-4
	c2.7,0.5,4.8,2,6.4,4.2c2.9,4,2.4,9.7-1.2,13.2c-2.3,2.2-5.1,3.2-8.2,2.9C89.3,30.9,86.9,29.2,84.8,26.5"/>
<path class="st0" d="M49,21c0-3.3-2.8-6.1-6.1-6.1c-3.3,0-6.1,2.7-6.1,6.1s2.7,6.2,6.1,6.2C46.2,27.1,49,24.4,49,21 M44.5,31.2
	c-5.6,0-10.3-4.6-10.3-10.2c0-5.7,4.6-10.3,10.3-10.3S54.8,15.3,54.9,21C54.9,26.6,50.2,31.2,44.5,31.2"/>
<path class="st0" d="M59.2,21c0,3.3,2.8,6.1,6.1,6.1c3.4,0,6.3-2.8,6.2-6.1c0-3.3-2.8-6.1-6.2-6.1C62,14.7,59.2,17.5,59.2,21
	 M67.1,31.2c-5.7,0-10.2-4.6-10.2-10.3s4.6-10.3,10.3-10.3c5.6,0,10.3,4.7,10.3,10.3C77.4,26.6,72.8,31.2,67.1,31.2"/>
<path class="st0" d="M17.9,18.7h2.2c-1.4-2.7-2.6-5.2-4-7.8l-4,7.8c0.9,0,1.6,0,2.3,0h0.9v3.9H17v-3.9H17.9L17.9,18.7L17.9,18.7z"/>
<path class="st0" d="M13.3,15.4c0,0-1.6-3.1-2.4-4.7l-4,7.8c0.9,0,1.6,0,2.3,0h0.9v3.9h1.7v-3.9L13.3,15.4z"/>
</svg>
