<?xml version="1.0" encoding="utf-8"?>
<!-- Generator: Adobe Illustrator 24.2.0, SVG Export Plug-In . SVG Version: 6.00 Build 0)  -->
<svg version="1.1" id="Layer_1" xmlns="http://www.w3.org/2000/svg" xmlns:xlink="http://www.w3.org/1999/xlink" x="0px" y="0px"
	 viewBox="0 0 132 47" style="enable-background:new 0 0 132 47;" xml:space="preserve">
<style type="text/css">
	.st0{fill:#777777;}
</style>
<path class="st0" d="M74,33.5c-0.1,0-0.3,0.2-0.5,0.5c-0.2,0.3-0.4,0.6-0.4,0.8l-1.1,3c-0.1,0.3-0.2,0.6-0.5,0.9
	c-0.3,0.4-0.5,0.6-0.6,0.6c-0.2,0-0.5-0.4-0.9-1.3c-0.4-0.8-0.6-1.5-0.8-2.2c-0.1-0.5-0.3-1-0.6-1.5s-0.5-0.7-0.8-0.7
	c-0.2,0-0.4,0-0.6,0.1c-0.2,0.1-0.4,0.3-0.4,0.4s0,0.1,0,0.2l2.6,6.7c0.1,0.3,0.3,0.7,0.6,1.1c0.4,0.5,0.6,0.7,0.8,0.7
	s0.4-0.2,0.6-0.6c0.2-0.3,0.4-0.6,0.5-0.8l2.6-6.5c0.3-0.7,0.4-1,0.4-1C75.1,33.6,74.7,33.5,74,33.5"/>
<path class="st0" d="M81.4,33.5c-0.5,0-0.7,0.2-0.7,0.7v5.8c0,1.7,0.2,2.5,0.5,2.5c0.2,0,0.4-0.1,0.6-0.2c0.3-0.2,0.4-0.3,0.4-0.5
	l0.1-7.2C82.2,33.9,81.9,33.5,81.4,33.5"/>
<path class="st0" d="M81.3,31.2c0.1,0,0.3,0,0.5-0.1c0.3,0,0.4-0.1,0.4-0.2c0-0.5,0-0.8-0.2-0.8c-0.1,0-0.4-0.1-0.9-0.1
	c-0.2,0-0.3,0.2-0.3,0.6C80.8,31,81,31.2,81.3,31.2"/>
<path class="st0" d="M96.7,42.2L96.7,42.2L96.7,42.2"/>
<path class="st0" d="M94.5,40.8c-0.6,0.5-1.3,0.8-2,0.9c-0.1,0-0.2,0-0.3,0c-0.8,0-1.4-0.3-2-0.8c-0.5-0.5-0.8-1.1-0.8-1.9
	c0-0.8,0.4-1.5,1-2c0.6-0.5,1.3-0.8,2-0.8c0.1,0,0.2,0,0.3,0c0.8,0,1.4,0.3,1.9,0.8c0.5,0.5,0.8,1.1,0.8,1.8
	C95.5,39.6,95.1,40.3,94.5,40.8 M96.4,35.1c-0.1-0.3-0.4-0.5-0.7-0.6c-0.8-0.6-1.8-1-3.2-1l0,0c-0.5,0-1,0.1-1.4,0.2
	c-0.5,0.2-0.8,0.3-0.8,0.6c0,0.1,0,0.2,0.1,0.2c0.1,0,0.2,0,0.4-0.2c0.2-0.1,0.3-0.2,0.5-0.2c0.1,0,0.1,0,0.1,0
	c0.4,0.1,0.6,0.5,0.6,1.1c0,0.1,0,0.2,0,0.4c-0.1,0.6-0.8,1.1-1.9,1.5c-1.3,0.4-1.9,1.2-1.9,2.3c0,1,0.4,1.8,1.1,2.5s1.6,1,2.7,1
	c0.2,0,0.5,0,0.7-0.1c0.3-0.1,0.6-0.2,1-0.3c0.9-0.4,1.4-0.6,1.5-0.6s0.4,0,0.7,0.2c0.4,0.2,0.5,0.3,0.6,0.3c0.3,0,0.4,0,0.5,0
	s0.2-0.1,0.2-0.2v-5.6l-0.1-0.2C96.6,35.7,96.5,35.2,96.4,35.1"/>
<path class="st0" d="M103.7,31c0.6,0,0.9-0.1,0.9-0.2c0-0.1,0-0.3-0.1-0.5c-0.1-0.2-0.1-0.3-0.2-0.3c-0.6,0-0.9,0.1-0.9,0.2
	c0,0.1,0,0.3,0.1,0.5C103.5,30.9,103.6,31,103.7,31"/>
<path class="st0" d="M103.7,33.5c-0.3,0-0.4,0.7-0.4,2l-0.1,8.1c0,0.5-0.1,0.9-0.4,1.3c-0.3,0.4-0.7,0.7-1.1,0.8
	c-0.4,0.1-0.7,0.1-1-0.1c-0.1,0.1-0.2,0.2-0.3,0.3c-0.1,0.2-0.2,0.3-0.2,0.3c0.3,0.6,0.9,0.8,1.7,0.8c0.9,0,1.6-0.3,2.1-0.9
	c0.5-0.6,0.8-1.4,0.8-2.4l0.1-9.2C104.8,33.8,104.4,33.5,103.7,33.5"/>
<path class="st0" d="M116.2,37.3c-0.6,0.4-1,0.8-1.3,1c-0.2,0.1-0.3,0.2-0.4,0.3l-0.9,0.5c-0.1,0-0.2,0.1-0.3,0.1
	c-0.3,0-0.5-0.2-0.8-0.6c-0.2-0.4-0.3-0.8-0.3-1.2c0-0.7,0.3-1.4,0.9-1.9c0.5-0.4,1.1-0.7,1.8-0.7c0.1,0,0.2,0,0.4,0
	c0.6,0,1.1,0.1,1.5,0.4c0.4,0.3,0.7,0.6,0.8,1C117.6,36.2,117.1,36.6,116.2,37.3 M115.2,33.6c-0.1,0-0.2,0-0.3,0
	c-1.2,0.1-2.3,0.5-3.1,1.3c-0.9,0.9-1.3,2-1.3,3.4c0,1.3,0.4,2.4,1.3,3.3c0.8,0.8,1.9,1.3,3.1,1.3c0.1,0,0.2,0,0.3,0
	c1.1,0,2-0.2,2.8-0.7c0.7-0.4,1.1-0.9,1.1-1.3c0-0.1,0-0.1,0-0.2c0-0.1-0.1-0.1-0.2,0c-0.1,0-0.2,0.1-0.3,0.1l-0.9,0.2
	c-0.2,0-0.6,0.2-1,0.6c-0.5,0.3-0.9,0.5-1.3,0.5c-0.1,0-0.2,0-0.3,0c-0.4,0-0.9-0.2-1.3-0.4c-0.5-0.3-0.8-0.7-0.9-1.1
	c0-0.3,0.4-0.7,1.2-1.2c0.3-0.2,0.6-0.3,0.9-0.5c0.4-0.2,0.9-0.4,1.3-0.5l2.3-0.8c0.2-0.1,0.4-0.2,0.7-0.4c0.2-0.2,0.3-0.3,0.3-0.4
	c-0.2-0.8-0.6-1.4-1.2-1.9C117.3,34,116.3,33.6,115.2,33.6"/>
<path class="st0" d="M129.6,37.8c-0.5-0.1-0.9-0.2-1-0.3c-1.3-0.3-1.9-0.8-1.9-1.5c0-0.4,0.2-0.7,0.4-0.9c0.3-0.2,0.7-0.4,1.1-0.3
	c0.3,0,0.7,0.1,1,0.2l0.8,0.3c0.1,0,0.3,0,0.5-0.1c0.2-0.1,0.4-0.2,0.3-0.3c-0.1-0.4-0.4-0.7-0.9-0.9c-0.5-0.2-1.1-0.4-1.7-0.4
	c-0.9,0-1.6,0.2-2.2,0.7s-1,1.1-1,1.9c0,1.1,0.6,1.8,1.8,2.2c0.4,0.1,0.7,0.2,1.1,0.3c1.4,0.3,2.1,0.9,2.1,1.8
	c0,0.5-0.2,0.8-0.5,1.1c-0.3,0.3-0.8,0.5-1.4,0.4c-0.5,0-0.9-0.1-1.4-0.3c-0.3-0.2-0.6-0.3-0.9-0.5c-0.1,0-0.2,0-0.5,0.2
	c-0.2,0.1-0.3,0.3-0.3,0.3c0.1,0.4,0.5,0.7,1.1,1s1.3,0.4,2.2,0.4c1,0,1.8-0.3,2.4-0.8c0.7-0.5,1-1.2,1-2
	C131.6,39.1,130.9,38.2,129.6,37.8"/>
<path class="st0" d="M128.3,24.7c0.4,0.4,0.7,0.7,1,0.8l0.4,0.2c0.5,0.2,0.9,0.4,1,0.4c0.2,0,0.3-0.1,0.3-0.3l0.2-23.5
	c0-0.3-0.2-0.6-0.7-0.9c-0.4-0.2-0.7-0.3-1-0.3c-0.3,0-0.5,0.7-0.5,2.1l-0.1,9.6c0,0.9-0.1,1.9-0.4,3.2c-0.4,1.5-0.7,2.3-1.2,2.3
	c-0.6,0-2-1.8-4.1-5.4l-5.1-8.7c-0.6-1-1.2-1.6-1.9-2l-0.8-0.4c-0.5-0.3-0.8-0.4-1-0.4c-0.2,0-0.2,0.1-0.2,0.3L114,25.2
	c0,0.8,0.4,1.1,1.1,1.1c0.2,0,0.5-0.1,0.7-0.3c0.2-0.2,0.4-0.4,0.4-0.7l0.1-13.9c0-0.4,0.2-0.6,0.5-0.6c0.2,0,0.6,0.1,1.2,0.3
	c0.6,0.2,1,0.3,1.2,0.3c0.3,0,0.7,0.4,1.3,1.1c0.5,0.6,0.9,1.2,1.2,1.7l5.7,9.6C127.6,24,127.9,24.3,128.3,24.7"/>
<path class="st0" d="M15.8,21.1c-1.2,1.2-2.5,2-4,2.5c-1.2,0.4-2.5,0.6-3.9,0.6c-1,0-1.8-0.3-2.4-0.8c-0.7-0.5-1-1.2-1-2.1L4.6,6.1
	c0-2.3,1.2-3.5,3.4-3.5c1.3,0,2.6,0.2,3.7,0.6c1.7,0.5,3.1,1.4,4.3,2.7c2,2.1,2.9,4.6,2.9,7.7C18.9,16.5,17.9,19.1,15.8,21.1
	 M11.7,1c-1-0.2-2-0.3-3.1-0.3H1.8C1.4,0.6,1.2,0.9,1.1,1.5L0.4,12.4c0.6,0.1,1.1,0.1,1.7,0.2c0.1,2.3,0.1,4.6,0.2,6.9
	C2.5,23.8,2.6,26,2.8,26h4.9c1.5,0,2.8-0.1,4.1-0.4c2.6-0.5,4.7-1.6,6.3-3.2c2.3-2.3,3.5-5.5,3.5-9.4c0-3.6-1.2-6.6-3.6-8.8
	C16.2,2.5,14.2,1.5,11.7,1"/>
<path class="st0" d="M25.2,0.8c-0.8,0-1.2,0.4-1.2,1.1l-0.1,19.3c0,3.3,0.2,5,0.8,5c0.4,0,0.8-0.1,1.2-0.3c0.4-0.2,0.6-0.5,0.6-0.8
	l0.2-22.3C26.7,1.5,26.2,0.8,25.2,0.8"/>
<path class="st0" d="M45.5,0.6c-0.6,0-0.9,1.2-0.9,3.5l-0.1,14.3c0,1.8-0.6,3.2-1.7,4.3c-1.1,1.1-2.6,1.7-4.2,1.6
	c-1.8,0-3.2-0.6-4.3-1.8c-1.1-1.2-1.6-2.6-1.6-4.3l0-13.9c0-0.4-0.1-1-0.2-1.7c-0.1-0.7-0.3-1.2-0.5-1.4l-0.5-0.7
	c0,0-0.1-0.1-0.2-0.1c-0.3,0-0.6,0.1-1,0.4c-0.4,0.3-0.6,0.6-0.6,0.9l-0.1,16.4c0,2.5,0.7,4.5,2.2,6c1.6,1.7,3.9,2.6,6.7,2.6
	c2.9,0,5.2-0.9,6.8-2.6c1.5-1.6,2.2-3.5,2.2-5.8l0.1-15.9C47.6,1.2,46.9,0.6,45.5,0.6"/>
<path class="st0" d="M74.2,22.3c0.1-0.2-0.1-0.5-0.6-0.8c-0.5-0.4-0.9-0.6-1.2-0.6c-0.1,0-0.1,0-0.2,0c-1.2,0.8-2.4,1.6-3.6,2.4
	c-1.7,1-3.4,1.5-5.1,1.4c-2.9,0-5.4-1.1-7.3-3.2c-2-2.1-2.9-4.7-2.9-7.8c0-3.2,1-5.8,3-7.8s4.5-3,7.6-3c1.6,0,3.2,0.5,4.8,1.5
	c1.2,0.8,2.4,1.7,3.6,2.5c0.1,0,0.1,0,0.2,0c0.3,0,0.7-0.2,1.1-0.6c0.5-0.4,0.6-0.7,0.6-0.8c-0.6-1.4-1.9-2.7-3.8-3.8
	c-2-1.1-4.3-1.7-6.8-1.7c-3.8,0-7.1,1.2-9.6,3.8C51.3,6.5,50,9.7,50,13.7c0,3.9,1.3,7.2,3.9,9.9c2.6,2.7,6,4.1,9.8,4.1
	c2.3,0,4.4-0.5,6.5-1.6C72.2,24.9,73.5,23.6,74.2,22.3"/>
<path class="st0" d="M99.9,25.3L99.9,25.3c-0.2,0-0.4,0-0.5,0.1l-0.1,0.1l-0.1,0.1h-0.3v0.1c-0.5,0.2-1.1,0.4-1.6,0.5v0.1
	c-0.5,0-1,0-1.2,0v0.1h-0.5l-0.4-0.1c-0.4,0-0.7,0.1-0.9,0v0.2h-0.1v-0.1l-0.5-0.1c-0.1,0-0.2,0-0.2,0.1l0,0c0.1,0,0.1,0.1,0.2,0.1
	c-0.1,0-0.3,0-0.5,0c-0.1,0-0.2,0-0.2,0c-0.1,0-0.1,0-0.1-0.1c-0.3-0.1-0.5-0.1-0.7-0.2H92l-0.1,0.2h-0.2l0.1-0.2
	c-0.2-0.1-0.4-0.1-0.6-0.1v0.1H91l-0.1,0.2h-0.3l-0.2-0.1l0.3-0.1V26h0.2v-0.1c-0.3-0.1-0.5-0.1-0.7-0.1c-0.1,0-0.2,0-0.3,0V26h-0.2
	l-0.1-0.3h-0.2l0,0v0.2l0,0c-0.1,0-0.1,0-0.2,0.1c0.1,0,0.1,0,0.2,0.1h0.1h0.1v0.1l-0.1,0.1v0.1v0.1l0,0h0.3v0.2h0.1v-0.1h0.2
	l0.3,0.1l0.1,0.2l0.2-0.1l2.1,0.5v-0.1l0.3,0.1l0,0c0,0,0,0.1,0.1,0.2h0.3l0.4,0.1v-0.1l0.7,0.1v-0.1c0.4,0,0.8,0,1,0l0.2-0.1
	c1.7-0.3,2.9-0.5,3.7-0.7v-0.1h0.3v-0.1c0.1,0,0.3,0,0.4-0.1v-0.3h0.2V26h-0.2C99.8,25.6,99.8,25.5,99.9,25.3"/>
<path class="st0" d="M89.3,26.2L89.3,26.2L89.3,26.2L89.3,26.2L89.3,26.2L89.3,26.2"/>
<polygon class="st0" points="92.9,27.2 92.9,27.2 93,27.1 92.9,27.1 92.9,27.1 "/>
<polygon class="st0" points="79.8,7 79.8,7 79.7,7.1 80,7 80,6.9 "/>
<path class="st0" d="M89.3,26.2L89.3,26.2C89.3,26.1,89.3,26.1,89.3,26.2c-0.1-0.1-0.1-0.1-0.2,0l0,0l0,0H89.3z"/>
<path class="st0" d="M111.3,12.3C111.4,12.3,111.4,12.3,111.3,12.3L111.3,12.3"/>
<path class="st0" d="M111.5,13.1h-0.2v-0.7l0,0c0.1-0.6-0.1-1.3-0.5-2.1h-0.1c0-0.3-0.1-0.7-0.4-1.2h-0.1L110,8.4h-0.2V8.2h-0.1
	c-0.8-1.2-2-2.5-3.8-3.9l-0.1-0.2l-0.4-0.1l0.1-0.2h-0.2H105V3.8c-0.7-0.4-1.3-0.7-1.7-0.8V2.8l0.1-0.2c-0.3-0.1-0.5-0.1-0.7-0.1
	h-0.2c0-0.1-0.1-0.1-0.2-0.1l-0.1,0.2c0,0-0.1-0.1-0.1-0.2c-1.4-0.5-2.7-0.9-3.9-1.2c0.1,0,0-0.1,0-0.1c-0.1,0-0.1-0.1,0-0.1
	c-2.1-0.1-3.8-0.3-5.1-0.5l0,0c-0.5,0-1.1,0.1-1.7,0.1c-0.7,0.1-1.2,0.2-1.6,0.3c0,0-0.2-0.1-0.3-0.1v0.1l0,0h-0.1
	C89,1,88.5,1,88.2,1c-1.2,0.5-2.2,0.7-3,0.7l-0.1-0.2c-0.1,0.1-0.3,0.1-0.5,0.2l-0.4-0.4L84,1.2c-0.1,0.1-0.1,0.1-0.1,0.2L83,1.2
	v0.1h-0.3l-0.1,0.1H82c-0.2,0.1-0.4,0.1-0.7,0.1V1.3l-0.3,0.1l0.1,0.2l0.2,0.1v0.1C81,2,80.7,2.2,80.5,2.2c-0.9,0.6-1.5,1.1-1.7,1.5
	c-0.3,0.2-0.5,0.3-0.7,0.4c-0.2,0.2-0.4,0.5-0.4,0.6c-0.7,0.4-1.1,0.7-1.2,1.2c0,0.1,0,0.3,0.1,0.5l0.1,0.3h0.1v0.1l-0.2,0.1
	c-0.3,0.8-0.5,1.2-0.7,1.4v0.2v0.2h-0.2v0.1c-0.1,0-0.1,0-0.1,0v0.2h0.2c0,0.5-0.1,1.4-0.3,2.8c0,0.3,0,0.6,0,0.8h0.1
	c0,0.2,0.1,0.7,0.3,1.4c0.1,0.6,0.2,1.1,0.1,1.4h0.1c0,0.1,0,0.2,0.1,0.4l0.1,0.1l0.2,0.4l0.2,0.1v0.4l0.1,0.1c0,0.1,0,0.2,0,0.4
	l0.3,0.1v0.1l0.2,0.1v0.2l0.2,0.1c0,0.1,0.1,0.2,0.1,0.4l0.2,0.2h0.1l0.3-0.1c0,0.2-0.1,0.4-0.1,0.6h0.2V19c0.1,0,0.1,0,0.1,0
	l-0.1,0.2l-0.1-0.3v0.2c0.2,0.1,0.3,0.3,0.4,0.5l0.2,0.1c0.1,0.3,0.2,0.5,0.4,0.6v0.3h0.2v0.1h0.2c0.3,0.2,0.4,0.5,0.5,1h0.4
	l0.2,0.1h-0.2l-0.1,0.4h-0.2v0.1h0.3l0.1,0.2l0.2-0.1l0.1-0.2h0.2l0.1-0.2h0.1v0.2c0.4,0.1,0.7,0.1,0.8,0.1v-0.1l0.2,0.1v0.3
	L82,22.5v0.1c0,0.1,0,0.2,0.1,0.2h0.3l0.1,0.3l0.1,0.1v-0.3h0.3l0.1,0.2l-0.5-0.2V23h0.3l0.1,0.6H83v0.1l0.3,0.1v0.1
	c0.1,0,0.2,0,0.3,0c0.2,0,0.3,0,0.4,0s0.3,0.1,0.5,0.1c0.1,0.2,0.2,0.4,0.3,0.5c0-0.1,0.1-0.2,0.1-0.3V24l-0.4-0.1v-0.1
	c-0.6-0.2-1-0.4-1.2-0.5v-0.2H83l-0.1-0.3h-0.2v-0.1h-0.3v-0.2l-0.1-0.1l-0.1-0.1l-0.5-0.1V22l-0.2-0.1l0.1-0.2h-0.3v-0.2L81,21.4
	v-0.1h-0.3v-0.2h-0.2V21l-0.2-0.1l0.1-0.3l-0.3-0.3h-0.2c-0.1-0.2-0.2-0.4-0.3-0.7c-0.1-0.1-0.3-0.1-0.5-0.1L79,19.2h-0.2
	c-0.1-0.1-0.1-0.2-0.1-0.3l0.1-0.1h0.1v-0.2h-0.2c0-0.1-0.1-0.3-0.1-0.4c-0.1,0-0.1,0-0.1-0.1c0-0.1-0.1-0.1-0.1-0.1
	c-0.6-1.2-0.8-2-0.8-2.4s0-1-0.2-1.8c-0.1-0.8-0.2-1.4-0.2-1.8c0.2-1.9,1.1-3.5,2.5-4.8h0.1C80,7,80.1,6.7,80.3,6.6h0.1h0.1
	l-0.1,0.3h0.1L80.7,6h0.1l0.1-0.5c0.1,0,0.3-0.1,0.5-0.1c0.1-0.2,0.2-0.4,0.3-0.6h0.2c1-0.7,1.8-1.3,2.5-1.8
	c0.8-0.4,1.4-0.6,1.8-0.8l0.3-0.1h0.2h0.3c1-0.1,1.8-0.2,2.4-0.3h0.1h0.2l0.3,0.1V1.8c0.2-0.1,0.5-0.1,0.9,0c0.4,0.1,0.7,0.1,0.9,0
	C91.4,2,91.5,2,91.6,2c0.1,0,0.1,0,0.1-0.1L92.5,2c0.1,0,0.3,0,0.4,0c0.3,0,0.6,0.1,1,0.1v0.1v0.1c0.5,0,1.3,0.2,2.3,0.4v0.1h0.3
	c0.5,0.1,1,0.2,1.5,0.5L98,3.6h0.1l0.1-0.5c0.1,0,0.3,0.1,0.4,0.2l0.3-0.1L99.1,3c0.7,0.1,1.5,0.3,2.3,0.6v0.1
	c0.4,0.1,0.8,0.2,1,0.3v0.1l0.3,0.1v0.2c0.3,0.1,0.6,0.2,0.8,0.4c0.1,0.1,0.3,0.1,0.5,0.2v0.1c0.1,0,0.1,0,0.1,0l0.2,0.3h0.2
	l0.1,0.5h0.1V5.7c0.5,0.2,0.8,0.3,1.1,0.5l-0.1,0.3c0.1,0.1,0.3,0.1,0.5,0.2v0.1l0.2,0.1l0.1,0.2l0.1,0.1V7.1l0.2,0.2v0.2
	c0.2,0.1,0.4,0.2,0.5,0.3h0.1c0.1,0.1,0.1,0.2,0.1,0.4c-0.1,0.1-0.3,0.1-0.5,0.1v0.1h0.3v0.1c0.2-0.1,0.4-0.1,0.6-0.1
	c0,0.1-0.1,0.3-0.2,0.4c0.1,0,0.3,0,0.4,0l0.1,0.2c0.2,0.1,0.3,0.2,0.3,0.4h0.1c0.1,0.1,0.1,0.2,0.1,0.4h0.1V10l0.3,0.1v0.1h0.2v0.6
	l0.3,0.1c0,0.3,0,0.5,0,0.6h0.2v0.1c0.1,0,0.1,0,0.1,0L110,12l0.2,0.1v0.1h0.2l-0.2,0.1v0.2h0.3v0.2l-0.2-0.1v0.1h0.2v0.1l0.3-0.1
	v0.1c0.1,0,0.1,0,0.1,0l0.1,0.1l0.1,0.1l-0.1,0.1h-0.2l0,0c0-0.1,0,0.1,0.1,0.6h-0.1v-0.2c-0.1,0-0.2,0-0.2,0l0.1-0.1l-0.1,0.1v0.1
	l-0.1,0.2c0,0.1,0,0.2,0,0.2h0.3v0.2h-0.3v0.5c-0.1,0-0.2,0-0.2,0v0.4h0.3c0,0.1,0,0.7-0.2,1.8c-0.1,0.1-0.1,0.2-0.1,0.4v0.2
	c0.1,0,0.1,0,0.1,0c0,0.1-0.1,0.1-0.1,0.1V18v0.3h-0.2c-0.2,0.5-0.3,0.8-0.4,1h0.2v0.1c0.1,0,0.1,0,0.1,0l-0.1,0.2
	c-0.1,0.1-0.2,0.2-0.3,0.3h0.1V20c0,0.1,0,0.1-0.1,0.1c-0.2,0-0.3,0-0.5,0l-0.1,0.2l-0.1,0.1l-0.1,0.3h0.1l-0.1,0.2l-0.2,0.1
	c0,0-0.2,0.2-0.4,0.4c-0.2,0.2-0.3,0.3-0.3,0.4c0,0.2,0,0.3-0.1,0.3h-0.2c-0.1,0.1-0.1,0.1-0.2,0.2v0.3h-0.5
	c-0.1,0.2-0.2,0.4-0.4,0.6l-0.3-0.1v0.1h0.1l0.1,0.3h0.2l0,0c-0.1,0-0.2,0.1-0.4,0.1v0.1c0.2,0,0.4,0.1,0.6,0c0,0.1,0,0.1,0,0.1
	c0.1-0.1,0.1-0.2,0.1-0.3h0.2c0.5-0.3,1.1-0.8,1.7-1.5c0.6-0.7,1-1.2,1.2-1.6h0.1c1-1.9,1.7-3.6,1.8-5.2
	C111.7,14.2,111.6,13.7,111.5,13.1"/>
<path class="st0" d="M111.4,12.2L111.4,12.2L111.4,12.2L111.4,12.2z"/>
<path class="st0" d="M77.9,18.2l-0.2-0.1c0,0,0,0.1,0,0.2L77.9,18.2z"/>
<path class="st0" d="M102.1,13.8c0-4.6-3.8-8.2-8.4-8.3c-4.8,0-8.5,3.7-8.6,8.2c0,4.6,3.8,8.3,8.5,8.3
	C98.2,22.1,102.1,18.4,102.1,13.8"/>
</svg>
