<?xml version="1.0" encoding="utf-8"?>
<!-- Generator: Adobe Illustrator 24.2.0, SVG Export Plug-In . SVG Version: 6.00 Build 0)  -->
<svg version="1.1" id="Layer_1" xmlns="http://www.w3.org/2000/svg" xmlns:xlink="http://www.w3.org/1999/xlink" x="0px" y="0px"
	 viewBox="0 0 131 55" style="enable-background:new 0 0 131 55;" xml:space="preserve">
<style type="text/css">
	.st0{fill:#777777;}
</style>
<path class="st0" d="M43.2,15.4c-0.2,0.1-0.4,0.1-0.6,0.2c-1.8,0.8-3.6,1.7-5.4,2.5c-0.4,0.2-0.6,0.4-0.6,0.9c0,0.8,0,1.7,0,2.5
	c0,1.7,0,3.4-0.1,5.1h-0.1c0-0.1-0.1-0.1-0.1-0.2c-0.9-3.4-1.8-6.8-2.7-10.2c-0.2-0.8-0.5-1.7-0.8-2.5c-0.1-0.4-0.5-0.5-0.9-0.4
	s-0.6,0.3-0.6,0.8c0,0.9,0.1,1.8,0.1,2.7c0.1,2.7,0.3,5.5,0.3,8.2c0,2.2,0,4.3-0.1,6.5c0,1.5-0.1,3-0.1,4.5
	c-0.1,2.8-0.2,5.6-0.2,8.4c0,1.1,0,2.1,0,3.2c0.3-0.1,0.5-0.1,0.7-0.2c1.4-0.6,2.8-1.2,4.2-1.8c0.4-0.2,0.6-0.4,0.6-0.8
	c0-0.9,0-1.8,0-2.6c0-1.3,0-2.7,0-4c0.2,0,0.3,0.1,0.3,0.2c1.1,3.3,2.2,6.6,3.3,9.9c0.2,0.6,0.4,1.2,1.1,1.5c0.1-0.5,0.3-1,0.4-1.4
	c0.2-2.1,0.3-4.2,0.4-6.3c0.1-3.1,0.2-6.2,0.2-9.4c0.1-3.8,0.2-7.7,0.4-11.5c0-1,0.2-2,0.3-3C43,17.2,43.1,16.4,43.2,15.4"/>
<path class="st0" d="M112.9,20.5c0,1.6,0.2,3.2,0.4,4.7c0.1,1,0.5,2,1.4,2.6c1.4,1,2.8,1.3,4.5,1.1c2.2-0.2,4.4-2.1,4.7-4.2
	c0.3-1.8,0.3-3.7,0.3-5.5c0-2,0-4.1-0.1-6.1c-0.1-2.5-0.1-5-0.3-7.4c-0.1-1-0.4-2-0.8-2.9c-0.5-1.1-1.6-1-2.1,0
	c-0.4,0.8-0.7,1.7-1.1,2.7c1.3,0.5,1.7,1.5,1.7,2.7c0,1.9,0,3.8,0,5.7c-0.1,3.4-0.1,6.8-0.2,10.2c0,1.1-0.5,1.8-1.3,2
	c-0.4,0.1-0.6,0-0.7-0.3c-0.2-0.7-0.4-1.4-0.4-2.1c-0.1-1.5-0.1-3,0-4.4c0-2.3,0.1-4.5,0.2-6.8c0-0.9,0.3-1.8,1-2.4
	c0.4-0.3,0.7-0.7,0.9-1.1c0.1-0.1,0.1-0.4,0-0.6c-0.5-1-1-1.9-1.4-2.9c-0.4-0.8-0.7-1.6-1.1-2.3c-0.2-0.4-0.5-0.6-1-0.2
	c-0.7,0.6-1.5,1.2-2.1,1.9c-1.5,1.8-1.9,4.1-2,6.3C113,14.1,112.9,17.3,112.9,20.5"/>
<path class="st0" d="M100.4,6.6c-1.4,0.5-2.7,1.1-4.1,1.7C96.2,8.4,96,8.6,96,8.8c0,1.9,0,3.8-0.1,5.6c-0.1,3.4-0.3,6.8-0.3,10.2
	c-0.1,3.3,0,6.6,0,10c0.5-0.2,0.9-0.4,1.3-0.5c1.1-0.4,2.2-0.9,3.3-1.2c0.5-0.1,0.6-0.3,0.6-0.8c0-5,0.1-10,0.2-15
	c0-1.5,0.2-3.1,0.2-4.6c0.1-1.8,0.1-3.5,0.1-5.3C101.3,6.5,101.1,6.4,100.4,6.6"/>
<path class="st0" d="M68.4,16.6c2.2,0.7,5.1-1.3,4.9-3.6c0.1-1.6-1.1-3.2-3.2-3c-1.7,0.1-2.9,1.1-3.6,2.6
	C65.9,14.2,66.7,16,68.4,16.6"/>
<path class="st0" d="M97.8,7.1c2,0,3.7-2,3.7-4.1c0-1.3-0.6-2.2-1.7-2.6c-2.2-0.7-4.6,0.7-5.1,2.9C94.3,5.2,95.4,7.1,97.8,7.1"/>
<path class="st0" d="M84.3,23.6c-0.1,2.6-0.2,5.1-0.1,7.7c0,1.3,0.3,2.7,0.6,4c0.2,1,0.9,1.5,1.9,1.7h0.1c0.3,0,0.8,0.1,1.3,0.1l0,0
	c0.8-0.2,1.6-0.3,2.3-0.6c1.2-0.4,2.4-0.9,3.2-1.9c1.1-1.4,1.5-3,1.6-4.7c0-1.7-0.1-3.4,0-5.2c0.1-3.7,0.2-7.4,0.3-11.1
	c0-1.3,0.1-2.7,0.3-4c0.1-0.5-0.3-1-0.8-0.9c-0.8,0.1-1.6,0.3-2.3,0.4c0.1,1.5,0.3,3,0.3,4.5c0,3.6-0.1,7.2-0.2,10.8
	c0,1.9-0.1,3.7-0.2,5.6c0,0.9-0.1,1.9-0.7,2.7c-0.3,0.5-0.9,0.8-1.4,0.6c-0.3-0.1-0.6-0.6-0.6-1c-0.1-1-0.1-2-0.1-3
	c0-2,0-3.9,0.1-5.9c0-2.5,0-5.1,0-7.6c0-1.3-0.1-2.6,0.5-3.8c0.1-0.3,0.2-0.6,0.1-0.9c-0.2-0.8-0.8-0.9-1.7-0.4c-1,0.4-2,0.8-3,1.1
	c-0.5,0.2-1,0.3-1.3,0.4c0.2,1.1,0.5,2.1,0.5,3.2C84.5,18.1,84.3,20.9,84.3,23.6"/>
<path class="st0" d="M55.3,48.4c-0.9-0.4-1.6-1-2.2-1.7c-1.6-1.8-2.5-4-2.9-6.3c-0.8-4.4-0.4-8.6,1.4-12.7c0.9-2,2.3-3.6,4.1-5
	C55.6,31.3,55.5,39.8,55.3,48.4 M108.1,31.7c-1.8,0.5-3.7,0.8-5.4,1.4c-4,1.3-8.1,2.6-12.1,3.9c-1,0.3-2,0.6-3.1,1v-0.7H87l0,0
	c-0.9-0.1-1.8-0.1-2.6-0.2c-0.5-0.1-0.8-0.5-0.7-1.1c0.1-1.5,0.3-3,0.3-4.5c0.1-2,0.1-4,0.1-6c0-2.6,0.1-5.3,0-7.9
	c0-1.1-0.4-2.2-1.1-3.2c-0.6-0.7-1.9-0.9-2.7-0.4c-0.1,0.1-0.2,0.2-0.2,0.3c-0.1,1-0.2,2.1-0.3,3.1c1.3,0.4,1.6,0.8,1.6,2.2
	c0,1,0.1,2,0.1,3.1c0,2.9-0.1,5.7-0.1,8.6c0,1.1-0.1,2.2-0.2,3.4c-0.3-0.1-0.6-0.2-0.8-0.3c-0.4-0.2-0.7-0.1-0.8,0.4
	c-0.1,0.5-0.2,0.9-0.4,1.3c-0.2,0.5,0.1,0.8,0.5,1c0.3,0.1,0.7,0.3,1.1,0.4c-0.1,0.2-0.2,0.3-0.3,0.5c-0.5,0.6-1,0.6-1.3-0.1
	c-0.2-0.7-0.3-1.5-0.3-2.3c0-0.7,0.1-1.5,0-2.2c-0.2-2.2-0.3-4.3-0.2-6.5c0.1-1.4,0.4-2.7,1.7-3.5c0.2-0.1,0.3-0.2,0.4-0.3
	c0.1-0.2,0.3-0.5,0.2-0.7c-1-2.4-2-4.9-3-7.3c-0.1,0-0.2,0.1-0.2,0.1c-0.1,0.1-0.2,0.1-0.4,0.2c-1.9,1.2-2.9,3-3.5,5
	c-0.9,2.9-1,5.9-1.1,8.9c0,2,0.1,4,0.2,6c0.1,1.5,0.3,3,1,4.4c0.5,1.1,1.3,2,2.7,1.8c1-0.1,1.5-0.3,2.9-0.6c1.3-0.5,1.6-0.7,2.4-1.2
	c0.7-0.4,1.4-0.6,2.3,0c-1.1,0.4-2.1,0.8-3.1,1.1l-1.9,0.7c-1.3,0.5-2.6,1-3.9,1.5c-0.9,0.4-1.8,0.7-2.8,1.1
	c-0.7-9,0.1-17.9,0.4-26.8c-0.2,0.1-0.4,0.1-0.6,0.1c-1.3,0.5-2.7,1.1-4,1.6c-0.3,0.1-0.5,0.3-0.5,0.7c0,2.9-0.1,5.8-0.2,8.7
	c-0.1,3.3-0.2,6.6-0.3,9.9c-0.1,2-0.1,4.1-0.1,6.1c0,0.4,0.1,0.9,0.2,1.4c1.6-0.6,2.9-1.4,4.6-1.4c-0.1,0.1-0.2,0.2-0.4,0.2
	c-2.3,1-4.6,1.9-6.8,2.9c-1.6,0.7-3.2,1.5-5,1.7c-1.1,0.1-2.1,0.2-3.2-0.1c0-0.1,0-0.1,0-0.2c1.5-0.4,3-0.8,4.5-1.2
	c-0.1-1.1-0.2-2.2-0.2-3.3c0-1.6,0-3.2,0.1-4.9c0.1-2.3,0.2-4.6,0.3-7c0-0.3,0.1-0.7,0.3-0.7c0.8-0.3,1.5-0.4,2.3-0.6v15.4
	c0.7-0.2,1.4-0.4,2.1-0.5c0.4-0.1,0.5-0.3,0.5-0.7c0-2.4,0-4.8,0.1-7.3c0.1-3.5,0.2-7.1,0.4-10.6c0.1-1.5,0.1-2.9,0.1-4.4
	c0-1.2,0-2.4,0-3.8c-0.8,0.3-1.5,0.6-2.1,0.8c-0.5,0.2-0.7,0.4-0.7,0.9c0,2-0.1,4.1-0.1,6.1c0,0.8-0.1,1.3-1,1.4
	c-0.5,0.1-1,0.3-1.6,0.5v-7.8c-1.7,0.7-3.4,1.4-5.2,2.1c0-0.1-0.1-0.1-0.1-0.2c1.2-0.8,2.3-1.6,3.6-2.3c2.5-1.3,5.1-1.9,8.1-2.2
	c-0.2-0.3-0.3-0.6-0.5-0.8c-0.7-0.9-1.1-1.9-1.2-3c0-1.2,0.5-2.2,1-3.2c0.3-0.7,0.7-1.4,0.6-2.3c-0.7,0.1-1.4,0.2-2.1,0.4
	c-4.2,1-8.1,2.9-11.7,5.2c-2.3,1.5-4.3,3.4-5.9,5.7c-3.8,5.8-5.3,12.2-4.5,19.1c0.5,3.8,2.1,7.1,4.9,9.8c2.2,2,4.7,3,7.7,3
	c1.9,0,3.8-0.3,5.6-1.1c3.3-1.3,6.6-2.8,9.9-4.1c5.5-2.2,11.1-4.3,16.6-6.5c7-2.7,14-5.6,21.5-7c-0.1-0.4-0.2-0.8-0.4-1.2
	C108.7,31.7,108.4,31.6,108.1,31.7"/>
<path class="st0" d="M113.3,6.9c0.1-1.2,0.4-2.5,0.6-3.8c-0.1,0-0.2,0-0.4,0.1c-1.8,0.5-3.7,1.1-5.5,1.6c-0.4,0.1-0.6,0.3-0.6,0.7
	c0.1,2.3,0.1,4.5,0.1,6.8c0,0.4,0,0.7,0,1.2c-0.1-0.1-0.2-0.1-0.2-0.2c-0.3-2.1-1.2-4-2-5.9s-1.6-3.7-1.9-5.7
	c-0.1-0.4-0.5-0.9-0.8-1.3c-0.3-0.3-0.6-0.2-0.7,0.2c-0.1,0.5-0.2,1.1-0.2,1.7c0.1,2.7,0.4,5.4,0.4,8.2c0,4.4-0.1,8.8-0.2,13.2
	c-0.1,2.6-0.2,5.2-0.3,7.8c0,0.3-0.1,0.7-0.1,0.9c1.9-0.3,3.8-0.5,5.8-0.8v-6.4c0.4,0.7,0.6,1.5,0.8,2.3c0.9,2.9,1.7,5.7,2.6,8.5
	c0.2,0.6,0.4,1.1,1.1,1.5c0.2-0.4,0.5-0.7,0.5-1c0.1-1.1,0.1-2.2,0.2-3.3c0-0.1,0-0.2,0-0.3c0-0.2,0-0.3,0-0.5s0-0.3,0-0.5l0,0
	c0-0.5,0-1,0-1l0,0c0-0.2,0-0.4,0-0.5c0.1-2.3,0.1-4.6,0.1-6.8c0.1-3.5,0.1-7,0.2-10.5C112.8,11,113.1,8.9,113.3,6.9"/>
<path class="st0" d="M130.2,29.2c-0.7-0.1-1.5-0.3-2.2-0.3c-1.8,0-3.6-0.1-5.3,0.1c-2.3,0.3-4.6,0.7-6.9,1.2c-1,0.2-2,0.5-3,0.7v1.5
	c2.2-0.3,4.3-0.7,6.5-0.9c2.6-0.2,5.2-0.1,7.7,0.6c0.4,0.1,0.7,0.3,0.9,0.7c0.1,0.3,0.5,0.6,0.7,0.7c0.4,0,0.6-0.4,0.6-0.8
	c0-0.7,0.4-1.1,0.9-1.5c0.3-0.2,0.5-0.4,0.7-0.7C131.2,29.9,131,29.4,130.2,29.2"/>
<path class="st0" d="M22.7,22.8c0.3-1.3,0.5-2.6,0.4-4C23,16.4,22,14.6,20,13.3c-2.9-1.9-6.2-2-9.5-1.5c-3.8,0.6-7,2.6-10.5,4.3
	c1.5,2.2,2.9,4.4,4.3,6.6c0.4-0.2,0.6-0.3,0.9-0.4c1.7-0.6,3.4-1.3,5.1-1.9c1.4-0.5,2.8-0.4,3.9,0.7c1,0.9,1.4,2.1,1.7,3.3
	c0.5,2.3,0.1,4.5-0.5,6.6c-0.9,3.1-2.4,5.9-3.8,8.8c-0.1,0.3-0.4,0.5-0.6,0.8c-0.1,0-0.1,0-0.2,0c0.1-6.3,0.1-12.5,0.2-18.9
	c-2.1,0.6-4,1.2-5.9,1.8c-0.4,0.1-0.6,0.3-0.6,0.8c0,9.8,0,19.5,0,29.3c0,0.5,0,0.9,0,1.4c0.1,0,0.2,0.1,0.3,0.1
	c6-8.2,11.7-16.6,15.7-25.9C21.4,26.8,22.6,23,22.7,22.8"/>
<path class="st0" d="M29.3,21.5c-0.3-0.2-0.7-0.3-0.9,0c-0.7,1-1.3,2.1-1.6,3.4c1.3,0.1,2,0.8,2.2,2.1c0,0.3,0,0.6,0,0.9
	c0,2.2,0,4.3-0.1,6.5c-0.1,2.1-0.1,4.2-0.3,6.4c-0.1,1.1-0.3,2.2-0.5,3.3c-0.1,0.6-0.6,1.2-1.2,1.4c-0.3,0.1-0.6,0.1-0.7-0.4
	c-0.1-0.6-0.3-1.1-0.3-1.7c0-2.6-0.1-5.2,0-7.8c0-1.7,0.3-3.3,1.7-4.5c0.5-0.4,0.5-0.9,0.2-1.5c-0.2-0.4-0.4-0.8-0.5-1.2
	c-0.7-1.9-1.5-3.8-2.3-5.7c-1.2,0.6-1.9,1.6-2.6,2.6c-1.4,2.3-2.2,5.9-2.2,5.9l0,0c-0.1,0.5-0.2,1-0.3,1.5c-0.6,3.7-0.5,7.4,0.3,11
	c0.3,1.3,0.7,2.7,1.9,3.5c1,0.7,2.1,0.9,3.3,1c2.7,0.1,4.4-1.1,4.9-3.7c0.4-1.9,0.5-3.9,0.6-5.9c0.2-2.6,0.2-5.2,0.3-7.9
	c0.1-1.9,0.2-3.7,0.3-5.6C31.4,23.5,30.6,22.3,29.3,21.5"/>
</svg>
