<?xml version="1.0" encoding="utf-8"?>
<!-- Generator: Adobe Illustrator 24.2.0, SVG Export Plug-In . SVG Version: 6.00 Build 0)  -->
<svg version="1.1" id="Layer_1" xmlns="http://www.w3.org/2000/svg" xmlns:xlink="http://www.w3.org/1999/xlink" x="0px" y="0px"
	 viewBox="0 0 121 50" style="enable-background:new 0 0 121 50;" xml:space="preserve">
<style type="text/css">
	.st0{fill:#777777;}
</style>
<polygon class="st0" points="8.5,0.1 17.5,0.1 16.3,4.7 12.6,4.7 11.4,9.2 14.7,9.2 13.5,13.6 10.3,13.6 7.7,23.4 2.4,23.4 "/>
<polygon class="st0" points="18.8,0.1 27.7,0.1 26.5,4.7 22.9,4.7 21.8,9.2 25.1,9.2 23.9,13.6 20.6,13.6 19.2,18.7 23.2,18.7 
	22,23.4 12.7,23.4 "/>
<path class="st0" d="M33.8,4.1l-1.4,5.2c0.6,0,1-0.1,1.3-0.3c0.3-0.2,0.6-0.8,0.8-1.8L34.8,6c0.2-0.7,0.2-1.2,0-1.4
	C34.8,4.2,34.4,4.1,33.8,4.1 M29.6,0.1h3.8c2.5,0,4.2,0.1,5,0.3s1.4,0.8,1.7,1.7c0.3,0.9,0.2,2.3-0.3,4.3c-0.5,1.8-1,3-1.5,3.6
	c-0.6,0.6-1.4,1-2.6,1.1c1,0.3,1.6,0.7,1.8,1.2c0.2,0.5,0.3,1,0.3,1.4c0,0.4-0.3,1.6-0.8,3.4l-1.6,6.1h-4.9l2-7.7
	c0.3-1.2,0.4-2,0.4-2.3c-0.1-0.3-0.5-0.4-1.2-0.4L29,23.3h-5.3L29.6,0.1z"/>
<path class="st0" d="M47.7,4.1l-1.4,5.2c0.6,0,1-0.1,1.3-0.3c0.3-0.2,0.6-0.8,0.8-1.8L48.7,6c0.2-0.7,0.2-1.2,0-1.4
	C48.7,4.2,48.3,4.1,47.7,4.1 M43.5,0.1h3.8c2.5,0,4.2,0.1,5,0.3c0.8,0.2,1.4,0.8,1.7,1.7c0.3,0.9,0.2,2.3-0.3,4.3
	c-0.5,1.8-1,3-1.5,3.6c-0.6,0.6-1.4,1-2.6,1.1c1,0.3,1.6,0.7,1.8,1.2s0.3,1,0.3,1.4c0,0.4-0.3,1.6-0.8,3.4l-1.6,6.1h-4.9l2-7.7
	c0.3-1.2,0.4-2,0.4-2.3c-0.1-0.3-0.5-0.4-1.2-0.4l-2.7,10.4h-5.3L43.5,0.1z"/>
<polygon class="st0" points="57.3,0.1 66.3,0.1 65.1,4.7 61.5,4.7 60.3,9.2 63.7,9.2 62.5,13.6 59.1,13.6 57.8,18.7 61.8,18.7 
	60.4,23.4 51.2,23.4 "/>
<polygon class="st0" points="78.5,0.1 77.3,4.7 74.1,4.7 69.2,23.4 63.9,23.4 68.8,4.7 65.7,4.7 66.9,0.1 "/>
<polygon class="st0" points="79.7,0.1 88.5,0.1 87.3,4.7 83.8,4.7 82.6,9.2 85.9,9.2 84.8,13.6 81.5,13.6 80.1,18.7 84,18.7 
	82.8,23.4 73.6,23.4 "/>
<path class="st0" d="M94.7,4.1l-1.4,5.1c0.6,0,1-0.1,1.3-0.3c0.3-0.2,0.6-0.8,0.8-1.8l0.3-1.3c0.2-0.7,0.2-1.2,0-1.4
	C95.7,4.2,95.3,4.1,94.7,4.1 M90.4,0.1h3.8c2.5,0,4.2,0.1,5,0.3c0.8,0.2,1.4,0.8,1.7,1.7c0.3,0.9,0.2,2.3-0.3,4.3
	c-0.5,1.8-1,3-1.5,3.6c-0.6,0.6-1.4,1-2.6,1.1c1,0.3,1.6,0.7,1.8,1.2c0.2,0.5,0.3,1,0.3,1.4c0,0.4-0.3,1.6-0.8,3.4l-1.6,6.1h-4.9
	l2-7.7c0.3-1.2,0.4-2,0.4-2.3c-0.1-0.3-0.5-0.4-1.2-0.4l-2.9,10.5h-5.3L90.4,0.1z"/>
<polygon class="st0" points="109.7,0.1 103.6,23.4 98.2,23.4 104.4,0.1 "/>
<path class="st0" d="M114.2,15.1c0.4-2.6,1-5.9,1.8-9.7c-1.7,4.4-2.9,7.7-3.6,9.7H114.2z M121,0.1l-3.1,23.3h-5.4l0.8-4.2h-1.9
	l-1.4,4.2h-5.5l8.8-23.3H121z"/>
<path class="st0" d="M9.7,41c0.4-2.6,1-5.9,1.8-9.7C9.8,35.7,8.6,39,7.9,41H9.7z M16.5,26.1l-3.1,23.3H8l0.8-4.2H6.9l-1.4,4.2H0
	l8.8-23.3C8.8,26.1,16.5,26.1,16.5,26.1z"/>
<path class="st0" d="M24.7,30.1l-1.4,5.2c0.6,0,1-0.1,1.3-0.3c0.3-0.2,0.6-0.8,0.8-1.8l0.3-1.3c0.2-0.7,0.2-1.2,0-1.4
	C25.8,30.2,25.4,30.1,24.7,30.1 M20.5,26.1h3.8c2.5,0,4.2,0.1,5,0.3s1.4,0.8,1.7,1.7c0.3,0.9,0.2,2.3-0.3,4.3c-0.5,1.8-1,3-1.5,3.6
	c-0.6,0.6-1.4,1-2.6,1.1c1,0.3,1.6,0.7,1.8,1.2c0.2,0.5,0.3,1,0.3,1.4c0,0.4-0.3,1.6-0.8,3.4l-1.6,6.1h-5l2-7.7
	c0.3-1.2,0.4-2,0.4-2.3c-0.1-0.3-0.5-0.4-1.2-0.4l-2.7,10.4h-5.3L20.5,26.1z"/>
<path class="st0" d="M44.3,34.6H39l0.6-2.1c0.4-1.3,0.5-2.2,0.5-2.5s-0.2-0.5-0.6-0.5c-0.3,0-0.6,0.1-0.8,0.4
	c-0.2,0.3-0.4,1-0.8,2.2L35,43.3c-0.3,1-0.4,1.7-0.4,2.1c0,0.3,0.2,0.5,0.6,0.5s0.7-0.2,0.9-0.6c0.2-0.4,0.5-1.1,0.8-2.2l0.7-2.7
	h-1.1l0.9-3.5h6.2l-3.3,12.4H37v-1.7c-0.5,0.7-1.1,1.3-1.8,1.6c-0.6,0.4-1.3,0.5-2.1,0.5c-0.9,0-1.7-0.2-2.3-0.7
	c-0.6-0.5-1.1-1.1-1.3-1.8c-0.2-0.7-0.3-1.5-0.1-2.3c0.1-0.8,0.4-2,0.8-3.6l1.8-6.9c0.6-2.2,1.1-3.8,1.6-4.8c0.5-1,1.3-1.9,2.5-2.7
	c1.2-0.8,2.6-1.2,4.2-1.2c1.6,0,2.8,0.4,3.6,1.1c0.8,0.7,1.3,1.6,1.3,2.6c0.1,1-0.2,2.4-0.7,4.3L44.3,34.6z"/>
<polygon class="st0" points="48.6,26.1 57.4,26.1 56.2,30.8 52.7,30.8 51.5,35.2 54.8,35.2 53.7,39.6 50.3,39.6 49,44.6 52.9,44.6 
	51.7,49.4 42.5,49.4 "/>
<polygon class="st0" points="71.2,26.1 65.1,49.4 60.4,49.4 60.4,38.8 57.6,49.4 53.2,49.4 59.3,26.1 63.8,26.1 64.1,36.6 
	66.8,26.1 "/>
<polygon class="st0" points="84,26.1 82.8,30.8 79.7,30.8 74.8,49.4 69.5,49.4 74.4,30.8 71.2,30.8 72.4,26.1 "/>
<polygon class="st0" points="90.5,26.1 84.4,49.4 79.1,49.4 85.2,26.1 "/>
<polygon class="st0" points="104.6,26.1 98.4,49.4 93.8,49.4 93.8,38.8 91,49.4 86.6,49.4 92.7,26.1 97.1,26.1 97.3,36.6 
	100.1,26.1 "/>
<path class="st0" d="M109.2,41c0.4-2.6,1-5.9,1.8-9.7c-1.7,4.4-2.9,7.7-3.6,9.7H109.2z M115.9,26.1l-3.1,23.3h-5.4l0.8-4.2h-1.9
	l-1.4,4.2h-5.5l8.8-23.3C108.2,26.1,115.9,26.1,115.9,26.1z"/>
</svg>
