<?xml version="1.0" encoding="utf-8"?>
<!-- Generator: Adobe Illustrator 24.2.0, SVG Export Plug-In . SVG Version: 6.00 Build 0)  -->
<svg version="1.1" id="Layer_1" xmlns="http://www.w3.org/2000/svg" xmlns:xlink="http://www.w3.org/1999/xlink" x="0px" y="0px"
	 viewBox="0 0 86 84" style="enable-background:new 0 0 86 84;" xml:space="preserve">
<style type="text/css">
	.st0{fill:#777777;}
</style>
<path class="st0" d="M0.4,64.6c0-0.1,0.1-0.2,0.2-0.2h4.2c0.1,0,0.2,0.1,0.2,0.2v1.1c0,0.1-0.1,0.2-0.2,0.2H1.9v1.4h2.3
	c0.1,0,0.2,0.1,0.2,0.2v1.1c0,0.1-0.1,0.2-0.2,0.2H1.9v2.4c0,0.1-0.1,0.2-0.2,0.2H0.6c-0.1,0-0.2-0.1-0.2-0.2V64.6z"/>
<path class="st0" d="M6,64.6c0-0.1,0.1-0.2,0.2-0.2h1.2c0.1,0,0.2,0.1,0.2,0.2v6.6c0,0.1-0.1,0.2-0.2,0.2H6.2
	c-0.1,0-0.2-0.1-0.2-0.2C6,71.1,6,64.6,6,64.6z"/>
<path class="st0" d="M9.3,64.6c0-0.1,0.1-0.2,0.2-0.2h4.2c0.1,0,0.2,0.1,0.2,0.2v1.1c0,0.1-0.1,0.2-0.2,0.2h-2.8v1.2h2.3
	c0.1,0,0.2,0.1,0.2,0.2v1.1c0,0.1-0.1,0.2-0.2,0.2h-2.3v1.3h2.8c0.1,0,0.2,0.1,0.2,0.2v1.1c0,0.1-0.1,0.2-0.2,0.2H9.5
	c-0.1,0-0.2-0.1-0.2-0.2V64.6z"/>
<path class="st0" d="M14.9,70.3l0.5-0.8c0.1-0.1,0.3-0.1,0.3-0.1s0.8,0.6,1.4,0.6c0.4,0,0.7-0.2,0.7-0.6c0-0.4-0.3-0.7-1-1
	c-0.9-0.3-2-1-2-2.2c0-1,0.8-2,2.3-2c1.1,0,1.9,0.5,2.2,0.8c0.1,0.1,0.1,0.3,0.1,0.3l-0.5,0.8c-0.1,0.1-0.2,0.2-0.3,0.1
	c-0.1,0-0.8-0.6-1.4-0.6c-0.4,0-0.6,0.2-0.6,0.5c0,0.4,0.3,0.7,1.1,1c0.8,0.3,2,0.9,2,2.3c0,1-0.9,2.1-2.4,2.1c-1.3,0-2-0.5-2.3-0.8
	C14.8,70.5,14.8,70.5,14.9,70.3"/>
<path class="st0" d="M21.7,65.9h-1.4c-0.1,0-0.2-0.1-0.2-0.2v-1.1c0-0.1,0.1-0.2,0.2-0.2h4.5c0.1,0,0.2,0.1,0.2,0.2v1.1
	c0,0.1-0.1,0.2-0.2,0.2h-1.4v5.3c0,0.1-0.1,0.2-0.2,0.2H22c-0.1,0-0.2-0.1-0.2-0.2L21.7,65.9L21.7,65.9z"/>
<path class="st0" d="M28.9,69l-0.8-1.6l0,0L27.3,69H28.9z M24.7,71l3.2-6.7c0-0.1,0.1-0.1,0.2-0.1h0.1c0.1,0,0.1,0.1,0.2,0.1
	l3.2,6.7c0.1,0.1,0,0.3-0.2,0.3h-1.1c-0.2,0-0.3-0.1-0.3-0.2l-0.4-0.8h-2.7l-0.4,0.8c0,0.1-0.2,0.2-0.4,0.2H25
	C24.7,71.3,24.7,71.2,24.7,71"/>
<path class="st0" d="M34.5,64.5c0-0.1,0.1-0.2,0.2-0.2H35l4,3.8l0,0v-3.5c0-0.1,0.1-0.2,0.2-0.2h1.2c0.1,0,0.2,0.1,0.2,0.2v6.7
	c0,0.1-0.1,0.2-0.2,0.2h-0.2h-0.1l-4-3.9l0,0v3.7c0,0.1-0.1,0.2-0.2,0.2h-1.2c-0.1,0-0.2-0.1-0.2-0.2V64.5z"/>
<path class="st0" d="M45.5,69l-0.8-1.6l0,0L43.9,69H45.5z M41.4,71l3.2-6.7c0-0.1,0.1-0.1,0.2-0.1h0.1c0.1,0,0.1,0.1,0.2,0.1
	l3.2,6.7c0.1,0.1,0,0.3-0.2,0.3H47c-0.2,0-0.3-0.1-0.3-0.2l-0.4-0.8h-2.7l-0.4,0.8c0,0.1-0.2,0.2-0.4,0.2h-1.1
	C41.4,71.3,41.3,71.2,41.4,71"/>
<path class="st0" d="M52.1,64.3c1,0,1.8,0.3,2.5,0.9c0.1,0.1,0.1,0.2,0,0.3l-0.8,0.8c-0.1,0.1-0.2,0.1-0.2,0
	c-0.4-0.3-0.9-0.5-1.4-0.5c-1.1,0-2,0.9-2,2.1c0,1.1,0.9,2,2,2c0.5,0,1-0.2,1.4-0.5c0.1-0.1,0.2-0.1,0.3,0l0.8,0.8
	c0.1,0.1,0.1,0.2,0,0.3c-0.7,0.7-1.6,1-2.5,1c-2,0-3.7-1.6-3.7-3.6C48.5,65.9,50,64.3,52.1,64.3"/>
<path class="st0" d="M55.7,64.6c0-0.1,0.1-0.2,0.2-0.2H57c0.1,0,0.2,0.1,0.2,0.2v6.6c0,0.1-0.1,0.2-0.2,0.2h-1.2
	c-0.1,0-0.2-0.1-0.2-0.2V64.6z"/>
<path class="st0" d="M62.1,69.9c1.1,0,2-0.9,2-2c0-1.1-0.9-2-2-2s-2,0.9-2,2C60.1,69,61,69.9,62.1,69.9 M62.1,64.3
	c2,0,3.6,1.6,3.6,3.6c0,2-1.6,3.6-3.6,3.6c-2,0-3.6-1.6-3.6-3.6C58.5,65.9,60.1,64.3,62.1,64.3"/>
<path class="st0" d="M67,64.5c0-0.1,0.1-0.2,0.2-0.2h0.3l4,3.8l0,0v-3.5c0-0.1,0.1-0.2,0.2-0.2h1.2c0.1,0,0.2,0.1,0.2,0.2v6.7
	c0,0.1-0.1,0.2-0.2,0.2h-0.2h-0.1l-4-3.9l0,0v3.7c0,0.1-0.1,0.2-0.2,0.2h-1.2c-0.1,0-0.2-0.1-0.2-0.2L67,64.5z"/>
<path class="st0" d="M78,69l-0.8-1.6l0,0L76.5,69H78z M73.9,71l3.2-6.7c0-0.1,0.1-0.1,0.2-0.1h0.1c0.1,0,0.1,0.1,0.2,0.1l3.2,6.7
	c0.1,0.1,0,0.3-0.2,0.3h-1.1c-0.2,0-0.3-0.1-0.3-0.2l-0.4-0.8h-2.7l-0.4,0.8c0,0.1-0.2,0.2-0.4,0.2h-1.1
	C73.9,71.3,73.8,71.2,73.9,71"/>
<path class="st0" d="M81.5,64.6c0-0.1,0.1-0.2,0.2-0.2h1.2c0.1,0,0.2,0.1,0.2,0.2v5.3h2.4c0.1,0,0.2,0.1,0.2,0.2v1.1
	c0,0.1-0.1,0.2-0.2,0.2h-3.8c-0.1,0-0.2-0.1-0.2-0.2C81.5,71.1,81.5,64.6,81.5,64.6z"/>
<path class="st0" d="M20.8,80.5c1.1,0,2-0.9,2-2c0-1.1-0.8-2-2-2h-1v4H20.8z M18.3,75.2c0-0.1,0.1-0.2,0.2-0.2H21
	c2,0,3.6,1.6,3.6,3.5c0,1.9-1.6,3.5-3.5,3.5h-2.5c-0.1,0-0.2-0.1-0.2-0.2L18.3,75.2L18.3,75.2z"/>
<path class="st0" d="M25.7,75.2c0-0.1,0.1-0.2,0.2-0.2H30c0.1,0,0.2,0.1,0.2,0.2v1.1c0,0.1-0.1,0.2-0.2,0.2h-2.8v1.2h2.3
	c0.1,0,0.2,0.1,0.2,0.2V79c0,0.1-0.1,0.2-0.2,0.2h-2.3v1.3H30c0.1,0,0.2,0.1,0.2,0.2v1.1c0,0.1-0.1,0.2-0.2,0.2h-4.2
	c-0.1,0-0.2-0.1-0.2-0.2C25.7,81.8,25.7,75.2,25.7,75.2z"/>
<path class="st0" d="M31.6,75.2c0-0.1,0.1-0.2,0.2-0.2H33c0.1,0,0.2,0.1,0.2,0.2v5.3h2.4c0.1,0,0.2,0.1,0.2,0.2v1.1
	c0,0.1-0.1,0.2-0.2,0.2h-3.8c-0.1,0-0.2-0.1-0.2-0.2C31.6,81.8,31.6,75.2,31.6,75.2z"/>
<path class="st0" d="M39,75.2c0-0.1,0.1-0.2,0.2-0.2h4.2c0.1,0,0.2,0.1,0.2,0.2v1.1c0,0.1-0.1,0.2-0.2,0.2h-2.8v1.2h2.3
	c0.1,0,0.2,0.1,0.2,0.2V79c0,0.1-0.1,0.2-0.2,0.2h-2.3v1.3h2.8c0.1,0,0.2,0.1,0.2,0.2v1.1c0,0.1-0.1,0.2-0.2,0.2h-4.2
	c-0.1,0-0.2-0.1-0.2-0.2V75.2z"/>
<path class="st0" d="M44.5,81l0.5-0.8c0.1-0.1,0.3-0.1,0.3-0.1s0.8,0.6,1.4,0.6c0.4,0,0.7-0.2,0.7-0.6c0-0.4-0.3-0.7-1-1
	c-0.9-0.3-2-1-2-2.2c0-1,0.8-2,2.3-2c1.1,0,1.9,0.5,2.2,0.8C49,75.8,49,76,49,76l-0.5,0.8c-0.1,0.1-0.2,0.2-0.3,0.1
	c-0.1,0-0.8-0.6-1.4-0.6c-0.4,0-0.6,0.2-0.6,0.5c0,0.4,0.3,0.7,1.1,1s2,0.9,2,2.3c0,1-0.9,2.1-2.4,2.1c-1.3,0-2-0.5-2.3-0.8
	C44.5,81.2,44.4,81.2,44.5,81"/>
<path class="st0" d="M53.6,80.5c1.1,0,2-0.9,2-2c0-1.1-0.9-2-2-2s-2,0.9-2,2C51.6,79.6,52.5,80.5,53.6,80.5 M53.6,74.9
	c2,0,3.6,1.6,3.6,3.6c0,1.3-0.8,2.5-1.9,3.1l1.3,2c0.1,0.1,0,0.3-0.2,0.3H55c-0.1,0-0.1,0-0.2-0.1L53.7,82c-0.1,0-0.2,0-0.3,0
	c-2,0-3.6-1.6-3.6-3.6S51.6,74.9,53.6,74.9"/>
<path class="st0" d="M58.3,75.2c0-0.1,0.1-0.2,0.2-0.2h1.2c0.1,0,0.2,0.1,0.2,0.2v4c0,0.7,0.5,1.3,1.3,1.3c0.7,0,1.3-0.6,1.3-1.2
	v-4.1c0-0.1,0.1-0.2,0.2-0.2h1.2c0.1,0,0.2,0.1,0.2,0.2v4.1c0,1.5-1.3,2.8-2.9,2.8c-1.6,0-2.9-1.3-2.9-2.8
	C58.3,79.3,58.3,75.2,58.3,75.2z"/>
<path class="st0" d="M65.7,75.2c0-0.1,0.1-0.2,0.2-0.2h1.2c0.1,0,0.2,0.1,0.2,0.2v6.6c0,0.1-0.1,0.2-0.2,0.2h-1.2
	c-0.1,0-0.2-0.1-0.2-0.2V75.2z M65.5,74.3l-0.2-0.4c0-0.1,0-0.1,0.1-0.2l1.7-1c0.1,0,0.2-0.1,0.3,0l0.3,0.6c0.1,0.2,0,0.3-0.1,0.3
	l-1.8,0.8C65.6,74.5,65.5,74.4,65.5,74.3"/>
<path class="st0" d="M36.1,7.3c0.2,0,0.5,0,0.7-0.1C36.9,7.2,37,7.1,37,7c0-0.2,0.1-0.4,0-0.6c-0.1-1.1-0.3-2.2-0.5-3.4
	c-0.1-0.6,0.1-1.1,0.5-1.4c0,0.2,0,0.3,0,0.4c-0.2,0.8,0.1,1.5,0.3,2.2c0.2,0.6,0.3,1.2,0.5,1.9c0,0.2,0,0.4-0.1,0.6
	c0,0.2-0.1,0.3-0.2,0.5c0.1,0,0.2,0.1,0.3,0.1c0.4,0,0.5,0.1,0.6,0.5c0,0,0.1,0.5,0.3,1.3C39,9.1,39.3,9,39.5,9
	c-0.2-0.9-0.3-1.4-0.3-1.4c0-0.3,0-0.3,0-0.4c0.1-0.1,0.2-0.2,0.2-0.3c0.1-0.1,0.2-0.1,0.3-0.2c0.2-0.1,0.3-0.2,0.1-0.3
	c-0.5-0.2-0.6-0.6-0.6-1c-0.1-0.7-0.3-1.4-0.4-2.1c0-0.3,0-0.5,0.2-0.7c0.1-0.1,0.1-0.3,0.1-0.4c0-0.2-0.1-0.4-0.2-0.6
	c-0.1-0.5-0.1-0.7,0.4-1.1c0.1,0,0.1-0.1,0.2-0.2c-0.3-0.1-0.4-0.2-0.7-0.2c-0.6,0-1.1,0-1.7,0c-0.1,0-0.2,0.1-0.3,0.2
	c0.1,0.1,0.1,0.2,0.2,0.2c0.2,0.1,0.3,0.3,0.3,0.5c-0.4,0-0.7,0.1-0.9,0.3c-0.6,0.4-0.9,1-0.9,1.7C35.5,4.5,35.8,5.9,36.1,7.3
	C36.1,7.2,36.1,7.3,36.1,7.3"/>
<path class="st0" d="M46.2,6.7c0.1,0.1,0.2,0.1,0.3,0.2c0.1,0.1,0.1,0.2,0.2,0.3c0,0,0,0.1,0,0.2c0,0-0.1,0.5-0.3,1.5
	C46.7,8.9,47,9,47.2,9c0.2-0.8,0.3-1.3,0.3-1.3c0.1-0.4,0.2-0.5,0.6-0.5c0.1,0,0.2,0,0.3,0c-0.1-0.2-0.2-0.3-0.2-0.5
	c0-0.2-0.1-0.4-0.1-0.6c0.1-0.6,0.3-1.2,0.5-1.9c0.2-0.7,0.5-1.4,0.3-2.2c0-0.1,0-0.2-0.1-0.4c0.4,0.3,0.6,0.9,0.5,1.5
	c-0.1,1.1-0.3,2.3-0.5,3.4c0,0.2,0,0.4,0,0.6c0,0.1,0.2,0.2,0.2,0.2c0.2,0.1,0.5,0.1,0.7,0.1V7.3C50,5.9,50.3,4.5,50.3,3
	c0-0.7-0.3-1.3-0.9-1.7c0-0.2-0.3-0.3-0.6-0.4c0-0.2,0.1-0.3,0.3-0.4c0.1-0.1,0.1-0.1,0.2-0.2c-0.1,0-0.2-0.1-0.3-0.1
	c-0.6,0-1.1,0-1.7,0c-0.2,0-0.4,0.2-0.7,0.3c0.1,0.1,0.2,0.2,0.2,0.2c0.4,0.4,0.5,0.6,0.4,1.1C47.1,2,47.1,2.2,47,2.4
	c0,0.1,0,0.3,0.1,0.4c0.1,0.2,0.2,0.5,0.2,0.7c-0.1,0.7-0.3,1.4-0.4,2.1C46.8,6,46.7,6.4,46.2,6.7C46,6.5,46,6.6,46.2,6.7"/>
<path class="st0" d="M50.9,48.9c-0.8-0.2-1.6,0.1-2.4,0.2c-0.1-0.3-0.2-0.6-0.3-0.9c-0.1-0.4-0.2-0.8-0.3-1.2l0,0
	c-0.1-0.3-0.2-0.8-0.3-1.5c-0.2,0.1-0.5,0.3-0.8,0.4c0.1,0.4,0.2,0.7,0.2,1l0,0c0.1,0.6,0.2,1.1,0.4,1.6c0.1,0.2,0.1,0.5,0.1,0.7
	c-0.8,0.2-1.6,0.3-2.3,0.8v0.1c0.3,0,0.6,0,0.9,0c0.4,0,0.8-0.1,1.2-0.2c0.2,0,0.3,0,0.3,0.2c0.2,0.8,0.5,1.6,0.8,2.4
	c0,0.1,0.1,0.2,0.2,0.3s0.1,0.1,0.2,0.2c0.1-0.1,0.1-0.1,0.1-0.2c0-0.2,0-0.5,0-0.7c-0.1-0.6-0.2-1.1-0.3-1.7c0-0.2,0-0.5,0-0.7
	C49.4,49.5,50.1,49.2,50.9,48.9C50.9,49,50.9,49,50.9,48.9"/>
<path class="st0" d="M38.6,48.6c0.1-0.5,0.2-1.1,0.4-1.6l0,0c0.1-0.3,0.1-0.6,0.2-1c-0.2-0.1-0.5-0.3-0.8-0.4
	c-0.1,0.7-0.2,1.2-0.3,1.5l0,0c-0.1,0.4-0.2,0.8-0.3,1.2c-0.1,0.3-0.2,0.6-0.3,0.9c-0.8-0.1-1.6-0.4-2.4-0.2v0.1
	c0.8,0.3,1.5,0.5,2.3,0.7c0,0.2,0,0.5,0,0.7c-0.1,0.6-0.2,1.1-0.3,1.7c0,0.2,0,0.5,0,0.7c0,0.1,0.1,0.1,0.1,0.2
	c0.1,0,0.1-0.1,0.2-0.2c0.1-0.1,0.1-0.2,0.2-0.3c0.3-0.8,0.5-1.6,0.8-2.4c0.1-0.2,0.2-0.2,0.3-0.2c0.4,0.1,0.8,0.1,1.2,0.2
	c0.3,0,0.6,0,0.9,0v-0.1c-0.7-0.5-1.5-0.5-2.3-0.8C38.6,49.1,38.6,48.8,38.6,48.6"/>
<path class="st0" d="M23.3,6.8c1.2,1.3,2.4,2.7,3.6,4c0.1,0.1,0.7,0.9,1.8,2.1c1.5-1.2,3.2-2.2,5.2-2.9l-0.3-0.4
	c0-0.1-0.1-0.1-0.1-0.2c-1.3-1.7-2.5-3.5-3.8-5.3c-0.7-0.9-1.3-2-2.1-2.8c-0.7-0.6-1.5-1.1-2.4-1.3c-0.8,0-1.5,0-2.2,0.3
	c-0.2,0.1-0.5,0.3-0.6,0.5c-0.4,0.5-0.6,1.1-0.6,1.7c-0.1,0.7,0,1.3,0.2,2C22.2,5.3,22.7,6.1,23.3,6.8"/>
<path class="st0" d="M63,47.2c-1.9-2.2-3.8-4.4-5.6-6.6l-1.4-1.8c-0.4,0.5-0.7,0.9-1.2,1.3c-0.8,0.8-1.6,1.5-2.5,2.3
	c0.6,0.8,1,1.2,1.1,1.3c0.8,1.1,1.6,2.1,2.4,3.2c0.7,1,1.4,2,2.1,3c0.5,0.7,1,1.5,1.6,2.1c0.7,0.7,1.6,0.9,2.4,0.3
	c0.6-0.4,1.2-0.9,1.8-1.4c0.7-0.5,0.8-1.5,0.4-2.1C63.7,48.1,63.4,47.6,63,47.2"/>
<path class="st0" d="M57.4,12.9c1-1.2,1.7-2,1.8-2.1c1.2-1.3,2.4-2.7,3.6-4c0.7-0.7,1.2-1.5,1.4-2.5c0.2-0.6,0.3-1.3,0.2-1.9
	s-0.3-1.2-0.6-1.7c-0.1-0.2-0.4-0.3-0.6-0.4C62.5,0,61.8,0,61.1,0.2c-0.9,0.2-1.7,0.7-2.4,1.3c-0.9,0.8-1.4,1.8-2.1,2.8
	c-1.3,1.7-2.5,3.5-3.8,5.3c0,0.1-0.1,0.1-0.1,0.2l-0.3,0.4C54.2,10.8,56,11.7,57.4,12.9"/>
<path class="st0" d="M31.1,40.1c-0.4-0.4-0.8-0.9-1.2-1.3l-1.4,1.8c-1.9,2.2-3.7,4.4-5.6,6.6c-0.4,0.4-0.7,0.9-1.1,1.4
	c-0.4,0.6-0.3,1.7,0.4,2.2c0.6,0.5,1.2,1,1.8,1.4c0.8,0.6,1.7,0.4,2.4-0.3c0.6-0.7,1.1-1.4,1.6-2.1c0.7-1,1.4-2,2.1-3
	c0.8-1.1,1.6-2.1,2.4-3.2c0.1-0.1,0.5-0.5,1.1-1.3C32.7,41.7,31.9,40.9,31.1,40.1"/>
<path class="st0" d="M56.9,28.6L56.9,28.6c0,4.3-1.1,7.4-3.7,10c-2.7,2.8-6,5-9.7,6.6c-0.1,0-0.3,0.1-0.5,0.1c-0.2,0-0.4,0-0.5-0.1
	c-3.7-1.6-7-3.8-9.7-6.6c-2.6-2.6-3.7-5.6-3.7-9.9v-0.1c0-2.1,0-9.1,0.1-12.4c0-0.4,0.4-1.1,0.8-1.5c3.1-2.6,7.1-3.7,13-3.7
	s9.9,1.2,13,3.7c0.4,0.3,0.7,1,0.8,1.5C56.9,19.5,56.9,26.5,56.9,28.6 M58,16.1c0-0.8-0.6-1.8-1.2-2.4c-3.5-2.9-8.1-4-13.8-4
	s-10.3,1.1-13.8,4c-0.6,0.5-1.2,1.6-1.2,2.4c-0.1,3.7-0.1,12.1-0.1,12.5c0,4.2,1.1,7.7,4.1,10.8c2.9,3,6.3,5.2,10.1,6.9
	c0.3,0.1,0.6,0.2,1,0.2s0.7-0.1,1-0.2c3.8-1.6,7.2-3.9,10.1-6.9c3-3.1,4.1-6.6,4.1-10.7C58.1,28.2,58.1,19.8,58,16.1"/>
<path class="st0" d="M39.4,35c0.2,0.5,0.3,1,0.3,1.5c0,0.2,0.2,0.3,0.4,0.3s0.4,0,0.6,0.2c0.3,0.3,0.2,0.9,0.2,1.2
	c0,0.1,0.4,1.1,0.4,1.1s-0.1,1-0.2,1.4c-0.1,0.4,0,0.8,0,0.8s-1.7-1.9-1.8-2.3c-0.1-0.5-0.2-0.7,0-0.7c0.2,0,0.3-0.2,0.3-0.2
	l-0.4-2.6c0,0-0.2-0.1-0.4,0C38.6,35.7,39,35.2,39.4,35 M42,35.6c0,0,0.2-0.3,0.4-0.5c0,0,0.3,0.6,0.4,0.8c0,0,0-1.2,0.3-1.5
	s0.5-0.4,0.5-0.4l0.2,0.1c0,0,0.1-0.2,0.1-0.4c0-0.1,0.2,0.3,0.2,0.4c0,0.2,0.1,1.1,0.1,1.2c0,0.1,0.2,0,0.3,0.1
	c0.1,0,0.1,0.2,0.1,0.2s0,1-0.1,1.4c0,0.4-0.3,1.3-0.3,1.6c-0.1,0.3-0.6,1.8-0.7,1.9c0,0-0.2-0.6-0.5-0.8c-0.3-0.2-0.2-0.1-0.3-0.5
	c-0.1-0.4-0.1-0.5-0.4-0.8c-0.3-0.2-0.3-0.8-0.1-1.6C42.2,35.7,41.9,35.8,42,35.6 M46.9,37.2c0.2,0,0.3,0,0.4,0.1
	c0.2,0.1,0.3,0.1,0.5,0.1c0.1,0,0.3,0.2,0.4,0.1c0.1,0,0.1-0.2,0.1-0.2c0.4,0.3,0.4,0.8,0.5,1.2c-0.1-0.1-0.2-0.1-0.2-0.2
	c0,0.1,0,0.2-0.1,0.2c0,0.2,0,0.2,0,0.4c0,0.1,0.1,0.1,0.1,0.2c0,0.1-0.1,0.2-0.1,0.3c-0.2-0.3-0.4,0.1-0.6,0.2c0-0.2,0-0.5-0.2-0.6
	c-0.2-0.1-0.4-0.2-0.4-0.5c0-0.2,0-0.3,0-0.5c0-0.1,0-0.2-0.1-0.3C46.9,37.6,46.9,37.4,46.9,37.2 M42.9,43.9c0,0,0.1,0,0.2,0
	s0.2,0,0.2,0c3.2-1.4,5.9-3.3,8.3-5.7l0,0c-0.7-0.2-1.4-0.6-1.6-0.8c-0.3-0.3-0.4-0.6-1.1-0.6c-0.7,0-2,0.1-2.5-0.5
	c-0.5-0.6-0.7-1.9-1.4-2.2s-0.7-1.1-0.9-1.1c-0.2,0-0.6,0.1-0.8,0.2c-0.2,0.1-0.4,0.4-0.6,0.4s-0.4,0.5-0.7,0.9
	c-0.2,0.4-0.8,0.9-0.8,0.9s-0.8-0.8-1.2-1c-0.4-0.2-0.4-0.1-0.6-0.3c-0.1-0.2-0.9,1-1,1.2c-0.1,0.2-0.5,0.6-0.9,0.7
	c-0.4,0.1-0.9,0.5-1.3,0.6c-0.4,0-0.9,0.1-1,0.3c-0.1,0.2-0.7,0.5-0.7,0.5L34,37.8c0.1,0.1,0.2,0.2,0.2,0.2
	C36.7,40.5,39.5,42.4,42.9,43.9"/>
<path class="st0" d="M31.5,20.7c0-0.1,0.1-0.3,0.3-0.3h5.8c0.2,0,0.3,0.1,0.3,0.3v1.5c0,0.1-0.1,0.3-0.3,0.3h-3.9v2h3.2
	c0.1,0,0.3,0.1,0.3,0.3v1.5c0,0.1-0.1,0.3-0.3,0.3h-3.2V30c0,0.1-0.1,0.3-0.3,0.3h-1.7c-0.1,0-0.3-0.1-0.3-0.3L31.5,20.7L31.5,20.7z
	"/>
<path class="st0" d="M38.8,20.5c0-0.1,0.1-0.2,0.3-0.2h0.4l5.6,5.3l0,0v-4.9c0-0.1,0.1-0.3,0.3-0.3h1.7c0.1,0,0.3,0.1,0.3,0.3V30
	c0,0.1-0.1,0.3-0.3,0.3h-0.2c0,0-0.2,0-0.2-0.1l-5.5-5.5H41v5.2c0,0.1-0.1,0.3-0.3,0.3H39c-0.1,0-0.3-0.1-0.3-0.3L38.8,20.5z"/>
<path class="st0" d="M48.5,20.7c0-0.1,0.1-0.3,0.3-0.3h5.8c0.2,0,0.3,0.1,0.3,0.3v1.5c0,0.1-0.1,0.3-0.3,0.3h-3.9v1.7h3.2
	c0.1,0,0.3,0.1,0.3,0.3V26c0,0.2-0.1,0.3-0.3,0.3h-3.2v1.9h3.9c0.2,0,0.3,0.1,0.3,0.3V30c0,0.1-0.1,0.3-0.3,0.3h-5.8
	c-0.1,0-0.3-0.1-0.3-0.3V20.7z"/>
</svg>
