<?xml version="1.0" encoding="utf-8"?>
<!-- Generator: Adobe Illustrator 24.2.0, SVG Export Plug-In . SVG Version: 6.00 Build 0)  -->
<svg version="1.1" id="Layer_1" xmlns="http://www.w3.org/2000/svg" xmlns:xlink="http://www.w3.org/1999/xlink" x="0px" y="0px"
	 viewBox="0 0 201 64" style="enable-background:new 0 0 201 64;" xml:space="preserve">
<style type="text/css">
	.st0{fill:#777777;}
</style>
<path class="st0" d="M60.2,25.9L38.3,6.7C39.1,5.2,39,3.4,38,2c-1.5-2-4.3-2.4-6.3-1c-1.9,1.4-2.4,3.9-1.2,5.8L8.4,20.1
	c-0.1-0.1-0.1-0.2-0.2-0.3c-1.7-1.9-4.6-2.1-6.5-0.5c-1.9,1.6-2.2,4.5-0.5,6.5c0.8,0.9,1.9,1.4,3,1.6l5.3,23
	c-0.4,0.2-0.7,0.4-1.1,0.7c-1.9,1.6-2.2,4.5-0.5,6.5c1.7,1.9,4.6,2.2,6.5,0.5c0.7-0.6,1.1-1.3,1.4-2.1L26,57.4v0.5l0.6-0.4l16.6,2.4
	c0.2,1.5,1,2.8,2.4,3.6c2.3,1.2,5.1,0.4,6.3-1.8c1.1-2,0.6-4.4-1.2-5.8l10.1-21.1c1.5,0.4,3.2,0,4.4-1.1c1.9-1.8,2-4.7,0.2-6.6
	C64,25.6,61.9,25.2,60.2,25.9z M43.7,57.1c-0.1,0.2-0.1,0.3-0.2,0.5l-8.2-6.7l6.7-5.1l0.3-0.2l3.3,9.8
	C44.8,55.7,44.1,56.3,43.7,57.1z M41.8,45.5l-6.7,5.1L27,43.9c0.4-0.6,0.4-1.3,0.2-1.9l9-7.2c0.1,0.1,0.2,0.3,0.3,0.4
	c0.8,0.9,1.9,1.3,2.9,1.2l3,9L41.8,45.5z M14.9,51.4c-0.7-0.8-1.6-1.2-2.5-1.4l3.4-12.3c0.9,0.2,1.7-0.1,2.2-0.7l5.5,4.5
	c-0.6,0.7-0.6,1.8,0,2.6c0.1,0.1,0.2,0.2,0.3,0.3L14.9,51.4z M57.3,29.8l-15.1,2c-0.1-0.4-0.3-0.8-0.6-1.1c-0.3-0.3-0.6-0.6-1-0.8
	l4-5.6l12.9,4.5C57.4,29.2,57.3,29.5,57.3,29.8z M21.5,25.6L21.5,25.6L21.5,25.6C21.5,25.7,21.5,25.7,21.5,25.6z M32.8,24l4.2,6.2
	c-0.1,0.1-0.2,0.1-0.2,0.2c-0.4,0.4-0.7,0.8-0.9,1.3l-6.5-1.6l1.8-5.8C31.7,24.4,32.3,24.3,32.8,24z M35.7,31.9
	c-0.1,0.4-0.2,0.8-0.2,1.2L28,34.5l1.3-4.2L35.7,31.9z M37.1,30.1L33,23.9c0.3-0.2,0.5-0.4,0.7-0.7c0.2-0.4,0.3-0.9,0.3-1.3l2.9-0.1
	l1.2,8C37.6,29.8,37.3,30,37.1,30.1z M30.6,24c0.1,0.1,0.3,0.1,0.4,0.2l-1.8,5.9l-7.1-1.8c0.4-0.7,0.3-1.7-0.3-2.3l0.3-0.5l7.5-2.5
	C29.8,23.4,30.1,23.8,30.6,24z M21.7,28.8c0.1-0.1,0.2-0.2,0.3-0.3l7.1,1.8l-1.3,4.3l-9.4,1.8c0.1-0.2,0.1-0.3,0.2-0.5
	c0.2-1-0.2-1.9-1-2.5l2.4-4.1C20.5,29.4,21.2,29.2,21.7,28.8z M18.3,36.5l9.5-1.8l-1.9,6.1c-0.6-0.2-1.4-0.1-2,0.3
	c-0.1,0.1-0.1,0.1-0.2,0.2l-5.5-4.5C18.2,36.6,18.2,36.6,18.3,36.5z M26.9,41.5c-0.2-0.3-0.5-0.5-0.9-0.7l1.9-6.2l7.7-1.5
	c0,0.4,0.2,0.9,0.4,1.3L26.9,41.5L26.9,41.5z M40.4,29.9c-0.7-0.3-1.4-0.4-2.1-0.2l-1.1-7.9l7.3,2.6L40.4,29.9z M33.8,21.7
	c-0.1-0.6-0.5-1.2-1.1-1.5c-0.2-0.1-0.4-0.2-0.7-0.2l1.4-10.9c0.5,0.1,1,0.1,1.5,0l1.8,12.5L33.8,21.7z M33.3,9l-1.4,10.9
	c-0.5-0.1-1.1,0.1-1.5,0.4c-0.3,0.2-0.5,0.5-0.7,0.8c-0.2,0.3-0.2,0.6-0.3,0.9L24,22.3l8-13.9C32.4,8.7,32.9,8.8,33.3,9z M29.4,22.1
	c0,0.2,0,0.4,0.1,0.7l-7.2,2.5l1.7-2.9L29.4,22.1z M21.7,25.4l-0.5,0.2c-0.7-0.4-1.7-0.3-2.3,0.3c-0.4,0.4-0.6,1-0.6,1.5L8.7,25
	c0.3-0.6,0.5-1.3,0.5-1.9l14.3-0.7L21.7,25.4z M7.6,26.3c0.4-0.3,0.7-0.7,1-1.2l9.7,2.4c0.1,0.4,0.2,0.8,0.5,1.2
	c0.2,0.2,0.5,0.4,0.7,0.5l-2.3,4.1C17,33.1,16.8,33,16.6,33c-0.8-0.2-1.6,0.1-2.2,0.7l-8.1-6.7C6.8,26.9,7.2,26.6,7.6,26.3z
	 M26.4,44.5c0.1-0.1,0.2-0.2,0.3-0.3l8.2,6.7l-8.1,6.2L26.2,57l-0.8-12C25.7,44.9,26.1,44.7,26.4,44.5z M39.6,36.2
	c0.6-0.1,1.1-0.3,1.6-0.7c0.3-0.2,0.5-0.5,0.7-0.9l7.9,5L42.5,45L39.6,36.2z M42,34.4c0.4-0.7,0.5-1.5,0.3-2.3l15-2
	c0,1.1,0.4,2.2,1.2,3.1L50,39.5L42,34.4z M59.8,26.1c-0.4,0.2-0.8,0.4-1.1,0.8c-0.6,0.5-0.9,1.2-1.2,1.9l-12.8-4.5l5-6.9l-0.1-0.1
	l-5,6.9l-7.4-2.6l0,0L35.3,9c0.6-0.1,1.2-0.4,1.7-0.7c0.5-0.3,0.9-0.8,1.2-1.2L59.8,26.1z M30.6,7.1C30.6,7.1,30.6,7.2,30.6,7.1
	c0.4,0.5,0.7,0.8,1.1,1l-8.1,14L9.2,22.8c0-0.8-0.2-1.6-0.6-2.4L30.6,7.1z M4.5,27.3c0.5,0,0.9,0,1.4-0.2l8.3,6.8
	c-0.2,0.3-0.4,0.6-0.4,1c-0.2,0.9,0.1,1.7,0.7,2.2l-6.7,1.3v0.2l6.8-1.3c0.2,0.2,0.4,0.3,0.7,0.4L12,49.9c-0.7-0.1-1.4,0-2.1,0.3
	L4.5,27.3z M15.9,55.5c0.3-1.3,0-2.7-0.8-3.8l8.9-7.1c0.4,0.2,0.8,0.4,1.2,0.4l0.9,12L15.9,55.5z M26.2,57.4L26.2,57.4L26.2,57.4
	L26.2,57.4z M35,51l8.4,6.9c-0.2,0.5-0.2,1-0.2,1.5l-16.2-2.3L35,51z M50,55.2c-1.3-0.7-2.9-0.7-4.2-0.1l-3.3-9.9l7.4-5.5l6.1,3.9
	l-5.6,11.9C50.3,55.4,50.2,55.3,50,55.2z M56.2,43.4l-6-3.8l8.4-6.2c0.5,0.6,1.2,0.9,1.9,1.2L56.2,43.4z"/>
<path class="st0" d="M199.7,44.8c-0.2-0.3-0.4-0.8-0.4-1.5v-8.1c0-3.5-1-6.1-3.1-7.9c-2.1-1.8-5-2.7-8.8-2.7
	c-3.9,0-7.5,1.1-10.9,3.3l2.1,4.2c1.4-1,2.8-1.7,4.1-2.2s2.7-0.7,4.1-0.7c1.9,0,3.4,0.5,4.4,1.4s1.5,2.2,1.5,4V36
	c-0.9-0.4-1.8-0.6-3-0.8c-1.1-0.2-2.2-0.3-3.4-0.3c-1.6,0-3.1,0.2-4.5,0.6c-1.4,0.4-2.5,1-3.5,1.7c-1,0.7-1.7,1.6-2.3,2.7
	c-0.5,1-0.8,2.2-0.8,3.4c0,0.5,0.1,1,0.1,1.4c-0.4,0.2-0.9,0.4-1.4,0.5c-0.5,0.2-1,0.2-1.5,0.2c-1,0-1.7-0.3-2.2-0.9
	s-0.8-1.4-0.8-2.5V11H162v32.3l-6.2-2.9c-0.3,0.9-0.6,1.6-1.1,2.2c-0.5,0.6-1.1,1.1-1.7,1.5c-0.6,0.4-1.3,0.7-2,1
	c-0.7,0.2-1.4,0.4-2.1,0.4c-1.3,0.1-2.5,0-3.7-0.5c-1.1-0.4-2.1-1.1-2.9-1.9c-0.8-0.8-1.5-1.9-2-3c-0.5-1.2-0.8-2.4-0.9-3.7
	c-0.1-1.2,0-2.4,0.2-3.6c0.2-1.2,0.7-2.3,1.3-3.3c0.6-1,1.5-1.8,2.5-2.5c1-0.7,2.3-1.1,3.7-1.2c0.7-0.1,1.4,0,2.1,0
	c0.7,0.1,1.4,0.3,2.2,0.6c0.7,0.3,1.4,0.7,2,1.2c0.6,0.5,1.2,1.2,1.6,2l5.5-4.6c-1.3-2-3.2-3.6-5.5-4.7c-2.4-1.1-5.1-1.5-8.2-1.3
	c-2.6,0.2-4.9,0.9-6.8,2.1c-2,1.1-3.6,2.5-4.9,4.2c-1.3,1.7-2.2,3.5-2.8,5.5c-0.4,1.6-0.6,3.1-0.6,4.6c-0.1-0.6-0.3-1.1-0.5-1.6
	c-0.6-1.6-1.5-3-2.7-4.2c-1.2-1.2-2.6-2.2-4.2-2.9c-1.7-0.7-3.5-1.1-5.7-1.1c-2.1,0-4,0.4-5.7,1.1s-3.1,1.7-4.3,2.9
	c-1.2,1.2-2.1,2.6-2.7,4.2c-0.3,0.8-0.5,1.5-0.7,2.3v-2.7H92.4v4.9h7v2.4c-2.7,3.2-5.8,4.7-9.1,4.7c-1.5,0-2.8-0.3-4.1-0.9
	c-1.3-0.6-2.3-1.4-3.3-2.5c-0.9-1-1.6-2.3-2.2-3.7c-0.5-1.4-0.8-2.9-0.8-4.5s0.2-3,0.7-4.4c0.5-1.4,1.1-2.6,2-3.7
	c0.9-1.1,1.9-1.9,3.1-2.5c1.2-0.6,2.6-0.9,4.1-0.9c1.9,0,3.6,0.5,5.2,1.4c1.6,0.9,2.8,2.2,3.7,3.9l5.1-3.7c-1.2-2.3-2.9-4.1-5.3-5.5
	c-2.3-1.4-5.1-2-8.4-2c-2.4,0-4.7,0.5-6.7,1.4c-2.1,0.9-3.8,2.2-5.4,3.8c-1.5,1.6-2.7,3.4-3.6,5.5s-1.3,4.3-1.3,6.7
	c0,2.5,0.4,4.8,1.3,7c0.9,2.2,2,4,3.5,5.6s3.2,2.8,5.3,3.8c2,0.9,4.2,1.4,6.5,1.4c3.7,0,6.9-1.4,9.7-4.1v3.9h5.6v-9.7
	c0.2,0.8,0.4,1.6,0.7,2.3c0.6,1.6,1.5,3,2.7,4.2c1.2,1.2,2.6,2.2,4.3,2.9c1.7,0.7,3.6,1.1,5.7,1.1s4-0.4,5.7-1.1
	c1.7-0.7,3.1-1.7,4.3-2.9c1.2-1.2,2-2.6,2.7-4.2c0.6-1.6,0.9-3.2,0.9-4.9c0.3,1.3,0.8,2.6,1.4,3.8c1,2,2.3,3.7,3.8,5.1
	c1.6,1.5,3.4,2.6,5.5,3.4c2.1,0.8,4.3,1.1,6.7,0.9c1.4-0.1,2.7-0.4,4.1-0.9c1.4-0.5,2.7-1.1,3.9-1.8c1.2-0.8,2.3-1.7,3.2-2.7
	c0.7-0.8,1.2-1.7,1.6-2.6v0.4c0,2.3,0.6,4,1.9,5.3c1.3,1.2,3.1,1.9,5.4,1.9c1.1,0,2.3-0.1,3.6-0.4c1.3-0.3,2.5-0.6,3.5-1.1l-0.7-4.1
	c0,0.1,0.1,0.2,0.1,0.3c0.5,1,1.1,1.9,1.9,2.6c0.8,0.7,1.8,1.3,2.8,1.7c1.1,0.4,2.3,0.6,3.5,0.6c1.9,0,3.7-0.4,5.3-1.2
	c1.7-0.8,3.1-1.9,4.2-3.5l0.2,1.4c0.2,0.9,0.6,1.7,1.3,2.2c0.7,0.6,1.7,0.8,2.9,0.8c0.8,0,1.8-0.1,2.9-0.3v-5.6
	C200.4,45.3,200,45.1,199.7,44.8z M124.5,41.9c-0.3,1-0.8,1.8-1.4,2.5c-0.6,0.7-1.3,1.2-2.1,1.6c-0.8,0.4-1.7,0.6-2.7,0.6
	c-1,0-1.8-0.2-2.7-0.6c-0.8-0.4-1.5-0.9-2.1-1.6c-0.6-0.7-1.1-1.5-1.4-2.4c-0.3-0.9-0.5-2-0.5-3.1s0.2-2.1,0.5-3.1
	c0.4-0.9,0.8-1.8,1.4-2.4c0.6-0.7,1.3-1.2,2.2-1.6c0.8-0.4,1.7-0.6,2.7-0.6c1,0,1.8,0.2,2.7,0.6c0.8,0.4,1.5,0.9,2.2,1.6
	c0.6,0.7,1.1,1.5,1.4,2.5c0.4,1,0.5,2,0.5,3.1C125.1,40,124.9,41,124.5,41.9z M192.7,42.5c0,0.7-0.4,1.3-1.1,1.9
	c-0.6,0.7-1.4,1.2-2.4,1.6c-1,0.4-2.1,0.6-3.2,0.6c-1.3,0-2.3-0.4-3.2-1.1s-1.3-1.7-1.3-2.8c0-1.2,0.6-2.2,1.7-2.9
	c1.1-0.8,2.5-1.2,4.2-1.2c0.9,0,1.8,0.1,2.7,0.3s1.8,0.4,2.6,0.7V42.5z"/>
</svg>
