<?xml version="1.0" encoding="utf-8"?>
<!-- Generator: Adobe Illustrator 24.2.0, SVG Export Plug-In . SVG Version: 6.00 Build 0)  -->
<svg version="1.1" id="Layer_1" xmlns="http://www.w3.org/2000/svg" xmlns:xlink="http://www.w3.org/1999/xlink" x="0px" y="0px"
	 viewBox="0 0 132 29" style="enable-background:new 0 0 132 29;" xml:space="preserve">
<style type="text/css">
	.st0{fill:#777777;}
</style>
<path class="st0" d="M120.5,17.9c-0.4,2.5-2.2,4-3.9,4h-1.4h-1.7c-1.7,0-3.6-1.4-3.9-3.9c-0.1-1.1-0.1-2.2-0.1-3.3
	c0-1.2,0-2.9,0.1-3.9c0.2-2,1.9-3.6,4.1-3.7c0.5-0.1,0.8-0.1,1.4-0.1l1.6,0.1c2.2,0.1,3.7,1.7,4,3.7c0.1,1.1,0.1,2.8,0.1,3.8
	C120.6,15.7,120.6,16.8,120.5,17.9 M131.4,9.8c-0.8-4.9-4.9-8.9-9.9-9.5c-1.8-0.2-3.9-0.4-6.2-0.4h-0.8c-2.3,0-4.3,0.1-6.2,0.4
	c-5,0.6-9,4.6-9.8,9.5c-0.1,0.8-0.4,2.8-0.4,4.7c0,2,0.2,4,0.4,4.7c0.8,5,4.8,8.9,9.8,9.6c1.9,0.1,4,0.4,6.4,0.4h0.7
	c2.3,0,4.4-0.2,6.2-0.4c5-0.7,9.1-4.5,9.9-9.6c0.1-0.7,0.4-2.6,0.4-4.7C131.8,12.6,131.6,10.7,131.4,9.8"/>
<path class="st0" d="M72.2,14.5c0-1.6,0.1-3.1,0.5-4.7c0.8-4.9,4.8-8.9,9.8-9.5c1.8-0.2,4-0.3,6.3-0.3c2.5,0,4.8,0.1,6.7,0.4
	c0.7,0.1,1.2,0.7,1.2,1.4v4.3c0,0.8-0.6,1.4-1.3,1.4c0,0-2.3-0.1-3.5-0.1c-1.4,0-2.6,0-3.9,0.1c-2.2,0.1-3.7,1.7-3.9,3.7
	c-0.1,1.1-0.2,2.2-0.2,3.2v0.1c0,1.1,0.1,2.2,0.2,3.2c0.2,2,1.7,3.6,4,3.8c1.2,0.1,2.6,0.2,4,0.2c1.2,0,3.5-0.1,3.5-0.1
	c0.7,0,1.3,0.6,1.3,1.4v4.3c0,0.7-0.5,1.3-1.2,1.4c-1.9,0-4.2,0.1-6.7,0.1c-2.3,0-4.4-0.2-6.2-0.4c-5-0.7-9-4.5-9.8-9.6
	c-0.4-1.4-0.5-3-0.5-4.5v0.2H72.2z"/>
<path class="st0" d="M69,21.5c0.8,0,1.4,0.7,1.4,1.4v4.3c0,0.8-0.6,1.4-1.4,1.4H52c-3.1,0-5.6-2.5-5.6-5.6V6.1
	c0-3.1,2.5-5.6,5.6-5.6h17c0.8,0,1.4,0.6,1.4,1.3V6c0,0.8-0.6,1.4-1.4,1.4H58.6c-0.8,0-1.4,0.5-1.4,1.3v2.6l9-0.1
	c0.7,0,1.4,0.7,1.4,1.4v3.6c0,0.8-0.7,1.4-1.4,1.4h-9v2.4c0,0.8,0.6,1.4,1.4,1.4H69V21.5z"/>
<path class="st0" d="M25.6,28.6c-2.5,0-4.7-1.7-5.4-3.9L14.4,2.2V1.8c0-0.7,0.6-1.3,1.4-1.3h8.7c0.7,0,1.3,0.5,1.4,1.1l4.6,18.8
	c0,0.2,0.2,0.5,0.6,0.5c0.2,0,0.5-0.2,0.5-0.5l4.7-18.8C36.4,1,37,0.5,37.5,0.5h4.9c0.8,0,1.4,0.6,1.4,1.3v0.4l-5.6,22
	c-0.6,2.5-2.6,4.4-5.5,4.4C32.8,28.6,25.6,28.6,25.6,28.6z"/>
<path class="st0" d="M1.6,0.5H10c0.8,0,1.4,0.6,1.4,1.3v25.4c0,0.8-0.6,1.4-1.4,1.4H1.6c-0.7,0-1.4-0.6-1.4-1.4V1.8
	C0.2,1.1,0.9,0.5,1.6,0.5"/>
</svg>
