<?xml version="1.0" encoding="utf-8"?>
<!-- Generator: Adobe Illustrator 24.2.0, SVG Export Plug-In . SVG Version: 6.00 Build 0)  -->
<svg version="1.1" id="Layer_1" xmlns="http://www.w3.org/2000/svg" xmlns:xlink="http://www.w3.org/1999/xlink" x="0px" y="0px"
	 viewBox="0 0 108 43" style="enable-background:new 0 0 108 43;" xml:space="preserve">
<style type="text/css">
	.st0{fill:#777777;}
</style>
<path class="st0" d="M107.3,20.2c0.2-1-1.2-0.5-1.3,0.2c-0.2,0.7-0.5,1.3-1.3,1.6c-0.5,0.2-1,0.5-1.3,1c-3.2,2.6-7.6,2.9-11.6,2.2
	c-6-1.1-10.7-5.2-14.6-9.6c-1.8-1.8-3.8-3.4-4.6-6C72.6,9,72.1,8.9,71.6,9c-1,0.2-1-1.1-1.4-1.8c-0.1-0.4-0.6-0.3-0.6,0.1
	c-0.1,0.2,0.2,0.8-0.2,0.8c-0.2,0-0.4,0-0.5-0.3c0-0.8-0.1-1.6-0.7-2.1c-0.3-0.4-0.6-0.3-0.7,0.2c-0.2,0.8-1.2-0.5-1-0.8
	c0.8-1.6-1.2-0.4-1.1-1.5c0.2-1.2-1.2-2.2-1.9-3C62.2-0.1,61,0.1,59.7,0c-0.2,0-0.4,0.1-0.4,0.3c-0.1,0.7-0.6,0.8-1.2,0.9
	C57,1.1,57.4,2.5,56.8,3c-0.6,0.6-2.1,2.3-3,1.3c-0.8-1-1.7-1.3-2.9-0.7c-0.5,0.3-0.8,0.1-0.9-0.5c-0.2-0.6-0.8-1-1.3-0.7
	c-0.3,0.2-0.7,0.5-0.7,1c0,0.8-0.5,1.5-0.8,2.1c-0.6,1.5-2.1-1.3-2.2,0.8c0,0.4-0.1,0.6-0.6,0.6c-1.4-0.1-1.9,1.8-3.2,2.2
	c-10.9,5.2-21.9,10-33,14.9c-2.4,1-4.9,1.9-7.5,2.2c-0.6,0.1-0.1,0.6,0.2,0.7c3.3,2,6.7,2.4,10,0.4c3.9-2.2,7.6-4.4,11.5-6.6
	c5.5-3.4,11.5-5.6,16.9-8.8c0.7-0.8,1.9,0,2.6-0.6c0.2-0.2,0.4-0.2,0.7-0.2c0.6-0.1,0.8-0.7,1.4-0.8c0.8-0.2,1.1-1.2,2-0.8
	c1.2,0.5,2-0.8,3.2-0.7c0.3,0,0.6-0.1,0.7-0.3C50,7.8,50.3,8,50.6,8.1c1.2,0.3,2.4,0.4,3.5,1c1.1,0.5,1.3,1.8,1.9,2.8
	c0.5,0.9,0.9,1.1,1.7,0.6c1-0.5,2,0.1,2.9,0.4c1.8,0.8,3.7-1.6,4.5,1.1c0.6,1.6,1.8,2.4,3.5,2.3c1.3,0,2.5,0.4,3.4,1.4
	c1.5,1.7,3.8,1.2,5.6,2.3c6.9,4.7,13.7,9.1,22.5,7.9c0.5,0,1.1-0.1,1.3-0.6c0.6-1,1.5-1.4,2.5-1.7c1.1-0.3,2-0.8,2.5-1.9
	c0.1-0.3,0.3-0.4,0.6-0.5C107.9,22.4,107,21.1,107.3,20.2z"/>
<path class="st0" d="M68.8,32.5c-2.8,0-5.6,0-8.3,0c-1.2,0-2.1,0.5-2.9,1.3c-2.9,3.1-1.3,9.3,3.4,9h3.6c2.5-0.2,5.5,0.7,7.2-1.5
	C74.2,38.6,73,32.5,68.8,32.5z M70.6,39.5c-1.3,2.1-4.1,1-6.1,1.3c-1.1,0-2.3-0.1-3.4,0c-2.3,0.2-3.7-2-3-4.2
	c0.4-1.2,1.4-2.1,2.8-2.1c2.4,0.1,4.7,0.1,7.1,0C70.6,34.3,72,37.4,70.6,39.5z"/>
<path class="st0" d="M107.4,13.1c0-0.2,0-0.4-0.1-0.5c-0.2-0.4,0.4-0.8,0-1.3c-0.6-0.9,0-2.2-1.1-2.9c-0.4-0.3-0.7-0.9-1.3-1.1
	c-0.4-0.6-0.6-1.5-1-2.2c-0.2-0.5-0.7-0.2-0.9-0.6c-0.1-0.3-0.4-0.3-0.6,0c-0.1,0.1-0.3,0.3-0.4,0c-0.2-0.4-0.5-0.3-0.8-0.2
	c-0.3,0.1-0.8,0.1-1.1,0c-0.4-0.2-1.1-0.3-0.7-1.1c0.1-0.1,0-0.2-0.1-0.3c-0.3-0.2-1.3,0-1.5,0.3c-0.1,0.2-0.3,0.4-0.5,0.2
	c-0.5-0.3-1.2,0.1-1.8-0.1c-0.4-0.1-0.6,0-0.9,0.2c-0.2,0.2-0.4,0.5-0.6,0c0-0.1-0.2-0.2-0.3-0.1c-0.3,0.5-0.9,0.4-1.2,0.8
	c-0.2,0.2-0.3,0.5-0.5,0.1c-0.1-0.2-0.3,0-0.4,0.1c-0.7,0.8-1.6,1.3-2.3,2.1c-0.1,0.1-0.2,0.2-0.3,0.2c-0.4,0-0.5,0.2-0.6,0.5
	c-0.8,1.4-1.7,2.8-1.8,4.5c0,0.3-0.5,0.4-0.4,0.7c0.1,0.6,0,1.2-0.1,1.8c-0.1,0.6,0.4,0.9,0.5,1.4c0.3,1.4,1.1,2.5,1.7,3.7
	c0.2,0.3,0.4,0.5,0.8,0.3c-0.5-1-1.5-1.7-1.3-2.9c0.1-0.6,0.3-1.3,0.1-1.9c-0.3-1.2,0-2.3,0.4-3.4c0.6-2,2.6-2.7,4-4.1
	c0.5-0.4,1.3,0,1.7-0.6c0.8-1,2.1,0,3.1-0.4c1.2-0.4,2.2,0.6,3.4,0.5c1.5,0,2,1.8,3.5,1.7c0.3,0,0.5,0.1,0.7,0.3
	c0.6,0.7,1.4,1.2,1.4,2.3c0.4,0.6,0.4,1.4,0.9,1.9c0.2,0.1,0,0.4-0.1,0.6c-0.1,1-0.5,2.5,0.5,3.1C107,15.3,107.9,14.3,107.4,13.1z"
	/>
<path class="st0" d="M106.6,40.8c-4.6-2.7-9.1-5.4-13.6-8c-1-0.6-1.7-0.2-1.8,1c0,2.7,0,5.5,0,8.1c0,0.7,0.4,1.2,1,1.2
	c1.2,0,0.9-1.9,0.9-2.8c0-0.5,0.1-0.7,0.6-0.7c2.4,0.2,5-0.4,7.2,0.3c1.7,1,3.4,2,5,3c0.3,0.2,0.7,0.4,1,0.1
	C107.6,42.3,107.5,41.1,106.6,40.8z M97.2,37.7c-1.3,0-2.5,0-3.8,0c-0.3,0-0.3-0.1-0.3-0.3c0-0.7,0-1.4,0-2.2
	C94.5,36,95.9,36.9,97.2,37.7C97.2,37.6,97.2,37.6,97.2,37.7z"/>
<path class="st0" d="M53.9,32.5c-1.6,0.1-0.7,3.3-0.9,4.5c0,0.4-0.1,0.5-0.5,0.5c-3.8,0-7.5,0-11.3,0c-0.4,0-0.5-0.1-0.5-0.5
	c0-1.2,0-2.3,0-3.5c0-0.7-0.6-1.1-1.2-0.9c-1.1,0.7-0.4,2.7-0.6,3.9c0.3,1.4-0.8,6.4,0.9,6.6c0.6,0,0.9-0.4,0.9-1.3
	c0.2-0.6-0.4-2.3,0.5-2.2c3.8,0,7.6,0,11.4,0c0.4,0,0.5,0.1,0.5,0.5c0.1,1-0.4,2.9,0.9,3c0.5,0,0.9-0.4,0.9-1.1c0-2.8,0-5.6,0-8.3
	C54.9,32.9,54.5,32.5,53.9,32.5z"/>
<path class="st0" d="M31.6,32.6c-4.7,2.8-9.2,5.5-13.9,8.2c-1.3,0.7-0.5,2.9,1,1.8c1.9-1,3.6-2.4,5.6-3.2c2.3,0,4.5,0,6.8,0
	c0.3,0,0.4,0.1,0.4,0.4c0.1,0.9-0.4,3.1,0.9,3.1c1.6-0.1,0.6-4,0.9-5.2C32.8,36.4,34.1,31.4,31.6,32.6z M31.1,37.7
	c-1.3,0-2.5,0-3.8,0v-0.1c1.4-0.8,2.7-1.6,4.2-2.5c0,0.8,0,1.6,0,2.3C31.4,37.6,31.3,37.7,31.1,37.7z"/>
<path class="st0" d="M15.2,40.7c-3.9,0-7.7,0-11.6,0c-1,0-1.3-0.3-1.3-1.3c0-2,0-4,0-6c0.1-1.4-1.9-1.5-1.8,0
	c0.4,3.1-1.7,9.2,3.1,9.3c3.9,0,7.7,0,11.6,0C16.7,43,16.6,40.5,15.2,40.7z"/>
<path class="st0" d="M88.5,32.8c-2,1.2-4,2.3-5.9,3.5c-0.3,0.2-0.6,0.2-0.9,0c-2-1.2-4-2.4-6-3.6c-0.9-0.5-1.5-0.1-1.5,0.9
	c0,0.5,0.2,0.8,0.6,1c1.6,0.9,3.1,2,4.8,2.8c1.3,0.7,2.1,1.4,1.7,2.7c0.1,1.1-0.4,2.8,0.9,2.9c0.5,0,0.9-0.4,0.9-1.1c0-1,0-2,0-3
	c0-0.4,0.1-0.6,0.4-0.8c2-1.1,4-2.3,6-3.5c0.3-0.2,0.6-0.3,0.7-0.7C90.3,33,89.4,32.2,88.5,32.8z"/>
</svg>
