<?xml version="1.0" encoding="utf-8"?>
<!-- Generator: Adobe Illustrator 24.2.0, SVG Export Plug-In . SVG Version: 6.00 Build 0)  -->
<svg version="1.1" id="Layer_1" xmlns="http://www.w3.org/2000/svg" xmlns:xlink="http://www.w3.org/1999/xlink" x="0px" y="0px"
	 viewBox="0 0 151 56" style="enable-background:new 0 0 151 56;" xml:space="preserve">
<style type="text/css">
	.st0{fill:#777777;}
</style>
<path class="st0" d="M27.7,7.3c11.2,0,20.4,9,20.5,20.1h7C55.2,12.3,42.9,0,27.7,0C12.6,0,0.3,12.2,0.2,27.2h7
	C7.4,16.2,16.5,7.3,27.7,7.3"/>
<path class="st0" d="M145.5,32.5c-0.7,0.8-1.6,1.2-2.8,1.2c-1.1,0-2-0.4-2.7-1.2c-0.7-0.8-1.1-1.9-1.1-3.3s0.4-2.5,1.1-3.3
	c0.7-0.8,1.6-1.2,2.8-1.2c1.1,0,2.1,0.4,2.8,1.2c0.7,0.8,1.1,1.9,1.1,3.3C146.5,30.6,146.1,31.7,145.5,32.5 M150.3,25.9
	c-0.4-1-0.9-1.8-1.6-2.5c-0.7-0.7-1.5-1.2-2.5-1.5c-1-0.4-2.1-0.5-3.4-0.5s-2.4,0.2-3.4,0.5c-1,0.4-1.8,0.9-2.5,1.5
	c-0.7,0.7-1.2,1.5-1.6,2.5c-0.4,1-0.5,2.1-0.5,3.3c0,2.5,0.7,4.4,2.1,5.8s3.4,2.1,6,2.1c1.3,0,2.4-0.2,3.4-0.5
	c1-0.4,1.9-0.9,2.6-1.5c0.7-0.7,1.2-1.5,1.6-2.4c0.4-1,0.6-2.1,0.6-3.3S150.6,26.9,150.3,25.9"/>
<path class="st0" d="M134,25.2l0.1-3.6c-0.3,0-0.7-0.1-1-0.1c-2.4,0.2-3.8,1-4.8,3.1v-2.8H124v14.8h4.8v-6.3
	C128.9,25.4,134,24.4,134,25.2"/>
<path class="st0" d="M110.6,35c0.7,0.7,1.6,1.2,2.6,1.6c1,0.4,2.1,0.6,3.4,0.6c1.9,0,3.5-0.2,4.8-0.7l-0.1-3.8
	c-3.1,1.8-8.6,1.1-8.6-3.2c0-4,5.2-4.8,8.3-3.2l0.4-3.6c-1.5-0.5-2.9-0.8-4.2-0.8c-1.4,0-2.6,0.2-3.6,0.5c-1.1,0.4-2,0.9-2.7,1.5
	c-0.7,0.7-1.3,1.5-1.7,2.4c-0.4,0.9-0.6,2-0.6,3.2c0,1.1,0.2,2.2,0.6,3.1C109.3,33.5,109.8,34.3,110.6,35"/>
<path class="st0" d="M96.3,33.5c-0.4-0.3-0.5-0.8-0.5-1.3c0-0.8,0.4-1.4,1.1-1.7c0.7-0.3,1.8-0.5,3.3-0.5h1.2v3.4
	C101.3,34.2,97.1,34.3,96.3,33.5 M101.8,36.8l3.8-0.1l0,0v-7.8c0-2.6-0.5-4.5-1.6-5.7s-3.4-2-5.7-2c-2,0-3.9,0.3-5.6,1l0.1,3
	c1.7-0.8,5.1-1.2,6.2-1.1c2.1,0.2,2.3,1.2,2.3,3.2h-2.1c-2.6,0-4.5,0.4-5.7,1.2c-1.2,0.8-1.8,2-1.8,3.7c0,1.4,0.4,2.6,1.3,3.4
	c2,2,7.3,1.3,8.9,0.9L101.8,36.8z"/>
<polygon class="st0" points="69.8,20.9 74.6,36.7 79.2,36.7 83.8,20.8 84,23.2 84.7,36.7 89.5,36.7 88.2,16.6 81.2,16.6 77.1,30.8 
	77.1,30.8 73.1,16.6 66,16.6 64.6,36.7 69.2,36.7 "/>
<polygon class="st0" points="0.4,42.9 0.4,44.1 3.2,44.1 3.2,53 4.7,53 4.7,44.1 7.5,44.1 7.5,42.9 "/>
<rect x="107.7" y="42.4" class="st0" width="1.3" height="1.4"/>
<path class="st0" d="M47.2,52c-0.4,0-0.7-0.1-1-0.2c-0.3-0.1-0.6-0.3-0.8-0.5s-0.4-0.5-0.5-0.8s-0.2-0.7-0.2-1.1
	c0-0.4,0.1-0.7,0.2-1.1c0.1-0.3,0.3-0.6,0.5-0.8s0.5-0.4,0.8-0.5s0.7-0.2,1-0.2c0.6,0,1.1,0.1,1.6,0.4l0.1-1.2
	c-0.5-0.2-1.2-0.3-1.8-0.3S46,45.8,45.5,46s-0.9,0.4-1.2,0.8c-0.3,0.3-0.6,0.7-0.8,1.2s-0.3,1-0.3,1.5c0,0.6,0.1,1.1,0.3,1.5
	c0.2,0.5,0.4,0.8,0.8,1.2c0.3,0.3,0.7,0.6,1.2,0.8s1,0.3,1.5,0.3c0.7,0,1.4-0.1,2-0.3l-0.1-1.2C48.3,51.8,47.8,52,47.2,52"/>
<path class="st0" d="M39.7,45.5c-1.2,0-2,0.5-2.6,1.5v-1.3h-1.2V53h1.4v-3.7c0-0.8,0.2-1.5,0.5-1.9c0.4-0.4,0.8-0.7,1.4-0.7
	c0.6,0,1,0.2,1.2,0.5c0.3,0.4,0.4,0.9,0.4,1.7V53h1.4v-4.4c0-1-0.2-1.8-0.6-2.3C41.2,45.8,40.5,45.5,39.7,45.5"/>
<path class="st0" d="M25.4,51.4c-0.4,0.3-1,0.5-1.9,0.5h-1.1v-3.5h1.3c0.8,0,1.4,0.2,1.8,0.4c0.4,0.3,0.6,0.7,0.6,1.3
	S25.8,51.1,25.4,51.4 M22.5,44h1.2c0.7,0,1.2,0.1,1.6,0.4c0.4,0.3,0.5,0.7,0.5,1.2s-0.2,0.9-0.6,1.2s-0.9,0.4-1.7,0.4h-1V44z
	 M25.4,47.7c0.6-0.2,1.1-0.4,1.4-0.8c0.3-0.4,0.5-0.9,0.5-1.4c0-0.8-0.3-1.4-0.9-1.9s-1.4-0.7-2.6-0.7h-2.7V53h2.7
	c1.2,0,2.2-0.2,2.8-0.7c0.6-0.5,1-1.2,1-2.1c0-0.6-0.2-1.2-0.5-1.6C26.6,48.2,26.1,47.9,25.4,47.7"/>
<path class="st0" d="M144.1,47.1c0.4-0.4,0.8-0.6,1.4-0.6c0.6,0,1,0.2,1.3,0.6c0.3,0.4,0.7,1,0.7,1.7h-4
	C143.5,48.1,143.8,47.5,144.1,47.1 M145.5,45.5c-0.5,0-1,0.1-1.4,0.3s-0.8,0.4-1.1,0.8c-0.3,0.3-0.5,0.7-0.7,1.2
	c-0.2,0.5-0.2,1-0.2,1.5c0,0.6,0.1,1.2,0.3,1.6c0.2,0.5,0.4,0.9,0.7,1.2c0.3,0.3,0.7,0.6,1.1,0.8s0.9,0.3,1.5,0.3
	c0.4,0,0.9,0,1.2-0.1c0.4-0.1,0.8-0.2,1.1-0.3v-1.2c-0.3,0.2-0.7,0.3-1,0.4c-0.3,0.1-0.7,0.1-1,0.1c-0.8,0-1.4-0.2-1.8-0.6
	c-0.4-0.4-0.7-1-0.7-1.8h5.2v-0.5c0-1.1-0.3-2-0.8-2.6C147.3,45.9,146.5,45.5,145.5,45.5"/>
<path class="st0" d="M32.9,49.9c0,0.7-0.2,1.2-0.6,1.6c-0.4,0.4-0.9,0.6-1.5,0.6c-0.4,0-0.7-0.1-1-0.3c-0.2-0.2-0.4-0.5-0.4-0.9
	c0-0.5,0.2-0.8,0.6-1.1s1.1-0.4,1.9-0.4h0.9L32.9,49.9L32.9,49.9z M31.5,45.5c-0.4,0-0.9,0-1.3,0.1S29.4,45.8,29,46v1.1
	c0.7-0.4,1.4-0.6,2.1-0.6c0.6,0,1,0.2,1.3,0.5s0.5,0.8,0.5,1.3v0.2H32c-1.3,0-2.2,0.2-2.8,0.6c-0.6,0.4-1,1-1,1.8
	c0,0.3,0.1,0.6,0.2,0.9c0.1,0.3,0.3,0.5,0.5,0.7s0.5,0.3,0.7,0.4c0.3,0.1,0.6,0.2,1,0.2c1.1,0,2-0.4,2.5-1.3V53h1.2v-4.4
	C34.2,46.6,33.3,45.5,31.5,45.5"/>
<path class="st0" d="M13,49.1c0,1-0.2,1.7-0.5,2.1c-0.3,0.5-0.8,0.7-1.5,0.7c-0.6,0-1-0.2-1.2-0.5c-0.3-0.4-0.4-0.9-0.4-1.6v-4H8.1
	v4.3c0,1,0.2,1.8,0.6,2.3s1.1,0.8,1.9,0.8c1.2,0,2-0.5,2.6-1.5v1.4h1.2v-7.3H13V49.1z"/>
<path class="st0" d="M106.1,49.6c-0.2-0.2-0.4-0.3-0.6-0.5c-0.2-0.1-0.5-0.3-0.9-0.5c-0.5-0.2-0.8-0.4-1-0.6
	c-0.2-0.2-0.4-0.4-0.4-0.7c0-0.2,0.1-0.4,0.3-0.6c0.2-0.1,0.5-0.2,0.9-0.2c0.6,0,1.3,0.1,1.9,0.4l0.1-1.1c-0.6-0.2-1.2-0.3-1.8-0.3
	c-0.8,0-1.5,0.2-2,0.5c-0.5,0.4-0.7,0.8-0.7,1.4c0,0.3,0,0.5,0.1,0.7s0.2,0.4,0.4,0.6c0.2,0.2,0.4,0.3,0.6,0.5
	c0.3,0.2,0.5,0.3,0.9,0.5s0.8,0.4,1,0.6c0.2,0.2,0.4,0.4,0.4,0.7s-0.1,0.6-0.4,0.8s-0.6,0.3-1.1,0.3c-0.3,0-0.6,0-0.9-0.1
	s-0.7-0.2-1-0.4v1.1c0.3,0.1,0.6,0.2,1,0.3c0.3,0.1,0.7,0.1,1,0.1c1,0,1.7-0.2,2.2-0.6c0.5-0.4,0.8-0.9,0.8-1.6c0-0.3,0-0.5-0.1-0.7
	C106.3,50,106.3,49.8,106.1,49.6"/>
<path class="st0" d="M54.7,51.4c-0.4,0.5-0.9,0.7-1.6,0.7c-0.3,0-0.6-0.1-0.9-0.2c-0.3-0.1-0.5-0.3-0.7-0.6
	c-0.2-0.2-0.3-0.5-0.4-0.9c-0.1-0.3-0.2-0.7-0.2-1.1c0-0.4,0.1-0.8,0.2-1.1c0.1-0.3,0.3-0.6,0.5-0.9c0.2-0.2,0.4-0.4,0.7-0.6
	c0.3-0.1,0.6-0.2,0.9-0.2c0.7,0,1.2,0.3,1.6,0.7c0.4,0.5,0.6,1.2,0.6,2C55.3,50.2,55.1,50.9,54.7,51.4 M55.8,46.6
	c-0.3-0.3-0.7-0.6-1.1-0.7c-0.4-0.2-1-0.3-1.5-0.3s-1.1,0.1-1.5,0.3s-0.8,0.4-1.1,0.8c-0.3,0.3-0.5,0.7-0.7,1.2s-0.3,1-0.3,1.6
	s0.1,1.1,0.3,1.6s0.4,0.9,0.7,1.2s0.7,0.6,1.1,0.8c0.5,0.2,1,0.3,1.5,0.3s1.1-0.1,1.5-0.3c0.5-0.2,0.8-0.4,1.2-0.7
	c0.3-0.3,0.6-0.7,0.7-1.2c0.2-0.5,0.3-1,0.3-1.6s-0.1-1.1-0.3-1.6C56.3,47.3,56.1,46.9,55.8,46.6"/>
<path class="st0" d="M134.8,51.3c-0.4,0.5-0.9,0.7-1.5,0.7s-1.1-0.2-1.5-0.7s-0.6-1.1-0.6-2c0-0.8,0.2-1.5,0.6-2s0.9-0.7,1.5-0.7
	s1.1,0.2,1.4,0.7c0.4,0.5,0.5,1.1,0.5,2C135.4,50.2,135.1,50.9,134.8,51.3 M136,46.5c-0.3-0.3-0.6-0.6-1-0.7
	c-0.4-0.2-0.8-0.2-1.2-0.2c-0.6,0-1.1,0.1-1.5,0.4c-0.4,0.3-0.8,0.7-1.1,1.2v-1.4H130v10.3h1.4v-4.2c0.6,0.9,1.4,1.3,2.4,1.3
	c0.5,0,0.9-0.1,1.3-0.3s0.7-0.4,1-0.8c0.3-0.3,0.5-0.7,0.6-1.2c0.2-0.5,0.2-1,0.2-1.6s-0.1-1.1-0.2-1.5
	C136.4,47.2,136.1,46.8,136,46.5"/>
<polygon class="st0" points="93.3,54.8 94.5,54.8 95.7,51.5 94.2,51.5 "/>
<path class="st0" d="M126,45.6c-0.5,0-1,0.1-1.4,0.4c-0.4,0.3-0.8,0.7-1,1.2c-0.2-0.5-0.5-0.9-0.8-1.2s-0.8-0.4-1.3-0.4
	s-1,0.1-1.4,0.4c-0.4,0.3-0.7,0.6-1,1.1v-1.3h-1.2V53h1.4v-3.7c0-0.8,0.2-1.4,0.5-1.9c0.4-0.4,0.8-0.6,1.3-0.6s0.9,0.2,1.1,0.5
	c0.2,0.4,0.3,0.9,0.3,1.6V53h1.4v-3.7c0-0.8,0.2-1.4,0.5-1.9s0.8-0.6,1.4-0.6c0.5,0,0.9,0.2,1.1,0.5c0.2,0.4,0.3,0.9,0.3,1.6V53h1.4
	v-4.4c0-1-0.2-1.8-0.6-2.3C127.3,45.8,126.7,45.6,126,45.6"/>
<path class="st0" d="M112.2,47.1c0.4-0.4,0.8-0.6,1.4-0.6s1,0.2,1.3,0.6c0.3,0.4,0.5,1,0.6,1.7h-3.9
	C111.6,48.1,111.8,47.5,112.2,47.1 M113.6,45.5c-0.5,0-1,0.1-1.4,0.3s-0.8,0.4-1.1,0.8c-0.3,0.3-0.5,0.7-0.7,1.2s-0.2,1-0.2,1.5
	c0,0.6,0.1,1.2,0.3,1.6c0.2,0.5,0.4,0.9,0.7,1.2c0.3,0.3,0.7,0.6,1.1,0.8s0.9,0.3,1.5,0.3c0.4,0,0.9,0,1.2-0.1
	c0.4-0.1,0.8-0.2,1.1-0.3v-1.2c-0.3,0.2-0.7,0.3-1,0.4s-0.7,0.1-1,0.1c-0.8,0-1.4-0.2-1.8-0.6c-0.4-0.4-0.7-1-0.7-1.8h5.2v-0.5
	c0-1.1-0.3-2-0.8-2.6C115.3,45.9,114.6,45.5,113.6,45.5"/>
<rect x="107.7" y="45.7" class="st0" width="1.4" height="7.3"/>
<path class="st0" d="M90.8,49.9c0,0.7-0.2,1.2-0.6,1.6c-0.4,0.4-0.9,0.6-1.5,0.6c-0.4,0-0.7-0.1-1-0.3c-0.2-0.2-0.4-0.5-0.4-0.9
	c0-0.5,0.2-0.8,0.6-1.1s1.1-0.4,1.9-0.4h0.9L90.8,49.9L90.8,49.9z M89.3,45.5c-0.4,0-0.9,0-1.3,0.1s-0.8,0.2-1.2,0.4v1.1
	c0.7-0.4,1.4-0.6,2.1-0.6c0.6,0,1,0.2,1.3,0.5s0.5,0.8,0.5,1.3v0.2h-0.9c-1.3,0-2.2,0.2-2.8,0.6c-0.6,0.4-1,1-1,1.8
	c0,0.3,0.1,0.6,0.2,0.9c0.1,0.3,0.3,0.5,0.5,0.7s0.5,0.3,0.7,0.4c0.3,0.1,0.6,0.2,1,0.2c1.1,0,2-0.4,2.5-1.3V53h1.2v-4.4
	C92.2,46.6,91.3,45.5,89.3,45.5"/>
<path class="st0" d="M70.5,47.1c0.4-0.4,0.8-0.6,1.4-0.6s1,0.2,1.3,0.6c0.3,0.4,0.5,1,0.6,1.7h-3.9C69.8,48.1,70.1,47.5,70.5,47.1
	 M71.8,45.5c-0.5,0-1,0.1-1.4,0.3s-0.8,0.4-1.1,0.8c-0.3,0.3-0.5,0.7-0.7,1.2s-0.2,1-0.2,1.5c0,0.6,0.1,1.2,0.3,1.6
	c0.2,0.5,0.4,0.9,0.7,1.2c0.3,0.3,0.7,0.6,1.1,0.8s0.9,0.3,1.5,0.3c0.4,0,0.9,0,1.2-0.1c0.4-0.1,0.8-0.2,1.1-0.3v-1.2
	c-0.3,0.2-0.7,0.3-1,0.4c-0.3,0.1-0.7,0.1-1,0.1c-0.8,0-1.4-0.2-1.8-0.6c-0.4-0.4-0.7-1-0.7-1.8H75v-0.5c0-1.1-0.3-2-0.8-2.6
	C73.6,45.9,72.8,45.5,71.8,45.5"/>
<path class="st0" d="M66.2,52c-0.4,0-0.7-0.1-1-0.2c-0.3-0.1-0.6-0.3-0.8-0.5s-0.4-0.5-0.5-0.8s-0.2-0.7-0.2-1.1
	c0-0.4,0.1-0.7,0.2-1.1c0.1-0.3,0.3-0.6,0.5-0.8c0.2-0.2,0.5-0.4,0.8-0.5s0.7-0.2,1-0.2c0.6,0,1.1,0.1,1.6,0.4l0.1-1.2
	c-0.5-0.2-1.2-0.3-1.8-0.3c-0.6,0-1.1,0.1-1.6,0.3s-0.9,0.4-1.2,0.8c-0.3,0.3-0.6,0.7-0.8,1.2s-0.3,1-0.3,1.5c0,0.6,0.1,1.1,0.3,1.5
	c0.2,0.5,0.4,0.8,0.8,1.2c0.3,0.3,0.7,0.6,1.2,0.8s1,0.3,1.5,0.3c0.7,0,1.4-0.1,2-0.3l-0.1-1.2C67.3,51.8,66.8,52,66.2,52"/>
<path class="st0" d="M78,46c-0.4,0.3-0.6,0.7-0.8,1.2v-1.5H76V53h1.4v-3.6c0-0.8,0.2-1.4,0.5-1.9c0.3-0.4,0.8-0.6,1.4-0.6
	c0.2,0,0.4,0,0.6,0.1v-1.3c-0.2,0-0.4,0-0.6,0C78.8,45.6,78.3,45.7,78,46"/>
<path class="st0" d="M83.8,52c-0.4,0-0.7-0.1-1-0.2c-0.3-0.1-0.6-0.3-0.8-0.5c-0.2-0.2-0.4-0.5-0.5-0.8s-0.2-0.7-0.2-1.1
	c0-0.4,0.1-0.7,0.2-1.1c0.1-0.3,0.3-0.6,0.5-0.8s0.5-0.4,0.8-0.5s0.7-0.2,1-0.2c0.6,0,1.1,0.1,1.6,0.4l0.1-1.2
	c-0.5-0.2-1.2-0.3-1.8-0.3c-0.6,0-1.1,0.1-1.6,0.3s-0.9,0.4-1.2,0.8c-0.3,0.3-0.6,0.7-0.8,1.2c-0.2,0.5-0.3,1-0.3,1.5
	c0,0.6,0.1,1.1,0.3,1.5c0.2,0.5,0.4,0.8,0.8,1.2c0.3,0.3,0.7,0.6,1.2,0.8s1,0.3,1.5,0.3c0.7,0,1.4-0.1,2-0.3l-0.1-1.2
	C85,51.8,84.5,52,83.8,52"/>
<path class="st0" d="M140,46c-0.4,0.3-0.6,0.7-0.8,1.2v-1.5H138V53h1.4v-3.7c0-0.8,0.2-1.4,0.5-1.9c0.3-0.4,0.8-0.6,1.4-0.6
	c0.2,0,0.4,0,0.6,0.1v-1.3c-0.2,0-0.4,0-0.6,0C140.9,45.6,140.5,45.7,140,46"/>
<path class="st0" d="M27.7,16.8c5.8,0,10.5,4.8,10.5,10.7l8.4,0.1c0-10.4-8.4-18.8-18.8-18.8S9,17.1,9,27.5l8.4,0.1v-0.1
	C17.2,21.6,21.9,16.8,27.7,16.8"/>
<path class="st0" d="M36.7,27.5c0-4.9-4-8.9-9-8.9s-9,4-9,8.9s4,8.9,9,8.9S36.7,32.4,36.7,27.5"/>
</svg>
