<?xml version="1.0" encoding="utf-8"?>
<!-- Generator: Adobe Illustrator 24.2.0, SVG Export Plug-In . SVG Version: 6.00 Build 0)  -->
<svg version="1.1" id="Layer_1" xmlns="http://www.w3.org/2000/svg" xmlns:xlink="http://www.w3.org/1999/xlink" x="0px" y="0px"
	 viewBox="0 0 103 81" style="enable-background:new 0 0 103 81;" xml:space="preserve">
<style type="text/css">
	.st0{fill:#777777;}
</style>
<path class="st0" d="M103,40.4c0.2-1.4-0.6-2.4-1.6-3c-1.4-1.1-3.2-2.1-4.9-0.6c-0.8-0.3-1.7-0.1-2.4,0.4c-0.9-0.3-1.6-0.3-2.4,0.1
	c-0.8-0.5-1.9-0.4-2.7,0.1c-1.5-2.2-3.9-1.4-5.1,0.4c-1.7-1.1-3.4-2.8-5.1-0.4c-3.9-2.4-4.2,3.1-6,5.2c-2.1,2.6-5.9,5.9-9.6,5.9
	c-0.6,0.1-2.4,0-3.1,0c0.6-0.1,1-0.1,0.9-0.7c0,0-0.1,0-0.1-0.1c0,0-0.1,0-0.1-0.1c-0.1,0-0.1,0-0.2-0.1c-0.9-0.1-1.9-0.1-2.8-0.1
	l0,0c-1.9-0.4-1.3-1.7,0-2.5c0.4-0.3,0.7-1,1.2-1.3c-0.1,1.3,2.3,2.3,2.4,0.6c-0.1-0.7-2-1.2-0.8-1.8c3.1-0.8,6.3-3.7,4.5-7.1
	c-0.3-1.1-1.5-2-2.6-2.1c-0.4-0.3-1.1-0.2-1.6,0.1c-0.2,0.4-0.8,0.5-1,0.1c-0.1-0.2,0.1-0.4,0.3-0.6c0.4-0.4,0.1-0.9-0.1-1.2
	c-0.1,0-0.1,0-0.2-0.1c-0.5,0-1.1,0-1.6,0.1c-0.1,0.2-0.4,0.4-0.5,0.6c-0.1,0.6,0.4,1.7-0.8,1.3c-0.2-0.1-0.7-0.3-0.7-0.6
	c0.1-0.7-0.1-1.5-0.7-2c-1.4-0.8,1.1-0.7,1.3-1.3c0.1-0.4-0.4-0.6-0.7-0.6c-0.2-0.1-0.2-0.4-0.3-0.6c-0.4-1.2-1.4-1.9-2.6-2.2
	c-0.3-0.2-0.8-0.1-0.9-0.4c-0.2-0.9-1.5-0.9-2.1-0.4c0,0,0,0.1-0.1,0.1c0.1,0.7-1.1,0.7-1.4,0.9c-0.7,0.1-1.8,1.2-1.9,1.9
	c-0.1,0.2-0.1,0.5-0.3,0.7c-0.3,0.1-0.6,0.2-0.8,0.3c0,0.3,0,0.5,0.2,0.6c0.4,0.2,1.8,0.1,1.5,0.8c-0.3,0.1-0.7,0.2-0.9,0.5
	c0,0.1,0,0.2-0.2,0.2c-0.2,0.3-0.1,1.6-0.4,1.7c-0.5,0.4-1.9,1.5-2.3,2c-0.3,0.5-0.6,0.9-0.9,1.3c-2.2,3.3-2.6-4.6-3.3-5.6
	c-0.3-0.1-0.8-0.3-1.2-0.1c-0.1,0.1-0.2,0-0.3,0.2c-0.3,0.3-1.7-0.2-1.6,0.4c1.2,0.3,1.5,1,1.7,2.1c0.8,2.2,0,4.6,0.7,6.7
	c0.8,1.3,2.2,2.5,3.8,2.4c0.7,0.8,1.1,1.9,2,2.5c0.7,0.4,1.7,1.5,0.6,2c-0.6,1-4-0.4-3.8,1.1c0.3,0.3,0.7,0.3,1.1,0.3
	c-2,0-3.9,0-5.9,0c-3.6-1.6-7-4.3-7.8-8.3c0-0.8,0.2-1.4,0-2.2c-0.6-2.6-4.2-2.3-4.9,0.4c-0.4-0.3-0.9-0.4-1.5-0.4
	c-0.3-0.4-1.6-1-2.4-0.7c-0.8-1.5-3.3-1.4-4,0.3c-0.9-1-2.2-2.1-3.6-1.3c-0.8-0.6-2.1-0.6-2.9,0.2l0,0c-0.5-0.4-1.2-0.5-1.9-0.3
	c-1-1-2.7-0.9-3.5,0.1c-0.8,0.1-1.4,0.6-1.7,1.3c-4.1,0-1.8,8.9-1.4,11.3c0.9,3.5,2.3,6.8,4.3,9.9C27.5,93.6,101.4,86.7,103,40.4z
	 M58.6,34.8L58.6,34.8L58.6,34.8L58.6,34.8z M58.6,34.9L58.6,34.9L58.6,34.9C58.6,34.8,58.6,34.8,58.6,34.9c0.2-0.2,0.7,0.2,0.9,0.3
	c0.4,0.2,0.8,0.1,1.2,0c3.3,0,2.2,4.9-0.3,5.4c-0.3,0-0.3-2-0.4-2.4C59.8,36.9,58.7,36,58.6,34.9z M4.5,38.2L4.5,38.2L4.5,38.2z
	 M86.8,38.2L86.8,38.2C86.8,38.2,86.8,38.2,86.8,38.2L86.8,38.2z M80.9,38.3L80.9,38.3L80.9,38.3L80.9,38.3z M77.3,38.9L77.3,38.9
	L77.3,38.9L77.3,38.9z M73,54.5c1.2-0.7,2.4,1.2,0.9,1.7C72.8,56.6,71.9,55.1,73,54.5z M31.9,56.8c0.9-0.6,2.3,0.4,1.5,1.3
	C32.5,59.1,30.6,57.7,31.9,56.8z M26.4,38.2L26.4,38.2L26.4,38.2L26.4,38.2z M20.6,39.3L20.6,39.3L20.6,39.3L20.6,39.3z M38.9,69.5
	c0.2,0,0.3,0,0.5,0c3.5,1.1-3.2,3.7-2.7-0.2c0.2-1.9,2.3-4,1.8-5.8c-2.5-1-2.3,7.7-5.1,6.3c-1-1.3,2-4.9,2.2-6.7
	c-0.9-2.9-2.8,3.5-3.6,4.1c-1.3,1.8-4.2,1-5.2-0.7c-0.2-0.1-0.4,0-0.6,0c-1.2-0.1-2-0.8-2.6-1.9c-0.1-0.2-0.2-0.3-0.5-0.4
	c-1.3,0-2.3-1-2.8-2.2c-1.7-0.5-3.5-1.9-3.8-3.9c0.6-3,6.1-4.9,8.3-7.2c0.4-0.2,0.7-0.9,0.1-1c-1.5-0.6-2.6,0.4-3.7,1.3
	c-2.5,1.2-4.6,4.5-7.4,4.5c-2.7-1.2,7.9-6.4,8.7-8c0.8-0.6,1.8-2.2,0-2c-0.1,0-0.2,0-0.2,0c-0.9-0.1-1.2-1.5-0.2-1.7
	c2.7-0.5,4.8,1.7,2.9,4.1c10.4,2.8-11,9.1-5.2,11.5c0.3,0,0.4,0,0.5-0.3c1.4-2.8,5.8-5.2,8.4-2.6c0.3,0.5,1.1,0.6,0.8,1.3
	c-1.1,1.8-2.9,3.3-4,5.2c-0.4,0.5-0.3,0.8,0.3,1.1c2,1,3.7-3.9,4.8-5.1c0.7-0.9,2.8-0.1,1.9,1c-0.5,1.2-4.6,5.5-3.3,6.1
	c2.9,0.8,2.5-5.5,5.6-5.6c1,0,2,0.2,2.5,1.1c0.2,0.2,0.2,0.2,0.5,0.1c2.4-0.9,3.9,1.9,2.4,3.8C39.7,66.2,38,69.6,38.9,69.5z
	 M51.6,78.8L51.6,78.8L51.6,78.8C51.6,78.8,51.6,78.8,51.6,78.8z M69.3,75.1c-2.2,1.4-7-0.7-5-3.5c0.6-0.4,2.1-0.2,1.8,0.8
	c-0.2,0.5,0,0.9,0.5,1.1c2.9,1,2.3-2.5,1.3-4c-1.1,0.7-2.3,1-3.6,0.3c-0.5,1.3-1.8,2.2-3.3,1.6c-0.2-0.1-0.3,0-0.5,0.1
	c-1.2,1.2-3,0.9-4.4,0.2c-1.4,1.4-3.7,1.5-5.4,0.5c-2.5-1.3,1.5-13.2-1-12.7c-0.6,0.4-1.1,0.9-1.1,1.6c-0.1,3.2-0.5,6.5-0.7,9.7
	c0.1,1.5-1.5,2.9-1.8,0.8c-0.5-1.7,2-13-0.1-12.2c-2.4,1.3-1.1,6.2-1.8,8.7c-0.4,1.3,0.4,3.5-0.9,4.2c-2.1,0.3-1-2.6-1.2-3.7
	c0,0,0,0,0-0.1c0.1,0,0.1-0.1,0.1-0.1c0-0.1,0-0.2,0-0.2s0,0,0-0.1c0.2-1.3,0.3-2.6,0.3-3.9c0.1,0,0.1-0.1,0-0.2
	c0.1-0.7,0.1-1.4,0.2-2.1c0-0.1,0.1-0.1,0-0.2c0-1,0.5-4.6-1-4.4c-0.5,0.2-0.7,0.8-1.3,0.7l0,0l0,0l0,0l0,0l0,0
	c-0.1-0.1-0.2,0-0.3-0.1c-2.7-2.2,4-5,4.6-0.1c1.1-0.8,2.7-1.3,3.7,0c0.1,0.1,0.2,0.1,0.3,0c8.7-4.3,0.3,13.7,5,13.3
	c1.3-0.1,0.5-0.9,0.3-1.6c-1.1-3,0.8-6.7,4.3-6.2c3.4-0.9,1.2,7,4,6.5c0.4-0.2,1-0.8,0.7-1.2c-0.7-1-1.2-2.2-1.3-3.4
	c-0.1-1.9,1.2-3.4,3-3.7c0.2,0,0.3-0.1,0.2-0.3c0,0,0,0,0-0.1c2.3-3.3,3.5,4.7,4.5,6.1C70.2,69.5,72.7,73.5,69.3,75.1z M78.9,72.4
	C78.9,72.4,78.9,72.4,78.9,72.4S78.9,72.4,78.9,72.4z M78.9,72.3L78.9,72.3L78.9,72.3L78.9,72.3L78.9,72.3L78.9,72.3z M89.9,58
	c-1.2,1.3-3.3,1.1-4.7,1.6c-0.4,2-2.3,2.7-4.1,2.7c0.2,1.9-1.7,3.1-3.3,3.2c0.6,1.5,2.2,3.1,1.5,4.9c-1,2-3.9,2.3-5.7,1.3
	c-1-0.6-2.1-2.6-0.6-3.2c0.6-0.2,1.7,0.1,1.5,0.9c-0.2,1.2,1.8,1.4,2.4,0.6c0.9-1.2-0.6-2.7-1.1-3.7c-3.1,2.7-6.9-0.9-7.4-4.2V62
	c-0.1-1.5,1-2.8,2.4-3.2c0.4-0.1,0.1-0.6,0.4-0.9c2.8-2,3.8,5.7,6.1,5.9c5.6-1.5-4.8-5.1-2.2-7.4c2.8-0.6,3.9,6,7.7,3.7
	c0.3-0.1,0.9-0.8,0.3-0.9c-1.7-0.4-3.2-1.5-4.4-2.8c-2.7-4.5,4.3-5.7,6.1-2.1c0.6,0.9,0.7,2,0.8,3c0,0.2,0.1,0.2,0.2,0.2
	C87,57.7,90.1,55.3,89.9,58z M90.5,39L90.5,39L90.5,39z M93,39C93,39,93,39,93,39S93,39,93,39z M95.7,38.7
	C95.7,38.7,95.7,38.7,95.7,38.7S95.7,38.7,95.7,38.7z M98.4,38.1L98.4,38.1L98.4,38.1z"/>
<path class="st0" d="M2.3,30.5c-0.1,1.5,1.1,3.5,2.9,3C5.7,33.9,6.3,34,6.9,34c0.9,1,2.5,1,3.4-0.1c0.1,0,0.2-0.1,0.3-0.1
	c1,0.4,1.4,0.3,2.3-0.1c0.9,1.8,3.3,2.8,4.5,0.7c0.7,0.7,1.8,0.8,2.6,0.3c0.8,0.6,1.3,0.6,1.9,0.5c0.6,0.4,1.5,0.5,2.2,0.3
	c1.3,0.2,2.2-0.7,2.7-1.7c2,1.1,3.2-0.9,4.2-2.3c1.3-1.5,3-2.8,5.1-4c10.9-5.7,28.8-5.3,37,4.9c0.4,0.7,2.1,2,3,2.4
	c0.7,0.7,1.9,0.8,2.7,0.4c0.6,0.1,1.3-0.2,1.7-0.6c0.8,0.6,1.9,0.7,2.7,0.2c0.3,0,0.6,0,0.9-0.1c0.9,0.2,1.9-0.3,2.4-1.1
	c0.7,1,2,1.8,3.3,1.1c0.8,0.7,2,0.7,2.8,0c0.9,0.4,2,0.3,2.6-0.4c0.4,0.1,0.8,0,1.1-0.1c0.7,0.2,1.6,0,2.1-0.5
	c8.5-3.2-5.9-18.5-10.2-21.4c-19.9-15.7-51.4-16-71.7-1.4C10.8,15.1,2.3,23.5,2.3,30.5z M98,31.3L98,31.3L98,31.3z M95.3,31.9
	L95.3,31.9L95.3,31.9z M76.7,32.5L76.7,32.5L76.7,32.5L76.7,32.5z M76.7,32L76.7,32L76.7,32L76.7,32z M79.7,13.9
	c1.8,0.7,3.4,2.7,5.1,3.8c-0.5,0.3-1,1.7-1.5,1.3c-1-0.9-2.1-1.7-3.2-2.6c-0.6,0.2-1,1.2-1.6,1.7c0.6,1.1,2.3,1.8,3.2,2.8
	c-0.2,0.5-0.7,0.9-1,1.3c-0.2,0.2-0.3,0.2-0.4,0c-1-0.9-2-1.6-3.1-2.5c-0.6,0.8-1.3,1.6-1.9,2.4c1.3,1,2.5,2,3.7,3
	c-0.5,0.4-0.9,1.6-1.5,1.3c-1.4-1.3-3-2.4-4.5-3.6c-0.3-0.3-0.3-0.2-0.1-0.6C75.2,19.5,77.4,16.7,79.7,13.9z M68.4,20.2
	c1.3-2.6,2.5-5.2,3.9-7.8c0.2-0.3,0.2-0.3-0.1-0.5c-0.4-0.4-2-0.5-1.9-1.1c0.3-0.4,0.4-1.5,1-1.4c1.9,0.9,3.7,1.8,5.6,2.7
	c0.3,0.1,0.3,0.1,0.2,0.4c-0.2,0.4-0.4,0.8-0.6,1.2c-0.1,0.2-0.1,0.2-0.3,0.1c-0.7-0.3-1.3-0.6-2-0.9c-1.4,2.6-2.6,5.3-3.9,8
	c-0.2,0.4-0.2,0.4-0.6,0.2C69.2,20.7,68.2,20.7,68.4,20.2z M59.6,17.5c0.3-1.6,0.7-3.1,1-4.7c0.1-0.2,0.1-0.3,0.3-0.2
	c0.8,0.2,1.7,0.4,2.5,0.5c0.4,0,0,0.7-0.1,1c-0.5-0.3-1.3-0.3-1.9-0.5c-0.4-0.1-0.3,0.6-0.4,0.9c0,0.7,1.9,0.2,1.9,0.9
	c0,0.6-0.2,0.8-0.8,0.5c-0.4,0-1.2-0.5-1.4-0.1c0,0.4-0.5,1.1,0,1.2c0.5,0.2,2.1,0.1,1.9,0.8c-0.1,0.6-0.1,0.6-0.7,0.4
	c-0.7-0.2-1.5-0.3-2.2-0.5C59.5,17.7,59.5,17.7,59.6,17.5z M55.8,15.5c0.1-1.1,0.3-2.2,0.4-3.2c0.1-0.3,0.1-0.3,0.4-0.3
	c1.6,0,3,0.6,2.7,2.5c0,1.1-0.4,3.1-1.9,3C55.5,17.3,55.5,17.5,55.8,15.5z M21.5,33L21.5,33L21.5,33L21.5,33z M27.9,31.8L27.9,31.8
	L27.9,31.8L27.9,31.8z M51.5,2.3c0.1,0,0.1,0,0.2,0H51.5C51.5,2.3,51.5,2.3,51.5,2.3z M44.2,17.3c0.8-3.6,1.5-7.2,2.3-10.8
	c0.1-0.3,0.1-0.3,0.4-0.3c0.5,0.1,1.3-0.4,1.6,0.1c1.4,3.6,2.8,7.1,4.2,10.6C52,17,51.4,17,50.9,17.1c-0.5-0.6-0.4-2.1-1.2-2.5
	c-1,0.3-2.5-0.1-3.2,0.5c-0.5,1.9,0.2,2.6-2.2,2.5C44.2,17.5,44.2,17.4,44.2,17.3z M37.2,7.8c1.8-0.9,4.5,0.4,4.4,2.3
	c-0.5,0-1.2,0.7-1.6,0.3c-0.3-0.6-0.8-1.2-1.5-1.1c-2.8,0.5-1.5,2.7,0.8,2.4c6.3-0.2,4.7,9.4-1.1,6.7c-0.8-0.6-1.3-1.4-1.7-2.3
	c-0.1-0.5,0.9-0.5,1.2-0.8c0.6-0.2,0.6,0.9,1.1,1.2c1.3,1.1,3.3-0.1,2.8-1.6c-0.7-1.7-3.1-0.6-4.5-1.4C34.9,12.5,34.4,8.9,37.2,7.8z
	 M27.5,11.9c0.1-0.2,0.5-0.3,0.8-0.4c0.3-0.1,0.7-0.6,1-0.2c2.6,2.8,5.4,5.4,8.1,8.2C37,19.9,36.5,20,36,20.3
	c-0.3-0.1-0.3-0.1-0.5-0.3c-0.6-0.5-1.1-1.7-1.9-1.6c-0.8,0.6-2.4,0.8-2.7,1.7c0,0.7,0.8,2.1,0.2,2.5c-0.4,0.2-0.9,0.5-1.4,0.7
	C29,19.5,28.1,15.6,27.5,11.9z M18.4,19.1c0.5-2.6,3.7-3.4,5.6-1.8c0.3,0.4-0.6,1.1-0.7,1.6c-1.3-1-3.5-0.4-3.2,1.5
	c0.4,1.8,1.9,3,3.3,4c2.3,1.4,3.9-1.1,2.3-3.1c0.6-0.1,1.3-0.8,1.8-0.5c1.6,2.1,0.9,5.5-2,5.8C21.9,26.8,18,22.7,18.4,19.1z
	 M11.6,31.8L11.6,31.8L11.6,31.8z M6.6,31.8L6.6,31.8L6.6,31.8z"/>
<path class="st0" d="M30.6,17.8c0.6-0.3,1.2-0.6,1.8-0.9c-0.5-0.6-2.7-2.9-2.9-3c0.3,1.3,0.6,2.6,0.8,3.8
	C30.4,17.9,30.5,17.9,30.6,17.8z"/>
<path class="st0" d="M47.7,8.8c-0.3,1.4-0.5,2.7-0.8,4.1c0.8-0.1,1.5-0.1,2.3-0.2C48.7,11.4,48.3,10.1,47.7,8.8z"/>
<path class="st0" d="M57.2,16.5c1.3,0.2,1.3-1.8,1.2-2.7c-0.1-0.7-0.7-0.7-1.2-0.8c-0.7,0.2-0.3,2.1-0.6,2.8
	C56.5,16.5,56.3,16.4,57.2,16.5z"/>
<path class="st0" d="M58.6,68.9c-0.5-1.2-0.2-3-1.1-4c-1.3-0.4-2,1.3-2,2.4c-0.1,1.4,0.7,2.8,2.2,3.1C59.1,70.7,59,70,58.6,68.9z"/>
<path class="st0" d="M65.9,64.3c-1.6-4.4-3.9,2.5-0.5,3.9C68.3,68.8,66.3,65.8,65.9,64.3z"/>
<path class="st0" d="M26.8,58.2c-0.2-2.4-4.1,0.5-4.6,1.7c-0.4,0.8,0,1.9,0.7,2.3C23.8,62.9,25.7,58.8,26.8,58.2z"/>
<path class="st0" d="M82.7,54.9c-0.3-0.7-1.1-1-1.8-1c-2.5,0.5,0.8,3,2,3.3C83.5,57.3,82.8,55.3,82.7,54.9z"/>
<path class="st0" d="M73.5,62.7c-0.7-0.8-1.1-2.6-2.2-2.6c-1,0.5-0.9,1.8-0.6,2.7c0.4,1.4,2.2,3.4,3.6,2.1
	C74.9,64.3,73.7,63.4,73.5,62.7z"/>
</svg>
