<?xml version="1.0" encoding="utf-8"?>
<!-- Generator: Adobe Illustrator 24.2.0, SVG Export Plug-In . SVG Version: 6.00 Build 0)  -->
<svg version="1.1" id="Layer_1" xmlns="http://www.w3.org/2000/svg" xmlns:xlink="http://www.w3.org/1999/xlink" x="0px" y="0px"
	 viewBox="0 0 96 95" style="enable-background:new 0 0 96 95;" xml:space="preserve">
<style type="text/css">
	.st0{fill:#777777;}
</style>
<path class="st0" d="M93.1,53.1c-3.9,33.3-43.7,50.4-70.9,31.5C-9.6,63.2-1.3,14.5,35.5,4.2C66-4.7,97.5,21.2,93.1,53.1 M96,46
	C95.2,10.5,55.1-11.2,24.5,6.1c-33.8,18.3-32.3,67.5,2.4,84C58.4,105.7,97.5,81.5,96,46"/>
<path class="st0" d="M79.1,69.5c0.1,0.5-2.4,7.9-2.5,5.7c0.6-2.1,1.5-4.2,1.6-6.4C78.3,66.7,79.3,68.2,79.1,69.5 M76.3,72.6
	c-0.4,0.6-1.3,1.4-2,0.8c-0.4-0.5-1.2,1.2-0.9,1.4c0.6,0,1.3-0.6,2-0.5c0.1,0.4-0.4,0.8-0.7,1c-0.2,0.1-0.4,0.5-0.7,0.3
	c-2.8-0.4-0.6-4.6,1.5-4.4C75.8,71.5,76.7,72,76.3,72.6 M72.5,71.5c-0.4,1-1.4,4.6-3,3.9c-0.7-0.4-1.1-0.9-0.9-1.8
	c0.2-0.5,0.4-2.8,1.2-2.3c0.4,0.3,0.8,0.6,0.5,1.1s-0.6,1.1-0.6,1.8C70.3,73.5,72.6,69.8,72.5,71.5 M68.2,73
	c-0.3,0.6-2.5,5.7-0.7,3.8c0.2-0.3,0.4,0,0.3,0.2c-0.1,0.5-0.6,0.8-1,1.1c-0.2,0.1-0.4,0.4-0.7,0.2c-0.9-0.7,0.1-1.9,0.3-2.8
	c-0.9-0.1-1.5-1.4-1-2.3c0.6-0.7,1.1-2.9,2.3-1.9C68.4,71.5,68.6,72.3,68.2,73 M67.4,83.7c-0.3-0.2-0.7,0.2-1,0.3
	c-0.1,0-0.2,0.1-0.2,0.2c0.1,0.6-0.5,0.5-0.7,0.7c-0.6,0.4-1.2,0-1.8-0.1c0,0.2,0,0.3,0.1,0.4c0.3,0.4-0.5,0.7-0.6,0.2
	c0-0.5-0.9-1.5-0.3-1.8c0.4-0.2,0.4,0.3,0.5,0.5c0.4-0.5,0.6-1.2,1.4-1.2c0,0.4-1.2,1.2-0.6,1.4c0.5,0.1,1,0.4,1.3,0.3
	c0.3-0.2,0.2-0.8,0.3-1.3c0-2.2,1.6-0.3,2.5,0.3C67.9,83.8,67.7,84,67.4,83.7 M62,79.4L62,79.4L62,79.4c0.3,0,0.6-0.1,0.6,0.2
	c0,0.2-0.1,0.1-0.2,0.1c-0.5-0.1-0.6,0-0.7,0.5c0,0.3-0.3,0.3-0.3,0c0-0.2,0.1-0.5-0.3-0.6v-0.1c0.3-0.1,0.3-0.5,0.5-0.7
	c0.2-0.1,1-0.3,1.1,0c-0.1,0.4-0.9-0.1-0.9,0.4C61.7,79.4,61.9,79.3,62,79.4 M62,86.1c-0.4-0.4-0.4-1.2-0.7-1.7
	c-0.1-0.3,0.1-0.3,0.3-0.3c0.2-0.1,0.3,0,0.3,0.2C62,84.7,62.9,86,62,86.1 M60.9,77.7c0.1,0.3-0.4,0.3-0.3,0c0-0.1,0-0.2,0-0.3
	c-0.3-0.2-0.1-0.3,0-0.5c0.3-0.7,0.8-0.5,1.4-0.5c-0.3,0.4-0.9,0-1,0.5c0,0.4,0.9-0.1,0.9,0.3C61.7,77.6,60.7,76.9,60.9,77.7
	 M59.6,80.3c-0.3-0.2-0.2-0.7-0.7-0.6c-0.4,0-0.1,0.6-0.4,0.7c-0.2,0-0.2-0.1-0.2-0.3c0-0.3-0.1-0.5,0-0.9c0.1-0.7,0.7-0.4,1.2-0.4
	c0.6,0.2,0,1,0.3,1.4C59.8,80.2,59.7,80.3,59.6,80.3 M34.9,81c8.1,2,16.5,1.6,24.6,0.6C51.2,84.3,43,84.1,34.9,81 M59.3,85.9
	c-0.3,0-1,0.5-1-0.1c-0.2-0.4,0.5-0.3,0.8-0.5C59.4,85.1,59.6,85.8,59.3,85.9 M54.8,87.2c-0.2,0.3,0.3,0.7-0.2,0.8
	c-0.7,0-0.4-1.2-0.6-1.6c-0.2-0.4,0.7-0.6,0.6-0.1c0,0.1,0,0.2,0.1,0.3c0.5-0.4,0.8-1.1,1.6-0.9c-0.4,0.4-0.7,0.7-1.1,1.1
	c0.6,0.3,1.1,0.5,1.6,0.8C56,88,55.4,87.4,54.8,87.2 M53,87.9c-0.1-0.1-0.2-0.1-0.3-0.1c-0.4,0.1-0.9-0.1-1.1,0.5
	c-0.1,0.2-0.3,0.1-0.6,0.1c1.1-2.8,1.1-2.8,2.9-0.4C53.5,88.2,53.2,88.3,53,87.9 M50,88.2c-0.1-0.2-1.1-0.1-1.2,0.1
	c-0.1,0.4-0.4,0.3-0.8,0.3c1.2-2.7,1.4-2.6,2.9-0.1C50.5,88.5,50.2,88.6,50,88.2 M46,87c-0.1,0.7,0.2,1.7-0.9,1.5
	c-0.6-0.2-2,0.2-1.8-0.8c0.1-0.5-0.1-1.4,0.7-1.3C44.6,86.5,46,86.1,46,87 M42.8,88.1c-0.5,0-0.9-0.1-1.1-0.5
	c-0.1-0.3-0.7-0.8-0.7-0.1c0,0.3-0.1,0.4-0.4,0.4c-0.6-0.3,0.1-1.2,0-1.7c0-0.2,0.1-0.3,0.3-0.2c0.6,0.3,1.8,0,1.9,0.7
	c0,0.6-0.1,0.8-0.7,0.9C42.4,87.6,42.6,87.9,42.8,88.1 M39.8,86.3c-0.1,0.1-0.1,0.2-0.1,0.4c0.1,0.5-0.1,0.7-0.7,0.7
	c-0.4-0.1-1-0.2-1.5-0.4c-0.2,0-0.1-0.1-0.1-0.3c0.2-0.4,0.1-1.7,0.7-1.7C38.7,85.3,40.5,85.2,39.8,86.3 M37.1,85.3
	c-0.2,0.4-0.1,1.6-0.7,1.5c-0.5-0.2,0.1-0.7,0.1-1.2c-1.1,0.8-1.1,0.9-1.6-0.4c-0.2,0.4-0.1,1.1-0.6,1c-0.5-0.3,0.2-1.2,0.2-1.6
	c0-0.4,0.5-0.4,0.7,0c0.5,1.2,0.3,1.3,1.4,0.5C36.9,84.6,37.4,84.9,37.1,85.3 M33.9,84.2c-0.3-0.1-0.6-0.2-1-0.3
	c-0.1,0-0.3-0.2-0.3,0c-0.1,0.3,0.1,0.2,0.3,0.3c0.2,0.1,0.6,0.1,0.5,0.4c0,0.1-0.1,0.2-0.2,0.2c-0.2,0-0.6-0.4-0.8,0
	c0,0.4,0.9,0.4,1.2,0.6c0.4,0,0.2,0.6-0.1,0.4c-0.5-0.2-1.1-0.4-1.6-0.6c-0.2-0.1-0.2-0.1-0.1-0.3c0.3-0.4,0.2-1.6,0.8-1.6
	C32.8,83.4,35,83.9,33.9,84.2 M30.8,84.6c-0.1,0.2-0.3,0-0.5,0c-0.3-0.3,0.4-1.2,0.5-1.7c0.1-0.2,0.2-0.2,0.3-0.1
	C31.9,82.8,30.9,84.1,30.8,84.6 M29.6,83.9c-0.1,0.2-0.2,0.3-0.4,0.2c-0.4-0.2,0.1-0.7,0.2-1.1c0,0,0,0-0.1-0.1
	c-1,0.6-1.1,0.7-1.4-0.6c-0.4,0.2-0.2,1-0.7,0.8c-0.2-0.1-0.1-0.2-0.1-0.4c0.2-0.4,0.3-0.8,0.5-1.2c0.1-0.1,0.1-0.3,0.3-0.3
	c0.5,0.1,0.5,0.8,0.7,1.2c0.1,0.6,0.8-0.2,1.1-0.2C30.9,82,29.7,83.4,29.6,83.9 M26.9,74.3c-0.3,0.5-1.1,1.4-1.6,0.7
	c-0.6-1-0.8-1.6-0.1-2.6c0.1-0.1,0.2-0.3,0.3-0.5c0.3-0.8,1.7-1.4,2.1-0.5c0.1,0.6,0.4,0.1,0.5-0.2c0-0.2-0.1-0.4,0.1-0.4
	c0.3,0,0.2,0.3,0.3,0.4c0.3,0.5,0.2,1-0.1,1.5c-0.5,0.9-0.5,1.8-0.8,2.8C27.3,75.2,27.4,73.6,26.9,74.3 M22.8,75.1
	c-0.4,0.6-0.8,0.6-1.3,0.2c-1.4-1.4-0.7-3.7-0.8-5.5c-0.3,0-0.3,0-0.4,0.2c-0.9,1.8-1.9,3.5-2.6,5.4c-0.1,0.4-0.3,0.3-0.5,0.2
	c-0.5-0.3-0.6-0.6-0.4-1.2c0.9-2,1.7-4.1,3-5.8H20c0.2-0.3,0.4-0.7,0.7-1c0.2,0.2,0.4,0.5,0.6,0.7v1.1l0.3-0.1
	c0,7.3,0.2,5.2,3.2,0.4c0.1,0,0.2,0,0.3,0c0.3-0.4,0.6-1.4,1-1.5c0.7,0.4-0.2,1.1-0.2,1.6h0.2C25,71.6,23.9,73.3,22.8,75.1
	 M20.4,18.6c1-0.1,1,1.7,0,1.6C19.3,20.2,19.3,18.4,20.4,18.6 M24.4,14.5c0.8,0.4,1.6,0.9,2.4,1.3c-0.4,0.3-0.7,0.6-1.1,0.2
	c0,0-0.1,0-0.2,0.1c-0.4,0.3-1.1,0.5-1.2,0.9c0.1,0.5-0.2,0.7-0.6,0.8C23.8,17.1,23.1,14.1,24.4,14.5 M26.8,12.9
	c0.7-0.2,1.5-1.2,2.2-0.6c0.3,0.3-0.2,0.4-0.2,0.6c0.7,0,1.5,1.2,0.7,1.6c-0.7,0.2-1.6,1.3-2.3,0.8c-0.1-0.1-0.3-0.3-0.1-0.4
	c0.1-0.1,0.3-0.5,0.5-0.2c0.5,0.1,0.9-0.4,1.4-0.6c0.3-0.1,0-0.6-0.2-0.4c-0.7,0.3-1.7,1.4-2.2,0.2C26.3,13.4,26.3,13.2,26.8,12.9
	 M30.3,11.2c0.8-0.2,2.3-1.5,2.9-0.6c0.1,0.6,1.1,1.7,0.3,2.2c-0.8,0.1-2.2,1.5-2.8,0.6C30.5,12.7,29.6,11.7,30.3,11.2 M34.5,9.6
	c0.8-0.1,2.4-1.3,2.6,0c0,0.3-0.3,0.3-0.5,0.4c-0.3,0.2-0.2-0.5-0.5-0.3c-1.1,0.4-1.3,0.3-0.8,1.5c0.2,0.4,0.8-0.1,1.2-0.1
	c0.2-0.1,0.3-0.1,0.2-0.4c-0.1-0.4,0.3-0.2,0.5-0.3c0.4-0.1,0.5,0.7,0.3,1c-0.7,0.2-2.3,1.3-2.7,0.4C34.6,11.1,33.7,10,34.5,9.6
	 M38.1,8.4c0.2,0,0.4-0.1,0.5,0.2c0,0.7,1.1,2.4,0,2.5c-0.6-0.3-0.5-1.7-0.8-2.3C37.7,8.4,37.9,8.4,38.1,8.4 M39.9,10.1
	c1.1-3.5,1.2-2.9,3.3-0.4c0.5,0.5-0.8,0.6-0.9,0.1c-0.3-0.3-1,0.1-1.4,0.1c-0.2,0-0.2,0.2-0.3,0.3c0,0.1,0,0.3-0.2,0.4
	C39.9,10.7,39.6,10.6,39.9,10.1 M44.5,7.1c0.7,0,2.3-0.6,2.2,0.6c0,0.4-0.3,0.2-0.5,0.3c-0.2,0.1-0.3-0.1-0.3-0.2
	c-0.4-0.4-0.8,0-1.2-0.1c-0.2,0-0.2,0.2-0.2,0.3c0,1.1,0,1.1,1.1,1c0.2,0,0.5,0,0.4-0.4c0-0.1,0.1-0.2,0.2-0.2
	c0.2,0.1,0.5-0.1,0.6,0.2c0.4,1.3-1.4,1-2.2,1.1c-0.5,0-0.7-0.1-0.7-0.7C43.8,8.3,43.3,7,44.5,7.1 M47.8,8.3
	c0.1-0.4-0.3-1.4,0.4-1.4c0.2,0,0.4,0,0.4,0.3c-0.2,0.6,0.4,2.5-0.4,2.4C47.5,9.7,47.9,8.7,47.8,8.3 M49.8,7.5c0.3-1,2-0.1,2.9-0.2
	C53.6,7.5,53,8.8,53,9.4c0,0.4-0.3,0.6-0.7,0.6C50.2,9.6,49.2,10.2,49.8,7.5 M51.2,6.5c0.1-0.2,0.3-0.3,0.4-0.5
	c0.2-0.4,0.5-0.2,0.8-0.2c0.1,0,0.1,0.1,0.1,0.1c0,0.1-0.9,0.9-1.1,0.9C51.1,6.9,51,6.8,51.2,6.5 M53.9,9.8c0.3-0.7,0.2-1.7,0.6-2.2
	c1,0.1,1.2,1.6,2,2c0.2-0.4,0-1.5,0.7-1.4c0.2,0.1,0.4,0.1,0.3,0.4c-0.7,3.6-0.8,2.3-2.6,0.2c-0.2,0.5,0,1.6-0.7,1.5
	C53.9,10.2,53.8,10.2,53.9,9.8 M60.2,11.4c0.7-2.3,1.1-1.9,3-1c0.7,0.3,0.4,1.4-0.4,1c-0.2,0-0.2-0.1-0.1-0.3
	c0.1-0.2-0.1-0.3-0.3-0.3c-1.1-0.4-1.1-0.4-1.4,0.7c-0.1,0.2-0.1,0.3,0.1,0.4c0.4,0,1.1,0.8,1.3,0.1c0-0.1,0.1-0.1,0.2-0.1
	c0.8,0.3,0.5,1-0.2,1.1C61.8,12.6,60,12.5,60.2,11.4 M63.7,13.2c0.3-0.6,0.6-1.3,0.9-1.9c0.1-0.1,0.1-0.3,0.3-0.2
	c0.2,0.1,0.4,0.1,0.5,0.3c-0.3,0.4-0.8,2.6-1.4,2.2C63.8,13.6,63.6,13.6,63.7,13.2 M66.4,11.8c0.9,0.3,0.4,1.5,0.6,2.3
	c0.8-0.3,1.5-1.5,2.2-0.8c0.1,0.1,0,0.2-0.1,0.2c-0.7,0.2-2.3,2.1-2.7,1.1c-0.1-0.9-0.1-1.8-0.2-2.6C66.1,11.8,66.1,11.7,66.4,11.8
	 M70.2,13.9c0.2,0.1,0.4,0.1,0.2,0.4c-0.5,0.6-0.7,1.6-1.3,2c-0.2-0.1-0.7-0.3-0.3-0.6C69.2,15.4,69.6,13.5,70.2,13.9 M71.6,14.8
	c0.3,0.2,0.8,0.4,0.4,0.7c-0.1,0.5-1.1,1.1-0.7,1.6c0.3,0.4,1.6,0.7,1.3,1.2c-0.1,0.2-0.2,0.2-0.4,0.1c-0.6-0.4-1.2-0.8-1.8-1.2
	c-0.1-0.1-0.2-0.2-0.1-0.3C70.8,16.1,71.1,15.4,71.6,14.8 M76.5,19.4c1-0.1,1,1.7,0,1.6C75.5,21,75.5,19.3,76.5,19.4 M51.2,73.5
	c0.3-1,1-1.7,1.7-2.4c0.1-0.1,0.2-0.2,0.3-0.1c1.6,1.2,0.1,3.2-0.9,4.3c-0.2,0.2-0.4,0.4-0.7,0.1C50.9,74.7,50.9,74.4,51.2,73.5
	 M50.3,78.7c1.3-0.2,1.5,1.8,0.2,1.7c-0.7,0-0.7,0-0.7-0.8C49.7,78.7,49.8,78.7,50.3,78.7 M49.8,76.3c0.3-0.1,0.7-0.2,0.9,0.1
	c-0.1,0.3-0.5,0-0.7,0.2c-0.2,0.1-0.2,0.4,0.1,0.4c0.2,0.1,0.6-0.1,0.7,0.2c0,0.2-0.1,0.1-0.3,0.1c-0.2,0-0.6-0.1-0.6,0.1
	c0,0.5,0.8,0.1,0.9,0.4c-0.3,0.5-1.5-0.2-1.6-0.6C49.1,77.1,49.6,76.4,49.8,76.3 M48,74.9c-0.3-0.5-0.5-1-0.1-1.5
	c0.5-0.7,1.1-1.9,2.1-1.9c0.8-0.1,0.5-1.3,0.9-1.9c0.5-0.4,0.6-0.9,0.6-1.4c0.2,0.4,0.1,1.1-0.1,1.6l0.2-0.1c-0.4,2-1.1,3.9-1.4,5.8
	c-0.2,0.5-0.6-0.2-0.6-0.4C49.3,74.2,48.6,76.4,48,74.9 M46.8,76.3c0.2,0,1.4-0.1,1,0.2c-0.8,0.1,0,1.3-0.5,1.4
	c-0.4-0.3,0.3-1.3-0.5-1.4C46.6,76.5,46.6,76.3,46.8,76.3 M32.6,76.6c0.4-0.3,0.4,0.5,0.4,0.8c0.3,3,5.1-1,5.3-2.5
	c-0.6,0.4-0.8,0.6-1.3,0.2c-1.3-1.1,0.3-2.9,1.3-3.8c0.5-0.5,0.9,0.9,1.2,0.1c0.4-0.8,1.2,0.6,0.9,1.2c-1,2.9-2.3,6.9-6,6.7
	C33.2,79,31.7,77.6,32.6,76.6 M33.8,73.5c0.1,0.4-0.5,0.8-0.2,1.2c0.4,0.1,1.2-0.5,1.8-0.5c0.6,0-0.1,0.8-0.4,0.9
	c-0.3,0.2-0.5,0.5-0.9,0.4c-2.6-0.5-0.8-4.1,1.1-4.5c0.6-0.2,1.8,0.9,1.3,1.5c-0.5,0.7-1.4,1.4-2.1,0.7
	C34.1,72.9,33.7,73.1,33.8,73.5 M24.8,69c0,0.1-0.1,0.1-0.1,0.2c-1-0.1-1.9-0.2-2.9-0.4v-0.4c2-1,4-0.7,6-1.8
	c1.4-0.7,2.7-1.5,4.3-1.8c3-0.6,6.2-0.9,9-2c1.7-0.7,3.3-1.8,4.9-2.7c2-0.4,3.9-0.9,5.8-1.5c1.7-0.2,3.3,0,5,0
	c0.5,0.3,1.1,0.1,1.7,0.2c0.7,0.1,1.4,1.1,2.1,1c-0.1,1.5,1.2,2.7,1.8,4c0.6,1.2,1.9,1,2.6,0c0.1-0.1,0.5-0.7,0.8-0.5
	c0.1,0.1,0.2,0.1,0.3,0.2c-1,2.5,9.8-0.7,10.7-1.8c1.3,0.6,2.8,0.8,4,0c-2.3,7.2-9.6,7.1-15.5,6.5c-0.5,0-1,0-1.4,0.3
	c-0.8,0.6-1.8,0.5-2.7,0.6V69c0.8,0.1,1.5-0.2,2.2-0.4c0.2,0,0.6-0.1,0.6-0.5c-0.2-1.2-1.8-1.3-2.6-0.8c-0.3,0.1-0.5,0.2-0.7,0
	c-1-0.7-1.1,1.4-1.6,2c-2.3,0.3-4.6,0-6.9-0.1c0.2-0.7-0.2-1.8-1-2.3c-0.3,0.7,0.1,1.7-0.3,2.2c-8.2-0.7-16,0.4-24.1,0.2
	c0.4-0.5,0.3-1.3-0.4-1.6C25.2,67.4,25.2,68.5,24.8,69 M49.6,50.5c0.9,0.2,1.8,0.3,2.8,0.4C51.5,50.8,50.2,51.5,49.6,50.5
	 M75.4,61.1c-1.1,0.3-2.3,0.4-3.4,0.6c-0.2,0-0.5,0.1-0.6-0.2c-0.5-0.9-1.1-1.7-1.6-2.5C71.9,58.9,73.9,59.8,75.4,61.1L75.4,61.1z
	 M65.8,54.7c0.7,0,1.1,0.4,1.1,1.3C66.5,55.6,66.1,55.2,65.8,54.7 M64.4,55.7c0.9,1.4,1.5,3.1,2.4,4.5c0.2,0.2-0.1,0.4-0.2,0.2
	c-1-0.9-1.7-1.8-2.5-2.9c-0.4-0.5,0.2-1,0.2-1.5C64.3,55.8,64.3,55.7,64.4,55.7 M62.4,59.6c0.7-0.4,1.1-1,1.2-1.9
	c0.4,0.8,0.3,1.3-0.3,1.8C63.1,59.6,62.8,60,62.4,59.6 M66.3,62.7c-0.1,0.5-0.7-0.4-0.3-0.4C66.2,62.3,66.2,62.5,66.3,62.7
	 M66.3,60.9c-0.3-0.6-0.7-0.8-1.4-0.2c-0.2,0.2-0.3,0.3-0.6,0.2c-0.3-0.2-0.6,0-0.7,0.4c0,0.1-0.1,0.2-0.2,0.2c-0.1,0,0-0.1-0.1-0.2
	c-0.2-0.3-0.1-0.4,0.2-0.6c0.5-0.3,0.5-0.9,0.9-1.3c-0.1-0.4,0.4-0.7,0.5-0.2c0.8,0.4,1.2,1.6,2,1.8c0.3-0.1,0.5,0,0.8,0.3
	c0.6,0.7,1.3,1,2.2,0.9c-0.6,0-1.1,0.3-1.6,0.5C67.3,62.5,66.5,61.7,66.3,60.9 M70.2,60.2L70.2,60.2c-0.6-0.6-1.1-1.3-1.5-2
	C69.2,58.9,69.8,59.5,70.2,60.2 M19.7,68C19.7,68,19.7,68.1,19.7,68c-0.5,0.1-0.8,0.6-1,0.1c-7.9-11.4-8.3-28.2,0.6-39.5h0.1
	c0.1,0,0.1,0,0.2,0c2.5-0.8,5.4-2.2,8.1-2.3c2.8,2.2,5.3,4.6,8.1,6.6c0.4,0.2,0.7,0.4,1.2,0.4c-1.2,4-2.2,8.4-3.3,12.4
	c-0.3,1.9-1.4,3-2.3,4.7c-0.2,0.3-0.3,0.4-0.7,0.3c-0.4-0.1-0.6,0.1-0.6,0.3c-0.1,0.5,0.3,0.6,0.6,0.8c-0.1,0-0.3,0-0.4,0.1
	c-0.4,0-0.9,0-1.1,0.5l0.1,0.1c-0.3,0.1-0.4,0.1-0.6-0.1c-0.5-0.5-1.1-0.2-1.4-0.1c-1,0.5-0.8,2,0,2.3c0.4,0.4-0.2,1.1-0.4,1.5
	c-0.2,0.5-0.2,0.5-0.5,0.4c-0.9,0-1.8,0.7-2.7,0.4c0-0.5-0.3-2.5-1.2-1.6c-0.7,0-0.6,0.7-0.1,1c0,1.8-0.3,3.6-0.1,5.4
	c0.1,0.5,0.2,0.9-0.2,1.3c-0.3,0.3-0.1,1.2,0.5,1c0,0.4-0.5,0.8-0.2,1.1c0.2,0.3,0.8,0.3,1,0c0.1-0.6-0.2-1.4,0.3-1.8
	c0.2-0.2,0.2-0.4,0.1-0.6c1.4-2.9,4.9,0.8,5.8-2.2c0.1-1.4,0.3-2.6,1.1-3.8c0.2-0.6,0.6-0.1,1,0.1c-0.1-0.3,0-0.8-0.2-1.1
	c-0.2-0.6,0.9-1.7,0.9-2.6c0.5,0,0.7-0.3,0.8-0.7c0.3-0.8,0.4-1.7,0.7-2.5c0.1-1.2,0.8-2,1.6-3c4-4.5,7.3-9,10.3-13.3
	c0.5,0.6,0.6,1.5,1.2,2c0.5,0.2,0.9,0.7,1.3,1.1c1.1,1.6,2.4,2.9,4,4c0.8,0.7,1.6,1.4,2.6,1.8c1.4,0.8,3.1,1.1,4.7,1
	c1.1,0.2,2.2,0.5,3.3,0.5c0.6,0,1.2,0,1.6,0.5c1.1,0.7,1.7,1.9,2.8,2.4c0.7,0.2,1.2,0.8,1.9,0.9c1.5,0.3,3,1.7,4.6,1.8
	c1.6,0.2,3.2,0.6,4.8-0.2c1.7-0.6,3.1,1.7,4.9,1.4c-0.1,3.6-1.2,7.3-2.3,10.6c-0.3,0-0.6,0.2-1,0.4c-0.9,0.6-1.8,0.3-2.8,0
	c0.2-0.1,0.4-0.3,0.2-0.7c-0.3-0.5-0.9,0-1.3,0.1c-1.9-1.3-4.1-2.4-6.4-2.3c-0.7-0.7-1.2-1.5-2-2.1c0.1-1.2-0.7-2.5-2-2.3
	c-1.2-1.2-5.8-7-6.9-6.4c0,0.4,0.2,0.8,0.4,1c1.7,2.1,3.5,4.3,4.9,6.5c-1,0.7-0.9,2.1-1.7,2.9c-0.5-1.6-2.7-0.2-1.9,1.1
	c-0.2,0-0.5-0.1-0.6-0.2c-0.7-0.8-1.7-0.8-2.6-0.9v-0.1c-1.9,0-3.7-0.3-5.6,0c-1.1-0.3-2.1-0.3-3.3,0.2c-1-2.2-1.9-4.5-1.4-6.7
	c1.5,2,4.7,1.6,6.9,1l-0.2-0.3c-0.3-0.3-0.5-0.2-0.8-0.2c-1.2-0.3-3.3,0.6-4-0.6c1.8,1.2,3.8,0.2,5.8,0.4c0.4,0.1,0.9-0.3,1.2-0.6
	c-0.8-0.1-1.6-0.3-2.3-0.4c1-0.1,1.6-0.4,2.4-1c-2.2,0.1-4.5,0.2-6.3-0.8c0.5,0,0.9-0.2,1.3-0.5c-0.2-0.2-0.4-0.4-0.6-0.4
	c0.4-0.2,1.5-0.5,1.3-1.1c-0.3-0.6-0.8,0-1.2,0c-6.5-0.4-5,7.5-3.3,11.6c-0.6,0.2-1.1,0.5-1.3,1c-0.5,0.2-1,0.6-1.5,0.9
	c-4.2,3-9.1,2.9-13.8,4.2c-1.5,0.6-3.1,1.7-4.6,2.1c-1.4,0.3-2.9,0.5-4.2,1.1C20.9,66.9,20.2,66.8,19.7,68 M38.3,42.2
	c-0.1,0.1-0.1,0.3-0.3,0.3c2.7-4.2,5.8-8.4,9.1-12.3c-0.1,1.1-1.6,2-2,3C42.9,36.2,40.7,39.2,38.3,42.2 M27,59.4
	c0,0.7-0.6,0.6-1.1,0.7c-0.6,0.2-1.3,0.3-1.9,0.1c-0.2-0.1-0.6,0.3-0.7-0.1c-0.2-0.7,0.1-1.3,0.6-1.5c0.4-0.1,0-0.6,0.4-0.7
	c0.8-0.4,1.8-0.1,2.7-0.1c0.2,0,0.2,0.1,0.2,0.3C27,58.5,27.1,58.9,27,59.4 M33.1,48.4L33.1,48.4L33.1,48.4
	C33.1,48.4,33.1,48.3,33.1,48.4C33.1,48.3,33.1,48.4,33.1,48.4 M44.9,19.1c0-0.7,0-0.7,0.8-0.8c-0.3,0.7-0.5,1.4-0.8,2.1
	C44.9,19.9,44.9,19.5,44.9,19.1 M46.1,18.4c0.3-0.6,1.3-0.5,1.8-0.9c0.5-0.2,0.5,0.3,0.7,0.5c0.2,0.2,0.1,0.4,0,0.6
	c-1.2,1.3-2.6,2.7-4,3.6C44.6,20.8,45.7,19.6,46.1,18.4 M33.8,47.6L33.8,47.6L33.8,47.6 M37.1,43.7L37.1,43.7L37.1,43.7L37.1,43.7
	L37.1,43.7C37.2,43.6,37.2,43.7,37.1,43.7 M37,43.8L37,43.8C37,43.8,37,43.7,37,43.8C37.1,43.7,37.1,43.7,37,43.8
	C37,43.8,37,43.8,37,43.8C37.1,43.7,37,43.7,37,43.8 M34.8,46.2c-0.3,0.5-0.9,0.8-1,1.4c-0.5,0,0.4-1.4,0.5-1.7
	c2.8-6.2,5.4-12.4,8.4-18.6c0.1-1,0.9-1.9,1.2-2.9c0.8-2.4,3.2-3.6,5-5.3c0.3-0.2,0.4-0.1,0.5,0.2c1.3,4.6-1.3,9.2-4.2,12.4
	C41.6,36.5,38.1,41.4,34.8,46.2 M37.8,42.9C37.8,42.9,37.8,42.9,37.8,42.9c0-0.2,0.1-0.3,0.3-0.4C38,42.7,37.8,42.8,37.8,42.9
	 M34.7,43.7c1.7-6.4,3.7-12.7,5.5-19.1c0.4-1.5,0.8-3.1,1.2-4.6c0.1-0.3,0.2-0.5,0.5-0.5c0.8,0.2,2.5-1.4,2.6-0.1
	c0.5,2.1-0.8,3.8-1.3,5.7c-0.3,1-0.6,2.1-1.2,2.9c-2.2,5.7-5.3,11.4-7.6,16.9l0,0C34.5,44.5,34.6,44.1,34.7,43.7 M32.8,48.8
	L32.8,48.8c0,0.4-0.1,0.5-0.4,0.7C32.5,49.2,32.7,49,32.8,48.8 M31.8,50.5c0.1-0.2,0.2-0.4,0.3-0.6c0.2,0,0.1,0.2,0.1,0.3
	c-0.1,0.2-0.2,0.5-0.2,0.7c-0.1,0-0.1,0-0.1,0.1c-0.1,0-0.1,0.1-0.1,0.2c-0.1,0-0.1,0.1-0.1,0.2c-0.1,0-0.1,0.1-0.1,0.2
	c-0.1,0-0.1,0-0.1,0.1c-0.2,0.1-0.3-0.2-0.4-0.3C31.1,51,31.6,50.8,31.8,50.5 M33.4,48.6c-0.3,1.2-0.5,2.3-0.9,3.4
	c0,0.2-0.2,0.3-0.3,0.1c-0.2-0.2-0.7-0.1-0.6-0.6c0.1,0,0.1,0,0.1-0.1c0.1,0,0.1-0.1,0.1-0.2c0.1,0,0.1-0.1,0.1-0.2
	c0.1,0,0.1-0.1,0.1-0.2c0.1,0,0.1,0,0.1-0.1c0.7-0.7,1-1.7,1.5-2.6c0,0,0.1,0,0.1,0.1C33.5,48.4,33.4,48.5,33.4,48.6 M83,49.9
	c-1.2,0.2-2.1-0.9-3.2-1.2c-0.4-0.1-0.8-0.5-1.3-0.3c-2.5,1.2-5.5,0.7-7.9-0.6c-1.4-0.6-2.5-1-3.8-1.6c-0.9-0.6-1.6-1.6-2.5-2.2
	c-0.4-0.4-0.9-0.7-1.6-0.7c-1.2,0.1-2.4-0.3-3.7-0.5c-1.5,0.1-3.1-0.2-4.5-1c-0.9-0.4-1.7-1-2.5-1.7c-1.6-1-2.9-2.3-4-3.9
	c-0.4-0.4-0.8-0.9-1.4-1.2c-0.4-0.7-0.6-1.4-1.1-2l0,0c1.7-2.9,5-3.9,7.3-5.9c2.4-2.2,1.7-6.6-0.3-9.1c-1.7-3.1-6.2-4.3-9-2.4
	c-4.7,4.1-4.7,11.5-6.8,17c-0.4,0.1-0.7-0.1-1-0.3c-2.8-2.1-5.3-4.4-8.1-6.6c-0.3-0.2-0.6-0.3-0.9-0.2c-2.5,0.6-4.9,1.4-7.3,2.2
	C40.1,1.3,84,16.2,82.9,50.2C83.1,49.9,83,49.9,83,49.9 M30.4,78.8c-0.8-0.3-1.4-0.8-2.1-1.3C29,77.9,29.7,78.4,30.4,78.8
	 M30.3,75.5c-0.5-0.1-0.8-0.4-1.2-0.7c0-0.8,0.2-1.6,0.1-2.5c0.1-0.3-0.4-1.5,0.2-1.2c0.8,0.4,1,0.7,0.9,1.6c0,0.3-0.1,0.7,0.2,0.8
	c0.5-0.3,0.8-1.3,1.3-1.8c0.3-0.4,0.7-0.5,1.1-0.8s0.4,0.4,0.3,0.6C32.1,72.8,31.6,74.7,30.3,75.5 M43.9,72.7
	c-0.4,0.9-0.6,1.8-0.8,2.7c-0.4-0.3-0.2-0.9-0.5-1.3c-0.2-0.1-0.2,0.1-0.3,0.2c-0.3,0.4-1,1.4-1.5,0.7c-0.6-0.8-0.9-1.7-0.1-2.6
	c0.3-0.8,0.9-1.5,1.8-1.4c0.4,0,0.5,0.5,0.7,0.7c0.3-0.2,0.1-0.8,0.4-0.9c0.3,0.1,0.4,0.7,0.5,1C44.3,72.1,44.1,72.4,43.9,72.7
	 M42.4,79.4c0.1-0.2,0.1-0.7,0.4-0.7c0.4,0.1,0.3,0.7,0.5,1.1c0.3-0.4,0.1-1.1,0.6-1.1c0.2,0.1,0.1,0.2,0,0.3
	c-0.3,1.2-0.6,2.2-1.1,0.3c-0.4,0.3-0.1,0.9-0.6,1c-0.4-0.2-0.4-0.9-0.6-1.3c0-0.1-0.1-0.2,0.1-0.3C42.1,78.5,42.1,80.3,42.4,79.4
	 M42.3,76.6c0-0.1,0-0.3,0.2-0.3c0.3,0,0,0.5,0.3,0.6c0.3,0,0.4-0.5,0.7-0.6c0.2-0.1,0.4,0.1,0.2,0.3c-0.7,0.7-0.4,0.8,0.3,1.3
	c-0.7,0.4-0.7-0.4-1.1-0.5c-0.2,0.1-0.1,0.2-0.1,0.3c0,0.2,0,0.2-0.2,0.2C42.1,77.7,42.4,77,42.3,76.6 M45.4,77.7
	c0,0.3-0.4,0.3-0.3,0c0.1-0.4-0.2-1.3,0.2-1.5c0.3,0.1,0.1,0.6,0.1,0.8l0,0C45.4,77.3,45.3,77.5,45.4,77.7 M45.5,80.1
	c-0.4,0.8-0.3-0.9-0.3-1.2c0-0.1,0-0.2,0.1-0.2c0.3,0.1,0.1,0.6,0.2,0.8l0,0C45.5,79.7,45.5,79.9,45.5,80.1 M45.5,73.7
	c-0.4,0.4-0.3,2.1-1.1,1.7c-0.6-0.4-0.6-0.4-0.3-1.1c0.1-1.8,2.8-5,3.3-1.7c-0.1,0.9-0.4,1.8-0.8,2.6c-0.1,0.2-0.1,0.5-0.4,0.4
	c-1.2-0.6,0.1-1.9,0.1-3C45.8,72.8,45.7,73.3,45.5,73.7 M47.2,80.1c0,0.3-0.3,0.2-0.3,0c0.1-0.4-0.2-2,0.5-1.3
	C47.5,79,48,80,48,79.4c0.1-0.2-0.1-0.6,0.2-0.7c0.1,0,0.2,0.1,0.2,0.2c0.1,1.7-0.3,1.8-1.1,0.3h-0.1C47.2,79.6,47.2,79.8,47.2,80.1
	 M52.8,77.3c-0.7,0.1-1.3-0.6-0.5-0.9c0.3,0,0.9-0.2,1,0.1c-0.2,0.2-0.6,0-0.9,0.2c-0.3,0.1-0.2,0.3,0,0.3c1.2-0.2,1.3,1.2,0,1
	c-0.2-0.1-0.5,0.1-0.5-0.1c0-0.3,0.6-0.1,0.8-0.2C53,77.7,53,77.3,52.8,77.3 M53.5,79.6c-1.1,0.2-1.1-1.1,0-0.9
	c0.2,0.1,0.5-0.1,0.5,0.1c0,0.4-0.9-0.1-0.9,0.3c0,0.2,0.2,0.2,0.4,0.2c0.7-0.2,0.9,0.8,0.2,0.9c-0.2,0-0.5,0-0.8,0.1
	c-0.3,0.1-0.3-0.4,0-0.3c0.2,0,0.7,0.1,0.8-0.2C53.7,79.7,53.6,79.7,53.5,79.6 M54.6,76.6c-0.1-0.2,0.1-0.3,0.2-0.3
	c0.3,0,0.1,0.6,0.2,0.9c-0.1,0.7,0.9,0.7,0.7,0c0.1-0.2-0.2-0.8,0.2-0.9c0.3,0.1,0.1,0.4,0.1,0.6l0,0c0,0.6,0,1.2-0.8,1
	C54.5,78,54.7,77.1,54.6,76.6 M55.4,78.9c0-0.1,0.1-0.2,0.2-0.2c0.3,0.1,0.1,0.6,0.2,0.9c0,0.3,0.1,0.4,0.4,0.4
	c0.6,0,0.3-0.8,0.4-1.1c0-0.3,0.4-0.3,0.3,0C57,81,55.1,80.8,55.4,78.9 M57.9,77.7c0,0.2,0,0.3-0.2,0.3c-0.2,0-0.1-0.2-0.2-0.3
	c-0.2-0.4,0-0.7,0-1.1c0-0.5,0.4-0.2,0.6-0.3c0.4-0.1,1.1,0.1,0.9,0.6c-0.1,0.3-0.1,0.5,0,0.7c0.1,0.1,0.1,0.3-0.1,0.3
	c-0.4,0.1-0.2-0.6-0.6-0.6C58.1,77.3,57.9,77.3,57.9,77.7 M58.1,74.4c0.7-0.2,1.3-0.3,2-0.6c0.3-0.1,0.4,0,0.6,0.2
	c0.2,0.3-0.1,0.3-0.2,0.4c-0.7,0.7-1.5,1.1-2.5,1c-3-0.7,0.4-4.1,1-5.6l0.2,0.2c0.3-0.8,0.7-1.6,1-2.4l0,0c1,0.8,2-0.7,2.9,0.1
	c0.1,0.1,0.1,0.1,0.2,0.2c-0.8,0.1-1.5,0.5-2.3,0.4c-0.2-0.1-0.6,0.3-0.6,0.7L60,69.5l0.4,0.1c-0.1,0.2-0.8,1.2-0.3,1.2
	c0.5-0.1,0.9,0.2,1.3,0.2c0.2,0,0.4,0.1,0.5,0.3c0,0.2-0.2,0.3-0.4,0.3c-0.8,0.1-1.5,0.4-2.2,0.5C58.9,72.1,57.4,74.7,58.1,74.4
	 M63.7,72.2c-0.1-0.1-0.1,0-0.2,0.1c-0.2,0.1-1.4,1.1-0.6,1c0.5-0.1,1.9,0.5,1.4,1.1c-0.9,0.6-1.9,1.2-3,1.2c-0.2-0.1-0.3-0.3,0-0.4
	c0.5-0.2,0.9-0.7,1.5-0.8c0.4-0.1,0.2-0.5-0.1-0.3c-0.4,0.2-0.7-0.1-1-0.3c-0.2-0.2-0.2-0.3,0-0.5c0.6-0.6,1.1-1.4,1.9-1.8
	c1-0.5,1.9,0.9,0.9,1.7c-0.2,0.2-0.4,0.3-0.7,0.2c-0.4-0.2-0.4-0.3,0-0.7C63.8,72.3,63.9,72.3,63.7,72.2 M92.6,44.6
	C90.9,13.4,55.9-6.1,28.2,7.9C-6.3,24.4-4.5,74,30.9,88.3C60.5,100.8,95.1,77,92.6,44.6"/>
<path class="st0" d="M38.7,72.5c0.3-0.3,0.1-0.7-0.2-0.2c-0.5,0.4-0.9,1-1.1,1.6C37.8,73.4,38.3,73,38.7,72.5"/>
<path class="st0" d="M38.2,74.8C38.2,74.8,38.2,74.8,38.2,74.8C38.2,74.9,38.2,74.9,38.2,74.8C38.3,74.7,38.2,74.7,38.2,74.8"/>
<path class="st0" d="M49.1,73c-0.3,0.3-0.5,0.6-0.7,1C48.8,73.8,49,73.4,49.1,73"/>
<path class="st0" d="M67.5,72.1c-0.1-0.1-0.2,0.1-0.2,0.1c-0.6,0.7-1.4,1.3-1.4,2.4C66.4,74.1,67.6,72.8,67.5,72.1"/>
<path class="st0" d="M42.6,72.1c-0.8,0.2-1.3,0.9-1.7,1.6c0,0.1-0.2,0.3,0,0.4c0.2,0.1,0.3-0.1,0.4-0.2c0.3-0.8,1.3-0.9,1.6-1.6
	C42.9,72.1,42.8,72.1,42.6,72.1"/>
<path class="st0" d="M27.5,72.2c-0.3-0.8-2.6,1.5-2,1.9c0.2,0.1,0.3-0.1,0.3-0.3C26.2,73,27.2,73,27.5,72.2"/>
<path class="st0" d="M75.3,71.8c-0.3,0.1-0.6,0.4-0.4,0.7C75,72.3,75.6,71.9,75.3,71.8"/>
<path class="st0" d="M34.8,72.5c0.3-0.1,0.6-0.3,0.7-0.8c-0.3,0.3-1.1,0.6-1.1,0.9C34.5,72.8,34.7,72.5,34.8,72.5"/>
<path class="st0" d="M52.9,72.6c-0.5,0.3-0.7,0.6-0.6,1.1C52.5,73.4,52.8,73,52.9,72.6"/>
<path class="st0" d="M51.3,9.1c0.9,0.1,0.9,0.1,1-0.9c0.3-0.7-1-0.3-1.3-0.5c-0.4-0.1-0.5,0-0.5,0.4C50.4,9,50.4,9,51.3,9.1"/>
<path class="st0" d="M27.4,13.7c0.5-0.2,0.9-0.5,1.4-0.7c-0.2,0.1-0.3-0.3-0.5-0.2c-0.3,0.3-1.3,0.4-1.1,0.8
	C27.2,13.7,27.3,13.8,27.4,13.7"/>
<path class="st0" d="M31.2,12.8c0,0.2,0.1,0.2,0.3,0.1c0.5-0.3,1.2-0.3,1.5-0.7c-0.3-0.6-0.3-1.5-1.2-0.9
	C30.7,11.7,30.8,11.8,31.2,12.8"/>
<path class="st0" d="M66.2,83.5c0.2-0.1,0.4-0.2,0.6-0.3c-0.3-0.1-0.3-0.3-0.6-0.3C66.3,83.1,66.3,83.2,66.2,83.5"/>
<path class="st0" d="M41.2,8.4C41.1,8.7,41,9,41,9.3c0.3,0,0.5-0.1,0.8-0.2C41.5,8.8,41.4,8.6,41.2,8.4"/>
<path class="st0" d="M25.1,15.7c-0.3-0.2-0.5-0.3-0.8-0.5c0,0.4,0,0.6,0.1,1C24.5,16,24.8,15.8,25.1,15.7"/>
<path class="st0" d="M39.1,86.5c-0.3,0-0.9-0.4-0.9,0c-0.1,0.4,0.6,0.3,0.8,0.4C39.2,87,39.3,86.6,39.1,86.5"/>
<path class="st0" d="M39.3,85.8c-0.3-0.1-1.3-0.5-1,0.1C38.7,86,39.6,86.4,39.3,85.8"/>
<path class="st0" d="M44.7,86.8c-0.4,0-0.8-0.2-0.8,0.4s0,0.6,0.6,0.7c0.4,0,0.9,0.3,0.8-0.4C45.3,86.9,45.4,86.9,44.7,86.8"/>
<path class="st0" d="M42.1,86.4c-0.3,0-0.8-0.4-0.9,0c-0.1,0.5,0.6,0.3,0.9,0.4C42.3,87,42.4,86.4,42.1,86.4"/>
<path class="st0" d="M52.2,86.9c-0.1,0.2-0.1,0.4-0.2,0.6c0.2,0,0.4-0.1,0.6-0.1C52.5,87.2,52.4,87,52.2,86.9"/>
<path class="st0" d="M49.1,87.7c0.2,0,0.4,0,0.7,0c-0.1-0.2-0.2-0.4-0.4-0.6C49.3,87.3,49.2,87.4,49.1,87.7"/>
<path class="st0" d="M58.3,77.1c0.2,0,0.4,0,0.4-0.3c0-0.2-0.2-0.3-0.4-0.3C57.8,76.4,57.8,77.2,58.3,77.1"/>
<path class="st0" d="M59,79c-0.4-0.1-0.5,0.5,0,0.4C59.5,79.5,59.6,78.8,59,79"/>
</svg>
