<?xml version="1.0" encoding="utf-8"?>
<!-- Generator: Adobe Illustrator 24.2.0, SVG Export Plug-In . SVG Version: 6.00 Build 0)  -->
<svg version="1.1" id="Layer_1" xmlns="http://www.w3.org/2000/svg" xmlns:xlink="http://www.w3.org/1999/xlink" x="0px" y="0px"
	 viewBox="0 0 140.9 98.8" style="enable-background:new 0 0 140.9 98.8;" xml:space="preserve">
<style type="text/css">
	.st0{fill:#777777;}
</style>
<path class="st0" d="M73.5,23.5c5.5-5.9,4.8-15.8,0-20.9V23.5z M54.5,46.1V25.4C49.4,30.3,49.2,40.1,54.5,46.1 M73.5,24.6v34.4
	c-1.6-1-2.8-1.7-4.3-2.5c-4.4-2.7-8.9-5.5-13.3-8.2c-0.8-0.5-1.7-0.6-2.5-0.8c-2.8-0.2-5.5,0-8.4-0.2c-3.3,0-5.4-2.1-6.8-4.9
	c-2.2-4.6-2.2-9.3,0-13.9c1.3-2.5,3.3-4.3,6.3-4.4c3.2-0.2,6.5,0,10,0V1.3c0.6,0,1-0.2,1.4-0.2c8.9,0,17.6,0,26.5,0
	c3.8,0,6.7,2.5,7.9,6c1.1,3.2,1.6,6.2,0.8,9.3c-0.8,3.3-2.2,6.3-5.9,7.4c-1.1,0.5-2.5,0.5-3.8,0.5C78.8,24.7,76.3,24.6,73.5,24.6"/>
<path class="st0" d="M2.4,71.6H3c0.4,0,0.7-0.1,0.9-0.3c0.2-0.2,0.3-0.5,0.3-0.8S4.1,69.9,4,69.7c-0.1-0.2-0.4-0.3-0.9-0.3H2.5
	L2.4,71.6L2.4,71.6L2.4,71.6z M0.2,67.3h3.7c0.8,0,1.4,0.3,1.8,0.8c0.4,0.5,0.6,1.3,0.6,2.3s-0.2,1.8-0.7,2.4
	c-0.4,0.6-1.1,0.9-2,0.9H2.4v3.7H0.2C0.2,77.4,0.2,67.3,0.2,67.3z"/>
<polygon class="st0" points="7.5,67.3 13.5,67.3 13.5,69.5 9.7,69.5 9.7,71 13.2,71 13.2,73.1 9.7,73.1 9.7,75 13.6,75 13.6,77.3 
	7.5,77.3 "/>
<path class="st0" d="M19.3,64.9h0.8c0,0.1,0,0.2,0,0.3c0,0.5-0.1,0.9-0.3,1.2c-0.2,0.3-0.4,0.4-0.7,0.4c-0.2,0-0.5-0.1-1-0.4
	c-0.3-0.1-0.4-0.2-0.5-0.2s-0.2,0-0.2,0.1s-0.1,0.2-0.1,0.4h-0.8c0-0.1,0-0.2,0-0.3c0-0.5,0.1-0.9,0.3-1.1c0.2-0.3,0.4-0.4,0.7-0.4
	c0.1,0,0.2,0,0.3,0.1s0.3,0.1,0.6,0.3c0.3,0.2,0.5,0.2,0.6,0.2s0.2,0,0.2-0.1C19.3,65.3,19.3,65.1,19.3,64.9 M14.8,67.3h2.1l2.7,5.5
	v-5.5h2.1v9.9h-2.1l-2.7-5.4v5.5h-2.1C14.8,77.3,14.8,67.3,14.8,67.3z"/>
<path class="st0" d="M27.3,73.5l-0.8-3.6l-0.8,3.6H27.3z M27.7,75.6h-2.5l-0.3,1.6h-2.3l2.7-9.9h2.4l2.7,9.9h-2.3L27.7,75.6z"/>
<path class="st0" d="M5,88.8l2,0.8c-0.1,0.8-0.3,1.4-0.6,1.9c-0.3,0.5-0.6,0.9-1.1,1.1c-0.4,0.3-1,0.4-1.6,0.4
	c-0.8,0-1.4-0.2-1.9-0.5s-0.9-0.9-1.3-1.6c-0.4-0.8-0.5-1.8-0.5-3c0-1.6,0.3-2.9,1-3.8s1.5-1.3,2.7-1.3c0.9,0,1.6,0.3,2.2,0.8
	c0.5,0.5,0.9,1.3,1.2,2.3l-2,0.6C5,86.2,5,86,4.9,85.8s-0.3-0.4-0.5-0.5S4,85.1,3.8,85.1c-0.5,0-0.9,0.3-1.2,0.8
	c-0.2,0.4-0.3,1.1-0.3,2c0,1.1,0.1,1.9,0.4,2.3s0.6,0.6,1,0.6s0.8-0.2,1-0.5C4.8,89.9,4.9,89.4,5,88.8"/>
<path class="st0" d="M10,87.9c0,1,0.1,1.7,0.4,2.2c0.3,0.4,0.6,0.7,1.1,0.7s0.9-0.2,1.1-0.6c0.3-0.4,0.4-1.2,0.4-2.3
	c0-0.9-0.1-1.6-0.4-2c-0.3-0.4-0.6-0.6-1.1-0.6c-0.4,0-0.8,0.2-1.1,0.7C10.2,86.1,10,86.9,10,87.9 M7.8,87.9c0-1.6,0.3-2.9,1-3.8
	s1.6-1.3,2.8-1.3s2.1,0.4,2.8,1.3s1,2.1,1,3.7c0,1.2-0.1,2.1-0.4,2.9c-0.3,0.7-0.7,1.3-1.2,1.7c-0.5,0.4-1.2,0.6-2,0.6
	s-1.5-0.2-2-0.5c-0.5-0.4-1-0.9-1.3-1.7C8,90,7.8,89,7.8,87.9"/>
<polygon class="st0" points="16.5,82.9 18.6,82.9 21.3,88.4 21.3,82.9 23.5,82.9 23.5,92.8 21.3,92.8 18.6,87.4 18.6,92.8 
	16.5,92.8 "/>
<path class="st0" d="M24.6,89.5l2.1-0.2c0.1,0.5,0.1,0.8,0.3,1.1c0.2,0.4,0.6,0.6,1,0.6c0.3,0,0.6-0.1,0.7-0.3
	c0.2-0.2,0.3-0.4,0.3-0.7c0-0.3-0.1-0.5-0.2-0.7c-0.2-0.2-0.5-0.4-1.1-0.6c-1-0.3-1.7-0.7-2.1-1.2S25,86.4,25,85.6
	c0-0.5,0.1-1,0.3-1.4c0.2-0.4,0.5-0.8,1-1.1c0.4-0.3,1-0.4,1.8-0.4c0.9,0,1.6,0.2,2.1,0.7s0.8,1.2,0.9,2.3L29,85.9
	c-0.1-0.4-0.2-0.8-0.3-1c-0.1-0.2-0.4-0.3-0.7-0.3c-0.3,0-0.5,0.1-0.6,0.2c-0.1,0.2-0.2,0.3-0.2,0.6c0,0.2,0.1,0.3,0.2,0.4
	s0.4,0.3,0.8,0.4c1,0.3,1.7,0.6,2.1,0.9s0.7,0.7,0.9,1.1c0.2,0.4,0.3,0.9,0.3,1.5s-0.1,1.2-0.4,1.8c-0.3,0.5-0.6,0.9-1.1,1.2
	c-0.5,0.3-1,0.4-1.7,0.4c-1.2,0-2.1-0.3-2.6-1C24.9,91.4,24.6,90.5,24.6,89.5"/>
<polygon class="st0" points="31.8,82.9 38.6,82.9 38.6,85.3 36.3,85.3 36.3,92.8 34,92.8 34,85.3 31.8,85.3 "/>
<path class="st0" d="M41.8,86.9h1c0.1,0,0.3,0,0.6-0.1c0.2,0,0.3-0.1,0.4-0.3c0-0.2,0-0.4,0-0.6c0-0.3-0.1-0.6-0.2-0.7
	c-0.1-0.2-0.4-0.3-0.8-0.3h-1V86.9z M39.6,92.8v-9.9h3.7c0.7,0,1.2,0.1,1.6,0.2c0.4,0.2,0.7,0.5,0.9,0.9s0.3,1,0.3,1.6
	s-0.1,1-0.3,1.4s-0.4,0.7-0.7,1c-0.2,0.2-0.4,0.3-0.8,0.4c0.3,0.1,0.5,0.2,0.6,0.4c0.1,0.1,0.2,0.3,0.4,0.5c0.2,0.3,0.3,0.5,0.3,0.6
	l1.1,2.9h-2.5l-1.2-3c-0.1-0.4-0.3-0.6-0.4-0.8c-0.2-0.1-0.3-0.2-0.5-0.2h-0.2v4L39.6,92.8L39.6,92.8z"/>
<path class="st0" d="M51.9,82.9h2.2v5.9c0,0.6-0.1,1.1-0.2,1.7c-0.1,0.5-0.3,1-0.6,1.4s-0.6,0.7-0.9,0.8c-0.4,0.2-1,0.3-1.6,0.3
	c-0.3,0-0.7,0-1.1-0.1c-0.4-0.1-0.8-0.2-1-0.4c-0.3-0.2-0.5-0.5-0.8-0.8c-0.2-0.4-0.4-0.7-0.5-1.1c-0.1-0.6-0.2-1.2-0.2-1.7V83h2.2
	v6.1c0,0.5,0.1,1,0.3,1.3s0.5,0.5,0.9,0.5s0.7-0.1,0.9-0.4s0.3-0.7,0.3-1.3L51.9,82.9C51.8,82.9,51.9,82.9,51.9,82.9z"/>
<path class="st0" d="M60.5,88.8l2,0.8c-0.1,0.8-0.3,1.4-0.6,1.9s-0.6,0.9-1.1,1.1c-0.4,0.3-1,0.4-1.6,0.4c-0.8,0-1.4-0.2-1.9-0.5
	s-0.9-0.9-1.3-1.6c-0.4-0.8-0.5-1.8-0.5-3c0-1.6,0.3-2.9,1-3.8s1.5-1.3,2.7-1.3c0.9,0,1.6,0.3,2.2,0.8c0.5,0.5,0.9,1.3,1.2,2.3
	l-2,0.6c-0.1-0.3-0.1-0.5-0.2-0.7c-0.1-0.2-0.3-0.4-0.5-0.5s-0.4-0.2-0.6-0.2c-0.5,0-0.9,0.3-1.2,0.8c-0.2,0.4-0.3,1.1-0.3,2
	c0,1.1,0.1,1.9,0.4,2.3c0.2,0.4,0.6,0.6,1,0.6s0.8-0.2,1-0.5C60.2,89.9,60.4,89.4,60.5,88.8"/>
<path class="st0" d="M68.3,88.8l2,0.8c-0.1,0.8-0.3,1.4-0.6,1.9s-0.6,0.9-1.1,1.1c-0.4,0.3-1,0.4-1.6,0.4c-0.8,0-1.4-0.2-1.9-0.5
	s-0.9-0.9-1.3-1.6c-0.4-0.8-0.5-1.8-0.5-3c0-1.6,0.3-2.9,1-3.8c0.7-0.9,1.5-1.3,2.7-1.3c0.9,0,1.6,0.3,2.2,0.8
	c0.5,0.5,0.9,1.3,1.2,2.3l-2,0.6c-0.1-0.3-0.1-0.5-0.2-0.7s-0.3-0.4-0.5-0.5s-0.4-0.2-0.6-0.2c-0.5,0-0.9,0.3-1.2,0.8
	c-0.2,0.4-0.3,1.1-0.3,2c0,1.1,0.1,1.9,0.4,2.3c0.2,0.4,0.6,0.6,1,0.6s0.8-0.2,1-0.5C68.1,89.9,68.2,89.4,68.3,88.8"/>
<rect x="71.5" y="82.9" class="st0" width="2.3" height="9.9"/>
<path class="st0" d="M77.3,87.9c0,1,0.1,1.7,0.4,2.2c0.3,0.4,0.6,0.7,1.1,0.7s0.9-0.2,1.1-0.6c0.3-0.4,0.4-1.2,0.4-2.3
	c0-0.9-0.1-1.6-0.4-2s-0.6-0.6-1.1-0.6c-0.4,0-0.8,0.2-1.1,0.7C77.4,86.1,77.3,86.9,77.3,87.9 M75.1,87.9c0-1.6,0.3-2.9,1-3.8
	s1.6-1.3,2.8-1.3s2.1,0.4,2.8,1.3c0.7,0.9,1,2.1,1,3.7c0,1.2-0.1,2.1-0.4,2.9c-0.3,0.7-0.7,1.3-1.2,1.7s-1.2,0.6-2,0.6
	s-1.5-0.2-2-0.5c-0.5-0.4-1-0.9-1.3-1.7C75.2,90,75.1,89,75.1,87.9"/>
<polygon class="st0" points="83.8,82.9 85.9,82.9 88.6,88.4 88.6,82.9 90.7,82.9 90.7,92.8 88.6,92.8 85.9,87.4 85.9,92.8 
	83.8,92.8 "/>
<polygon class="st0" points="92.2,82.9 98.2,82.9 98.2,85 94.5,85 94.5,86.6 97.9,86.6 97.9,88.6 94.5,88.6 94.5,90.6 98.3,90.6 
	98.3,92.8 92.2,92.8 "/>
<path class="st0" d="M99.1,89.5l2.1-0.2c0.1,0.5,0.1,0.8,0.3,1.1c0.2,0.4,0.6,0.6,1,0.6c0.3,0,0.6-0.1,0.7-0.3
	c0.2-0.2,0.3-0.4,0.3-0.7c0-0.3-0.1-0.5-0.2-0.7c-0.2-0.2-0.5-0.4-1.1-0.6c-1-0.3-1.7-0.7-2.1-1.2s-0.6-1.1-0.6-1.9
	c0-0.5,0.1-1,0.3-1.4s0.5-0.8,1-1.1c0.4-0.3,1-0.4,1.8-0.4c0.9,0,1.6,0.2,2.1,0.7s0.8,1.2,0.9,2.3l-2.1,0.2c-0.1-0.4-0.2-0.8-0.3-1
	c-0.2-0.2-0.4-0.3-0.7-0.3c-0.3,0-0.5,0.1-0.6,0.2c-0.1,0.2-0.2,0.3-0.2,0.6c0,0.2,0.1,0.3,0.2,0.4s0.4,0.3,0.8,0.4
	c1,0.3,1.7,0.6,2.1,0.9s0.7,0.7,0.9,1.1s0.3,0.9,0.3,1.5s-0.1,1.2-0.4,1.8c-0.3,0.5-0.6,0.9-1.1,1.2c-0.5,0.3-1,0.4-1.7,0.4
	c-1.2,0-2.1-0.3-2.6-1C99.5,91.4,99.2,90.5,99.1,89.5"/>
<path class="st0" d="M109.8,89.5l2.1-0.2c0.1,0.5,0.1,0.8,0.3,1.1c0.2,0.4,0.6,0.6,1,0.6c0.3,0,0.6-0.1,0.7-0.3
	c0.2-0.2,0.3-0.4,0.3-0.7c0-0.3-0.1-0.5-0.2-0.7c-0.2-0.2-0.5-0.4-1.1-0.6c-1-0.3-1.7-0.7-2.1-1.2s-0.6-1.1-0.6-1.9
	c0-0.5,0.1-1,0.3-1.4s0.5-0.8,1-1.1c0.4-0.3,1-0.4,1.8-0.4c0.9,0,1.6,0.2,2.1,0.7s0.8,1.2,0.9,2.3l-2.1,0.2c-0.1-0.4-0.2-0.8-0.3-1
	c-0.2-0.2-0.4-0.3-0.7-0.3c-0.3,0-0.5,0.1-0.6,0.2c-0.1,0.2-0.2,0.3-0.2,0.6c0,0.2,0.1,0.3,0.2,0.4s0.4,0.3,0.8,0.4
	c1,0.3,1.7,0.6,2.1,0.9s0.7,0.7,0.9,1.1s0.3,0.9,0.3,1.5s-0.1,1.2-0.4,1.8c-0.3,0.5-0.6,0.9-1.1,1.2c-0.5,0.3-1,0.4-1.7,0.4
	c-1.2,0-2.1-0.3-2.6-1C110.2,91.4,109.9,90.5,109.8,89.5"/>
<rect x="117.4" y="90.1" class="st0" width="2.2" height="2.8"/>
<path class="st0" d="M123.2,86.9h1c0.1,0,0.3,0,0.6-0.1c0.2,0,0.3-0.1,0.4-0.3c0.1-0.2,0.1-0.4,0.1-0.6c0-0.3-0.1-0.6-0.2-0.7
	c-0.1-0.2-0.4-0.3-0.8-0.3h-1L123.2,86.9L123.2,86.9z M120.9,92.8v-9.9h3.7c0.7,0,1.2,0.1,1.6,0.2c0.4,0.2,0.7,0.5,0.9,0.9
	s0.3,1,0.3,1.6s-0.1,1-0.3,1.4s-0.4,0.7-0.7,1c-0.2,0.2-0.4,0.3-0.8,0.4c0.3,0.1,0.5,0.2,0.6,0.4c0.1,0.1,0.2,0.3,0.4,0.5
	c0.2,0.3,0.3,0.5,0.3,0.6l1.1,2.9h-2.5l-1.2-3c-0.1-0.4-0.3-0.6-0.4-0.8c-0.2-0.1-0.3-0.2-0.5-0.2h-0.2v4L120.9,92.8L120.9,92.8z"/>
<rect x="128.7" y="90.1" class="st0" width="2.2" height="2.8"/>
<polygon class="st0" points="132.1,82.9 134.4,82.9 134.4,90.4 137.9,90.4 137.9,92.8 132.1,92.8 "/>
<rect x="138.8" y="90.1" class="st0" width="2.2" height="2.8"/>
<path class="st0" d="M91.5,53.1c0,4.3-2.8,7.8-6.5,7.8c-3.5,0-6.5-3.5-6.5-7.8s2.8-7.8,6.5-7.8C88.7,45.1,91.5,48.6,91.5,53.1"/>
</svg>
