<?xml version="1.0" encoding="utf-8"?>
<!-- Generator: Adobe Illustrator 24.2.0, SVG Export Plug-In . SVG Version: 6.00 Build 0)  -->
<svg version="1.1" id="Layer_1" xmlns="http://www.w3.org/2000/svg" xmlns:xlink="http://www.w3.org/1999/xlink" x="0px" y="0px"
	 viewBox="0 0 98 78" style="enable-background:new 0 0 98 78;" xml:space="preserve">
<style type="text/css">
	.st0{fill:#777777;}
</style>
<path class="st0" d="M49,0.1c15.3,0,30.6,0,46.1,0c2.1,0,3.1,1.8,2.9,3.8c-0.1,18.8,0.1,37.7-0.1,56.6c-0.2,1.8-2.3,1.8-3.7,2.4
	c-3.2,1.1-6.5,2.2-9.7,3.3c-10.2,3.5-20.4,7-30.6,10.4c-1.7,0.5-3.3,1.5-5,1.3c-2.1-0.6-4.2-1.4-6.3-2.1c-7.6-2.6-15.2-5.2-22.8-7.8
	c-5.2-1.8-10.3-3.6-15.5-5.3c-1.3-0.6-3.1-0.6-3.7-2.1C-0.3,41.5,0.2,22.2,0.1,3C0,0.5,2.2-0.2,4.4,0.1H49 M49,1.5H4.3
	c-1.7,0-3-0.1-2.8,2.1c0,18.4,0,36.7,0,55.2c0,0.6-0.2,1.5,0.5,1.7c11.2,3.9,22.5,7.7,33.7,11.5c4.2,1.4,8.4,2.9,12.6,4.3
	c0.4,0.1,0.7,0.3,1.1,0.2c11.2-3.8,22.4-7.6,33.6-11.4c4.2-1.5,8.4-2.9,12.7-4.3c0.4-0.1,0.6-0.3,0.6-0.8c0-19,0-38,0-57.1
	c0-0.7-0.6-1.4-1.4-1.4C79.6,1.5,64.3,1.5,49,1.5"/>
<path class="st0" d="M62.8,11.8c0-1.6,0-3.3,0-4.9c0-0.6,0.1-0.7,0.7-0.7c2.7,0,5.5,0,8.2,0c0.7,0,0.7,0,0.7,0.6c0,3.5,0,6.9,0,10.4
	c0,0.3-0.1,0.4-0.4,0.4c-2.9,0-5.8,0-8.6,0c-0.3,0-0.4-0.1-0.4-0.4C62.7,15.4,62.8,13.6,62.8,11.8L62.8,11.8z"/>
<path class="st0" d="M44.2,11.9c0-1.7,0-3.5,0-5.2c0-0.4,0-0.5,0.5-0.5c2.9,0,5.7,0,8.6,0c0.5,0,0.5,0,0.5,0.5c0,3.5,0,6.9,0,10.4
	c0,0.4,0,0.5-0.5,0.5c-2.8,0-5.7,0-8.5,0c-0.5,0-0.5,0-0.5-0.5C44.2,15.4,44.2,13.6,44.2,11.9L44.2,11.9z"/>
<path class="st0" d="M81.5,11.9c0-1.7,0-3.4,0-5.2c-0.1-0.6,0.3-0.5,0.8-0.5c2.6,0,5.2,0,7.8,0c0.9,0,1,0,1,0.9c0,3.3,0,6.6,0,9.9
	c0,0.5-0.1,0.6-0.6,0.6c-2.8,0-5.6,0-8.5,0c-0.4,0-0.5,0-0.5-0.5C81.5,15.4,81.5,13.7,81.5,11.9"/>
<path class="st0" d="M16.5,11.9c0,1.7,0,3.4,0,5c0,0.6,0,0.6-0.6,0.6c-0.8,0-1.7,0-2.6,0c-1.9,0-3.8,0-5.7,0c-0.5,0-0.6,0-0.6-0.5
	c0-3.5,0-6.9,0-10.4c0-0.3,0.1-0.4,0.4-0.4c2.6-0.1,5.3,0,7.9,0c0.3,0.1,1.2-0.1,1.2,0.3C16.5,8.3,16.5,10.1,16.5,11.9"/>
<path class="st0" d="M25.7,11.9c0-1.7,0-3.5,0-5.2c0-0.3,0.2-0.5,0.4-0.5c2.2,0.1,4.4,0,6.6,0c0.6,0,1.3,0,1.9,0
	c0.4,0,0.5,0.1,0.5,0.5c0,3.4,0,6.9,0,10.3c0,0.5-0.1,0.5-0.5,0.6c-2.3,0-4.6,0-7,0c-0.5,0-1.1,0.1-1.6,0c-0.2,0-0.3-0.1-0.3-0.3
	c0-0.1,0-0.2,0-0.3V11.9L25.7,11.9z"/>
<path class="st0" d="M18.3,22.3c1.5,0,3,0,4.5,0c0.3,0,0.5,0.1,0.7,0.3c0.6,0.8,1.8,1.3,1.9,2.3c0,0.6,0,1.3,0,1.9
	c0,1-1.3,1.5-1.8,2.3c-0.3,0.3-0.3,0.3-0.1,0.7c0.7,1.2,1.5,2.4,2.2,3.5c0.2,0.3,0.1,0.4-0.2,0.4c-1.8,0-3.5,0-5.3,0
	c-0.2,0-0.3-0.1-0.5-0.3c-0.5-0.9-1.1-1.8-1.6-2.7c-0.1-0.2-0.3-0.3-0.5-0.3c-1.3,0-2.5,0-3.8,0c-0.4,0-0.5-0.1-0.5-0.5
	c0-0.8,0-1.5,0-2.3c0-0.6,0-0.6,0.6-0.6c0.7,0,1.4,0,2.1,0c1.1,0,2.2,0,3.3,0c0.7,0,0.3-0.8,0.4-1.2c0-0.2-0.1-0.3-0.3-0.3
	c-1.9,0-3.7,0-5.6,0c-0.4,0-0.5-0.1-0.5-0.5c0-0.8,0-1.6,0-2.4c0-0.4,0.1-0.5,0.5-0.5C15.3,22.3,16.8,22.3,18.3,22.3"/>
<path class="st0" d="M16.5,51.2c0,1.6,0,3.2,0,4.7c0.1,0.6-0.2,0.4-0.7,0.4c-2.8,0-5.6,0-8.3,0c-0.3,0-0.4-0.1-0.4-0.4
	c0-3.1,0-6.3,0-9.4c0-0.4,0-0.4,0.5-0.4c2.9-0.1,5.7,0,8.5,0c0.5,0,0.5,0,0.5,0.5L16.5,51.2L16.5,51.2z"/>
<path class="st0" d="M44.3,51.2c0-1.6,0-3.1,0-4.7c0-0.3,0.1-0.4,0.4-0.4c2.9,0,5.8,0,8.7,0c0.4,0,0.4,0,0.4,0.4c0,3.1,0,6.2,0,9.3
	c0,0.6,0,0.6-0.6,0.6c-2.8,0-5.6,0-8.5,0c-0.3,0-0.4-0.1-0.4-0.4C44.3,54.3,44.3,52.8,44.3,51.2"/>
<path class="st0" d="M81.5,51.2c0-1.6,0-3.1,0-4.7c0-0.3,0.1-0.4,0.4-0.4c2.3,0,4.6,0,6.8,0c0.6,0,1.2,0,1.8,0
	c0.3,0,0.4,0.1,0.4,0.4c0,3.1,0,6.3,0,9.4c0,0.5,0,0.5-0.5,0.5c-2.9,0-5.7,0-8.6,0c-0.3,0-0.4-0.1-0.4-0.4
	C81.5,54.4,81.5,52.8,81.5,51.2"/>
<path class="st0" d="M35.1,51.2c0,1.6,0,3.1,0,4.7c0,0.4,0,0.4-0.4,0.4c-2.8,0-5.7,0-8.5,0c-0.3,0-0.3-0.2-0.3-0.4c0-3,0-6,0-9
	c0-0.5-0.2-0.9,0.5-0.8c2.8,0,5.6,0,8.4,0c0.4,0,0.4,0,0.4,0.4C35.1,48.1,35.1,49.6,35.1,51.2L35.1,51.2z"/>
<path class="st0" d="M62.9,51.2v-4.7c0-0.4,0-0.4,0.4-0.4c2.9,0,5.7,0,8.6,0c0.3,0,0.4,0.1,0.4,0.4c0,2.2,0,4.4,0,6.5c0,1,0,2,0,3
	c0,0.2,0,0.3-0.3,0.3c-2.9,0-5.8,0-8.7,0c-0.3,0-0.3-0.1-0.3-0.4C62.9,54.4,62.9,52.8,62.9,51.2L62.9,51.2z"/>
<path class="st0" d="M43.5,33.7c-0.9,0-1.8,0-2.7,0c-0.7,0-0.7-0.8-1-1.2c-0.1-0.2-0.2-0.3-0.5-0.3c-2,0-3.9,0-5.9,0
	c-0.4,0-0.5-0.1-0.3-0.5c0.5-0.9,1-1.9,1.4-2.8c0.1-0.2,0.3-0.3,0.5-0.3c0.8,0,1.6,0,2.4,0c0.4,0,0.4,0,0.2-0.4
	c-0.9-1.9-1.8-3.7-2.8-5.6c-0.2-0.5,0.7-0.3,1-0.3c1.5,0,2.9,0,4.4,0c0.3,0,0.5,0.1,0.6,0.4c1.2,2.3,2.5,4.6,3.7,6.8
	c0.7,1.2,1.3,2.5,2,3.7c0.2,0.4,0.1,0.5-0.3,0.5C45.4,33.8,44.4,33.8,43.5,33.7L43.5,33.7z"/>
<path class="st0" d="M76.1,22.3c1,0,1.9,0,2.9,0c0.2,0,0.4,0.1,0.5,0.3c1.6,2.4,3.3,4.8,4.9,7.2c0.5,1.1,0.1,2.4,0.2,3.5
	c0,0.4-0.1,0.4-0.4,0.4c-1.5,0-3.1,0-4.7,0c-0.5,0-0.6,0-0.6-0.5c-0.1-1,0.3-2.2-0.2-3.2c-1.9-2.5-3.9-4.9-5.7-7.4
	c-0.2-0.3-0.1-0.3,0.2-0.3C74.1,22.3,75.1,22.3,76.1,22.3L76.1,22.3z"/>
<path class="st0" d="M12.7,28v5.2c0,0.4-0.1,0.5-0.5,0.5c-1.6,0-3.1,0-4.7,0c-0.3,0-0.3-0.1-0.4-0.3c-0.1-3.2,0-6.5,0-9.7
	c0.1-0.4-0.3-1.3,0.4-1.3c1.6,0,3.2,0,4.7,0c0.5,0,0.5,0.1,0.5,0.5V28L12.7,28z"/>
<path class="st0" d="M61.9,28.1c0-1.7,0-3.5,0-5.2c0-0.5,0-0.5,0.5-0.5c1.6,0,3.1,0,4.7,0c0.3,0,0.4,0.1,0.4,0.4c0,3.5,0,7,0,10.6
	c0,0.4-0.1,0.5-0.5,0.5h-4.7c-0.4,0-0.5,0-0.5-0.5C61.9,31.5,61.9,29.8,61.9,28.1L61.9,28.1z"/>
<path class="st0" d="M47.1,28c0-1.8,0-3.5,0-5.3c0-0.4,0-0.4,0.4-0.4c1.6,0,3.2,0,4.8,0c0.3,0,0.4,0.1,0.4,0.4c0,3.6,0,7.1,0,10.7
	c0,0.3-0.1,0.4-0.4,0.4c-1.6,0-3.2,0-4.8,0c-0.4,0-0.4,0-0.4-0.4C47.1,31.6,47.1,29.8,47.1,28"/>
<path class="st0" d="M28.9,33.7c-0.8,0-1.6,0-2.4,0c-0.4,0-0.5-0.1-0.3-0.4c1.9-3.6,3.8-7.2,5.7-10.7c0.1-0.2,0.2-0.3,0.4-0.3
	c0.6,0.1,1.8-0.3,2.1,0.3c0.4,0.8,0.8,1.7,1.2,2.5c0.1,0.3,0.1,0.5,0,0.8c-1.3,2.5-2.6,5.1-3.8,7.6c-0.1,0.2-0.3,0.3-0.5,0.3
	C30.5,33.7,29.7,33.7,28.9,33.7"/>
<path class="st0" d="M78.1,39.8c0.2-0.9,0-2.8,0.1-3.9c0-0.2,0.1-0.3,0.3-0.3c0.5,0,1,0,1.5,0c0.2,0,0.3,0.1,0.3,0.3
	c0,1.8,0,3.6,0,5.5c0,0.2-0.1,0.3-0.3,0.3c-1,0-2,0-3.1,0c-0.2,0-0.3-0.1-0.4-0.2c-0.9-1.3-1.7-2.8-2.6-4c-0.1,0-0.1,0.2-0.1,0.3
	c0,1.2,0,2.3,0,3.5c0,0.3-0.1,0.4-0.4,0.4c-0.5,0-1,0-1.5,0c-0.2,0-0.3-0.1-0.3-0.3c0-0.6,0-1.3,0-2c0-1.2,0-2.3,0-3.5
	c0-0.3,0.1-0.4,0.3-0.4c1,0,2.1,0,3.1,0c0.2,0,0.3,0.1,0.4,0.2C76.3,37,77.1,38.4,78.1,39.8"/>
<path class="st0" d="M48.1,38.4c0-0.9,0-1.8,0-2.7c0-0.2,0.1-0.3,0.3-0.3c1,0,2.1,0,3.1,0c0.2,0,0.3,0.1,0.4,0.2
	c0.8,1.2,1.6,2.5,2.4,3.7c0.1,0.1,0.1,0.3,0.2,0.2c0.2,0,0.1-0.2,0.1-0.3c0-1.2,0-2.3,0-3.5c0-0.2,0.1-0.3,0.3-0.3
	c0.6,0,1.1,0,1.7,0c0.2,0,0.2,0.1,0.2,0.2c0,1.9,0,3.7,0,5.6c0,0.2-0.1,0.3-0.3,0.3c-1,0-2.1,0-3.1,0c-0.2,0-0.3,0-0.4-0.2
	c-0.8-1.3-1.6-2.6-2.5-3.8c0-0.1-0.1-0.1-0.2-0.1c-0.1,0-0.1,0.1-0.1,0.2c0,1.2,0,2.4,0,3.5c0,0.3-0.1,0.4-0.4,0.4
	c-0.5,0-0.9,0-1.4,0c-0.2,0-0.3-0.1-0.3-0.3C48.1,40.4,48.1,39.5,48.1,38.4L48.1,38.4z"/>
<path class="st0" d="M86.4,35.4c1,0,2,0,3.1,0c0.2,0,0.4,0.1,0.5,0.2c0.2,0.3,0.5,0.5,0.8,0.8c0.3,0.2,0.3,0.4,0.3,0.8
	c0,0.9,0,1.9,0,2.8c0,0.6-0.7,0.9-1,1.3c-0.2,0.2-0.3,0.3-0.6,0.3c-2,0-4,0-6,0c-0.5,0-0.7-0.5-1.1-0.8c-0.5-0.3-0.6-0.8-0.6-1.3
	c0.1-0.9-0.2-2.1,0.2-2.8c0.4-0.3,0.7-0.7,1.1-1C83,35.3,86.3,35.5,86.4,35.4 M86.4,36.9c-0.8,0.1-2.2-0.3-2.2,0.8
	c0.1,0.8-0.3,2.2,0.8,2.4c1,0,2,0,3,0c1.1-0.1,0.6-1.6,0.7-2.3C88.7,36.5,87.2,36.9,86.4,36.9"/>
<path class="st0" d="M29.6,35.4c2.3,0,4.6,0,6.9,0c0.3,0.5,1.1,0.8,1.1,1.5c0,0.3-0.1,0.4-0.3,0.3c-0.5,0-1.1,0-1.6,0
	c-0.2,0-0.4,0-0.5-0.3l0,0c-0.1-0.1-0.3-0.1-0.4-0.1c-1.1,0-2.1,0-3.2,0c-0.4,0-0.8,0.4-0.8,0.8c0.1,0.7-0.3,1.8,0.4,2.3l0,0
	c0.1,0.2,0.2,0.2,0.4,0.2c1.1,0,2.3,0,3.4,0c0.3,0,0.4-0.1,0.4-0.5c0-0.3,0-0.5-0.4-0.4c-0.8,0-1.6,0-2.4,0c-0.5,0-0.2-0.7-0.3-1
	c0-0.2,0.1-0.3,0.3-0.2c1.6,0,3.2,0,4.9,0c0.2,0,0.3,0.1,0.3,0.3c0,0.3,0,0.7,0,1c0.2,1-0.4,2.1-1.4,2.2c-1.9,0-3.8,0-5.7,0
	c-0.9,0.1-1.3-0.5-1.9-1c-0.1-0.1-0.2-0.3-0.2-0.5c0-1,0-2,0-2.9C28.4,36.3,29.2,35.9,29.6,35.4"/>
<path class="st0" d="M18.3,35.4c2.6,0,5.2,0,7.8,0c0.3,0.4,0.6,0.7,1,1c0,0.5,0,1,0,1.5c-0.3,0.4-1.3,1-1,1.5c0.3,0.6,0.7,1.2,1,1.8
	c0.1,0.2,0.1,0.3-0.1,0.3c-0.7,0-1.3,0-2,0c-0.1,0-0.2,0-0.3-0.2c-0.3-0.5-0.5-1-0.8-1.5c-0.1-0.1-0.2-0.3-0.4-0.3
	c-0.9,0-1.7,0-2.6,0c-0.3,0-0.4,0.1-0.4,0.4c0,0.4,0,0.9,0,1.3c0,0.2-0.1,0.3-0.3,0.3c-0.6,0-1.2,0-1.7,0c-0.2,0-0.3-0.1-0.3-0.3
	C18.3,39.3,18,37.3,18.3,35.4 M22.5,36.8H21c-0.5,0-0.5,0-0.5,0.5c0.1,0.3-0.2,0.9,0.3,0.9c1.1,0,2.3,0,3.4,0c0.5,0,0.5-0.4,0.5-0.8
	C24.7,36.4,23.2,36.9,22.5,36.8"/>
<path class="st0" d="M42.9,41.6c-1.1,0-2.2,0-3.4,0c-0.3,0-0.4-0.1-0.4-0.4c0-1.7,0-3.5,0-5.2c0-0.3,0.1-0.4,0.4-0.4
	c2.3,0,4.5,0,6.7,0c0.3,0,0.5,0.1,0.4,0.4c-0.1,0.4,0.2,1-0.4,1c-1.4,0-2.8,0-4.2,0c-0.7-0.1-0.6,0.3-0.5,0.9c0,0.2,0.2,0.1,0.3,0.1
	c1.2,0,2.5,0,3.7,0c0.7,0,0.6,0,0.6,0.6c0,0.8,0.1,0.7-0.7,0.7c-1.2,0-2.3,0-3.5,0c-0.3,0-0.4,0.1-0.4,0.4c0,0.6,0,0.6,0.6,0.6
	c1.4,0,2.8,0,4.2,0c0.3,0,0.5,0.1,0.4,0.4c-0.1,0.4,0.2,1-0.4,1C45.1,41.6,44,41.6,42.9,41.6L42.9,41.6z"/>
<path class="st0" d="M12.1,40.5c-0.6,0-1.1,0-1.7,0c-0.3,0-0.4,0.2-0.5,0.4c-0.2,0.5-0.5,0.7-1,0.7c-0.3-0.1-2,0.3-1.6-0.3
	c1-1.8,2-3.5,3-5.3c0.1-0.4,0.4-0.5,0.8-0.4c0.9,0,1.8,0,2.7,0c0.2,0,0.4,0.1,0.5,0.3c1,1.8,2,3.7,3.1,5.5c0.1,0.2,0.1,0.3-0.2,0.3
	c-0.7,0-1.4,0-2.1,0c-0.2,0-0.3,0-0.4-0.2C14.2,40.1,13,40.6,12.1,40.5L12.1,40.5z M12.1,38.9L12.1,38.9c0.3-0.1,1.4,0.2,1.1-0.3
	c-0.3-0.5-0.7-1.6-1-1.8c-0.2,0-0.2,0.2-0.3,0.4c-0.3,0.5-0.5,1-0.8,1.5C10.8,39.2,11.8,38.8,12.1,38.9"/>
<path class="st0" d="M88.3,22.3c0.8,0,1.6,0,2.5,0c0.1,0,0.3,0,0.4,0.1s0,0.3-0.1,0.4c-1.8,2.3-3.7,4.7-5.5,7
	c-0.3,0.4-0.4,0.4-0.7,0c-0.7-1-1.4-2.1-2.1-3.2c-0.1-0.2-0.1-0.4,0-0.5c0.9-1.2,1.8-2.4,2.6-3.6c0.1-0.2,0.3-0.2,0.5-0.2
	C86.6,22.3,87.4,22.3,88.3,22.3L88.3,22.3z"/>
<path class="st0" d="M71.8,33.7c-1.1,0-2.3,0-3.4,0c-0.3,0-0.4-0.1-0.4-0.4c0-1,0-2,0-3.1c0-0.2,0.1-0.4,0.4-0.4c2.3,0,4.6,0,6.8,0
	c0.3,0,0.4,0.1,0.4,0.4c0,1,0,2,0,3.1c0,0.3-0.1,0.4-0.4,0.4C74.1,33.7,72.9,33.8,71.8,33.7L71.8,33.7z"/>
<path class="st0" d="M57,33.8c-1.1,0-2.3,0-3.4,0c-0.3,0-0.4-0.1-0.4-0.4c0-1,0-2.1,0-3.1c0-0.3,0.1-0.4,0.4-0.4c2.3,0,4.6,0,6.9,0
	c0.2,0,0.3,0.1,0.3,0.3c0,1.1,0,2.2,0,3.3c0,0.3-0.2,0.3-0.4,0.3C59.3,33.7,58.2,33.7,57,33.8L57,33.8z"/>
<path class="st0" d="M62.2,35.4c1.3,0,2.6,0,3.8,0c0.3,0,0.5,0.1,0.4,0.4c-0.1,0.4,0.3,1.2-0.4,1.1c-0.8,0-1.6,0-2.3,0
	c-0.2,0-0.3,0.1-0.3,0.3c0,1.3,0,2.6,0,3.9c0,0.3-0.1,0.4-0.4,0.4c-0.5,0-1.1,0-1.6,0c-0.3,0-0.4-0.1-0.4-0.4c0-1.3,0-2.5,0-3.8
	c0-0.3-0.1-0.4-0.4-0.4c-0.8,0-1.5,0-2.3,0c-0.6,0-0.2-0.8-0.3-1.1c0-0.3,0.1-0.4,0.4-0.4C59.6,35.4,60.9,35.4,62.2,35.4"/>
<path class="st0" d="M69.9,38.4c0,0.9,0,1.8,0,2.7c0,0.2-0.1,0.3-0.3,0.3c-0.6,0-1.2,0-1.8,0c-0.3,0-0.3-0.1-0.3-0.3
	c0-1.8,0-3.7,0-5.5c0-0.2,0.1-0.2,0.2-0.2c0.6,0,1.2,0,1.9,0c0.2,0,0.3,0.1,0.3,0.3C69.9,36.6,69.9,37.5,69.9,38.4L69.9,38.4z"/>
<path class="st0" d="M29.6,35.4c-0.4,0.5-1.2,0.9-1.3,1.6c0,1,0,2,0,2.9c0,0.5,0.4,0.6,0.7,0.9c0.4,0.5,0.9,0.6,1.5,0.6
	c1.9,0,3.8,0,5.7,0c0.2,0,0.4-0.1,0.6-0.2c1.2-0.8,0.8-1.9,0.9-3c0-0.2-0.1-0.3-0.3-0.3c-1.6,0-3.2,0-4.9,0c-0.5,0-0.2,0.7-0.3,1
	c0,0.2,0.1,0.3,0.3,0.3c0.8,0,1.6,0,2.4,0c0.4,0,0.4,0.2,0.4,0.5c0,0.4-0.1,0.5-0.4,0.5c-1.1,0-2.3,0-3.4,0c-0.2,0-0.3,0-0.4-0.2
	c1.2,0.3,2.4,0.1,3.7,0.1c0.4,0,0.5-0.1,0.5-0.5c0-0.2-0.1-0.3-0.3-0.3c-0.8,0-1.6,0-2.4,0c-0.3,0-0.4-0.1-0.4-0.4
	c0-0.2,0-0.5,0-0.7c0-0.2,0.1-0.4,0.4-0.4c1.7,0,3.3,0,5,0c0.2,0,0.3,0.1,0.3,0.3c0,0.7,0,1.4,0,2.1c0,0.4-1.1,1.4-1.4,1.4
	c-2.1,0-4.2,0-6.3,0c-0.6,0-0.9-0.8-1.4-1.1c-0.2-0.2-0.2-0.4-0.2-0.6c0-0.9,0-1.8,0-2.7c-0.1-0.7,0.7-1.1,1.1-1.6
	C29.4,35.5,29.4,35.3,29.6,35.4"/>
<path class="st0" d="M89.3,30.8c0.2,0,0.4,0,0.6,0c0.5-0.1,0.8,0.2,1.2,0.5c0.2,0.4,0.1,1,0.1,1.5c0,0.3-0.6,0.9-0.9,0.9
	c-0.9,0-2.4,0.3-2.6-0.9C87.4,31.3,87.6,30.6,89.3,30.8L89.3,30.8z M89.3,31.3c-0.5-0.1-1.2-0.1-1.2,0.6c0,0.6,0,1.3,0.8,1.2
	c0.6-0.1,1.8,0.3,1.8-0.6c0-0.5,0-1.2-0.6-1.2C89.8,31.3,89.6,31.3,89.3,31.3"/>
<path class="st0" d="M18.3,35.4c-0.2,1.9,0,3.8-0.1,5.7c0,0.2,0.1,0.3,0.3,0.3c0.6,0,1.2,0,1.8,0c0.2,0,0.3-0.1,0.3-0.3
	c0-0.4,0-0.9,0-1.3c0-0.3,0.1-0.4,0.4-0.4c0.9,0,1.7,0,2.6,0c0.2,0,0.3,0.2,0.4,0.3c0.3,0.5,0.6,1,0.9,1.5c0.1,0.2,0.2,0.2,0.3,0.2
	c0.7,0,1.3,0,2,0c0.2,0,0.3-0.1,0.2-0.3c-0.3-0.6-0.7-1.2-1-1.8c-0.4-0.5,0.7-1,1-1.5c0.1,0.1,0,0.2-0.1,0.3c-0.2,0.3-1,0.7-0.8,1.1
	c0.4,0.6,0.7,1.2,1.1,1.8c0.1,0.1,0.2,0.2,0.1,0.4c-0.1,0.2-0.2,0.1-0.4,0.1c-0.7-0.1-2,0.4-2.4-0.4c-0.2-0.5-0.5-0.9-0.7-1.3
	c-0.1-0.2-0.2-0.3-0.4-0.3c-0.8,0-1.6,0-2.4,0c-0.2,0-0.4,0.1-0.3,0.4c0,0.4,0,0.9,0,1.3c0,0.2-0.1,0.3-0.3,0.3c-0.5,0-1.1,0-1.6,0
	c-0.5,0-0.5,0-0.5-0.5c0-1.9,0-3.7,0-5.6C18.1,35.4,18.2,35.4,18.3,35.4"/>
<path class="st0" d="M31,40c-0.7-0.5-0.2-1.5-0.3-2.3c0-0.4,0.4-0.8,0.8-0.8c1.1,0,2.1,0,3.2,0c0.2,0,0.3,0,0.4,0.1
	c-1.2,0-2.4,0-3.6,0c-0.5,0-0.7,0.3-0.7,0.7C30.9,38.4,30.6,39.3,31,40"/>
<path class="st0" d="M35.1,37c0.1,0.3,0.3,0.3,0.5,0.3c0.5,0,1.1,0,1.6,0c0.3,0,0.3-0.1,0.3-0.3c0.1-0.7-0.7-1-1.1-1.5
	c0.4,0.2,0.5,0.5,0.8,0.7c0.3,0.2,0.4,0.5,0.4,0.9c0,0.3-0.1,0.4-0.4,0.4c-0.6,0-1.2,0-1.8,0C35.2,37.4,35.1,37.3,35.1,37"/>
<path class="st0" d="M27.1,36.5c-0.4-0.3-0.7-0.6-1-1c0.3,0.1,0.4,0.3,0.6,0.5C26.8,36.1,27,36.2,27.1,36.5"/>
<path class="st0" d="M89.3,31.7c0.4,0,1,0,0.8,0.5c0,0.1-0.1,0.2,0,0.3c0,0.1,0.2,0.2,0.1,0.3c-0.1,0.1-0.3,0.1-0.4-0.1
	c-0.2-0.3-0.6-0.3-0.7-0.1c0,0.2-0.2,0.2-0.3,0.2c-0.2,0-0.1-0.2-0.2-0.4C88.6,31.6,88.4,31.7,89.3,31.7 M89.4,31.9
	c-0.1,0-0.3-0.1-0.4,0.1c0,0.2,0.2,0.2,0.3,0.2c0.2,0,0.4,0,0.4-0.2C89.7,31.8,89.5,31.9,89.4,31.9"/>
</svg>
