<?xml version="1.0" encoding="utf-8"?>
<!-- Generator: Adobe Illustrator 24.2.0, SVG Export Plug-In . SVG Version: 6.00 Build 0)  -->
<svg version="1.1" id="Layer_1" xmlns="http://www.w3.org/2000/svg" xmlns:xlink="http://www.w3.org/1999/xlink" x="0px" y="0px"
	 viewBox="0 0 159 44" style="enable-background:new 0 0 159 44;" xml:space="preserve">
<style type="text/css">
	.st0{fill:#777777;}
</style>
<path class="st0" d="M45.3,42.7H38H16c0,0-13.7,0-14.3-0.2c-0.7-0.1,0-1.3,0-1.3s5.8-9.6,7-11.5s2.7-1.9,2.7-1.9h6.5
	c0,0-1.2,1.5-1.5,2.9c-0.3,1.8,1.6,2,1.6,2l10.4,0.1c0,0,9.8,0,11.3,0c1.5,0,1.8,0.7,1.8,0.7s3.7,5.9,4.8,7.5
	C47.1,42.5,45.3,42.7,45.3,42.7 M22,23.2c0,0,7.9,0,9.1,0c1.1,0,1.8,0.5,1.8,0.5l0.8,1.3c0,0,0,0,0.5,0.7s-0.8,0.9-0.8,0.9L20,26.5
	L22,23.2z M47.5,41c-1.1-1.7-5.1-8.1-5.1-8.1s0-0.1-0.6-0.5c-0.6-0.4-1.5-0.8-2.7-0.8c-1.2,0-20.7,0-20.7,0s-0.8,0.1-0.9-0.3
	C17.5,30.8,18,30,18,30l1.2-2.1h14.4c0,0,2.3-0.5,1.8-2.4c-0.1-0.4-1.5-2.4-1.5-2.4S33,22.3,32,22.2c-1-0.1-9.4-0.1-9.4-0.1l4.9-7.9
	c0,0,0.7-0.9,1.4-0.1c0.7,0.8,3.1,4.6,3.1,4.6s0.3,0.2,0.6,0.1c0.3-0.1,0.4-0.1,0.4-0.3c0-0.1,0.1-0.4,0-0.5s-3.1-4.7-3.1-4.7
	s-1.2-1.8-3.4,0.1c-0.8,1.4-5.3,8.6-5.3,8.6L15,22.1c0,0-1.9,0.3-0.4-2c1.4-2.1,5.2-8.9,5.2-8.9L21.9,8c0,0,0.6-0.6,1.1,0
	c0.5,0.6,1.4,1.8,1.4,1.8s0.4,0.6,0.8,0.9c0.5,0.3,0.8,0,0.9-0.3c0.1-0.1,0.1-0.2,0-0.4C26,9.8,24,6.9,23.4,6.6
	c-0.7-0.2-1.5-1.6-4.8,4c-2.7,4.6-6,10.4-6,10.4s-1.2,2.2,1.3,2.2h6.7l-2,3.4h-7.4c0,0-1.8,0.4-2.5,1.2c-0.7,0.8-6.1,9.7-6.1,9.7
	s-2.2,3.4-2.3,3.7c-0.1,0.4-0.3,1.1-0.1,1.5c0.2,0.4,0.5,1,1.8,1.1c1.4,0.2,43.1,0.1,43.1,0.1s1.3-0.2,1.7-0.5
	C47.2,43,47.9,42.6,47.5,41"/>
<path class="st0" d="M42.7,3.2c0-0.9-0.3-2.2-2.1-2.8s-3.9,0-4.4,2s-0.6,2.8-1,4.5c-0.3,1.7-0.7,2.2-1.3,2.6
	c-0.6,0.4-2.2,0.2-2.3-0.5c-0.8-4-1.1-10.6-5.9-8.2c-2.6,1.3-3.6,3.1-1.2,5.9c2.5,2.8,3.6,3.5,3.6,3.5s0.6,0.7,1,0.5
	s0.8-0.7,0.2-1.1c-4.9-3.6-5.5-5.4-4.6-6.9c0.2-0.4,2.2-1.6,3.2-0.9c2.3,1,2,5,2.3,6.5c0.4,1.5,0.9,2.5,2.7,2.6c1.8,0,2.7-1,3.1-1.8
	s0.4-3.3,0.8-4.9s1.1-2.6,2.2-2.6c1.1,0,3.2,0.7,2.5,2.2c-0.6,1.5-3.8,5.1-4,5.2c-0.3,0.1-2.4,2.2-1.6,3.8c0.6,1.1,1.9,1.2,2.8,1.2
	c0.9,0,3.4-1.4,4.7-1.8c1.3-0.4,3.6-0.9,4.2-0.3s1,2.6,0.6,2.9c-0.4,0.3-1.5,1.1-6.9,0.1c-0.9-0.1-3.1,0.3-3.7,1.1
	c-0.6,0.8-1,2.6,0.6,4.2c1.6,1.6,5.1,5.1,4.4,6.1c-0.6,1-1.4,1.7-2.5,1.2c-1.2-0.5-3-6.1-3.3-6.9c-0.4-1.2-1.3-0.6-1.4-0.3
	c-0.1,0.3,0.1,2,1.4,4.7c1.3,2.7,1.9,4.2,4,4.1s2.8-2,2.9-2.8c0.3-2-3.3-5.1-4.9-7.3c-0.4-0.6-0.9-1.6-0.3-2.1
	c0.6-0.5,0.4-0.8,4.7-0.3c4.3,0.5,5.2-0.4,5.8-0.9c0.6-0.5,0.6-3.7-0.7-4.5c-1.3-0.8-2.5-1.7-7,0.7c-4,2.1-4.5,0.5-4.4-0.2
	C37,10.8,42.6,6.2,42.7,3.2"/>
<rect x="51.9" y="31.2" class="st0" width="107.1" height="1"/>
<path class="st0" d="M62.1,21.4c-0.4-0.5-0.9-0.9-1.6-1.2c-0.3-0.1-0.7-0.2-1.1-0.3c-0.7-0.1-1.1-0.2-1.2-0.2
	c-1.4-0.2-2.3-0.4-2.7-0.7c-0.6-0.4-0.9-0.9-0.9-1.7c0-0.7,0.3-1.3,0.8-1.8c0.5-0.5,1.3-0.7,2.2-0.7c0.6,0,1.2,0.1,1.8,0.4
	c0.5,0.2,0.9,0.5,1.1,0.8c0.1,0.3,0.1,0.8,0.1,1.6l0.1,0.1h0.7l0.1-0.1c0-1.1,0.1-2.1,0.3-3l-0.1-0.2c-1-0.5-2.3-0.8-4-0.8
	c-1.8,0-3.2,0.4-4.3,1.3c-1,0.8-1.4,2-1.4,3.4c0,1.4,0.4,2.4,1.3,3c0.6,0.4,1.8,0.8,3.7,1.1c0.8,0.1,1.4,0.3,1.8,0.5
	c0.8,0.4,1.1,1,1.1,1.9c0,0.5-0.1,1-0.4,1.5c-0.5,1-1.5,1.4-2.9,1.4c-0.7,0-1.4-0.2-2.1-0.5c-0.6-0.3-1.1-0.7-1.3-1.1
	c-0.1-0.6-0.1-1.1-0.1-1.5v-0.2L53,24.3h-0.7l-0.1,0.1c0,1.5-0.1,2.6-0.3,3.4L52,28c1.4,0.7,2.9,1,4.3,1c1.2,0,2.2-0.2,3.1-0.5
	c0.9-0.4,1.7-0.9,2.3-1.7c0.7-0.9,1-1.9,1-3C62.6,22.7,62.4,21.9,62.1,21.4"/>
<path class="st0" d="M71.7,26.1c-0.3,1.1-0.9,1.6-1.9,1.6c-1.6,0-2.3-1.6-2.3-4.8c0-2.5,0.7-3.7,2.1-3.7c0.8,0,1.4,0.4,1.7,1.1
	s0.6,2,0.6,3.7C71.9,24.9,71.9,25.6,71.7,26.1 M74.3,20.4c-0.7-1.5-2.2-2.3-4.4-2.3c-1.1,0-2,0.2-2.8,0.6c-1.6,0.8-2.4,2.4-2.4,4.7
	c0,1.7,0.4,3,1.3,3.9c0.8,0.9,2.1,1.4,3.7,1.4c1,0,2-0.2,2.8-0.6c1.7-0.9,2.5-2.5,2.5-4.9C74.8,22.1,74.7,21.2,74.3,20.4"/>
<path class="st0" d="M82.1,27.7L82.1,27.7c-0.8-0.1-1.2-0.2-1.3-0.3c-0.1-0.1-0.2-0.2-0.2-0.5c0-0.9-0.1-2.5-0.1-4.7v-2.7
	c0-2,0-3.8,0.1-5.5c0-0.5,0-0.8,0-1l-0.2-0.1c-1.4,0.4-2.7,0.7-4.1,0.9l-0.1,0.1v0.6l0.1,0.1c0.7,0,1.1,0.1,1.2,0.2
	c0.1,0.1,0.2,0.3,0.2,0.5c0.1,0.9,0.1,2.1,0.1,3.5v3.5c0,2.2,0,3.8-0.1,4.7c0,0.3-0.1,0.4-0.2,0.5c-0.2,0.1-0.6,0.1-1.2,0.2
	l-0.1,0.1v0.6l0.1,0.1c0.7,0,1.6-0.1,2.9-0.1c1.3,0,2.2,0,2.9,0.1l0.1-0.1L82.1,27.7L82.1,27.7z"/>
<path class="st0" d="M96.5,22.9c0,1.5,0,2.3,0,2.4c-0.1,0.3-0.3,0.6-0.7,0.9c-0.4,0.3-0.9,0.5-1.4,0.5c-0.6,0-1.1-0.2-1.4-0.5
	c-0.7-0.7-1-1.7-1-3.2c0-0.7,0.1-1.3,0.2-1.8c0.3-1,0.9-1.5,1.9-1.5c0.4,0,0.7,0.1,1,0.2c0.5,0.2,0.9,0.6,1.5,1.1L96.5,22.9
	L96.5,22.9z M100.6,27.6c-0.5,0-0.9-0.1-1-0.1s-0.2-0.1-0.2-0.2c-0.1-0.2-0.1-1.3-0.1-3.2v-3.3c0-3,0-5.2,0.1-6.7c0-0.6,0-1,0-1
	L99.2,13c-1.4,0.4-2.7,0.7-4,0.9L95.1,14v0.6l0.1,0.1c0.5,0,0.9,0,1,0.1c0.2,0,0.4,0.2,0.4,0.3c0.1,0.3,0.1,1.4,0.1,3.2v0.6
	c-0.6-0.3-1.3-0.4-2-0.4c-0.5,0-0.9,0.1-1.3,0.2c-0.4,0.2-1,0.5-1.8,1.1c-0.7,0.5-1.1,0.9-1.3,1.1c-0.6,0.8-0.8,1.8-0.8,3.2
	c0,1.4,0.4,2.6,1.1,3.5c0.7,0.9,1.7,1.3,2.9,1.3c0.5,0,0.9,0,1.1-0.1c0.2-0.1,0.6-0.4,1.1-0.9c0.5-0.4,0.8-0.7,1.1-0.9
	c0,0.8,0,1.4,0,1.7l0.1,0.1c0.9,0,1.6-0.1,2.1-0.1c0.6,0,1.2,0,1.9,0.1l0.1-0.1v-0.6L100.6,27.6z"/>
<path class="st0" d="M108.4,22.5c-0.4,0.1-0.9,0.1-1.4,0.1c-1,0-1.7,0-2.2-0.1v-0.2c0-1.8,0.6-2.8,1.9-2.8c1.2,0,1.8,0.9,1.8,2.8
	C108.4,22.3,108.4,22.4,108.4,22.5 M110.1,19.4c-0.7-0.7-1.6-1.1-2.9-1.1c-1.1,0-2.4,0.5-3.7,1.5c-0.9,0.7-1.4,2-1.4,4
	c0,1.6,0.4,2.9,1.3,3.7s2.1,1.3,3.7,1.3c1.2,0,2.3-0.3,3.3-1l0.5-1l-0.2-0.3c-0.9,0.5-1.7,0.7-2.4,0.7c-1,0-1.8-0.3-2.4-1.1
	c-0.6-0.7-0.9-1.5-0.9-2.5c0.3,0,0.7,0,1.3,0c0.6,0,1,0,1.2,0c1.5,0,2.8-0.1,3.7-0.4l0.1-0.1c0-0.2,0-0.4,0-0.5
	C111.2,21.2,110.8,20.1,110.1,19.4"/>
<path class="st0" d="M118.5,27.7L118.5,27.7c-0.8-0.1-1.2-0.2-1.3-0.3c-0.1-0.1-0.2-0.2-0.2-0.5c0-0.9-0.1-2.5-0.1-4.7v-2.7
	c0-2,0-3.8,0.1-5.5c0-0.5,0-0.8,0-1l-0.2-0.1c-1.4,0.4-2.7,0.7-4.1,0.9l-0.1,0.1v0.6l0.1,0.1c0.7,0,1.1,0.1,1.2,0.2
	c0.1,0.1,0.2,0.3,0.2,0.5c0.1,0.9,0.1,2.1,0.1,3.5v3.5c0,2.2,0,3.8-0.1,4.7c0,0.3-0.1,0.4-0.2,0.5c-0.2,0.1-0.6,0.1-1.2,0.2
	l-0.1,0.1v0.6l0.1,0.1c0.7,0,1.6-0.1,2.9-0.1c1.3,0,2.2,0,2.9,0.1l0.1-0.1L118.5,27.7L118.5,27.7z"/>
<path class="st0" d="M135.8,21.4c-0.4-0.5-0.9-0.9-1.6-1.2c-0.3-0.1-0.7-0.2-1.1-0.3c-0.7-0.1-1.1-0.2-1.2-0.2
	c-1.4-0.2-2.3-0.4-2.7-0.7c-0.6-0.4-0.9-0.9-0.9-1.7c0-0.7,0.3-1.3,0.8-1.8c0.5-0.5,1.3-0.7,2.2-0.7c0.6,0,1.2,0.1,1.8,0.4
	c0.5,0.2,0.9,0.5,1.1,0.8c0.1,0.3,0.1,0.8,0.1,1.6l0.1,0.1h0.7l0.1-0.1c0-1.1,0.1-2.1,0.3-3l-0.1-0.2c-1-0.5-2.3-0.8-4-0.8
	c-1.8,0-3.2,0.4-4.2,1.3c-1,0.8-1.4,2-1.4,3.4c0,1.4,0.4,2.4,1.3,3c0.6,0.4,1.8,0.8,3.7,1.1c0.8,0.1,1.4,0.3,1.8,0.5
	c0.8,0.4,1.1,1,1.1,1.9c0,0.5-0.1,1-0.4,1.5c-0.5,1-1.5,1.4-2.9,1.4c-0.7,0-1.4-0.2-2.1-0.5c-0.6-0.3-1.1-0.7-1.3-1.1
	c-0.1-0.6-0.1-1.1-0.1-1.5v-0.2l-0.1-0.1h-0.7l-0.1,0.1c0,1.5-0.1,2.6-0.3,3.4l0.1,0.2c1.4,0.7,2.9,1,4.3,1c1.2,0,2.2-0.2,3.1-0.5
	c0.9-0.4,1.7-0.9,2.3-1.7c0.7-0.9,1-1.9,1-3C136.3,22.7,136.1,21.9,135.8,21.4"/>
<path class="st0" d="M150,27.6L150,27.6c-0.7-0.1-1-0.2-1.2-0.2c-0.1,0-0.2-0.1-0.2-0.2c-0.1-0.2-0.1-1-0.1-2.5v-3.2
	c0-1.1,0-2.1,0.1-3.2l-0.2-0.1c-1.4,0.5-2.7,0.7-4.1,0.9l-0.1,0.1v0.6l0.1,0.1c0.5,0,0.8,0,0.9,0.1c0.2,0,0.4,0.1,0.4,0.3
	c0.1,0.2,0.2,1,0.2,2.4v1.9c0,0.1,0,0.3,0,0.6c0,0.4-0.2,0.8-0.6,1.2c-0.4,0.4-0.9,0.5-1.4,0.5c-0.4,0-0.8-0.1-1-0.3
	c-0.3-0.2-0.4-0.5-0.5-0.9c-0.1-0.3-0.1-1-0.1-1.9v-2c0-1,0-2,0.1-3.2l-0.2-0.1c-1.4,0.5-2.7,0.7-4.1,0.9l-0.1,0.1v0.6l0.1,0.1
	c0.5,0,0.8,0,0.9,0.1c0.2,0,0.4,0.1,0.5,0.3s0.2,1,0.2,2.4v1.3c0,0.4,0,0.7,0,1.1s0,0.6,0,0.7c0,1,0.3,1.7,0.8,2.2
	c0.5,0.5,1.3,0.8,2.2,0.8c0.5,0,1-0.1,1.5-0.3c0.9-0.9,1.5-1.4,1.9-1.7c0,0.5,0,1.1-0.1,1.6l0.1,0.1c0.2,0,0.6,0,1,0
	c0.5,0,0.8,0,1,0c0.3,0,0.9,0,2,0.1l0.1-0.1L150,27.6L150,27.6z"/>
<path class="st0" d="M158.2,18.2c-0.5,0-0.9,0.1-1.2,0.4c-0.6,0.7-1.1,1.2-1.6,1.7v-2l-0.2-0.1c-1.4,0.5-2.7,0.7-4,0.9l-0.1,0.1v0.6
	l0.1,0.1c0.5,0,0.8,0,0.9,0.1c0.2,0,0.4,0.1,0.5,0.3c0.1,0.2,0.2,1,0.2,2.4v1.5c0,1,0,2-0.1,2.9c0,0.3-0.1,0.4-0.2,0.5
	c-0.2,0.1-0.6,0.1-1.2,0.2l-0.1,0.1v0.6l0.1,0.1c0.7,0,1.6-0.1,2.9-0.1c1,0,2,0,3.1,0.1l0.1-0.1v-0.6l-0.1-0.1
	c-0.8,0-1.3-0.1-1.5-0.1s-0.2-0.2-0.2-0.5c0-0.9-0.1-1.6-0.1-2.1v-2.4c0-0.5,0.1-0.9,0.3-1.1c0.3-0.4,0.8-0.6,1.3-0.6
	c0.6,0,1,0.2,1.4,0.7l0.4-0.1c0-0.4,0-0.7,0-1l0.1-1.8C158.7,18.3,158.4,18.2,158.2,18.2"/>
<path class="st0" d="M52.4,40.5c0.6,0,1,0,1.4,0h1.8c0.2,0,0.5,0,0.9,0h0.1l0.3-1.4l0,0h-0.2l0,0c-0.1,0.2-0.1,0.3-0.1,0.4
	c-0.1,0.2-0.1,0.4-0.2,0.4c0,0.1-0.1,0.1-0.2,0.1c-0.1,0-0.3,0.1-0.5,0.1c-0.3,0-0.6,0-0.9,0H54c0-0.2,0.1-0.5,0.1-0.9l0.3-1.5
	c0.1,0,0.2,0,0.3,0c0.5,0,1,0,1.5,0h0.1l0.1-0.4l0,0c-0.3,0-0.5,0-0.8,0c-0.2,0-0.5,0-1.1,0c0.1-0.4,0.1-0.6,0.2-0.8l0.3-1.3
	c0.2,0,0.5,0,0.8,0c0.2,0,0.4,0,0.6,0s0.4,0.1,0.4,0.1l0.1,0.1c0,0,0,0.1,0,0.2c0,0.1,0,0.3,0,0.6l0,0h0.2l0,0
	c0-0.2,0.1-0.4,0.1-0.6c0.1-0.4,0.1-0.6,0.1-0.7l0,0c-1.5,0-2.4,0-2.5,0c-0.7,0-1.3,0-1.8,0l0,0v0.2l0,0c0.3,0,0.5,0,0.6,0
	s0.1,0,0.1,0.1c0,0,0.1,0.1,0.1,0.2c0,0.2,0,0.5-0.1,1.2l-0.3,1.8c-0.2,1-0.3,1.5-0.3,1.6c0,0.1,0,0.2-0.1,0.2c0,0,0,0-0.1,0.1
	C52.9,40.3,52.7,40.4,52.4,40.5L52.4,40.5L52.4,40.5L52.4,40.5z"/>
<path class="st0" d="M57.7,39.3c0,0.1,0,0.3-0.1,0.5c0,0.2-0.1,0.4-0.1,0.5l0,0c0.3,0.1,0.5,0.2,0.7,0.2s0.3,0,0.5,0
	c0.3,0,0.5,0,0.7-0.1c0.2-0.1,0.4-0.2,0.6-0.4c0.2-0.2,0.4-0.4,0.5-0.5c0.1-0.1,0.1-0.3,0.1-0.5s0-0.3-0.1-0.5
	c-0.1-0.1-0.2-0.2-0.3-0.3c-0.1-0.1-0.3-0.1-0.6-0.2c-0.4-0.1-0.6-0.1-0.7-0.2c-0.1-0.1-0.2-0.2-0.2-0.4s0.1-0.3,0.2-0.4
	c0.1-0.1,0.3-0.2,0.5-0.2c0.2,0,0.3,0,0.5,0.1c0.2,0.1,0.3,0.2,0.4,0.3v0.4l0,0h0.2l0,0c0-0.4,0.1-0.7,0.1-1c-0.3-0.2-0.6-0.3-1-0.3
	c-0.2,0-0.3,0-0.4,0.1c-0.1,0-0.3,0.1-0.5,0.3c-0.2,0.1-0.4,0.3-0.5,0.4c-0.1,0.1-0.2,0.2-0.2,0.4c-0.1,0.1-0.1,0.3-0.1,0.4
	c0,0.2,0,0.3,0.1,0.4c0.1,0.1,0.1,0.2,0.2,0.3c0.1,0.1,0.2,0.1,0.3,0.2c0.1,0,0.3,0.1,0.6,0.1c0.2,0,0.3,0.1,0.4,0.1
	c0.1,0.1,0.2,0.1,0.2,0.2c0.1,0.1,0.1,0.2,0.1,0.3c0,0.1,0,0.2-0.1,0.3c-0.1,0.1-0.1,0.2-0.3,0.2c-0.1,0-0.3,0.1-0.4,0.1
	c-0.2,0-0.4,0-0.6-0.1c-0.2-0.1-0.3-0.2-0.4-0.3v-0.4l0,0L57.7,39.3L57.7,39.3z"/>
<path class="st0" d="M64,38.2c-0.1,0.3-0.3,0.6-0.5,0.9c-0.2,0.3-0.5,0.6-0.6,0.7c-0.2,0.1-0.3,0.2-0.4,0.2c-0.1,0-0.2-0.1-0.2-0.3
	c0-0.1,0.1-0.4,0.1-0.8c0.1-0.4,0.2-0.8,0.3-1.1c0.1-0.3,0.3-0.5,0.4-0.6c0.1-0.1,0.3-0.1,0.4-0.1s0.2,0,0.3,0.1
	c0.1,0,0.3,0.1,0.3,0.1C64.2,37.5,64.2,37.9,64,38.2 M65.3,36.4l-0.4,0.2c-0.3-0.1-0.6-0.2-1-0.2c-0.2,0-0.4,0-0.5,0.1
	c-0.1,0.1-0.4,0.2-0.7,0.5c-0.3,0.2-0.5,0.4-0.6,0.5c-0.1,0.1-0.2,0.3-0.3,0.6c-0.1,0.3-0.2,0.6-0.3,0.9c-0.1,0.3-0.1,0.6-0.1,0.8
	s0,0.4,0.1,0.5c0.1,0.1,0.2,0.2,0.3,0.2c0.3,0,0.6-0.1,1-0.5c0.4-0.3,0.8-0.7,1.2-1.3l-0.1,0.6l-0.2,1l-0.3,1.2
	c0,0.2-0.1,0.3-0.1,0.4s-0.1,0.3-0.1,0.3c0,0.1,0,0.1-0.1,0.1s-0.1,0.1-0.2,0.1l0.1,0.2c0.5-0.1,0.9-0.2,1.1-0.2c0-0.1,0-0.1,0-0.1
	c0-0.1,0-0.1,0-0.2c0-0.2,0.1-0.6,0.2-1.1l0.4-1.8c0.2-0.7,0.3-1.3,0.4-1.8C65.2,37,65.3,36.7,65.3,36.4
	C65.3,36.4,65.4,36.4,65.3,36.4L65.3,36.4z"/>
<path class="st0" d="M66,37.5c0.3-0.2,0.4-0.2,0.5-0.3h0.1c0.1,0,0.1,0.1,0.1,0.2c0,0.2-0.1,0.8-0.3,1.7c-0.1,0.4-0.2,0.6-0.2,0.7
	c0,0.1,0,0.2,0,0.3c0,0.2,0,0.3,0.1,0.4c0.1,0.1,0.2,0.1,0.3,0.1c0.3,0,0.6-0.2,1.1-0.6s0.8-0.9,1.1-1.4l-0.2,0.6
	c-0.1,0.5-0.2,0.9-0.2,1.1c0,0.1,0,0.2,0.1,0.3c0.1,0.1,0.1,0.1,0.2,0.1s0.2,0,0.4-0.1c0.2-0.1,0.5-0.3,1.1-0.7l0,0l-0.1-0.2l0,0
	c-0.1,0-0.1,0.1-0.2,0.2C69.8,40,69.8,40,69.7,40l-0.1,0.1c-0.1,0-0.1,0-0.1-0.1c0-0.2,0.1-0.6,0.3-1.3c0.2-0.7,0.3-1.3,0.5-1.8
	l-0.1-0.1c-0.3,0.1-0.6,0.2-0.9,0.2c0,0.2,0,0.4-0.1,0.7c-0.1,0.4-0.2,0.8-0.4,1.1c-0.1,0.3-0.3,0.6-0.5,0.8
	c-0.2,0.3-0.4,0.5-0.5,0.6c-0.1,0.1-0.2,0.1-0.3,0.1c-0.1,0-0.1-0.1-0.1-0.2c0-0.1,0-0.2,0.1-0.4l0.4-1.4c0.1-0.3,0.2-0.6,0.2-0.7
	c0-0.2,0.1-0.3,0.1-0.4c0-0.2-0.1-0.3-0.3-0.3c-0.1,0-0.4,0.1-0.6,0.2c-0.2,0.1-0.6,0.4-1,0.6v0.1l0.1,0.2L66,37.5z"/>
<path class="st0" d="M72.1,37.2c0.2-0.2,0.4-0.3,0.6-0.3c0.1,0,0.2,0,0.3,0.1c0.1,0.1,0.1,0.2,0.1,0.3c0,0.2-0.1,0.5-0.3,0.7
	c-0.2,0.3-0.6,0.5-1.1,0.6C71.8,37.9,71.9,37.4,72.1,37.2 M72.8,38.5c0.4-0.1,0.7-0.3,0.8-0.6c0.2-0.2,0.3-0.5,0.3-0.8
	c0-0.2-0.1-0.4-0.2-0.5s-0.3-0.2-0.6-0.2c-0.3,0-0.6,0.1-1,0.3c-0.4,0.2-0.7,0.5-0.8,0.7c-0.2,0.2-0.3,0.6-0.4,1
	c-0.1,0.5-0.2,0.8-0.2,1.1c0,0.2,0,0.4,0.1,0.5c0.1,0.2,0.2,0.3,0.4,0.4c0.2,0.1,0.4,0.1,0.6,0.1s0.5-0.1,0.8-0.2
	c0.3-0.1,0.7-0.4,1.2-0.7l0,0l-0.3-0.1l0,0c-0.3,0.2-0.5,0.3-0.6,0.3c-0.1,0.1-0.2,0.1-0.4,0.1c-0.1,0-0.3,0.1-0.4,0.1
	c-0.2,0-0.3,0-0.4-0.1c-0.1-0.1-0.2-0.3-0.2-0.5c0-0.2,0-0.3,0.1-0.5C72,38.7,72.4,38.6,72.8,38.5"/>
<path class="st0" d="M76.4,39.5c-0.3,0.2-0.6,0.4-0.7,0.4c-0.1,0-0.1-0.1-0.1-0.2c0-0.1,0-0.2,0.1-0.4l0.4-1.8
	c0.2-1.1,0.5-2.1,0.7-3l-0.1-0.1c-0.5,0.2-1.1,0.3-1.7,0.4l0,0l-0.1,0.1l0,0c0.2,0,0.3,0,0.4,0s0.2,0,0.2,0.1c0,0,0.1,0.1,0.1,0.2
	c0,0.1,0,0.2,0,0.4c0,0.2-0.1,0.4-0.1,0.5l-0.6,2.6c-0.2,0.8-0.2,1.3-0.2,1.5c0,0.1,0,0.2,0.1,0.3c0.1,0.1,0.1,0.1,0.3,0.1
	c0.1,0,0.2,0,0.4-0.1c0.2-0.1,0.6-0.3,1.2-0.8l0,0l-0.1-0.2L76.4,39.5z"/>
<path class="st0" d="M77.1,41.6c0.2-0.2,0.3-0.3,0.4-0.5c0.1-0.2,0.3-0.3,0.4-0.6c0.1-0.3,0.2-0.4,0.3-0.6l0.3-0.6l-0.1-0.1
	c-0.3,0.1-0.7,0.2-1.1,0.3c0,0.3-0.1,0.7-0.3,1.1c-0.2,0.5-0.4,0.8-0.5,1.1l0.2,0.1L77.1,41.6z"/>
<path class="st0" d="M81.9,34.7v0.2l0,0h0.4c0.1,0,0.2,0,0.3,0c0,0,0.1,0,0.1,0.1v0.1c0,0.2-0.1,0.7-0.2,1.5l-0.4,2.2
	c-0.1,0.7-0.2,1-0.2,1.1c0,0.1-0.1,0.1-0.1,0.2c0,0-0.2,0.1-0.4,0.1c-0.1,0-0.2,0-0.2,0l0,0v0.2l0,0c0.4,0,0.9,0,1.4,0
	c0.4,0,0.9,0,1.3,0l0,0l-0.1-0.2l0,0h-0.4c-0.1,0-0.2,0-0.3-0.1c0,0-0.1-0.1-0.1-0.2c0,0,0-0.1,0-0.2c0.1-0.5,0.2-1.1,0.3-1.7
	l0.3-1.5c0.1-0.4,0.2-0.9,0.3-1.4c0.3,0,0.5-0.1,0.6-0.1c0.4,0,0.6,0.1,0.8,0.3c0.2,0.2,0.3,0.4,0.3,0.8c0,0.3,0,0.5-0.1,0.8
	c-0.1,0.3-0.2,0.5-0.4,0.6c-0.2,0.2-0.4,0.2-0.6,0.2c-0.2,0-0.4,0-0.6-0.1l0,0v0.3c0.3,0.1,0.6,0.2,0.8,0.2c0.6,0,1.1-0.2,1.5-0.6
	c0.4-0.4,0.6-0.9,0.6-1.4c0-0.3-0.1-0.5-0.2-0.8c-0.1-0.2-0.3-0.4-0.5-0.5c-0.2-0.1-0.5-0.2-0.9-0.2c-0.2,0-0.4,0-0.6,0
	c-0.4,0-0.8,0-1.2,0c-0.5,0-0.9,0-1.2,0L81.9,34.7z"/>
<path class="st0" d="M89.1,38.3c-0.2,0.4-0.4,0.8-0.7,1.1c-0.3,0.3-0.5,0.5-0.6,0.5c-0.1,0-0.2-0.1-0.2-0.3c0-0.3,0.1-0.7,0.2-1.3
	c0.2-0.6,0.3-1,0.4-1.1c0.1-0.2,0.3-0.2,0.5-0.2c0.2,0,0.4,0.1,0.7,0.2C89.4,37.5,89.3,37.9,89.1,38.3 M90.6,39.6L90.6,39.6
	C90.3,39.8,90,40,90,40c-0.1,0-0.1,0-0.1-0.2c0-0.1,0.1-0.4,0.2-0.9l0.3-1.4c0.1-0.4,0.2-0.7,0.3-0.9l-0.1-0.1l-0.4,0.2
	c-0.1-0.1-0.3-0.1-0.4-0.2c-0.2,0-0.3-0.1-0.4-0.1c-0.2,0-0.3,0-0.5,0.1c-0.1,0.1-0.4,0.2-0.7,0.4c-0.3,0.2-0.5,0.4-0.6,0.5
	s-0.2,0.3-0.2,0.4c-0.1,0.4-0.2,0.7-0.3,1S87,39.4,87,39.7s0.1,0.5,0.1,0.6c0.1,0.1,0.2,0.2,0.3,0.2c0.2,0,0.5-0.1,0.9-0.4
	c0.4-0.3,0.8-0.8,1.2-1.6c-0.1,0.6-0.2,1-0.3,1.2c0,0.2-0.1,0.4-0.1,0.5c0,0.1,0,0.2,0.1,0.3c0.1,0.1,0.1,0.1,0.2,0.1
	c0.1,0,0.3,0,0.5-0.1c0.2-0.1,0.5-0.3,1-0.7l0,0L90.6,39.6z"/>
<path class="st0" d="M92,38.6c-0.1,0.6-0.2,0.9-0.2,1.1c0,0.2,0,0.3,0,0.4c0,0.2,0,0.3,0.1,0.4c0.1,0.1,0.2,0.2,0.4,0.2
	c0.1,0,0.3,0,0.5-0.1c0.2-0.1,0.6-0.4,1.3-0.8l0,0L94,39.6h-0.1c-0.2,0.2-0.4,0.3-0.5,0.4c-0.1,0.1-0.2,0.1-0.2,0.1
	c-0.1,0-0.1,0-0.2,0h-0.1c0,0,0-0.1,0-0.2v-0.1c0,0,0-0.2,0.1-0.3l0.1-0.6l0.2-0.8c0.1-0.3,0.1-0.5,0.2-0.8h0.4c0.2,0,0.5,0,0.7,0
	h0.1c0-0.1,0.1-0.3,0.1-0.4v-0.1c-0.1,0-0.4,0-0.7,0h-0.4c0.2-0.7,0.3-1.2,0.4-1.5L94,35.2c0,0-0.1,0-0.3,0.1
	c-0.3,0.1-0.6,0.2-0.7,0.2c0,0.2,0,0.5-0.1,0.8c0,0.2,0,0.3-0.1,0.4c-0.4,0.1-0.7,0.2-0.9,0.3v0.1v0.1l0,0h0.9
	C92.3,37.1,92.2,37.6,92,38.6"/>
<path class="st0" d="M97.1,38.3c-0.2,0.4-0.4,0.8-0.7,1.1c-0.3,0.3-0.5,0.5-0.6,0.5s-0.2-0.1-0.2-0.3c0-0.3,0.1-0.7,0.2-1.3
	c0.2-0.6,0.3-1,0.4-1.1c0.1-0.2,0.3-0.2,0.5-0.2c0.2,0,0.4,0.1,0.7,0.2C97.4,37.5,97.3,37.9,97.1,38.3 M98.6,39.6L98.6,39.6
	C98.3,39.8,98,40,98,40c-0.1,0-0.1,0-0.1-0.2c0-0.1,0.1-0.4,0.2-0.9l0.3-1.4c0.1-0.4,0.2-0.7,0.3-0.9l-0.1-0.1l-0.4,0.2
	c-0.1-0.1-0.3-0.1-0.4-0.2c-0.2,0-0.3-0.1-0.4-0.1c-0.2,0-0.3,0-0.5,0.1c-0.1,0.1-0.4,0.2-0.7,0.4c-0.3,0.2-0.5,0.4-0.6,0.5
	c-0.1,0.1-0.2,0.3-0.2,0.4c-0.1,0.4-0.2,0.7-0.3,1S95,39.4,95,39.7s0.1,0.5,0.1,0.6c0.1,0.1,0.2,0.2,0.3,0.2c0.2,0,0.5-0.1,0.9-0.4
	c0.4-0.3,0.8-0.8,1.2-1.6c-0.1,0.6-0.2,1-0.3,1.2c0,0.2-0.1,0.4-0.1,0.5c0,0.1,0,0.2,0.1,0.3c0.1,0.1,0.1,0.1,0.2,0.1s0.3,0,0.5-0.1
	c0.2-0.1,0.5-0.3,1-0.7l0,0L98.6,39.6z"/>
<path class="st0" d="M101.7,38.2c-0.1,0.2-0.2,0.4-0.3,0.5c-0.1,0.1-0.3,0.2-0.5,0.2s-0.3-0.1-0.4-0.2c-0.1-0.1-0.2-0.3-0.2-0.6
	c0-0.4,0.1-0.7,0.2-1c0.2-0.3,0.4-0.4,0.6-0.4c0.2,0,0.3,0.1,0.4,0.2c0.1,0.1,0.2,0.3,0.2,0.6C101.8,37.8,101.8,38,101.7,38.2
	 M101.4,41.3c0.1,0.1,0.2,0.2,0.2,0.4s-0.1,0.4-0.3,0.6c-0.2,0.2-0.5,0.2-0.8,0.2c-0.2,0-0.4,0-0.6-0.1c-0.2-0.1-0.3-0.2-0.4-0.3
	c-0.1-0.1-0.1-0.3-0.1-0.5c0-0.1,0-0.2,0-0.3c0-0.1,0.1-0.2,0.1-0.2c0.1-0.1,0.1-0.1,0.2-0.2c0.1-0.1,0.2-0.1,0.3-0.2l0.4-0.2
	C101,40.9,101.3,41.2,101.4,41.3 M103.4,36.6c0,0-0.1,0-0.2,0c-0.2,0-0.3,0-0.4,0s-0.2,0-0.4,0s-0.2,0-0.2,0h-0.1
	c-0.1,0-0.2-0.1-0.2-0.1s-0.1,0-0.2,0c-0.1,0-0.2,0-0.3,0s-0.2,0-0.4,0.1c-0.1,0.1-0.3,0.1-0.5,0.2c-0.2,0.1-0.3,0.2-0.4,0.2
	c-0.1,0.1-0.2,0.2-0.3,0.3c-0.1,0.1-0.2,0.3-0.2,0.5c0,0.2-0.1,0.3-0.1,0.5c0,0.4,0.1,0.6,0.3,0.8c0.2,0.2,0.5,0.3,0.8,0.3h0.2
	c-0.1,0.1-0.3,0.2-0.7,0.4c0,0-0.1,0-0.1,0.1c0,0,0,0,0,0.1v0.1c0,0.1,0.1,0.3,0.2,0.4l-0.3,0.1c-0.5,0.2-0.8,0.4-1,0.6
	c-0.2,0.2-0.3,0.5-0.3,0.7c0,0.2,0.1,0.4,0.2,0.5c0.1,0.2,0.3,0.3,0.6,0.4c0.3,0.1,0.6,0.1,1,0.1c0.6,0,1.1-0.1,1.5-0.4
	c0.4-0.3,0.6-0.6,0.6-1c0-0.2-0.1-0.4-0.2-0.6c-0.1-0.2-0.4-0.4-0.8-0.6c-0.3-0.2-0.4-0.3-0.5-0.4c0-0.1-0.1-0.1-0.1-0.2
	c0,0,0-0.1,0.1-0.1c0.1,0,0.1-0.1,0.2-0.1s0.2-0.1,0.3-0.1c0.2-0.1,0.4-0.2,0.5-0.2c0.1-0.1,0.2-0.2,0.3-0.3
	c0.1-0.1,0.2-0.3,0.2-0.5c0.1-0.2,0.1-0.4,0.1-0.6s0-0.3-0.1-0.5c0.1,0,0.1,0,0.1,0s0.1,0,0.3,0s0.3,0,0.3,0l0.1-0.4L103.4,36.6z"/>
<path class="st0" d="M106.4,38.7c-0.1,0.4-0.1,0.6-0.3,0.9c-0.1,0.2-0.2,0.4-0.3,0.5s-0.3,0.1-0.4,0.1c-0.2,0-0.4-0.1-0.5-0.2
	c-0.1-0.1-0.2-0.4-0.2-0.7c0-0.4,0.1-0.8,0.2-1.3c0.1-0.5,0.3-0.8,0.4-0.9c0.2-0.2,0.4-0.2,0.6-0.2s0.4,0.1,0.5,0.2
	c0.1,0.1,0.2,0.4,0.2,0.8C106.5,38.1,106.4,38.4,106.4,38.7 M107.1,36.8c-0.2-0.2-0.6-0.3-0.9-0.3c-0.4,0-0.7,0.1-1.1,0.3
	c-0.4,0.2-0.6,0.4-0.8,0.7c-0.2,0.3-0.4,0.6-0.4,1c-0.1,0.4-0.1,0.7-0.1,1c0,0.2,0,0.4,0.1,0.6c0.1,0.2,0.2,0.4,0.4,0.5
	c0.2,0.1,0.5,0.2,0.8,0.2c0.4,0,0.7-0.1,0.9-0.2c0.3-0.1,0.5-0.3,0.8-0.5s0.5-0.5,0.6-0.9c0.2-0.4,0.2-0.8,0.2-1.2
	C107.5,37.3,107.3,37,107.1,36.8"/>
<path class="st0" d="M109.1,40.4c0-0.2,0.1-0.4,0.1-0.7c0.1-0.3,0.2-0.6,0.3-0.8c0.1-0.2,0.2-0.5,0.4-0.7c0.1-0.2,0.3-0.4,0.5-0.6
	c0.2-0.2,0.3-0.3,0.4-0.3c0.1,0,0.2-0.1,0.2-0.1c0.1,0,0.2,0.1,0.2,0.2c0,0.2-0.1,0.7-0.3,1.4c-0.2,0.7-0.3,1.1-0.3,1.4
	c0,0.1,0,0.2,0.1,0.3c0,0.1,0.1,0.1,0.2,0.1c0.2,0,0.3,0,0.5-0.1c0.2-0.1,0.5-0.3,1-0.7l0,0l-0.1-0.2l0,0c-0.3,0.2-0.5,0.3-0.6,0.3
	c-0.1,0-0.1,0-0.1-0.1c0,0,0-0.2,0.1-0.4c0-0.2,0.1-0.4,0.2-0.8c0.1-0.5,0.2-0.9,0.3-1.2c0.1-0.3,0.1-0.5,0.1-0.6
	c0-0.3-0.1-0.4-0.3-0.4c-0.3,0-0.7,0.2-1.1,0.6c-0.5,0.4-0.9,0.9-1.2,1.5c0.2-0.6,0.3-1,0.3-1.2c0.1-0.2,0.1-0.4,0.1-0.6
	c0-0.2-0.1-0.3-0.2-0.3c-0.1,0-0.1,0-0.2,0s-0.2,0.1-0.3,0.2c-0.1,0.1-0.3,0.2-0.5,0.4c-0.2,0.2-0.3,0.3-0.5,0.4v0.1l0.1,0.1h0.1
	c0.3-0.2,0.5-0.3,0.6-0.3c0.1,0,0.1,0.1,0.1,0.1c0,0.1,0,0.3-0.1,0.7c-0.1,0.4-0.2,0.8-0.3,1.3c-0.1,0.5-0.2,0.9-0.3,1.1l0.1,0.1
	C108.5,40.5,108.8,40.5,109.1,40.4"/>
<path class="st0" d="M114.3,35.5c0.1,0.1,0.2,0.1,0.4,0.1c0.2,0,0.3-0.1,0.4-0.2c0.1-0.1,0.2-0.3,0.2-0.4s0-0.2-0.1-0.3
	c-0.1-0.1-0.2-0.1-0.3-0.1c-0.2,0-0.3,0.1-0.4,0.2c-0.1,0.1-0.2,0.3-0.2,0.4C114.2,35.3,114.2,35.4,114.3,35.5"/>
<path class="st0" d="M113,37.7c0.4-0.3,0.6-0.4,0.7-0.4c0.1,0,0.1,0,0.1,0.1c0,0.2-0.1,0.7-0.3,1.6c-0.1,0.4-0.2,0.7-0.2,0.8
	c0,0.2,0,0.3,0,0.4c0,0.1,0,0.2,0.1,0.3c0.1,0.1,0.1,0.1,0.2,0.1c0.1,0,0.2,0,0.3-0.1c0.1,0,0.3-0.1,0.6-0.3
	c0.3-0.2,0.5-0.3,0.7-0.5l0,0l-0.1-0.2l0,0c-0.4,0.3-0.6,0.4-0.7,0.4h-0.1v-0.1c0-0.1,0.1-0.6,0.4-1.5c0.1-0.5,0.2-0.9,0.3-1
	c0-0.2,0.1-0.3,0.1-0.4s0-0.2-0.1-0.2c0-0.1-0.1-0.1-0.2-0.1s-0.4,0.1-0.6,0.2C113.9,37,113.6,37.2,113,37.7L113,37.7l0.2,0.1
	L113,37.7z"/>
<path class="st0" d="M118.2,38.3c-0.2,0.4-0.4,0.8-0.7,1.1c-0.3,0.3-0.5,0.5-0.6,0.5c-0.1,0-0.2-0.1-0.2-0.3c0-0.3,0.1-0.7,0.2-1.3
	c0.2-0.6,0.3-1,0.4-1.1c0.1-0.2,0.3-0.2,0.5-0.2c0.2,0,0.4,0.1,0.7,0.2C118.5,37.5,118.4,37.9,118.2,38.3 M119.7,39.6L119.7,39.6
	c-0.3,0.2-0.6,0.4-0.6,0.4c-0.1,0-0.1,0-0.1-0.2c0-0.1,0.1-0.4,0.2-0.9l0.3-1.4c0.1-0.4,0.2-0.7,0.3-0.9l-0.1-0.1l-0.4,0.2
	c-0.1-0.1-0.3-0.1-0.4-0.2c-0.2,0-0.3-0.1-0.4-0.1c-0.2,0-0.3,0-0.5,0.1c-0.1,0.1-0.4,0.2-0.7,0.4c-0.3,0.2-0.5,0.4-0.6,0.5
	s-0.2,0.3-0.2,0.4c-0.1,0.4-0.2,0.7-0.3,1c-0.1,0.3-0.1,0.6-0.1,0.9s0.1,0.5,0.1,0.6c0.1,0.1,0.2,0.2,0.3,0.2c0.2,0,0.5-0.1,0.9-0.4
	c0.4-0.3,0.8-0.8,1.2-1.6c-0.1,0.6-0.2,1-0.3,1.2c0,0.2-0.1,0.4-0.1,0.5c0,0.1,0,0.2,0.1,0.3c0.1,0.1,0.1,0.1,0.2,0.1
	c0.1,0,0.3,0,0.5-0.1c0.2-0.1,0.5-0.3,1-0.7l0,0L119.7,39.6z"/>
<path class="st0" d="M124.2,37.8c0,0-0.1,0-0.2,0l1.3-2.2l0.3,2.2C125.5,37.8,125,37.8,124.2,37.8 M127.6,40.2c-0.3,0-0.5,0-0.6-0.1
	c-0.1-0.1-0.1-0.2-0.1-0.4l-0.1-0.5l-0.1-0.8l-0.2-1.1l-0.2-1.3l-0.2-1.2h-0.8c-0.1,0.2-0.2,0.5-0.5,0.8l-0.7,1.2l-1.2,2l-0.5,0.8
	c-0.2,0.3-0.3,0.5-0.3,0.5c0,0.1-0.1,0.1-0.1,0.1s-0.1,0-0.1,0.1c0,0-0.1,0-0.4,0l0,0v0.2l0,0c0.6,0,0.9,0,1,0c0.1,0,0.3,0,0.6,0
	c0.2,0,0.3,0,0.3,0l0,0v-0.2l0,0c-0.3,0-0.5,0-0.6-0.1c-0.1,0-0.1-0.1-0.1-0.1s0-0.1,0.1-0.2c0-0.1,0.1-0.3,0.3-0.7
	c0.2-0.3,0.4-0.7,0.5-0.9h0.7h0.6c0.1,0,0.2,0,0.5,0c0.1,1,0.2,1.5,0.2,1.7c0,0.1,0,0.2-0.1,0.2c-0.1,0-0.2,0.1-0.5,0.1l0,0v0.2l0,0
	c0.6,0,1,0,1.2,0s0.6,0,1.2,0l0,0v-0.2L127.6,40.2z"/>
<path class="st0" d="M128.9,40.5c0.2,0,0.3,0,0.5-0.1c0.1-0.4,0.1-0.8,0.2-1.2c0.1-0.4,0.2-0.7,0.4-1c0.1-0.3,0.3-0.5,0.4-0.5
	c0.1-0.1,0.3-0.1,0.4-0.1c0.2,0,0.3,0.1,0.4,0.2l0.1-0.1c0-0.1,0-0.3,0.1-0.6c0-0.2,0.1-0.4,0.1-0.5l0,0c-0.1,0-0.1,0-0.2,0
	c-0.1,0-0.2,0-0.3,0.1c-0.1,0.1-0.2,0.2-0.4,0.3c-0.1,0.2-0.3,0.4-0.4,0.7c-0.1,0.3-0.3,0.6-0.4,0.9h-0.1c0.2-0.8,0.3-1.2,0.3-1.3
	c0-0.1,0-0.2,0-0.3c0-0.1,0-0.2-0.1-0.2c0-0.1-0.1-0.1-0.2-0.1s-0.3,0.1-0.5,0.2c-0.2,0.1-0.6,0.4-1,0.8v0.1l0.1,0.1h0.1
	c0.3-0.2,0.5-0.3,0.6-0.3s0.1,0.1,0.1,0.2c0,0.2,0,0.6-0.1,1.1c-0.1,0.5-0.3,1.2-0.5,1.9l0.1,0.1C128.6,40.6,128.7,40.5,128.9,40.5"
	/>
<path class="st0" d="M133.9,38.2c-0.1,0.2-0.2,0.4-0.3,0.5c-0.1,0.1-0.3,0.2-0.5,0.2c-0.2,0-0.3-0.1-0.4-0.2
	c-0.1-0.1-0.2-0.3-0.2-0.6c0-0.4,0.1-0.7,0.2-1c0.2-0.3,0.4-0.4,0.6-0.4c0.2,0,0.3,0.1,0.4,0.2c0.1,0.1,0.2,0.3,0.2,0.6
	C134,37.8,133.9,38,133.9,38.2 M133.6,41.3c0.1,0.1,0.2,0.2,0.2,0.4s-0.1,0.4-0.3,0.6c-0.2,0.2-0.5,0.2-0.8,0.2
	c-0.2,0-0.4,0-0.6-0.1c-0.2-0.1-0.3-0.2-0.4-0.3c-0.1-0.1-0.1-0.3-0.1-0.5c0-0.1,0-0.2,0-0.3c0-0.1,0.1-0.2,0.1-0.2
	c0.1-0.1,0.1-0.1,0.2-0.2c0.1-0.1,0.2-0.1,0.3-0.2l0.4-0.2C133.1,40.9,133.5,41.2,133.6,41.3 M135.6,36.6c0,0-0.1,0-0.2,0
	c-0.2,0-0.3,0-0.4,0c-0.1,0-0.2,0-0.4,0c-0.2,0-0.2,0-0.2,0h-0.1c-0.1,0-0.2-0.1-0.2-0.1s-0.1,0-0.2,0c-0.1,0-0.2,0-0.3,0
	c-0.1,0-0.2,0-0.4,0.1c-0.1,0.1-0.3,0.1-0.5,0.2s-0.3,0.2-0.4,0.2c-0.1,0.1-0.2,0.2-0.3,0.3c-0.1,0.1-0.2,0.3-0.2,0.5
	c0,0.2-0.1,0.3-0.1,0.5c0,0.4,0.1,0.6,0.3,0.8c0.2,0.2,0.5,0.3,0.8,0.3h0.2c-0.1,0.1-0.3,0.2-0.7,0.4c0,0-0.1,0-0.1,0.1
	c0,0,0,0,0,0.1v0.1c0,0.1,0.1,0.3,0.2,0.4l-0.3,0.1c-0.5,0.2-0.8,0.4-1,0.6c-0.2,0.2-0.3,0.5-0.3,0.7c0,0.2,0.1,0.4,0.2,0.5
	c0.1,0.2,0.3,0.3,0.6,0.4c0.3,0.1,0.6,0.1,1,0.1c0.6,0,1.1-0.1,1.5-0.4c0.4-0.3,0.6-0.6,0.6-1c0-0.2-0.1-0.4-0.2-0.6
	c-0.1-0.2-0.4-0.4-0.8-0.6c-0.3-0.2-0.4-0.3-0.5-0.4c0-0.1-0.1-0.1-0.1-0.2c0,0,0-0.1,0.1-0.1c0.1,0,0.1-0.1,0.2-0.1
	c0.1,0,0.2-0.1,0.3-0.1c0.2-0.1,0.4-0.2,0.5-0.2c0.1-0.1,0.2-0.2,0.3-0.3c0.1-0.1,0.2-0.3,0.2-0.5c0.1-0.2,0.1-0.4,0.1-0.6
	s0-0.3-0.1-0.5c0.1,0,0.1,0,0.1,0s0.1,0,0.3,0c0.2,0,0.3,0,0.3,0l0.1-0.4L135.6,36.6z"/>
<path class="st0" d="M137.1,37.2c0.2-0.2,0.4-0.3,0.6-0.3c0.1,0,0.2,0,0.3,0.1c0.1,0.1,0.1,0.2,0.1,0.3c0,0.2-0.1,0.5-0.3,0.7
	c-0.2,0.3-0.6,0.5-1.1,0.6C136.8,37.9,137,37.4,137.1,37.2 M137.8,38.5c0.4-0.1,0.7-0.3,0.8-0.6c0.2-0.2,0.3-0.5,0.3-0.8
	c0-0.2-0.1-0.4-0.2-0.5s-0.3-0.2-0.6-0.2s-0.6,0.1-1,0.3c-0.4,0.2-0.7,0.5-0.8,0.7c-0.2,0.2-0.3,0.6-0.4,1c-0.1,0.5-0.2,0.8-0.2,1.1
	c0,0.2,0,0.4,0.1,0.5c0.1,0.2,0.2,0.3,0.4,0.4c0.2,0.1,0.4,0.1,0.6,0.1c0.2,0,0.5-0.1,0.8-0.2c0.3-0.1,0.7-0.4,1.2-0.7l0,0l-0.1-0.2
	l0,0c-0.3,0.2-0.5,0.3-0.6,0.3c-0.1,0.1-0.2,0.1-0.4,0.1c-0.1,0-0.3,0.1-0.4,0.1c-0.2,0-0.3,0-0.4-0.1c-0.1-0.1-0.2-0.3-0.2-0.5
	s0-0.3,0-0.5C137,38.7,137.4,38.6,137.8,38.5"/>
<path class="st0" d="M140.4,40.4c0-0.2,0.1-0.4,0.1-0.7c0.1-0.3,0.2-0.6,0.3-0.8c0.1-0.2,0.2-0.5,0.4-0.7c0.1-0.2,0.3-0.4,0.5-0.6
	c0.2-0.2,0.3-0.3,0.4-0.3s0.2-0.1,0.2-0.1c0.1,0,0.2,0.1,0.2,0.2c0,0.2-0.1,0.7-0.3,1.4c-0.2,0.7-0.3,1.1-0.3,1.4
	c0,0.1,0,0.2,0.1,0.3c0,0.1,0.1,0.1,0.2,0.1c0.2,0,0.3,0,0.5-0.1c0.2-0.1,0.5-0.3,1-0.7l0,0l-0.1-0.2l0,0c-0.3,0.2-0.5,0.3-0.6,0.3
	c-0.1,0-0.1,0-0.1-0.1c0,0,0-0.2,0.1-0.4c0-0.2,0.1-0.4,0.2-0.8c0.1-0.5,0.2-0.9,0.3-1.2s0.1-0.5,0.1-0.6c0-0.3-0.1-0.4-0.3-0.4
	c-0.3,0-0.7,0.2-1.1,0.6c-0.5,0.4-0.9,0.9-1.2,1.5c0.2-0.6,0.3-1,0.3-1.2c0.1-0.2,0.1-0.4,0.1-0.6c0-0.2-0.1-0.3-0.2-0.3
	c-0.1,0-0.1,0-0.2,0s-0.2,0.1-0.3,0.2c-0.1,0.1-0.3,0.2-0.5,0.4c-0.2,0.2-0.3,0.3-0.5,0.4v0.1l0.1,0.1h0.1c0.3-0.2,0.5-0.3,0.6-0.3
	c0.1,0,0.1,0.1,0.1,0.1c0,0.1,0,0.3-0.1,0.7c-0.1,0.4-0.2,0.8-0.3,1.3c-0.1,0.5-0.2,0.9-0.3,1.1l0.1,0.1
	C139.7,40.5,140,40.5,140.4,40.4"/>
<path class="st0" d="M144.8,38.6c-0.1,0.6-0.2,0.9-0.2,1.1c0,0.2,0,0.3,0,0.4c0,0.2,0,0.3,0.1,0.4c0.1,0.1,0.2,0.2,0.4,0.2
	c0.1,0,0.3,0,0.5-0.1c0.2-0.1,0.6-0.4,1.3-0.8l0,0l-0.1-0.2h-0.1c-0.2,0.2-0.4,0.3-0.5,0.4c-0.1,0.1-0.2,0.1-0.2,0.1
	c-0.1,0-0.1,0-0.2,0h-0.1c0,0,0-0.1,0-0.2v-0.1c0,0,0-0.2,0.1-0.3l0.1-0.6l0.2-0.8c0.1-0.3,0.1-0.5,0.2-0.8h0.4c0.2,0,0.5,0,0.7,0
	h0.1c0-0.1,0.1-0.3,0.1-0.4v-0.1c-0.1,0-0.4,0-0.7,0h-0.4c0.2-0.7,0.3-1.2,0.4-1.5l-0.1-0.1c0,0-0.1,0-0.3,0.1
	c-0.3,0.1-0.6,0.2-0.7,0.2c0,0.2,0,0.5-0.1,0.8c0,0.2,0,0.3-0.1,0.4c-0.4,0.1-0.7,0.2-0.9,0.3v0.1v0.1l0,0h0.9
	C145.1,37.1,145,37.6,144.8,38.6"/>
<path class="st0" d="M148.8,35.5c0.1,0.1,0.2,0.1,0.4,0.1c0.2,0,0.3-0.1,0.4-0.2c0.1-0.1,0.2-0.3,0.2-0.4s0-0.2-0.1-0.3
	c-0.1-0.1-0.2-0.1-0.3-0.1c-0.2,0-0.3,0.1-0.4,0.2c-0.1,0.1-0.2,0.3-0.2,0.4C148.7,35.3,148.7,35.4,148.8,35.5"/>
<path class="st0" d="M147.5,37.7c0.4-0.3,0.6-0.4,0.7-0.4c0.1,0,0.1,0,0.1,0.1c0,0.2-0.1,0.7-0.3,1.6c-0.1,0.4-0.2,0.7-0.2,0.8
	c0,0.2,0,0.3,0,0.4c0,0.1,0,0.2,0.1,0.3c0.1,0.1,0.1,0.1,0.2,0.1c0.1,0,0.2,0,0.3-0.1c0.1,0,0.3-0.1,0.6-0.3
	c0.3-0.2,0.5-0.3,0.7-0.5l0,0l-0.1-0.2l0,0c-0.4,0.3-0.6,0.4-0.7,0.4h-0.1v-0.1c0-0.1,0.1-0.6,0.4-1.5c0.1-0.5,0.2-0.9,0.3-1
	c0-0.2,0.1-0.3,0.1-0.4s0-0.2-0.1-0.2c0-0.1-0.1-0.1-0.2-0.1c-0.1,0-0.4,0.1-0.6,0.2C148.4,37,148.1,37.2,147.5,37.7L147.5,37.7
	l0.2,0.1L147.5,37.7z"/>
<path class="st0" d="M151.1,40.4c0-0.2,0.1-0.4,0.1-0.7c0.1-0.3,0.2-0.6,0.3-0.8c0.1-0.2,0.2-0.5,0.4-0.7c0.1-0.2,0.3-0.4,0.5-0.6
	c0.2-0.2,0.3-0.3,0.4-0.3c0.1,0,0.2-0.1,0.2-0.1c0.1,0,0.2,0.1,0.2,0.2c0,0.2-0.1,0.7-0.3,1.4c-0.2,0.7-0.3,1.1-0.3,1.4
	c0,0.1,0,0.2,0.1,0.3c0,0.1,0.1,0.1,0.2,0.1c0.2,0,0.3,0,0.5-0.1c0.2-0.1,0.5-0.3,1-0.7l0,0l-0.1-0.2l0,0c-0.3,0.2-0.5,0.3-0.6,0.3
	s-0.1,0-0.1-0.1c0,0,0-0.2,0.1-0.4c0-0.2,0.1-0.4,0.2-0.8c0.1-0.5,0.2-0.9,0.3-1.2c0.1-0.3,0.1-0.5,0.1-0.6c0-0.3-0.1-0.4-0.3-0.4
	c-0.3,0-0.7,0.2-1.1,0.6c-0.5,0.4-0.9,0.9-1.2,1.5c0.2-0.6,0.3-1,0.3-1.2c0.1-0.2,0.1-0.4,0.1-0.6c0-0.2-0.1-0.3-0.2-0.3
	s-0.1,0-0.2,0c-0.1,0-0.2,0.1-0.3,0.2c-0.1,0.1-0.3,0.2-0.5,0.4c-0.2,0.2-0.4,0.3-0.5,0.4v0.1l0.1,0.1h0.1c0.3-0.2,0.5-0.3,0.6-0.3
	c0.1,0,0.1,0.1,0.1,0.1c0,0.1,0,0.3-0.1,0.7c-0.1,0.4-0.2,0.8-0.3,1.3c-0.1,0.5-0.2,0.9-0.3,1.1l0.1,0.1
	C150.5,40.5,150.8,40.5,151.1,40.4"/>
<path class="st0" d="M157.4,38.3c-0.2,0.4-0.4,0.8-0.7,1.1c-0.3,0.3-0.5,0.5-0.6,0.5c-0.1,0-0.2-0.1-0.2-0.3c0-0.3,0.1-0.7,0.2-1.3
	c0.2-0.6,0.3-1,0.4-1.1c0.1-0.2,0.3-0.2,0.5-0.2c0.2,0,0.4,0.1,0.7,0.2C157.7,37.5,157.6,37.9,157.4,38.3 M158.9,39.6L158.9,39.6
	c-0.3,0.2-0.6,0.4-0.6,0.4c-0.1,0-0.1,0-0.1-0.2c0-0.1,0.1-0.4,0.2-0.9l0.3-1.4c0.1-0.4,0.2-0.7,0.3-0.9l-0.1-0.1l-0.4,0.2
	c-0.1-0.1-0.3-0.1-0.4-0.2c-0.2,0-0.3-0.1-0.4-0.1c-0.2,0-0.3,0-0.5,0.1c-0.1,0.1-0.4,0.2-0.7,0.4s-0.5,0.4-0.6,0.5
	c-0.1,0.1-0.2,0.3-0.2,0.4c-0.1,0.4-0.2,0.7-0.3,1c-0.1,0.3-0.1,0.6-0.1,0.9s0.1,0.5,0.1,0.6c0.1,0.1,0.2,0.2,0.3,0.2
	c0.2,0,0.5-0.1,0.9-0.4c0.4-0.3,0.8-0.8,1.2-1.6c-0.1,0.6-0.2,1-0.3,1.2c0,0.2-0.1,0.4-0.1,0.5c0,0.1,0,0.2,0.1,0.3
	c0.1,0.1,0.1,0.1,0.2,0.1c0.1,0,0.3,0,0.5-0.1c0.2-0.1,0.5-0.3,1-0.7l0,0L158.9,39.6z"/>
<path class="st0" d="M59.3,9.5L59.3,9.5c-0.3,0-0.5,0-0.5,0c-0.1,0-0.1-0.1-0.1-0.2c0-0.2-0.1-0.7-0.1-1.4V5.5c0-0.7,0-1.2,0.1-1.4
	c0-0.1,0.1-0.1,0.2-0.2c0,0,0.2,0,0.5,0l0,0V3.5l0,0c-0.3,0-0.7,0-1.4,0c-0.6,0-1.1,0-1.4,0l0,0v0.3l0.1,0.1c0.3,0,0.5,0,0.5,0
	c0.1,0,0.1,0.1,0.2,0.2c0,0.2,0.1,0.7,0.1,1.4v0.7c-0.2,0-0.8,0-1.6,0c-0.6,0-1,0-1.3,0V5.5c0-0.7,0-1.2,0.1-1.4
	c0-0.1,0.1-0.1,0.2-0.2c0.1,0,0.2,0,0.5,0h0.1V3.5l0,0c-0.3,0-0.7,0-1.4,0c-0.6,0-1.1,0-1.4,0l0,0v0.3l0.1,0.1c0.3,0,0.5,0,0.5,0
	c0.1,0,0.1,0.1,0.2,0.2c0,0.2,0.1,0.7,0.1,1.4v2.4c0,0.7,0,1.2-0.1,1.4c0,0.1-0.1,0.1-0.1,0.2c0,0-0.2,0-0.5,0l0,0v0.3H53
	c0.3,0,0.8,0,1.4,0c0.6,0,1.1,0,1.4,0l0,0V9.5l0,0c-0.3,0-0.5,0-0.5,0c-0.1,0-0.1-0.1-0.1-0.2c0-0.2-0.1-0.7-0.1-1.4V6.8
	c0.2,0,0.7,0,1.5,0s1.3,0,1.5,0v1.1c0,0.7,0,1.2-0.1,1.4c0,0.1-0.1,0.1-0.1,0.2c0,0-0.2,0-0.5,0l0,0v0.3h0.1c0.3,0,0.8,0,1.4,0
	s1.1,0,1.4,0h0.1V9.5H59.3z"/>
<path class="st0" d="M65.3,8.2C65,9,64.4,9.5,63.6,9.5c-0.7,0-1.2-0.3-1.6-0.8c-0.3-0.5-0.5-1.3-0.5-2.2c0-0.5,0.1-1,0.2-1.4
	c0.3-0.8,0.9-1.2,1.8-1.2c0.7,0,1.2,0.3,1.5,0.8c0.4,0.5,0.5,1.2,0.5,2.1C65.5,7.3,65.4,7.8,65.3,8.2 M66,4.2
	c-0.6-0.5-1.4-0.8-2.5-0.8c-0.7,0-1.4,0.1-1.9,0.4c-1.1,0.6-1.7,1.5-1.7,3c0,1,0.3,1.8,0.9,2.4s1.4,0.9,2.4,0.9c1.1,0,2-0.3,2.6-0.9
	c0.7-0.6,1-1.5,1-2.6C66.9,5.5,66.6,4.8,66,4.2"/>
<path class="st0" d="M73.3,3.5c-0.3,0-0.9,0.1-1.9,0.1h-1.8c-1.1,0-1.8,0-1.9,0v0.1c0,0.2,0.1,0.5,0.1,0.7v0.8h0.1h0.3h0.1
	c0-0.2,0-0.3,0-0.5c0-0.1,0-0.2,0.1-0.3c0,0,0.1,0,0.1-0.1c0.1,0,0.4,0,1,0h0.7c0,0.1,0,0.5,0,1.2V8c0,0.7,0,1.2-0.1,1.4
	c0,0.1-0.1,0.1-0.1,0.2c0,0-0.2,0-0.5,0v0.1V10l0,0c0.3,0,0.8,0,1.4,0s1.1,0,1.4,0l0,0V9.7l0,0c-0.3,0-0.5,0-0.5,0
	c-0.1,0-0.1-0.1-0.1-0.2c0-0.2-0.1-0.7-0.1-1.4V5.3c0-0.7,0-1.1,0-1.2h0.6c0.5,0,0.8,0,0.9,0c0.2,0,0.3,0.1,0.3,0.2s0,0.3,0.1,0.7
	h0.1h0.3H74V4.3c0-0.2,0-0.5,0.1-0.7L73.3,3.5z"/>
<path class="st0" d="M78.7,8.3h-0.3l0,0l-0.1,0.6c0,0.1-0.1,0.2-0.1,0.3c0,0,0,0-0.1,0.1c-0.2,0.1-0.7,0.1-1.6,0.1h-0.6
	c0-0.4,0-0.7,0-1.1V6.8c0.2,0,0.4,0,0.6,0c0.2,0,0.4,0,0.6,0c0.2,0,0.4,0.1,0.4,0.1c0.1,0.1,0.1,0.3,0.1,0.6v0.1h0.3l0,0
	c0-0.4,0-0.7,0-1s0-0.6,0-0.9l0,0h-0.3l0-0.1c0,0.4,0,0.6-0.1,0.6c0,0-0.2,0.1-0.5,0.1h-0.6c-0.1,0-0.3,0-0.6,0V5.4
	c0-0.5,0-1,0.1-1.3c0.3,0,0.5,0,0.8,0c0.2,0,0.5,0,0.8,0S78,4.2,78,4.2c0.1,0.1,0.1,0.3,0.1,0.7l0,0h0.3h0.1V4.5c0-0.1,0-0.2,0-0.4
	l0.1-0.5l0,0c-1.6,0-2.7,0-3.2,0c-0.6,0-1.1,0-1.4,0l0,0v0.3h0.1c0.3,0,0.5,0,0.5,0c0.1,0,0.1,0.1,0.2,0.2c0,0.2,0.1,0.7,0.1,1.4
	v2.3v1c0,0.3,0,0.5,0,0.6c0,0-0.1,0.1-0.4,0.3v0.1v0.1h0.1c0.2,0,0.6,0,1.2,0h3.3l0,0c0-0.5,0-1,0.1-1.5L78.7,8.3z"/>
<path class="st0" d="M84.2,8.3h-0.3l0,0l-0.1,0.6c0,0.1-0.1,0.2-0.1,0.3c0,0,0,0-0.1,0.1c-0.2,0.1-0.7,0.1-1.6,0.1h-0.6
	c0-0.4,0-0.7,0-1.1V5.5c0-0.7,0-1.2,0.1-1.4c0-0.1,0.1-0.1,0.2-0.2c0,0,0.2,0,0.5,0l0,0V3.5l0,0c-0.3,0-0.8,0-1.4,0s-1.1,0-1.4,0
	h-0.1v0.3h0.1c0.3,0,0.5,0,0.5,0C80,3.8,80,3.9,80.1,4c0,0.2,0.1,0.7,0.1,1.4v2.3v1c0,0.3,0,0.5,0,0.6c0,0-0.1,0.1-0.4,0.3v0.1v0.1
	h0.1c0.2,0,0.6,0,1.2,0h3.3l0,0c0-0.5,0-1,0.1-1.5L84.2,8.3z"/>
<polygon class="st0" points="89.8,7.1 88.9,9.8 91.2,8.1 93.6,9.8 92.7,7.1 95,5.4 92.1,5.4 91.2,2.6 90.3,5.4 87.4,5.4 "/>
<polygon class="st0" points="100.3,7.1 99.4,9.8 101.8,8.1 104.1,9.8 103.2,7.1 105.6,5.4 102.7,5.4 101.8,2.6 100.9,5.4 98,5.4 "/>
<polygon class="st0" points="110.9,7.1 110,9.8 112.4,8.1 114.7,9.8 113.8,7.1 116.2,5.4 113.3,5.4 112.4,2.6 111.5,5.4 108.5,5.4 
	"/>
</svg>
