<?xml version="1.0" encoding="utf-8"?>
<!-- Generator: Adobe Illustrator 24.2.0, SVG Export Plug-In . SVG Version: 6.00 Build 0)  -->
<svg version="1.1" id="Layer_1" xmlns="http://www.w3.org/2000/svg" xmlns:xlink="http://www.w3.org/1999/xlink" x="0px" y="0px"
	 viewBox="0 0 102 82" style="enable-background:new 0 0 102 82;" xml:space="preserve">
<style type="text/css">
	.st0{fill:#777777;}
</style>
<path class="st0" d="M43,53.9L43,53.9L43,53.9z"/>
<path class="st0" d="M69.4,47.3L69.4,47.3C69.4,47.4,69.5,47.4,69.4,47.3L69.4,47.3z"/>
<path class="st0" d="M24.3,45.2c0.7-0.7,2.8,0.3,2.4-1.1c0-0.3,0.1-1-0.4-1c-0.1-0.3-0.4-0.3-0.5-0.1c-1.3-0.2-6,0.6-6,2.3
	c0.2,0.3-0.5,1.6,0.1,1.4c0,0.8,2.3-0.9,2.8-1c0.1,0,0.1,0,0.2,0c0.1,0.7,0,1.5-0.1,2.1c0.2,2.9-0.4,6.2,0.5,9
	c0,0.3-0.2,0.9,0.3,0.8c0.1,0.7,1.1-0.3,1.1-0.7c-0.4-1.5-0.1-3-0.1-4.6C24.4,50.3,26.1,46.6,24.3,45.2
	C24.2,45.3,24.3,45.2,24.3,45.2"/>
<path class="st0" d="M30.9,49.4L30.9,49.4L30.9,49.4"/>
<path class="st0" d="M15.1,75.3c-0.3,0.8-1.8,2.9-2.4,1.5c0-0.8,0.3-1.7,1-2.1c0.2-0.9,1.3-1.5,1.6-0.3
	C15.2,74.6,15.1,75.1,15.1,75.3 M27,80.9c-1.3-0.1,0.9-3.1,1.1-3.8c0.2-0.3,0.2-0.4,0.5-0.2C29.9,78.1,28.4,80.5,27,80.9 M32.3,66.9
	c0.6-1.3,0.4-2.4,1.4-3.6h0.1c-0.1,1.6-0.8,3.8-1.7,5.1L32,68.3C32.1,67.9,32.2,67.4,32.3,66.9 M49,68.2C49,68.2,49,68.3,49,68.2
	c-0.2,0-0.2-0.1-0.3-0.2c-0.3,0.3-0.8,1-1.1,1.3c0.2-1.6,1.2-3.7,0.2-5c-1.4-1.2-2.5,1.9-3.3,2.6c-0.5,0.9-1.5,1.4-1.9,2.3l0,0
	c-0.4,0.3-0.5,1-1.1,0.8c-0.4-0.5,0.1-1.7-0.6-1.9c-0.9-1-2.5,2.1-3.3,2.7c0.3-1,4.8-5.4,3.4-5.6c-0.8-1.4-5.2,4.7-5.9,5.5
	c0.1,0.1,0.1,0.2,0.2,0.3l0,0l-0.2-0.3c-0.8,1.3-3,2-3-0.2c0.5-1.1,1.1-2.3,1.6-3.3c0.6-1.6,2.2-5.9,1-7.1c-2.2-1.7-4.1,7.1-4,8.6
	c-0.2,0.4-0.1,1.5-0.1,1.9c-0.3,0.3-0.8,0.9-0.9,1.3l0,0c-0.6,0.9-1,1.7-1.5,2.2c-3.7-2.3,3-5.3,1.1-7.5c-2.1-1.5-3.9,6.6-5.5,6.6
	c-0.3-0.5,0-1.6-0.6-1.8c-1.4-1.3-2.1,3.2-3.4,3.7c-0.3-1.4,0.2-3,0.5-4.4c0-0.2-0.1-0.3-0.3-0.3c-1.3-1-2.6,3.4-3.5,4.2
	c0,0.1,0,0.1-0.1,0.2l0,0c-0.1,0.1-0.1,0.2-0.2,0.2c1-1.5-0.1-4.4-2.1-3c0.1-0.2-0.1-0.3-0.3-0.3c-0.8-1.1-2.4,2.4-3.1,2.9
	c-0.4,0.6-1.1,1-1.4,1.7l0,0c-0.5,0.7-1.6,1-2.4,1.4c4.3-5.4,2-10.7-4.8-10.6c-0.8-0.4-1.5,0-2.3,0.2c-0.1,0.2,0.1,0.4,0.2,0.6
	c0,0.3-0.1,0.6,0.2,0.7c0.4,0.5,1.4,0.6,2,0.5c0,0.1-0.2,0.1-0.3,0.2c-0.9,1-0.8,2.4-0.9,3.7c0.1,2-0.2,4.3,0,6.4
	c-0.1,0.2-0.1,1.1,0.3,1C3,82,3.1,70.7,3.7,69.5c6,1.2,4,5.7,1.1,9.1c-1,1.1-2.4,1.3-3,2.8c1.5,1.6,3.8-1.1,5.1-2.2
	c1.3-0.4,2.6-0.7,3.4-1.7l0,0c0.2-0.4,0.5-0.7,0.7-0.9c-0.6,3.3,3.1,2.7,4.2,0.5c0,0,0,0,0.1,0c0.7,0.8,1.6-0.5,2-1l0,0
	c0.2-0.3,0.5-0.8,0.7-1.1c0.5,4.4,3.1,1.8,4.3-0.6c0.7,1.9,2.5,1,3.4-0.3c0.3,0.9,1,1.5,1.7,2.1c-6.1,9.4,4.9,6.4,3,0.4
	c-0.2-0.5-0.7-0.7-0.8-1.1c0.5-1,1.1-2,1.8-2.9c0.4,2.3,3.2,2,4.3,0.4c0,0.4,0.1,0.9,0.4,1c1.5,1.2,3-2.1,4-3
	c1.8,4.4,4.9-2.8,6.4-3.7l0,0l0,0c0,0.6,0.1,1.9-0.2,2.4c-1.4-0.9-1.1,1.9-0.5,2.5c0,0.2,0.1,0.4,0.3,0.3c0.1,0.7,1.1-0.2,1.3-0.6
	c0.9-0.8,1.7-1.7,2.4-2.5C49.3,68.8,49.1,68.5,49,68.2"/>
<path class="st0" d="M67.2,60.6L67.2,60.6L67.2,60.6"/>
<path class="st0" d="M81,59.9L81,59.9L81,59.9"/>
<path class="st0" d="M65.8,61.6c0.2,0.4-0.1,0.7-0.3,1c0-0.1-0.1-0.2-0.1-0.2C65.5,62.1,65.6,61.8,65.8,61.6L65.8,61.6 M65.1,62.6
	c0.1-0.1,0.1-0.1,0.2-0.2c0,0.1,0.1,0.3,0.2,0.4C65.2,63.4,64.7,63.4,65.1,62.6 M60.8,57.5c-0.3,1.6-2.3,2.9-3.5,3.9
	c0-0.4,0.2-0.9,0.1-1.4c0.5-1-0.3-2.8,1.3-2.9C59.2,57.1,60.6,56.8,60.8,57.5 M60.7,65.5c-0.7,1.3-2.8,2.3-3.7,2.7
	C57,64.2,56.8,64.3,60.7,65.5C60.7,65.5,60.7,65.5,60.7,65.5 M82.3,62.5c0.7-2,2.4-4.7,1.4-6.5c-0.5-0.9-1.1,0.9-0.8,1.4
	c-0.5,1.5-0.9,3.7-1.8,4.7c-0.1-0.8,0-1.7,0-2.2c-0.5-0.7,0.8-1.9-0.1-2.3c-1.1-1.5-2.3,4.3-2.8,4.7l0,0c-0.2-0.9-0.3-1.7-0.3-2.7
	c-0.1-0.5,0.2-1.1-0.3-1.1c-1.1-1.3-2.2,3.9-3.5,4.4l0,0c-0.4,0.3-0.8,1-1.3,1.4c0.2-1,0.7-2.4,0.1-3.3c-0.9-1.4-2.6-2-3.5-0.2
	l0.1,0.5c-0.3,1.1-1.3,2-1.9,3l0,0c-0.6,0.5-1.4,1.1-2.2,0.8c-0.3-0.9,1-1.8,1.2-2.4c0.5-0.7,0.5-1.3,0.7-2c-0.1-0.4-0.2-0.9-0.6-1
	c-0.1-0.1-0.1-0.2-0.2-0.2c0.1-0.4,0.3-0.9,0.6-1.2c1.2,0.2,1.6,1.7,1.3,2.7h0.2c-0.1-0.3,0-0.7,0.1-0.9c0.2,0.4,0.1,0.8,0,1.2h0.2
	c-0.2-2.3,3.1-3.6,4.7-1.8l-0.9-10.8c-0.1,0.1-0.2,0.2-0.2,0.2v-0.4c-0.9,1-2.8,1-2.8-0.7c-0.1,0.1-0.1,0.1-0.2,0.2
	c0-0.1-0.1-0.3-0.1-0.4c-0.5,0.6-1.2,1-1.9,0.9c-1.2,1.3-3.4,2.5-4.8,0.8l0,0c-0.1-0.1-0.2-0.2-0.3-0.3c-1,1.5-3.5,2.4-5,1.1l0,0
	c-0.1-0.1-0.2-0.2-0.3-0.3c-1.1,1.8-4.2,4.9-4.9,1.1c-0.1,0.1-0.1,0.2-0.2,0.3c0-0.2-0.1-0.3-0.1-0.5c-0.8,1.5-3.2,2.7-4.5,1.3
	c-0.9,1.4-3.1,3.5-4.6,1.9c-1.8,2.2-4.7,1.2-3.2-1.7c-0.2,0.2-0.3,0.5-0.6,0.7c0.1-0.3,0.2-0.6,0.3-1c-1.3,1.6-5.2,8-6.4,3.1
	c-0.1,0.1-0.1,0.2-0.2,0.2c0-0.1-0.1-0.3-0.1-0.5c-1,1.3-2.5,2.2-4.2,2l0.6,7.5h0.3v0.3l1.9-0.1c0.9-5.4,6.4-8.3,5-0.7h0.3
	c0,0.1,0,0.2,0,0.3l18.1-1.5c0.1-0.9,0-1.8,0-2.7c-0.1,0-0.2,0-0.3,0c0-0.1,0-0.2,0-0.3c-1.4,0.4-1.7-1.6-1-2.4
	c1.1-1.9,4.5-2.8,6.5-3.1c3.6-0.9,5.6,2.1,3.3,5.1c-0.7,0.7-1.7,1.8-2.6,2.6h0.6c-0.1,0.1-0.2,0.2-0.3,0.3l2.6-0.2
	c0.6-1.4,1.6-3.3,3.3-3.4c-0.2,0.4-0.4,0.8-0.5,1.2c-1.9,0.5-2.7,3.1-2.7,4.9c-0.3,0.3-0.5,0.6-0.6,0.9c-1-1.6-3.6-1.3-5.2-1.8
	c0.8-1.5,3.6-3.1,4.6-4.6c1.2-1.1,0.9-3.8-1.1-3.6c-2.4-0.5-4.8,0.8-7,2c-0.1,0.3-0.9,1.5-0.1,1.3c0.1,0.8,1.8-0.7,2.2-0.6
	c-1.3,1.4-0.7,3.4-1,5.1c-0.5,0.4-1.5,1.1-0.7,1.5c0.1,0.2,0.4,0.3,0.6,0.3c0.1,0.2,0.1,0.4,0.1,0.7l0.1,0.1l0.1,0.3
	c-0.3,0.9,0.2,2.1,0,3.2c-0.2,0.5-1.7,1.2-0.8,1.6c0.1,0.3,0.4,0.2,0.6,0.3l0.5-0.2c0.1,0.1,0.1,0.2,0.3,0.2c0.4,0.7,1-0.2,1.1-0.7
	c2.6-1.4,5.7-2.2,5.9-4.6c0.1,0.2,0.2,0.4,0.3,0.5l0.1-0.1c0.1,0.1,0.2,0.3,0.2,0.4c0.1-0.2,0.2-0.4,0.4-0.4c2.5,3.8,5.4-2.3,7.1-4
	c0.1,0,0.2,0,0.3,0c0.5,1,0.1,2.4-0.3,3.5c-0.1,0.3-0.3,0.9,0.2,1c1.1,1,2.9-1.8,3.7-2.4c0.5-0.5,1-1.2,1.4-1.7
	c0.5,1.3,0.4,2.8,1.1,3.4c1.3,1.2,1.7-2.5,2.2-3.2c0.1,1,0.1,1.7,0.7,2C81.1,65.2,81.8,63.3,82.3,62.5"/>
<path class="st0" d="M101.6,57.3L101.6,57.3l-0.3-0.2c-0.1,0.2-0.3,0.3-0.6,0.3c-1.2-3.7-3.2-1.2-4.4,0.9c0.2-1.2,1.1-2.9,0.1-3.6
	c-1.4-1.3-3.5,3.5-4.4,4.4l0,0c-0.5,0.6-0.8,1-1.2,1.5c0.1-1.2,1.4-3.2,0.6-4c-1.3-1.1-3.3,3.7-4.5,4.2c-0.1-0.7,0.9-2.5,0.1-2.9
	c-0.9-1.1-2.5,2.4-3.3,2.9c0.2,0.2,0.3,0.6,0.5,0.8l0.1-0.1c0.1,0.1,0.1,0.3,0.2,0.4c0.3-0.3,0.5-0.5,0.7-0.7
	c0.1,0.3-0.1,0.7,0.1,0.9c-0.1,0.3,0,0.8,0.3,0.8c0.5,0.7,1.7-0.2,1.9-0.9c0.7-0.5,1.1-1.5,1.8-2.1c0,2.8-2,5.1-3.3,7.3
	c-0.1,0.5-1.3,1.7-0.5,2c2.3,1.3,4.6-7.5,7.4-9.2l0,0c0.5-0.8,1.1-1.6,1.8-2.3c0,1.3-1.2,3.1-0.3,3.9c1.2,1.3,2.9-3.6,4.2-4l0,0
	c1.4,1.6,2,2.5,3.5,0.4L101.6,57.3z"/>
<path class="st0" d="M3.9,22.2l0.3-0.1v0.4L42,4.3l-0.9,0.1l0.7-0.3c-9.7,0.8-29.1,2.4-39,3.2C2.8,8.2,3.9,21.8,3.9,22.2z"/>
<path class="st0" d="M4.8,32.8h0.3v0.3l23.4-1.9l-1-12.1l4.9-0.4l2.1,25.1c0-0.1,0.1-0.3,0.2-0.5l0.1,0.8c0.3-2.2,4-2.6,3.1,0.4
	c0.5,1,0.3,3-0.6,3.2c-0.1,0.5-0.3,1.3-0.4,2c0.2-0.2,0.3-0.4,0.4-0.6c0,0.3-0.1,0.5-0.1,0.8c0.3-0.4,0.6-0.8,0.7-1.1
	c-0.1-3.4,4.9-3.7,5.4-0.2l0.2-0.2c0,0.1,0.1,0.3,0.1,0.4c1.7-1.6,3.9-6.3,6.7-4.8c-0.7-3.1,1.6-3,3.7-3.5c0-1.2,2.3-3.5,3.3-1.3
	c0-0.1,0-0.1,0.1-0.2c0.1,0.1,0.2,0.3,0.2,0.4c0.6-1.6,1.2-4.1,2.9-4.6c1.2-0.5,2.3,0.7,2.2,1.7c0.1,3.5-1.4,6.8-2.9,9.9
	c0,0.2,0.1,0.2,0.1,0.3c0.1,0,0.1-0.1,0.2-0.1c0,0,0,0,0,0.1c0,0.2,0.1,0.2,0.1,0.3c0.7-0.1,1-0.9,1.4-1.4c1.3-1.2,2.1-2.9,3.4-4.1
	c-0.2-0.6-0.3-1.3,0.2-1.9l-1.9-23.1l4.9-0.4L69,28h0.3v0.3l23.4-1.9c-0.5-6.3-1.6-19.2-2.1-25.5h-0.3L90,0.1
	c-12.3,1-33,2.7-45.1,3.7L4,23.4L4.8,32.8z"/>
<path class="st0" d="M49.7,46.3L49.7,46.3c0.2,0.3,0.3,0.6,0.5,0.9l0.1-0.1c0.1,0.1,0.2,0.2,0.2,0.4c0.6-0.7,1.2-1.7,1.6-2.6
	c-0.1,0-0.3,0.1-0.4,0c0-0.1,0.1-0.2,0.1-0.3c-0.5,0.1-1.1-0.1-1.6-0.3C50.5,44.9,50.3,45.7,49.7,46.3"/>
<path class="st0" d="M69.1,47.1L69.1,47.1C69.1,47.2,69.2,47.2,69.1,47.1L69.1,47.1z"/>
<path class="st0" d="M65.1,40.8c0.1,0.1,0.1,0.1,0.2,0.1c0.2,0.8,1.2-0.7,1.5-0.9c1.2-0.7,2.5-2.3,0.6-3c-0.7,0.2-0.4,1.3-1.1,1.7
	C65.9,39.2,64.6,40.1,65.1,40.8"/>
<path class="st0" d="M66.8,45.6c-0.7,2-3.3,3.1-2.1,0c0.5-0.4,0.8-0.8,1.1-1.4c0.5-0.4,1.1-0.1,1.2,0.5
	C66.9,44.9,66.8,45.4,66.8,45.6 M31.7,53.6L31.7,53.6L31.7,53.6L31.7,53.6 M58.3,42.6c0.6-1.3,0.4-2.4,1.4-3.6h0.1
	c0,0.2-0.1,0.4-0.1,0.6c0.1-0.1,0.2-0.2,0.3-0.4h0.1c-0.1,1.6-0.8,3.8-1.7,5.1l-0.1-0.1c0-0.1,0-0.3,0.1-0.5
	c-0.1,0.1-0.2,0.4-0.3,0.4L58,44C58,43.7,58.1,43.2,58.3,42.6 M61.4,46.9L61.4,46.9L61.4,46.9L61.4,46.9 M70.6,44.1
	c0,1.2-1.2,2.9-0.3,3.7c1.2,1.3,2.9-3.6,4.2-4l0,0c1.4,1.6,2,2.5,3.5,0.4l-0.5-0.8l-0.1,0.1l-0.2-0.3c-0.1,0.2-0.3,0.3-0.6,0.3
	c-1.2-3.7-3.2-1.2-4.4,0.9c0.2-1.3,1.1-2.8,0.1-3.6c-1.4-1.3-3.5,3.5-4.4,4.4l0,0c-0.1,0.1-0.1,0.2-0.2,0.2c1-1.5-0.1-4.4-2.1-3
	c0.1-0.2-0.1-0.3-0.3-0.3C64.5,41,63,44.5,62.3,45c-0.4,0.6-1.1,1-1.4,1.7l0,0c-0.8,1.3-3,2-2.9-0.2c0.5-1.1,1.1-2.3,1.6-3.3
	c0.6-1.6,2.2-5.9,1-7.1c-2.2-1.7-4.1,7.1-4,8.6c-0.2,0.4-0.1,1.5-0.1,1.9c-0.3,0.3-0.8,1-1,1.3l0,0c-0.5,0.6-0.9,1-1.3,1.4
	c0-1.8,0.6-4.1,0.8-5.9c0.3-0.2,0.8-0.1,0.8-0.6c0-0.3,0.1-1.2-0.3-1.4c0-0.4,0.5-1.5-0.1-1.7c-0.9-1.2-1.3,1.9-1.9,2
	c-0.9,0.1-1.8,0.4-2.8,0.5c-0.5,0.1-0.7,1.4-0.1,1.6c0.4,0.7,1.9,0,2.5-0.1c-0.7,2-1.9,3.7-2.9,5.4l0,0c-0.4,0.3-0.5,1-1.1,0.8
	c-0.4-0.5,0.1-1.7-0.6-1.9c-1-0.9-2.4,2.1-3.3,2.7c0.3-1,4.8-5.4,3.4-5.6c-0.8-1.4-5.2,4.7-5.9,5.5c0.1,0.1,0.1,0.2,0.2,0.3l0,0
	c-0.1-0.1-0.1-0.2-0.2-0.3c-0.4,0.3-0.8,1-1.3,1.4c0.2-1,0.7-2.4,0.1-3.3c-0.9-1.4-2.6-2-3.5-0.2l0.1,0.5c-0.3,1.1-1.3,2-1.9,3l0,0
	c-0.5,0.6-0.9,1-1.3,1.4c0-1.8,0.5-4.1,0.8-5.9c0.3-0.2,0.8-0.1,0.8-0.6c0-0.3,0.1-1.1-0.3-1.3c-0.2-0.4,0.5-1.5-0.2-1.8
	c-0.9-1.2-1.3,1.9-1.9,2c-0.9,0.1-1.8,0.4-2.8,0.5c-0.5,0.1-0.7,1.4-0.1,1.6c0.4,0.7,1.9,0,2.5-0.1c-0.7,2-1.8,3.7-2.9,5.4l0,0
	c-0.6,0.5-1.4,1.1-2.2,0.9c-0.4-0.9,1-1.8,1.2-2.4c0.5-0.7,0.5-1.3,0.7-2c-0.1-0.4-0.2-0.9-0.6-1c-2.1-1.1-3.3,3-3.3,4.6
	c-0.3,0.3-0.5,0.6-0.7,1c0.2,0.3,0.4,0.5,0.5,0.8c0-0.1,0.1-0.1,0.1-0.1c0.1,0.1,0.2,0.3,0.2,0.4c0.1-0.2,0.2-0.4,0.4-0.4
	c2,3.5,4.9-1.2,6.2-3c0.1,1.2-0.7,3.1,0.3,3.9c1.4,1.2,2.4-2,3.4-2.7l0,0c0.9-0.9,1.8-3.1,2.9-3.3c0.5,1,0.1,2.4-0.3,3.5
	c-0.1,0.3-0.2,0.9,0.2,1c1,1,2.3-1.3,3.1-1.7c-0.1,0.4,0,1,0.4,1c1.5,1.2,3-2.1,4-3c1.4,3.9,4.2-1.2,5.4-2.7
	c0.1,1.2-0.8,3.1,0.3,3.9c1.4,1.2,2.4-2,3.4-2.7l0,0c0.2-0.3,0.4-0.5,0.6-0.8c0.7,2.9,3.9,1.5,4.9-0.4l0,0c0.2-0.4,0.5-0.7,0.8-0.9
	c-0.6,3.3,3.1,2.6,4.2,0.5c0,0,0,0,0.1,0c0.7,0.8,1.6-0.5,2-1l0,0c0.5-0.8,1.1-1.6,1.8-2.3C70.6,43.9,70.6,44,70.6,44.1"/>
</svg>
