<?xml version="1.0" encoding="utf-8"?>
<!-- Generator: Adobe Illustrator 24.2.0, SVG Export Plug-In . SVG Version: 6.00 Build 0)  -->
<svg version="1.1" id="Layer_1" xmlns="http://www.w3.org/2000/svg" xmlns:xlink="http://www.w3.org/1999/xlink" x="0px" y="0px"
	 viewBox="0 0 123 50" style="enable-background:new 0 0 123 50;" xml:space="preserve">
<style type="text/css">
	.st0{fill:#777777;}
</style>
<path class="st0" d="M106.7,44.1v4H16.3v-3.9C7.9,41.8,1.7,34.1,1.7,25c0-9.1,6.2-16.8,14.6-19.2V1.9h90.4v4
	c8.4,2.3,14.6,10,14.6,19.2C121.3,34.1,115.1,41.8,106.7,44.1 M108.4,4.6V0.2H14.6v4.4C5.9,7.6,0,15.8,0,25s5.9,17.5,14.6,20.4v4.4
	h93.8v-4.4C117,42.3,123,34.1,123,25S117,7.6,108.4,4.6"/>
<polygon class="st0" points="27,5.9 25.6,9.2 24.9,9.2 23.5,5.9 24.5,5.9 25.2,7.8 26,5.9 "/>
<rect x="27.5" y="5.9" class="st0" width="1" height="3.3"/>
<polygon class="st0" points="31.7,9.2 29.3,9.2 29.3,5.9 31.7,5.9 31.7,6.6 30.2,6.6 30.2,7.2 31.6,7.2 31.6,7.8 30.2,7.8 30.2,8.5 
	31.7,8.5 "/>
<path class="st0" d="M33.5,8.8c0,0.3,0,0.5-0.1,0.7c0,0.2-0.1,0.4-0.3,0.5s-0.4,0.2-0.7,0.2c-0.1,0-0.2,0-0.3,0L32,9.4
	c0.1,0,0.2,0,0.3,0c0.1,0,0.1,0,0.2-0.1c0.1,0,0.1-0.1,0.1-0.2c0-0.1,0-0.2,0-0.5V8.5V5.9h1v2.9C33.6,8.8,33.5,8.8,33.5,8.8z"/>
<path class="st0" d="M36.8,7.6c0-0.1,0-0.2,0-0.3c0-0.1-0.1-0.2-0.2-0.3c-0.1-0.1-0.2-0.1-0.3-0.2c-0.1,0-0.2-0.1-0.4-0.1
	c-0.3,0-0.5,0.1-0.6,0.2c-0.1,0.2-0.2,0.4-0.2,0.6c0,0.3,0.1,0.5,0.2,0.6c0.2,0.2,0.4,0.2,0.6,0.2c0.2,0,0.3,0,0.5-0.1
	c0.1-0.1,0.2-0.2,0.3-0.3C36.7,7.9,36.8,7.7,36.8,7.6 M37.7,7.6c0,0.3-0.1,0.6-0.2,0.8c-0.1,0.3-0.3,0.5-0.6,0.6
	c-0.3,0.2-0.6,0.2-1,0.2s-0.7-0.1-1-0.2c-0.3-0.2-0.5-0.4-0.6-0.6c-0.1-0.3-0.2-0.5-0.2-0.8s0.1-0.6,0.2-0.8
	c0.1-0.2,0.3-0.5,0.6-0.6s0.6-0.2,1-0.2c0.3,0,0.6,0,0.8,0.1s0.4,0.2,0.6,0.4c0.2,0.2,0.3,0.3,0.3,0.5C37.7,7.1,37.7,7.3,37.7,7.6"
	/>
<polygon class="st0" points="42.2,9.2 39.8,9.2 39.8,5.9 42.2,5.9 42.2,6.6 40.8,6.6 40.8,7.2 42.1,7.2 42.1,7.8 40.8,7.8 40.8,8.5 
	42.2,8.5 "/>
<path class="st0" d="M46.6,9.2h-1.3L45,8.8c0,0-0.1-0.1-0.2-0.2c-0.1-0.1-0.2-0.2-0.2-0.3c-0.2,0.3-0.3,0.5-0.5,0.6l-0.3,0.4h-1.3
	l1.4-1.7L42.6,6h1.3l0.2,0.3c0.1,0.2,0.3,0.4,0.5,0.6c0.2-0.2,0.3-0.4,0.4-0.6L45.3,6h1.2l-1.4,1.5L46.6,9.2z"/>
<path class="st0" d="M48.8,7c0-0.1,0-0.3-0.1-0.3c-0.1-0.1-0.3-0.1-0.5-0.1H48v0.8h0.2c0.2,0,0.3,0,0.4,0c0-0.1,0.1-0.1,0.1-0.2
	C48.8,7.2,48.8,7.1,48.8,7 M49.8,7c0,0.1,0,0.2-0.1,0.4c0,0.1-0.1,0.2-0.2,0.3c-0.1,0.1-0.2,0.2-0.4,0.2C48.9,8,48.8,8,48.5,8h-0.6
	v1.2h-1V5.9h1.6c0.2,0,0.4,0,0.6,0.1c0.2,0.1,0.3,0.1,0.4,0.2c0.1,0.1,0.2,0.2,0.2,0.3C49.8,6.7,49.8,6.8,49.8,7"/>
<path class="st0" d="M52.2,7c0-0.1,0-0.3-0.1-0.3c-0.1-0.1-0.3-0.1-0.5-0.1h-0.2v0.8h0.2c0.2,0,0.4,0,0.5-0.1
	C52.1,7.2,52.2,7.1,52.2,7 M53.5,9.2h-1l-0.2-0.6c-0.2-0.2-0.3-0.4-0.4-0.4C51.8,8.1,51.8,8,51.7,8c-0.1,0-0.2,0-0.3,0h-0.1v1.3h-1
	V5.9H52c0.3,0,0.5,0.1,0.7,0.2s0.3,0.2,0.4,0.4c0.1,0.2,0.1,0.3,0.1,0.5s0,0.3-0.1,0.4S53,7.6,52.9,7.7c-0.1,0.1-0.1,0.1-0.2,0.2
	C52.8,8,52.9,8,53,8.1s0.2,0.3,0.3,0.5L53.5,9.2z"/>
<polygon class="st0" points="56.3,9.2 53.9,9.2 53.9,5.9 56.3,5.9 56.3,6.6 54.9,6.6 54.9,7.2 56.3,7.2 56.3,7.8 54.9,7.8 54.9,8.5 
	56.3,8.5 "/>
<path class="st0" d="M59.3,8.2c0,0.2,0,0.4-0.2,0.5S58.8,9,58.6,9c-0.2,0.1-0.4,0.1-0.6,0.1c-0.1,0-0.1,0-0.2,0
	c-0.1,0-0.2,0-0.4-0.1c-0.2,0-0.3-0.1-0.5-0.2V8c0.2,0.1,0.3,0.2,0.5,0.3s0.3,0.1,0.5,0.1s0.3,0,0.3-0.1c0.1-0.1,0.1-0.1,0.1-0.2
	c0-0.1,0-0.2-0.1-0.2s-0.3,0.1-0.5,0s-0.3-0.2-0.5-0.2c-0.1-0.1-0.2-0.2-0.3-0.3c-0.1-0.1-0.1-0.3-0.1-0.5s0-0.3,0.1-0.5
	c0.1-0.1,0.2-0.3,0.4-0.3C57.5,6,57.8,6,58,6c0.2,0,0.4,0,0.5,0.1c0.2,0,0.3,0.1,0.4,0.1c0.1,0,0.2,0.1,0.2,0.1v0.8
	c-0.1-0.1-0.3-0.2-0.4-0.3c-0.2-0.1-0.3-0.1-0.5-0.1c-0.1,0-0.2,0-0.3,0.1c0,0.1-0.1,0.1-0.1,0.2s0,0.1,0.1,0.2s0.2,0.1,0.3,0.2
	c0.3,0.1,0.5,0.2,0.6,0.3C59,7.8,59.1,7.9,59.3,8C59.3,7.9,59.3,8.1,59.3,8.2"/>
<path class="st0" d="M62.5,7.6c0-0.1,0-0.2,0-0.3c0-0.1-0.1-0.2-0.2-0.3C62.2,6.9,62,6.9,62,6.8c-0.1,0-0.2-0.1-0.4-0.1
	c-0.3,0-0.5,0.1-0.6,0.2c-0.1,0.2-0.2,0.4-0.2,0.6c0,0.3,0.1,0.5,0.2,0.6c0.2,0.2,0.4,0.2,0.6,0.2c0.2,0,0.3,0,0.5-0.1
	c0.1-0.1,0.2-0.2,0.3-0.3C62.3,7.9,62.5,7.7,62.5,7.6 M63.5,7.6c0,0.3-0.1,0.6-0.2,0.8C63,8.7,62.8,8.9,62.5,9
	c-0.3,0.2-0.6,0.2-1,0.2s-0.7-0.1-1-0.2S60,8.6,60,8.4c-0.1-0.3-0.2-0.5-0.2-0.8S59.8,7,60,6.8c0.1-0.2,0.3-0.5,0.6-0.6
	s0.6-0.2,1-0.2c0.3,0,0.6,0,0.8,0.1s0.4,0.2,0.6,0.4c0.2,0.2,0.3,0.3,0.3,0.5C63.3,7.1,63.5,7.3,63.5,7.6"/>
<path class="st0" d="M67.3,7c0-0.1,0-0.3-0.1-0.3c-0.1-0.1-0.3-0.1-0.5-0.1h-0.2v0.8h0.2c0.2,0,0.3,0,0.4,0c0-0.1,0.1-0.1,0.1-0.2
	C67.3,7.2,67.3,7.1,67.3,7 M68.2,7c0,0.1,0,0.2-0.1,0.4c0,0.1-0.1,0.2-0.2,0.3c-0.1,0.1-0.2,0.2-0.4,0.2C67.3,8,67.2,8,67,8h-0.6
	v1.2h-1V5.9H67c0.2,0,0.4,0,0.6,0.1s0.3,0.1,0.4,0.2s0.2,0.2,0.2,0.3C68.2,6.7,68.2,6.8,68.2,7"/>
<path class="st0" d="M70.4,8l-0.5-1.2L69.4,8H70.4z M71.9,9.2h-1l-0.3-0.7h-1.4l-0.3,0.7h-1L69.3,6h1.1L71.9,9.2z"/>
<polygon class="st0" points="75,6.7 73.8,6.7 73.8,9.2 72.8,9.2 72.8,6.7 71.6,6.7 71.6,5.9 75,5.9 "/>
<path class="st0" d="M77.2,8l-0.5-1.2L76.2,8H77.2z M78.7,9.2h-1l-0.3-0.7H76l-0.3,0.7h-1L76.1,6h1.1L78.7,9.2z"/>
<path class="st0" d="M82.1,9C82,9,82,9.1,81.9,9.1c0,0-0.1,0-0.1,0.1c0,0-0.1,0-0.2,0.1c-0.2-0.1-0.3-0.1-0.4-0.1s-0.3,0-0.5,0
	c-0.3,0-0.6-0.1-0.9-0.2c-0.3-0.1-0.5-0.3-0.7-0.6s-0.2-0.6-0.2-0.9c0-0.2,0-0.5,0.1-0.7s0.2-0.4,0.4-0.5c0.2-0.1,0.3-0.2,0.5-0.3
	c0.2-0.1,0.3-0.1,0.4-0.1s0.3,0,0.5,0c0.3,0,0.5,0,0.7,0.1c0.2,0,0.4,0.1,0.6,0.2v0.7c-0.1-0.1-0.3-0.2-0.5-0.2
	c-0.2-0.1-0.4-0.1-0.6-0.1c-0.3,0-0.5,0.1-0.7,0.2S80,7,80,7.2c-0.1,0.2-0.1,0.3-0.1,0.4c0,0.2,0,0.3,0.1,0.5
	c0.1,0.1,0.2,0.3,0.4,0.3c0.2,0.1,0.3,0.1,0.6,0.1c0.1,0,0.3,0,0.4,0V8.1H81V7.4h1.3L82.1,9L82.1,9z"/>
<path class="st0" d="M85.4,7.6c0-0.1,0-0.2,0-0.3c0-0.1-0.1-0.2-0.2-0.3c-0.1-0.1-0.2-0.1-0.3-0.2c-0.1,0-0.2-0.1-0.4-0.1
	c-0.3,0-0.5,0.1-0.6,0.2c-0.1,0.2-0.2,0.4-0.2,0.6c0,0.3,0.1,0.5,0.2,0.6c0.2,0.2,0.4,0.2,0.6,0.2s0.3,0,0.5-0.1
	c0.1-0.1,0.2-0.2,0.3-0.3C85.3,7.9,85.4,7.7,85.4,7.6 M86.4,7.6c0,0.3-0.1,0.6-0.2,0.8c-0.1,0.3-0.3,0.5-0.6,0.6
	c-0.3,0.2-0.6,0.2-1,0.2s-0.7-0.1-1-0.2S83.1,8.6,83,8.4c-0.1-0.3-0.2-0.5-0.2-0.8S82.9,7,83,6.8c0.1-0.2,0.3-0.5,0.6-0.6
	c0.3-0.1,0.6-0.2,1-0.2c0.3,0,0.6,0,0.8,0.1c0.2,0.1,0.4,0.2,0.6,0.4c0.2,0.2,0.3,0.3,0.4,0.5C86.3,7.1,86.4,7.3,86.4,7.6"/>
<polygon class="st0" points="90.4,9.2 89.6,9.2 87.9,7.4 87.9,9.2 86.9,9.2 86.9,5.9 87.8,5.9 89.5,7.7 89.5,5.9 90.4,5.9 "/>
<rect x="91.3" y="5.9" class="st0" width="1" height="3.3"/>
<path class="st0" d="M96,8.9C95.9,9,95.7,9,95.6,9.1c-0.2,0.1-0.3,0.1-0.5,0.1c-0.1,0-0.3,0-0.4,0c-0.3,0-0.5,0-0.8-0.1
	c-0.2-0.1-0.4-0.2-0.6-0.3S93,8.5,92.9,8.3s-0.1-0.4-0.1-0.7c0-0.3,0.1-0.5,0.2-0.7s0.2-0.4,0.4-0.5c0.2-0.1,0.4-0.2,0.6-0.3
	C94.2,6,94.5,6,94.7,6c0.4,0,0.8,0.1,1.3,0.3V7c-0.2-0.1-0.3-0.2-0.5-0.2c-0.2-0.1-0.3-0.1-0.5-0.1s-0.4,0-0.5,0.1
	c-0.2,0.1-0.3,0.2-0.4,0.3C94,7.2,94,7.4,94,7.6s0,0.3,0.1,0.5c0.1,0.1,0.2,0.3,0.4,0.3c0.2,0.1,0.3,0.1,0.5,0.1s0.3,0,0.5-0.1
	c0.1,0,0.3-0.1,0.4-0.1s0.2-0.1,0.3-0.2v0.8H96z"/>
<path class="st0" d="M99,7.6c0-0.1,0-0.2,0-0.3c0-0.1-0.1-0.2-0.2-0.3c-0.1-0.1-0.2-0.1-0.3-0.2c-0.1,0-0.2-0.1-0.4-0.1
	c-0.3,0-0.5,0.1-0.6,0.2c-0.1,0.2-0.2,0.4-0.2,0.6c0,0.3,0.1,0.5,0.2,0.6c0.2,0.2,0.4,0.2,0.6,0.2s0.3,0,0.5-0.1
	c0.1-0.1,0.2-0.2,0.3-0.3C99,7.9,99,7.7,99,7.6 M100,7.6c0,0.3-0.1,0.6-0.2,0.8c-0.1,0.3-0.3,0.5-0.6,0.6c-0.3,0.2-0.6,0.2-1,0.2
	s-0.7-0.1-1-0.2s-0.5-0.4-0.6-0.6c-0.1-0.3-0.2-0.5-0.2-0.8s0.1-0.6,0.2-0.8c0.1-0.2,0.3-0.5,0.6-0.6c0.3-0.1,0.6-0.2,1-0.2
	c0.3,0,0.6,0,0.8,0.1c0.2,0.1,0.4,0.2,0.6,0.4c0.2,0.2,0.3,0.3,0.4,0.5C100,7.1,100,7.3,100,7.6"/>
<path class="st0" d="M32.7,42.9c0-0.1,0-0.2,0-0.3s-0.1-0.2-0.1-0.2c-0.1-0.1-0.1-0.1-0.2-0.1c-0.1,0-0.2,0-0.3,0
	c-0.2,0-0.4,0.1-0.5,0.2c-0.1,0.1-0.2,0.3-0.2,0.5s0.1,0.4,0.2,0.5s0.3,0.2,0.5,0.2s0.3,0,0.4-0.1c0.1-0.1,0.2-0.1,0.3-0.2
	C32.7,43.1,32.7,43,32.7,42.9 M33.6,42.9c0,0.3-0.1,0.5-0.2,0.7c-0.1,0.2-0.3,0.4-0.5,0.5s-0.5,0.2-0.9,0.2c-0.3,0-0.6-0.1-0.9-0.2
	c-0.2-0.1-0.4-0.3-0.5-0.5s-0.2-0.4-0.2-0.7c0-0.2,0.1-0.5,0.2-0.7s0.3-0.4,0.5-0.5s0.5-0.2,0.9-0.2c0.3,0,0.5,0,0.7,0.1
	c0.2,0.1,0.4,0.2,0.5,0.3s0.2,0.3,0.3,0.5C33.5,42.5,33.6,42.7,33.6,42.9"/>
<polygon class="st0" points="36.2,44.3 34.1,44.3 34.1,41.5 34.9,41.5 34.9,43.6 36.2,43.6 "/>
<path class="st0" d="M38.7,42.9c0-0.2,0-0.4-0.1-0.5s-0.2-0.2-0.3-0.2s-0.2-0.1-0.4-0.1h-0.4v1.7h0.4c0.2,0,0.4,0,0.6-0.2
	C38.6,43.4,38.7,43.2,38.7,42.9 M39.6,42.9c0,0.3,0,0.5-0.2,0.7c-0.1,0.2-0.2,0.3-0.4,0.4c-0.2,0.2-0.5,0.2-0.8,0.2l0,0h-1.5v-2.8
	h1.2c0.2,0,0.3,0,0.5,0c0.1,0,0.2,0,0.3,0.1c0.1,0,0.2,0.1,0.3,0.1s0.1,0.1,0.2,0.1c0.1,0.1,0.2,0.2,0.3,0.3s0.1,0.2,0.2,0.4
	C39.5,42.6,39.6,42.8,39.6,42.9"/>
<path class="st0" d="M42.8,42.4c0-0.1,0-0.2-0.1-0.3c-0.1,0-0.2-0.1-0.4-0.1h-0.2v0.7h0.2c0.1,0,0.3,0,0.3,0c0.1,0,0.1,0,0.2-0.1
	C42.8,42.5,42.8,42.5,42.8,42.4 M43.7,42.4c0,0.1,0,0.2,0,0.3s-0.1,0.2-0.2,0.3s-0.2,0.2-0.3,0.2c-0.1,0.1-0.3,0.1-0.5,0.1h-0.5v1
	h-0.8v-2.8h1.4c0.2,0,0.3,0,0.5,0.1c0.1,0.1,0.2,0.1,0.3,0.2c0.1,0.1,0.1,0.2,0.2,0.3C43.7,42.2,43.7,42.3,43.7,42.4"/>
<path class="st0" d="M45.6,43.2l-0.4-1l-0.4,1H45.6z M46.9,44.3H46l-0.2-0.6h-1.2l-0.2,0.6h-0.9l1.2-2.8h0.9L46.9,44.3z"/>
<polygon class="st0" points="49.5,42.2 48.5,42.2 48.5,44.3 47.6,44.3 47.6,42.2 46.6,42.2 46.6,41.5 49.5,41.5 "/>
<path class="st0" d="M51.4,43.2l-0.4-1l-0.4,1H51.4z M52.7,44.3h-0.9l-0.2-0.6h-1.2l-0.2,0.6h-0.9l1.2-2.8h0.9L52.7,44.3z"/>
<path class="st0" d="M55.5,44.1c-0.1,0-0.1,0-0.2,0.1h-0.1c0,0-0.1,0-0.2,0.1c-0.1,0-0.2,0.1-0.4,0.1c-0.1,0-0.3,0-0.4,0
	c-0.3,0-0.5,0-0.8-0.1S53,44,52.8,43.8c-0.1-0.2-0.2-0.5-0.2-0.8c0-0.2,0-0.4,0.1-0.6c0.1-0.2,0.2-0.3,0.3-0.5
	c0.1-0.1,0.3-0.2,0.4-0.2c0.1,0,0.3-0.1,0.4-0.1c0.1,0,0.3,0,0.4,0c0.2,0,0.5,0,0.6,0.1c0.2,0,0.3,0.1,0.5,0.2v0.7
	c-0.1-0.1-0.3-0.1-0.4-0.2c-0.1,0-0.3-0.1-0.5-0.1s-0.4,0.1-0.6,0.1c-0.1,0.1-0.2,0.2-0.3,0.3s-0.1,0.3-0.1,0.4c0,0.1,0,0.3,0.1,0.4
	c0.1,0.1,0.2,0.2,0.3,0.3s0.3,0.1,0.5,0.1c0.1,0,0.2,0,0.3,0v-0.3h-0.4V43h1.1v1.1H55.5z"/>
<path class="st0" d="M58.3,42.9c0-0.1,0-0.2,0-0.3s-0.1-0.2-0.1-0.2c-0.1-0.1-0.1-0.1-0.2-0.1c-0.1,0-0.2,0-0.3,0
	c-0.2,0-0.4,0.1-0.5,0.2C57.2,42.6,57,42.8,57,43s0.1,0.4,0.2,0.5c0.1,0.1,0.3,0.2,0.5,0.2s0.3,0,0.4-0.1c0.1-0.1,0.2-0.1,0.3-0.2
	C58.3,43.1,58.3,43,58.3,42.9 M59.3,42.9c0,0.3-0.1,0.5-0.2,0.7c-0.1,0.2-0.3,0.4-0.5,0.5s-0.5,0.2-0.9,0.2c-0.3,0-0.6-0.1-0.9-0.2
	c-0.2-0.1-0.4-0.3-0.5-0.5S56,43.2,56,42.9c0-0.2,0.1-0.5,0.2-0.7c0.1-0.2,0.3-0.4,0.5-0.5s0.5-0.2,0.9-0.2c0.3,0,0.5,0,0.7,0.1
	s0.4,0.2,0.5,0.3s0.2,0.3,0.3,0.5C59.2,42.5,59.3,42.7,59.3,42.9"/>
<polygon class="st0" points="62.7,44.3 62,44.3 60.5,42.7 60.5,44.3 59.7,44.3 59.7,41.5 60.5,41.5 61.8,43 61.8,41.5 62.7,41.5 "/>
<rect x="63.5" y="41.5" class="st0" width="0.8" height="2.8"/>
<path class="st0" d="M66.8,43.2l-0.4-1l-0.4,1H66.8z M67.9,44.3H67l-0.2-0.6h-1.2l-0.2,0.6h-0.9l1.2-2.8h0.9L67.9,44.3z"/>
<polygon class="st0" points="71.3,44.3 70.6,44.3 69.1,42.7 69.1,44.3 68.3,44.3 68.3,41.5 69.1,41.5 70.5,43 70.5,41.5 71.3,41.5 
	"/>
<polygon class="st0" points="75.4,44.3 73.3,44.3 73.3,41.5 75.3,41.5 75.3,42 74.1,42 74.1,42.6 75.3,42.6 75.3,43.1 74.1,43.1 
	74.1,43.7 75.4,43.7 "/>
<path class="st0" d="M79.1,44.3H78L77.7,44c0,0-0.1-0.1-0.2-0.2c-0.1-0.1-0.2-0.2-0.2-0.3c-0.2,0.2-0.3,0.4-0.4,0.5l-0.3,0.3h-1.1
	l1.2-1.4l-1.1-1.3h1.1l0.2,0.1c0.1,0.1,0.2,0.3,0.4,0.5c0.1-0.2,0.3-0.4,0.4-0.5l0.2-0.3H79l-1.1,1.3L79.1,44.3z"/>
<path class="st0" d="M81,42.4c0-0.1,0-0.2-0.1-0.3c-0.1,0-0.2-0.1-0.4-0.1h-0.2v0.7h0.2c0.1,0,0.3,0,0.3,0c0.1,0,0.1,0,0.2-0.1
	C81,42.5,81,42.5,81,42.4 M81.8,42.4c0,0.1,0,0.2,0,0.3s-0.1,0.2-0.2,0.3s-0.2,0.2-0.3,0.2c-0.1,0.1-0.3,0.1-0.5,0.1h-0.5v1h-0.8
	v-2.8h1.4c0.2,0,0.3,0,0.5,0.1c0.1,0.1,0.2,0.1,0.3,0.2s0.1,0.2,0.2,0.3C81.8,42.2,81.8,42.3,81.8,42.4"/>
<path class="st0" d="M83.9,42.4c0-0.1,0-0.2-0.1-0.3c-0.1,0-0.2-0.1-0.4-0.1h-0.2v0.7h0.2c0.2,0,0.4,0,0.4-0.1
	C83.8,42.6,83.9,42.5,83.9,42.4 M85,44.3h-0.9l-0.2-0.5c-0.1-0.2-0.1-0.3-0.2-0.4c-0.1-0.1-0.1-0.1-0.2-0.2c-0.1,0-0.1,0-0.2,0h-0.1
	v1.1h-0.9v-2.8h1.4c0.2,0,0.4,0.1,0.6,0.1c0.2,0.1,0.3,0.2,0.3,0.3c0.1,0.1,0.1,0.3,0.1,0.4c0,0.1,0,0.3-0.1,0.4
	c0,0.1-0.1,0.2-0.2,0.2C84.3,43,84.3,43,84.2,43c0.1,0.1,0.2,0.1,0.2,0.2c0.1,0.1,0.1,0.2,0.2,0.4L85,44.3z"/>
<polygon class="st0" points="87.5,44.3 85.4,44.3 85.4,41.5 87.4,41.5 87.4,42 86.2,42 86.2,42.6 87.4,42.6 87.4,43.1 86.2,43.1 
	86.2,43.7 87.5,43.7 "/>
<path class="st0" d="M90,43.5c0,0.2,0,0.3-0.1,0.5c-0.1,0.1-0.2,0.2-0.4,0.3s-0.3,0.1-0.5,0.1c-0.1,0-0.1,0-0.2,0s-0.2,0-0.3-0.1
	c-0.1,0-0.3-0.1-0.4-0.1v-0.8c0.1,0.1,0.3,0.2,0.4,0.2c0.1,0.1,0.3,0.1,0.4,0.1s0.2,0,0.3-0.1l0.1-0.1c0-0.1,0-0.1-0.1-0.2
	c-0.1,0-0.2-0.1-0.3-0.2s-0.3-0.1-0.4-0.2c-0.1-0.1-0.2-0.2-0.3-0.3c-0.1-0.1-0.1-0.2-0.1-0.4c0-0.1,0-0.3,0.1-0.4
	c0.1-0.1,0.2-0.2,0.3-0.3c0.2-0.1,0.3-0.1,0.6-0.1c0.2,0,0.3,0,0.4,0.1s0.2,0.1,0.3,0.1c0.1,0,0.2,0.1,0.2,0.1v0.7
	c-0.1-0.1-0.2-0.1-0.4-0.2c-0.1-0.1-0.3-0.1-0.4-0.1s-0.2,0-0.2,0.1s-0.1,0.1-0.1,0.2c0,0.1,0,0.1,0.1,0.1s0.1,0.1,0.3,0.2
	c0.2,0.1,0.4,0.2,0.5,0.3s0.2,0.2,0.3,0.3C89.9,43.2,90,43.3,90,43.5"/>
<path class="st0" d="M92.5,43.5c0,0.2,0,0.3-0.1,0.5c-0.1,0.1-0.2,0.2-0.4,0.3s-0.3,0.1-0.5,0.1c-0.1,0-0.1,0-0.2,0s-0.2,0-0.3-0.1
	c-0.1,0-0.3-0.1-0.4-0.1v-0.8c0.1,0.1,0.3,0.2,0.4,0.2c0.1,0.1,0.3,0.1,0.4,0.1s0.2,0,0.3-0.1l0.1-0.1c0-0.1,0-0.1-0.1-0.2
	c-0.1,0-0.2-0.1-0.3-0.2C91.3,43,91.1,43,91,42.9c-0.1-0.1-0.2-0.2-0.3-0.3c-0.1-0.1-0.1-0.2-0.1-0.4c0-0.1,0-0.3,0.1-0.4
	c0.1-0.1,0.2-0.2,0.3-0.3c0.2-0.1,0.3-0.1,0.6-0.1c0.2,0,0.3,0,0.4,0.1c0.1,0,0.2,0.1,0.3,0.1c0.1,0,0.2,0.1,0.2,0.1v0.7
	c-0.1-0.1-0.2-0.1-0.4-0.2c-0.1-0.1-0.3-0.1-0.4-0.1s-0.2,0-0.2,0.1s-0.1,0.1-0.1,0.2c0,0.1,0,0.1,0.1,0.1s0.1,0.1,0.3,0.2
	c0.2,0.1,0.4,0.2,0.5,0.3s0.2,0.2,0.3,0.3C92.5,43.2,92.5,43.3,92.5,43.5"/>
<path class="st0" d="M102.8,26.8c-1,0-1.8-0.8-1.8-1.8s0.8-1.8,1.8-1.8s1.8,0.8,1.8,1.8C104.6,26,103.8,26.8,102.8,26.8 M93.7,33
	c-0.4,0-0.9,0-1.6,0c-2.8,0-4.5-2.1-5.5-2.1c-0.9,0-1,0.3-1,0.7c0,0.4,0.5,0.7,0.5,1.3c0,0.6-0.7,1.1-1.4,1.1s-1.5-0.2-1.5-1.2
	c0-0.9,0.4-1.5-0.5-1.5c-0.6,0-0.9,0.3-0.9,1s-1.1,0.9-2.4,0.9s-2.7,0-2.7-0.7v-2.1H75V32c0,1-1,2-2.4,2c-2.1,0-1.9-1.4-3.6-1.4
	c-1.8,0-1.5,1.5-3.4,1.5c-2,0-1.7-1.6-3.5-1.6c-2.2,0-1.5,1.6-3.9,1.6c-2.2,0-1.5-1.5-3.7-1.5c-1.8,0-1.5,1.3-3.3,1.3
	c-2,0-2.6-1.2-2.6-1.9h-5.3c0,0,0.5-1.5-0.3-1.5c-1,0-0.9,0-0.9,0.3s0.7,0.1,0.7,1.4c0,0.5-0.4,1.5-1.8,1.5c-1,0-1.9-0.6-1.9-1.4
	c0-1.1,0.3-0.9,0.6-1.6c-0.3,0.6-1.3,0.8-2.7,0.8c-0.2,0-0.3-0.4-0.3-0.9s0.7-0.7,0.7-1.2s-0.5-0.5-0.8-0.8v-7.5
	c0-2.6-4.8-3.9-4.8-3.9s-0.6-0.2-0.6-1.5h16.5c1.3,0,1.7,0.4,1.7,1.1s-1.8,1.6-1.8,1.9v1.4h1.2c0-0.3,0.1-1.7,0.9-1.7
	c0.8,0,0.9,1.7,0.9,1.7h12.3v-2.3c0-1.3,0.8-2.4,2.5-2.4c1.7,0,2.5,1.3,2.5,2.4v2.3h3.4v-2.2c0-1.9,1.4-2.3,2.7-2.3
	c1.5,0,2.4,1.1,2.4,1.8v2.8h2.3v-3.6l-0.5-0.3v-0.9h4.1v0.9l-0.5,0.3v3.6h1.9c1.2,0,2.3,2.2,2.3,4c0,3.2-2.4,4.4-2.4,4.4
	s0,1.1,1.1,1.1h5.8c1.3,1,2.3,2.2,3.8,2.8L93.7,33z M20.1,26.8c-1,0-1.8-0.8-1.8-1.8s0.8-1.8,1.8-1.8s1.8,0.8,1.8,1.8
	S21.1,26.8,20.1,26.8 M101.3,11.2H21.6c-7.7,0-13.9,6.2-13.9,13.9s6.2,13.9,13.9,13.9h79.7c7.7,0,13.9-6.2,13.9-13.9
	S109,11.2,101.3,11.2"/>
<rect x="38.8" y="19.5" class="st0" width="3.9" height="2.3"/>
</svg>
