<?xml version="1.0" encoding="utf-8"?>
<!-- Generator: Adobe Illustrator 24.2.0, SVG Export Plug-In . SVG Version: 6.00 Build 0)  -->
<svg version="1.1" id="Layer_1" xmlns="http://www.w3.org/2000/svg" xmlns:xlink="http://www.w3.org/1999/xlink" x="0px" y="0px"
	 viewBox="0 0 500 500" style="enable-background:new 0 0 500 500;" xml:space="preserve">
<style type="text/css">
	.st0{fill:#777777;}
</style>
<path class="st0" d="M223.6,244.6c-7.4,1.1-13.2,7.4-13.2,14.8c0,6.9,5.8,12.1,13.2,11.6c7.4-0.5,13.2-7.4,13.2-14.2
	C236.8,249.3,231,244,223.6,244.6"/>
<path class="st0" d="M383.4,261.4c0,0.5-0.5,1-1,1.6l-24.8,2.6c-0.5,0-1-0.5-1-1v-43.2c0-0.5,0.5-1.1,1-1.6l7.9-1.1
	c0.5,0,1,0.5,1,1.1v34.8l15.8-1.6c0.5,0,1,0.5,1,1.1V261.4z M342.2,230.4c0,0.5-0.5,1.1-1,1.6l-17.9,2.1v7.9l14.8-1.6
	c0.5,0,1,0.5,1,1.1v6.9c0,0.5-0.5,1.6-1,1.6l-14.8,1.6v9l18.5-2.1c0.5,0,1,0.5,1,1v7.4c0,0.5-0.5,1-1,1.6l-27.4,3.2
	c-0.5,0-1-0.5-1-1v-43.2c0-0.5,0.5-1.1,1-1.6l27.4-3.2c0.5,0,1,0.5,1,1.1v6.9L342.2,230.4L342.2,230.4z M296.9,255.1
	c0,10-8.4,19-19,20c-10.5,1-18.5-6.3-18.5-15.8v-26.9c0-0.5,0.5-1.1,1-1.6l7.9-1.1c0.5,0,1,0.5,1,1.1v26.3c0,4.7,3.7,7.9,7.9,7.4
	c4.8-0.5,8.4-4.7,8.4-8.9v-26.3c0-0.5,0.5-1.1,1-1.6l7.9-1.1c0.5,0,1,0.5,1,1.1v27.4L296.9,255.1L296.9,255.1z M241,285.1
	c0.5,1,0,2.1-1.1,2.1l-9,1c-0.5,0-1.1,0-1.1-0.5l-4.2-6.9c-0.5,0-1.6,0.5-2.1,0.5c-13.2,1.6-23.7-7.9-23.7-20.5
	c0-13.2,10.6-24.8,23.7-25.8c13.2-1.6,23.7,7.9,23.7,21.1c0,8.4-4.8,16.9-12.1,21.6L241,285.1z M175.1,286.7
	c-8.4,1-13.2-2.1-14.8-3.2c-0.5-0.5-1.1-0.5-0.5-1.6l3.2-5.8c0.5-1,1.6-1,2.1-0.5c0.5,0,5.3,3.2,9.5,2.6c2.6-0.5,4.8-2.1,4.8-4.2
	c0-2.6-2.1-4.7-6.9-5.8c-5.8-1.6-12.7-5.3-12.7-13.2c0-6.3,5.3-13.7,15.3-14.8c6.9-0.5,12.1,2.1,14.2,3.2c1.1,0.5,0.5,1.6,0.5,2.1
	l-3.2,5.3c-0.5,0.5-1.6,1.6-2.1,1.1c-0.5,0-5.3-3.2-9.5-2.6c-2.1,0.5-4.2,2.1-4.2,3.7c0,2.6,2.1,4.2,7.4,5.8
	c5.3,1.6,13.2,4.7,13.2,13.2C190.4,278.3,184.6,285.6,175.1,286.7 M148.7,251.4c0,0.5-0.5,1.1-1.1,1.6l-17.9,2.1v7.9l14.8-1.6
	c0.5,0,1.1,0.5,1.1,1v6.9c0,0.5-0.5,1.6-1.1,1.6l-14.8,1.6v9l18.5-2.1c0.5,0,1.1,0.5,1.1,1v6.9c0,0.5-0.5,1-1.1,1.6l-27.4,3.2
	c-0.5,0-1.1-0.5-1.1-1v-43.2c0-0.5,0.5-1.1,1.1-1.6l27.4-3.2c0.5,0,1.1,0.5,1.1,1.1v7.4H148.7z M219.9,180.3c0-0.5,1.1-0.5,1.6-0.5
	c2.1,0,4.2,0,5.8,0c2.6,0,3.7-1.1,5.8-2.6s5.3-3.2,5.3-4.2s-2.6-1.6-2.6-3.7c0-0.5,0-0.5,1.6-0.5s1.1-1.1,4.2-1.1
	c2.6,0,6.3,2.6,6.3,3.2c0,1.1-1.1,1.1-2.1,1.1c-0.5,0-1.6,0-1.6,0.5s2.1,2.1,3.7,2.1s1.6,1.1,1.6,2.1v44.8l-30.6,3.7
	C219.4,212.4,219.9,181.9,219.9,180.3 M262.1,177.7c0-0.5-0.5-0.5-0.5-1.6c0-2.1,4.2-2.6,5.8-2.6s4.2,0,7.4,0.5
	c2.6,0.5,3.7,2.6,3.7,8.4c0,4.7,0.5,27.4,0.5,35.8l-22.1,2.6V183C257.3,176.6,262.1,178.2,262.1,177.7 M284.8,217.2
	c0-6.9-0.5-24.2-0.5-34.8c0-12.1,4.2-10.5,12.1-12.6c1,0,1.6,0,1.6-1.1c0-6.9,8.4-5.3,8.4-7.4s-6.3-7.4-6.3-12.6
	c0-3.7,3.2-4.2,3.2-6.9c0-2.1-0.5-2.6-2.1-4.7s-2.6-4.2-3.2-7.4c-0.5-2.1-2.1-5.8-2.1-10c0-4.7-3.2-8.9-5.3-11.1
	c-2.1-2.6-2.6-6.3-2.6-7.4s0-2.6,0-3.2c0-2.1-4.2-8.9-5.8-10.5c-1,0-1,2.6-2.6,7.9c-0.5,2.6-3.2,4.7-3.2,4.7l-0.5-1.1
	c-0.5-1.1-1.6-2.6-1.6-5.8c0-4.2-1-5.3-1.6-6.8c-0.5-1.1-2.6-2.1-3.7-3.7c-1-1.1-3.7-3.2-3.7-3.7s0.5-1.1,0.5-1.6
	c0-2.1-1-3.2-2.1-4.7c-0.5-1.1-5.8-6.3-6.9-7.9c-0.5,0,0,0-1.6,2.1s-1.6,2.1-3.2,4.2c-1.1,2.1-1.6,2.6-2.6,3.7s-1.1,1.6-1.1,3.2
	c0,1.1,1.1,2.1,0,3.2c-5.3,5.3-4.2,14.2-6.9,17.4c-1.1,1.6-1.1,4.7-2.1,6.3c-1.6,3.2-2.1,8.4-2.6,8.9c-0.5,0-5.3-6.3-6.3-7.9
	s-1.6-2.1-2.1-3.7c-0.5-2.1-3.7-5.8-4.8-7.9c-1.1-2.1-1.6-3.2-1.6-3.2s-1.1,1.1-2.1,2.6c-1.1,1.6-1.6,4.2-4.8,12.6
	c-3.2,8.4-3.2,7.4-6.9,11.1c-3.2,3.2-1.6,8.9-1.6,11.6c0,3.7-4.8,5.3-5.8,6.3s-0.5,2.1-0.5,4.2c0,4.2-3.7,7.4-3.7,10
	s-0.5,10.5-2.1,12.1c-2.1,2.1-4.8,1.1-4.8,2.6c0,2.6,10.6,5.3,10.6,7.9s-3.7,3.7-3.7,4.2s4.8,2.6,5.3,2.6c4.8,0,13.7,2.6,13.7,7.9
	c0,2.1,0.5,29,0.5,39.5l-106,11.6v71.6l283.2-32.1v-70.6L284.8,217.2z"/>
<path class="st0" d="M294.2,348.3c0,0.5-0.5,1-0.5,2.1c-0.5,1,0,2.1,0,3.2c0,0.5,0.5,0.5,0.5,1.6c0,0.5-1,1.6-1,2.1
	c-1.6-2.1-3.7,1-4.8,2.1c0-2.1,0-3.7-2.1-5.3c-1-1-3.2-2.1-3.2-3.7c0-1.6,0-2.6-0.5-4.2c0-0.5-0.5-1-0.5-2.1s-0.5-3.2-0.5-4.2
	c1.6,0,2.1,0,3.2,0.5c1.6,1,2.6,0.5,4.2,1c1,0,2.1,1.6,3.2,1c0.5-0.5,0.5-1.6,1-2.1c3.2,2.1,3.2,6.3,3.7,9.5
	C295.3,348.8,294.8,348.8,294.2,348.3 M261,336.7c0,3.2-2.1,11.1-2.6,13.2s-4.8,14.2-6.3,15.8c0,0-2.1-5.3-4.2-6.9
	c-2.1-2.1-1.6-1-2.6-4.2c-1.1-3.7-1.1-4.2-3.2-6.3c-2.1-1.6-2.1-6.3-0.5-13.2s-1.1-6.3-0.5-8.4c0,0,1.6-2.6,2.6-3.7
	c0,0,2.1,5.3,3.7,6.3c0,0-0.5-10,2.1-12.6s4.2-3.2,4.2-3.2l1.6,1c0,0,1.1-1.6,1.1-3.2c0-1.6,2.1,2.1,2.1,3.2c0,1,0.5,9,0.5,9.5
	s1.6,0.5,2.1,0.5s1,1.6,1,1.6S261,333.6,261,336.7 M233.1,367.8c-1.1,3.2,0,6.9,0,6.9s-13.7-15.3-14.8-19c-1.1-3.7-1.6-5.8,0-5.3
	c2.1,0.5,2.1-2.1,2.1-2.1l-3.2-21.6c0,0-2.1-0.5-3.2,0s1.6-3.7,4.8-5.3c1.6,4.2,2.1,7.9,2.6,12.1c0,2.1,1.6,2.6,3.2,2.6
	s3.7,0,4.8,1.6c2.6,2.6,1.6,7.4,2.1,10c0,1,3.2,9,3.2,9S233.6,364.1,233.1,367.8 M320.6,348.3c0,0,0,0,0-0.5
	c-5.3-1.6-13.2-5.3-14.2-6.3c-2.1-2.1-3.2-4.7-9-4.7c-6.3,0-16.4,0.5-20-4.2s-5.8-15.3-11.6-17.9c-5.8-2.6-5.8-8.4-7.4-8.4
	s-4.8,0.5-6.3,1.6c-1.1,1-3.2,3.2-4.8,3.2c-1.1,0.5-3.7,4.2-5.8,7.4s-6.3,7.4-6.3,7.4s-6.3-6.3-10-7.9c-3.2-1.6-3.7-0.5-4.8-2.1
	s-7.4,8.4-8.4,10c-1.1,1.6-4.2,5.3-7.4,5.8c-3.2,0.5-7.4,4.2-10.6,4.7c-3.2,0.5-7.4,0.5-8.4,2.1c-1.1,1.6-5.8,3.7-5.8,3.7l-5.3,2.6
	c0.5,0.5,1.1,1,2.1,2.1c20.6,20.5,44.8,37.4,72.2,49.5c0,0,0.5,0,1.6,0.5c1.1,0,1.6,0,1.6,0C277.4,383.6,300.6,367.8,320.6,348.3"/>
<path class="st0" d="M189.8,145.6l-7.4,1.1c-1.1,0.5-2.6,1.1-3.7,1.6c3.7-0.5,7.4-0.5,10.6-1.1C189.8,146.1,189.8,146.1,189.8,145.6
	"/>
<path class="st0" d="M189.3,151.4l-22.7,2.6c-0.5,0.5-1.6,1.1-2.1,1.1c8.4-1.1,16.9-1.6,24.8-2.6
	C189.3,152.4,189.3,151.9,189.3,151.4"/>
<path class="st0" d="M309.5,144h-2.1c0,0.5,0,0.5-0.5,1.1c1.6,0,3.2-0.5,4.8-0.5C311.1,144.5,310.1,144,309.5,144"/>
<path class="st0" d="M185.1,157.7l-29.5,3.2c-0.5,0.5-1.1,1.1-1.6,1.1c10-1.1,19.5-2.1,29.5-3.2C184,158.2,184.6,158.2,185.1,157.7"
	/>
<path class="st0" d="M323.2,149.3c-0.5,0-1-0.5-1.6-0.5l-16.4,1.6c0,0.5,0.5,0.5,0.5,1.1C311.6,150.3,317.4,149.8,323.2,149.3"/>
<path class="st0" d="M182.4,164l-33.2,3.7c0,0.5-0.5,0.5-0.5,1.1c11.6-1.1,22.7-2.6,33.8-3.7C182.4,164.5,182.4,164,182.4,164"/>
<path class="st0" d="M322.7,342.5l4.8-0.5c0.5-0.5,0.5-0.5,1-1c-2.6,0.5-5.3,0.5-7.9,1c0.5,0,1,0.5,1.6,0.5H322.7z"/>
<path class="st0" d="M185.6,169.3l-38,4.2c0,0.5,0,0.5,0,1.1c13.2-1.6,26.4-2.6,39.6-4.2C186.1,169.8,186.1,169.3,185.6,169.3"/>
<path class="st0" d="M309.5,156.6c7.9-1.1,15.3-1.6,23.2-2.6c-0.5,0-1-0.5-1.6-1.1l-22.1,2.6C309,155.6,309.5,156.1,309.5,156.6"/>
<path class="st0" d="M188.8,175.1L188.8,175.1l-41.7,4.7c0,0.5,0,0.5,0,1.1c14.2-1.6,27.9-3.2,42.2-4.7
	C188.8,175.1,188.8,175.1,188.8,175.1"/>
<path class="st0" d="M311.1,161.4v0.5c10-1.1,19.5-2.1,29.5-3.2c-0.5-0.5-1-0.5-1-1.1l-28,3.2C311.1,161.4,311.1,161.4,311.1,161.4"
	/>
<path class="st0" d="M332.7,335.7c0.5-0.5,0.5-0.5,1-1c-7.9,1-15.8,2.1-23.7,2.6c0.5,0,1,0.5,1.6,1L332.7,335.7z"/>
<path class="st0" d="M191.9,179.8l-44.8,5.3c0,0.5,0,0.5,0,1.1c15.3-1.6,31.1-3.2,46.4-5.3C193,180.8,192.5,180.3,191.9,179.8"/>
<path class="st0" d="M346.4,162.9l-39,4.2c-1,0.5-2.1,1.1-2.6,1.1c-0.5,0-1,0.5-1.6,0.5l0,0c14.8-1.6,29.5-3.2,44.3-4.7
	C347,163.5,346.4,162.9,346.4,162.9"/>
<path class="st0" d="M337.5,329.4c0.5-0.5,0.5-0.5,0.5-1c-11.6,1.6-23.2,2.6-34.8,4.2c0.5,0.5,1,0.5,1.6,1L337.5,329.4z"/>
<path class="st0" d="M205.6,184l-58.5,6.3c0,0.5,0,0.5,0,1.1c20-2.1,40.1-4.2,60.1-6.9C206.7,184.5,206.2,184.5,205.6,184"/>
<path class="st0" d="M244.1,179.8l-5.8,0.5c0,0-0.5,0-0.5,0.5c-0.5,0.5-1.1,0.5-1.6,1.1c2.6-0.5,5.3-0.5,7.9-1.1
	C244.1,180.8,244.1,179.8,244.1,179.8z"/>
<path class="st0" d="M350.7,168.2l-50.1,5.8c-0.5,0.5-1,1.1-2.1,1.1c17.4-2.1,35.3-3.7,52.7-5.8
	C351.2,168.7,351.2,168.2,350.7,168.2"/>
<path class="st0" d="M282.1,329.9l59.1-6.9c0-0.5,0.5-0.5,0.5-1c-20,2.1-40.6,4.7-60.6,6.9l0,0C281.1,329.4,281.6,329.9,282.1,329.9
	"/>
<path class="st0" d="M244.1,185.6l-19,2.1c0,0.5,0,0.5,0,1.1c6.3-0.5,12.7-1.6,19-2.1V185.6z"/>
<path class="st0" d="M272.6,182.4l-10,1.1v1.1c3.2-0.5,6.9-0.5,10-1.1V182.4"/>
<path class="st0" d="M352.3,174l-62.2,6.9c0,0.5,0,0.5,0,1.1c21.1-2.1,41.7-4.7,62.8-6.9C352.3,174.5,352.3,174,352.3,174"/>
<path class="st0" d="M207.8,189.8l-61.2,6.9c0,0.5,0,0.5,0,1.1c20.6-2.1,40.6-4.7,61.2-6.9C207.8,190.3,207.8,189.8,207.8,189.8"/>
<path class="st0" d="M178.8,335.1c-3.7,0.5-7.9,1-11.6,1.6c0.5,0.5,0.5,0.5,1.1,1l9-1l0,0C177.7,335.7,178.2,335.1,178.8,335.1"/>
<path class="st0" d="M344.3,317.2c0-0.5,0.5-0.5,0.5-1c-22.1,2.6-44.3,5.3-66.4,7.9c0,0.5,0.5,0.5,0.5,1L344.3,317.2z"/>
<path class="st0" d="M272.6,188.2l-7.9,1.1l-2.1,0.5v1.1c3.2-0.5,6.9-0.5,10-1.1C272.6,188.7,272.6,188.7,272.6,188.2"/>
<path class="st0" d="M289.5,187.7c21.1-2.1,41.7-4.7,62.8-6.9c0-0.5,0-0.5,0-1.1l-62.8,6.9C289.5,186.6,289.5,187.2,289.5,187.7"/>
<path class="st0" d="M244.1,191.4l-19,2.1c0,0.5,0,0.5,0,1.1c6.3-0.5,12.7-1.6,19-2.1V191.4z"/>
<path class="st0" d="M207.8,195.6l-61.2,6.9c0,0.5,0,0.5,0,1.1c20.6-2.1,41.1-4.7,61.2-6.9C207.8,196.1,207.8,195.6,207.8,195.6"/>
<path class="st0" d="M346.4,310.9c0-0.5,0.5-0.5,0.5-1c-23.7,2.6-48,5.3-71.7,8.4c0,0.5,0.5,0.5,0.5,1L346.4,310.9z"/>
<path class="st0" d="M198.3,327.2l-35.3,4.2c0,0.5,0.5,0.5,0.5,1l32.2-3.7h0.5C197.2,327.8,197.7,327.2,198.3,327.2"/>
<path class="st0" d="M273.1,194l-10,1.1v1.1c3.2-0.5,6.9-0.5,10-1.1C273.1,194.5,273.1,194.5,273.1,194"/>
<path class="st0" d="M290,193c21.1-2.1,41.7-4.7,62.8-6.9c0-0.5,0-0.5,0-1.1l-62.8,6.9C289.5,192.4,289.5,193,290,193"/>
<path class="st0" d="M244.1,197.2l-19,2.1c0,0.5,0,0.5,0,1.1c6.3-0.5,12.7-1.6,19-2.1V197.2z"/>
<path class="st0" d="M208.3,201.4l-55.9,6.3l-5.3,0.5c0,0.5,0,0.5,0,1.1c20.6-2.1,41.1-4.7,61.7-6.9
	C208.3,201.9,208.3,201.4,208.3,201.4"/>
<path class="st0" d="M207.2,320.4c-15.8,2.1-31.6,3.7-48,5.3c0,0.5,0.5,0.5,0.5,1l46.4-5.3c0,0,0,0,0.5-0.5
	C207.2,320.4,207.2,320.4,207.2,320.4"/>
<path class="st0" d="M233.6,317.8l0.5-0.5c-0.5,0-1.1,0-1.6,0C233.6,317.2,233.6,317.8,233.6,317.8"/>
<path class="st0" d="M348.5,305.1c0-0.5,0-0.5,0.5-1c-25.8,3.2-51.7,5.8-77,9c0.5,0.5,0.5,0.5,1,1L348.5,305.1z"/>
<path class="st0" d="M156.6,320.4c0,0.5,0.5,0.5,0.5,1l21.1-2.1c0-0.5-0.5-0.5-0.5-1L156.6,320.4z"/>
<path class="st0" d="M227.8,313l10.6-1c0.5-0.5,0.5-0.5,0.5-1l-12.7,1.6c0.5,0,0.5,0,0.5,0.5C227.3,313,227.3,313,227.8,313"/>
<path class="st0" d="M265.8,308.8l84.4-9.5c0-0.5,0-0.5,0-1c-28.5,3.2-57,6.3-85.4,10C265.2,308.3,265.8,308.3,265.8,308.8"/>
<path class="st0" d="M177.7,317.8c0,0.5,0.5,0.5,0.5,1l33.2-3.7c0.5-0.5,0.5-0.5,1.1-1L177.7,317.8z"/>
<path class="st0" d="M208.3,207.2l-61.7,6.9c0,0.5,0,0.5,0,1.1c20.6-2.1,41.1-4.7,61.7-6.9V207.2z"/>
<path class="st0" d="M290,198.8l62.8-6.9c0-0.5,0-0.5,0-1.1l-62.8,6.9C290,198.2,290,198.8,290,198.8"/>
<path class="st0" d="M273.1,199.8l-4.8,0.5l-5.3,0.5v1.1c3.2-0.5,6.9-0.5,10-1.1C273.1,200.3,273.1,200.3,273.1,199.8"/>
<path class="st0" d="M244.1,203l-19,2.1c0,0.5,0,0.5,0,1.1c6.3-0.5,12.7-1.6,19-2.1V203z"/>
<path class="st0" d="M246.3,304.1c-30.6,3.7-61.2,6.9-91.8,10.5c0,0.5,0.5,0.5,0.5,1l90.2-10c0.5-0.5,1.1-0.5,1.1-1
	C245.7,304.1,246.3,304.1,246.3,304.1"/>
<path class="st0" d="M262.6,303.5l88.6-10c0-0.5,0-0.5,0-1c-30.1,3.7-59.6,6.9-89.6,10.5C262.1,302.5,262.6,303,262.6,303.5"/>
<path class="st0" d="M244.1,208.8l-19,2.1c0,0.5,0,0.5,0,1.1c6.3-0.5,12.7-1.6,19-2.1V208.8z"/>
<path class="st0" d="M273.1,205.6l-10,1.1v1.1c3.2-0.5,6.9-0.5,10-1.1C273.1,206.1,273.1,206.1,273.1,205.6"/>
<path class="st0" d="M290,204.5c21.1-2.1,41.7-4.7,62.8-6.9c0-0.5,0-0.5,0-1.1l-62.8,6.9C290,204,290,204.5,290,204.5"/>
<path class="st0" d="M208.3,213l-61.7,6.9v1.1c20.6-2.1,41.1-4.7,61.7-6.9C208.3,213.5,208.3,213,208.3,213"/>
<path class="st0" d="M290,209.3c0,0.5,0,0.5,0,1.1c21.1-2.1,41.7-4.7,62.8-6.9c0-0.5,0-0.5,0-1.1l-25.8,3.2L290,209.3z"/>
<path class="st0" d="M208.3,218.2l-61.7,6.9v1.1c20.6-2.1,41.1-4.7,61.7-6.9C208.3,219.3,208.3,218.8,208.3,218.2"/>
<path class="st0" d="M273.1,211.4l-10,1.1v1.1c3.7-0.5,6.9-0.5,10-1.1C273.1,211.9,273.1,211.4,273.1,211.4"/>
<path class="st0" d="M244.1,214.6l-19,2.1c0,0.5,0,0.5,0,1.1c6.3-0.5,12.7-1.6,19-2.1V214.6z"/>
<path class="st0" d="M152.4,310.4l109.7-12.6l90.2-10.5c0-0.5,0-0.5,0-1c-66.4,7.9-133.4,15.3-199.9,22.6
	C152.4,309.3,152.4,309.9,152.4,310.4"/>
<path class="st0" d="M358,285.6c-2.6,25.3-11.6,44.8-28.5,62.1c-21.6,22.1-46.9,39.5-76.5,52.1c-0.5,0.5-2.1,0.5-3.7,0.5
	s-3.2-0.5-3.7-0.5c-29-12.6-54.8-30-76.5-52.1c-11.1-11.1-19-23.7-23.2-37.9l-10,1c4.8,15.8,13.2,30.5,26.4,43.7
	c23.2,23.2,49.6,41.1,79.6,54.2c2.1,1,5.3,1.6,7.9,1.6s5.8-0.5,7.9-1.6c30.1-13.2,56.4-31.1,79.6-54.2c20-20.5,29-43.7,31.6-70
	L358,285.6z"/>
<path class="st0" d="M195.1,130.3c0.5-0.5,1.6-1.1,2.6-1.6c0.5,0,1.1-0.5,1.6-1.1v-0.5c0-0.5,0-1.1,0-1.6
	c-22.1,4.7-41.7,13.2-58,27.4c-5.3,4.2-9.5,12.1-9.5,19c-0.5,14.2-0.5,36.9-1.1,56.9l10-1.1c0-20,0.5-41.6,1.1-55.3
	c0-3.7,3.2-8.9,5.8-11.6c12.7-10.5,27.4-18.4,45.4-23.2C193,135.6,193,132.9,195.1,130.3"/>
<path class="st0" d="M368.1,171.4c0-6.3-4.2-14.8-9.5-19c-16.4-13.7-35.3-22.1-57.5-26.9l0,0c0.5,1.1,0.5,2.1,1,3.7
	c0.5,2.6,1.6,4.2,2.1,5.3c0,0.5,0.5,0.5,0.5,0.5c0.5,0.5,1,1.6,1.6,2.1c17.9,4.7,32.7,12.6,45.4,23.2c3.2,2.6,5.8,7.9,5.8,11.6
	c0.5,8.4,0.5,19.5,0.5,31.1l10-1.1C368.6,190.3,368.1,179.3,368.1,171.4"/>
<path class="st0" d="M374.4,193.5c0,2.6,0,4.7,0,7.4c3.2,0,6.9-0.5,10-1.1c0.5,0,1.6,0,2.1,0C382.8,197.7,378.6,195.6,374.4,193.5"
	/>
<path class="st0" d="M133.4,321.5c-1.1-3.2-2.6-6.3-3.7-10c-1.6,0-3.2,0.5-4.8,0.5c-3.7,0.5-7.4,1-11.1,1
	C119.7,315.7,128.1,319.3,133.4,321.5"/>
<path class="st0" d="M1,229.8c-0.5,0-1-0.5-1-1.1l2.1-20c0-0.5,0.5-1.1,1-0.5l5.3,0.5c0.5,0,1.1,0.5,1.1,1.1L7.9,223l5.8,0.5
	l1.1-11.1c0-0.5,0.5-1.1,1.1-0.5l5.3,0.5c0.5,0,1,0.5,1,1.1l-1,11.1l6.3,0.5l1.6-13.2c0-0.5,0.5-1.1,1-0.5l5.3,0.5
	c0.5,0,1,0.5,1,1.1l-2.1,20c0,0.5-0.5,1.1-1,1.1L1,229.8z"/>
<path class="st0" d="M5.8,193c-0.5,0-0.5-0.5-0.5-1.1v-1.6l23.2-13.2l0,0l-16.9-4.7c-0.5,0-0.5-0.5-0.5-1.1l1.6-5.8
	c0-0.5,0.5-0.5,1.1-0.5l31.6,8.9c0.5,0,0.5,0.5,0.5,1.1v0.5l-0.5,0.5l-23.7,13.2l0,0L39,194c0.5,0,1,0.5,0.5,1.1l-1.6,5.8
	c0,0.5-0.5,0.5-1,0.5L5.8,193z"/>
<path class="st0" d="M28.5,147.7l-3.2,6.3c0,0.5-0.5,0.5-1,0.5l-4.8-2.1c-0.5,0-0.5-0.5-0.5-1.1l9.5-19.5c0-0.5,1-0.5,1-0.5l4.7,2.1
	c0.5,0,0.5,0.5,0.5,1.1l-3.2,6.3l23.7,11.1c0.5,0,0.5,1.1,0.5,1.1l-2.6,5.3c0,0.5-0.5,0.5-1,0.5L28.5,147.7z"/>
<path class="st0" d="M36.4,119.2c-0.5,0-0.5-1.1,0-1.1l11.1-16.8c0.5-0.5,1-0.5,1,0l4.2,3.2c0.5,0.5,0.5,1.1,0.5,1.1l-7.4,11.1
	l5.3,3.2l6.3-8.9c0.5-0.5,1-0.5,1,0l4.2,3.2c0.5,0.5,0.5,1.1,0.5,1.1l-6.3,8.9l5.3,3.7l7.4-11.1c0.5-0.5,1.1-0.5,1.1,0l4.2,3.2
	c0.5,0.5,0.5,1.1,0.5,1.1l-11.1,16.9c-0.5,0.5-1,0.5-1,0.5L36.4,119.2z"/>
<path class="st0" d="M72.2,72.9c0-0.5,0-1.1,0-1.1l0.5-0.5c0,0,0.5-0.5,1.1,0l22.7,7.9l0,0L90.7,56c0-0.5,0-0.5,0.5-1l0.5-0.5
	c0.5,0,1.1-0.5,1.1,0L119.2,75c0.5,0.5,0.5,1.1,0,1.6l-4.2,3.7c-0.5,0.5-1.1,0.5-1.1,0l-11.6-9.5l0,0l4.8,16.8c0,0.5,0,1.1,0,1.1
	l-0.5,0.5c0,0-0.5,0.5-1.1,0l-16.9-6.3l0,0L97,95.5c0,0.5,0,1.1,0,1.1l-4.2,3.7c-0.5,0.5-1.1,0.5-1.6,0L72.2,72.9z"/>
<path class="st0" d="M109.7,42.9c0-0.5,0-1,0.5-1l4.8-3.2c0.5,0,1.1,0,1.1,0.5l17.9,26.9c0.5,0.5,0,1.1,0,1.1l-4.8,3.2
	c-0.5,0.5-1.1,0-1.1,0L109.7,42.9z"/>
<path class="st0" d="M144,40.8l-15.3-9.5c-0.5-0.5-0.5-1,0-1.6l6.3-3.2c0.5,0,0.5,0,1.1,0l9,5.8l0,0l1.1-10.5c0,0,0-0.5,0.5-0.5
	l6.3-3.2c0.5-0.5,1.6,0,1.6,1l-2.1,17.9l16.4,10c0.5,0.5,0.5,1,0,1.6l-6.3,3.2c0,0-0.5,0-1.1,0l-10-5.8v-0.5l-1.1,11.6
	c0,0,0,0.5-0.5,0.5l-6.3,3.2c-0.5,0.5-1.6,0-1.6-1L144,40.8z"/>
<path class="st0" d="M174,18.6l-6.9,2.1c-0.5,0-1.1,0-1.1-0.5l-1.6-4.7c0-0.5,0-1.1,0.5-1.1l20.6-6.3c0.5,0,1.1,0,1.1,0.5l1.6,5.3
	c0,0.5,0,1.1-0.5,1.1l-6.3,1.1l7.9,24.7c0,0.5,0,1-0.5,1l-5.8,2.1c-0.5,0-1.1,0-1.1-0.5L174,18.6z"/>
<path class="st0" d="M219.4,28.1c5.3-0.5,9-5.8,8.4-11.1c-0.5-5.3-5.8-8.9-11.1-8.4s-9,5.8-8.4,11.1C208.8,25,214.1,28.6,219.4,28.1
	 M215.1,1.3c9.5-1,18.5,5.3,20,14.8c1.6,9.5-5.3,18.4-14.8,19.5c-10,1.6-18.5-4.7-20-14.8C198.8,10.8,205.6,2.8,215.1,1.3"/>
<path class="st0" d="M275.3,27.6c5.3,0.5,10-3.2,10.5-8.4s-2.6-10-8.4-10.5l-4.8-0.5l-2.1,19.5L275.3,27.6L275.3,27.6z M266.3,0.7
	c0-0.5,0.5-1,1-0.5l12.1,1.6c9.5,1.1,16.4,9.5,15.3,19c-1,9.5-9.5,15.8-19,14.8l-11.6-1.6c-0.5,0-1-0.5-0.5-1L266.3,0.7z"/>
<path class="st0" d="M311.1,7.6c0-0.5,0.5-0.5,1-0.5l19.5,5.8c0.5,0,1,0.5,0.5,1.1l-1.6,5.3c0,0.5-0.5,1-1,0.5l-13.2-4.2l-1.6,5.8
	l10.5,3.2c0.5,0,1,0.5,0.5,1l-1.6,5.3c0,0.5-0.5,0.5-1,0.5l-10.5-3.2l-1.6,6.3l13.2,3.7c0.5,0,1,0.5,0.5,1l-1.6,5.3
	c0,0.5-0.5,1-1,0.5l-19.5-5.8c-0.5,0-0.5-0.5-0.5-1L311.1,7.6z"/>
<path class="st0" d="M363.3,33.9l-6.3-3.2c-0.5,0-0.5-1-0.5-1l2.6-4.7c0-0.5,1-0.5,1-0.5l19,10.5c0.5,0.5,0.5,1,0.5,1l-2.6,4.7
	c0,0.5-0.5,0.5-1,0.5l-6.3-3.2L357,60.8c0,0.5-1,0.5-1,0.5l-5.3-2.6c-0.5,0-0.5-1-0.5-1L363.3,33.9z"/>
<path class="st0" d="M391.3,42.9c0.5-0.5,1-0.5,1.6,0l4.8,3.7c0.5,0.5,0.5,1,0,1l-12.1,15.3c-2.1,2.6-1.6,6.3,1,8.4
	c2.6,2.1,6.3,1.6,8.4-1.1L407.1,55c0.5-0.5,1-0.5,1.6,0l4.8,3.7c0.5,0.5,0.5,1,0,1l-12.1,15.8c-4.8,5.8-13.2,6.8-19.5,2.1
	c-5.8-4.7-7.4-13.2-2.6-19L391.3,42.9z"/>
<path class="st0" d="M426.1,91.3c1.6,1.6,3.7,1.6,5.3,0s1.6-3.7,0-5.3l-4.8-5.3l-5.8,5.3L426.1,91.3z M426.1,71.3
	c0.5-0.5,1-0.5,1.6,0l10,10.5c4.2,4.2,3.7,11.1-0.5,14.8c-3.2,3.2-7.9,3.2-12.1,1.6l-4.8,13.2c0,0.5-1,1.1-1.6,0.5l-4.2-4.7
	c0,0,0-0.5,0-1.1l5.3-13.2l-2.1-2.6l-9,8.4c-0.5,0.5-1,0.5-1,0l-3.7-4.2c-0.5-0.5-0.5-1.1,0-1.1L426.1,71.3z"/>
<path class="st0" d="M452.4,102.4c0.5,0,1,0,1,0l3.2,4.7c0.5,0.5,0,1.1,0,1.1l-26.4,18.4c-0.5,0.5-1,0-1,0l-3.2-4.7
	c0-0.5,0-1.1,0-1.1L452.4,102.4z"/>
<path class="st0" d="M439.8,134h4.8c0.5,0,1,1.1,1,1.6c0,0-0.5,4.7,1,7.4c1,1.6,2.6,2.6,4.2,1.6s2.6-3.2,2.1-6.9
	c-0.5-4.2,0-10.5,5.3-13.2c4.2-2.1,10.5-1.1,13.7,5.3c2.6,4.2,2.1,8.9,1.6,11.1c0,0.5-1,1.1-1,1.1l-4.2-0.5c-0.5,0-1.6-0.5-1.6-1.1
	s0.5-4.7-0.5-7.4c-1-1.6-2.6-2.1-3.7-1.6c-1.6,1.1-2.1,2.6-1.6,6.9s0.5,10.5-5.3,13.7c-4.2,2.6-11.1,1.1-14.2-5.3
	c-3.2-5.3-2.1-10-2.1-11.1C438.7,134,438.7,134,439.8,134"/>
<path class="st0" d="M484.1,157.1c0.5,0,1,0,1,0.5v1.1c0,0,0,0.5,0,1.1l-16.4,17.4l0,0l23.7,4.2c0.5,0,0.5,0.5,0.5,0.5l0.5,0.5
	c0,0.5,0,1.1-0.5,1.1l-29.5,15.3c-0.5,0.5-1,0-1-0.5l-1.6-5.3c0-0.5,0-1.1,0.5-1.1l13.7-6.9l0,0l-17.4-2.6c-0.5,0-0.5-0.5-0.5-0.5
	v-1.1c0,0,0-0.5,0.5-1.1l12.7-12.6l0,0l-14.8,2.6c-0.5,0-1,0-1-0.5L453,164c0-0.5,0-1.1,0.5-1.1L484.1,157.1z"/>
<path class="st0" d="M472.5,222.4c0.5,5.3,5.3,8.9,10.5,8.4s9.5-5.3,9-10.5c-0.5-5.3-5.3-8.9-10.5-8.4
	C475.6,212.4,472,217.2,472.5,222.4 M499.9,219.3c1,9.5-5.8,17.9-15.8,19.5c-9.5,1.1-18.5-5.8-19.5-15.3c-1-9.5,5.8-17.9,15.3-19
	C489.9,203,498.8,209.8,499.9,219.3"/>
<path class="st0" d="M70.7,383.1c2.6,3.7,3.7,6.9,3.2,10.5c0,0.5-0.5,1-1.1,1l-2.6-0.5c-0.5,0-0.5-0.5-0.5-1c0-2.6-0.5-5.3-2.1-7.4
	c-3.7-4.7-10.5-5.3-15.8-1.6c-4.8,3.7-5.8,10.5-2.1,15.3c2.1,2.6,4.2,3.7,6.9,4.2c0.5,0,0.5,0.5,0.5,1l-0.5,2.6c0,0.5-0.5,0.5-1,0.5
	c-4.2-0.5-7.4-2.6-10-5.8c-5.3-6.9-4.2-16.3,2.6-21.6C55.4,375.2,65.4,376.2,70.7,383.1"/>
<path class="st0" d="M82.8,398.9c0.5-0.5,1.1,0,1.1,0L86,401c0.5,0.5,0.5,1,0,1l-20.6,19.5c-0.5,0.5-1.1,0.5-1.1,0l-2.1-2.1
	c-0.5-0.5-0.5-1,0-1L82.8,398.9z"/>
<path class="st0" d="M93.9,410.5c0.5-0.5,1.1-0.5,1.1,0l2.1,2.1c0.5,0.5,0.5,1,0,1l-11.6,13.7c-2.6,3.2-2.6,7.9,0.5,10.5
	c3.7,2.6,7.9,2.1,10.6-1l11.6-13.7c0.5-0.5,1.1-0.5,1.1,0l2.1,2.1c0.5,0.5,0.5,1,0,1l-11.6,13.7c-4.2,5.3-11.6,5.8-16.9,1.6
	c-5.3-4.2-5.8-11.6-1.6-16.3L93.9,410.5z"/>
<path class="st0" d="M116,458.4c5.3,3.2,12.1,1.6,15.3-3.7s1.6-11.6-3.7-14.8l-4.8-3.2l-11.6,19L116,458.4z M120.8,431.5
	c0-0.5,0.5-0.5,1.1-0.5l8.4,5.3c7.4,4.2,9.5,13.7,5.3,20.5c-4.2,7.4-13.7,9.5-21.1,5.3l-8.4-5.3c-0.5,0-0.5-0.5,0-1L120.8,431.5z"/>
<path class="st0" d="M157.7,472.1v-12.6l0,0l-9.5,9L157.7,472.1z M136.1,473.1l23.7-21.6c0,0,0.5,0,1.1,0h0.5l0.5,0.5l0.5,31.6
	c0,0.5-0.5,1-1.1,0.5l-2.6-1c-0.5,0-0.5-0.5-0.5-1v-6.3l-13.2-5.3c-1.6,1.6-3.2,3.2-4.8,4.2c0,0-0.5,0.5-1.1,0l-2.6-1
	C135.5,474.2,135.5,473.6,136.1,473.1"/>
<path class="st0" d="M183.5,487.3c6.3,1.6,12.1-1.6,13.7-7.9s-1.6-11.6-7.9-13.2l-5.3-1.6l-5.8,21.1L183.5,487.3z M180.3,460.5
	c0-0.5,0.5-0.5,1.1-0.5l9.5,2.6c7.9,2.1,13.2,10.5,11.1,18.4c-2.1,7.9-10.6,12.6-18.5,10.5l-9.5-2.6c-0.5,0-0.5-0.5-0.5-1
	L180.3,460.5z"/>
<path class="st0" d="M236.8,495.8c6.3,0.5,11.1-4.2,11.6-10.5c0.5-6.3-4.2-11.1-10.6-11.6H232l-1.1,22.1H236.8z M227.8,470
	c0-0.5,0.5-0.5,1.1-0.5l10,0.5c8.4,0.5,14.8,7.4,14.8,15.8c-0.5,8.4-7.4,14.8-15.8,14.2l-10-0.5c-0.5,0-0.5-0.5-0.5-1L227.8,470z"/>
<path class="st0" d="M263.1,470.5c0-0.5,0.5-1,0.5-1l17.4-1.6c0.5,0,1,0.5,1,0.5v2.6c0,0.5,0,1-0.5,1l-13.7,1l1,9l11.6-1
	c0.5,0,1,0.5,1,0.5v2.6c0,0.5-0.5,1-0.5,1l-11.6,1l1,9l13.7-1c0.5,0,1,0.5,1,0.5v2.6c0,0.5,0,1-0.5,1l-17.4,1.6c-0.5,0-1-0.5-1-0.5
	L263.1,470.5z"/>
<path class="st0" d="M304.8,464.7c0-0.5,0-1,0.5-1l16.9-4.7c0.5,0,1,0,1,0.5l0.5,2.1c0,0.5,0,1-0.5,1l-13.2,3.7l2.6,8.4l11.1-3.2
	c0.5,0,1,0,1,0.5l0.5,2.1c0,0.5,0,1-0.5,1l-11.1,3.2l2.6,9l13.2-3.7c0.5,0,1,0,1,0.5l0.5,2.1c0,0.5,0,1-0.5,1l-16.9,4.7
	c-0.5,0-1,0-1-0.5L304.8,464.7z"/>
<path class="st0" d="M340.1,480.5c0-0.5,0-1.6,0.5-2.1c0-0.5,0.5-1,1-1s4.8,1.6,7.4,0c2.6-1,3.7-3.7,3.2-5.3c-1-2.1-3.7-3.2-8.4-3.2
	s-9-1-10.5-5.3c-1-3.2-0.5-8.4,5.8-11.1c4.2-1.6,7.9-0.5,8.4-0.5s1,0.5,1,1c0,0.5,0,1.6-0.5,2.1c0,0.5-0.5,1-1,1s-3.7-0.5-6.3,0
	c-3.2,1.6-3.7,4.2-3.2,5.3c1,2.1,3.2,3.2,7.4,3.2c5.3,0,10.5,0.5,12.1,5.3c1.6,4.2-0.5,9-5.8,11.1c-4.8,2.1-9,0.5-10,0.5
	C340.1,481,339.6,481,340.1,480.5"/>
<path class="st0" d="M380.7,461.5c5.3-3.2,7.4-10,4.2-15.3c-3.2-5.3-10-6.9-15.3-4.2c-5.3,3.2-6.9,10-3.7,15.3
	C368.6,462.6,375.5,464.7,380.7,461.5 M367,438.4c7.4-4.2,16.9-2.1,21.6,5.8c3.2,5.3,2.6,11.6-0.5,16.3l9,4.7c0.5,0.5,0.5,1,0,1.6
	l-2.6,1.6h-0.5l-7.9-4.2c-0.5,0.5-1.6,1-2.1,1.6c-7.4,4.2-16.9,2.1-21.1-5.3C357.5,452,359.6,442.6,367,438.4"/>
<path class="st0" d="M388.1,426.8c0-0.5,0-1,0-1l2.1-1.6c0.5-0.5,1,0,1,0l11.6,13.7c2.6,3.2,6.9,4.2,10.5,1.6s3.7-6.9,1-10.5
	l-11.6-13.7c0-0.5,0-1,0-1l2.1-1.6c0.5,0,1,0,1,0l11.6,13.7c4.2,5.3,3.7,12.1-1.6,16.3c-5.3,4.2-12.1,3.7-16.4-1.6L388.1,426.8z"/>
<path class="st0" d="M414.5,404.1c-0.5,0-0.5-0.5,0-1l11.6-12.6c0.5-0.5,1-0.5,1,0l1.6,1.6c0.5,0.5,0.5,1,0,1l-9.5,10l6.3,5.8
	l7.9-8.4c0.5-0.5,1-0.5,1,0l1.6,1.6c0.5,0.5,0.5,1,0,1l-7.9,8.4l6.9,6.3l9.5-10c0.5-0.5,1-0.5,1,0l1.6,1.6c0.5,0.5,0.5,1,0,1
	l-11.6,12.6c-0.5,0.5-1,0.5-1,0L414.5,404.1z"/>
<path class="st0" d="M433.5,382.5c-0.5,0-0.5-0.5,0-1l1.6-2.1c0.5-0.5,1-0.5,1,0l20.6,14.8l6.9-9.5c0.5-0.5,1-0.5,1,0l2.1,1.6
	c0.5,0.5,0.5,0.5,0,1l-9,12.1c0,0.5-0.5,0.5-1,0L433.5,382.5z"/>
<path class="st0" d="M32.7,313c0,5.3-4.2,9.5-9.5,9.5s-9.5-4.2-9.5-9.5s4.2-9.5,9.5-9.5S32.7,307.8,32.7,313"/>
<path class="st0" d="M485.1,313c0,5.3-4.2,9.5-9.5,9.5s-9.5-4.2-9.5-9.5s4.2-9.5,9.5-9.5C480.9,303.5,485.1,307.8,485.1,313"/>
</svg>
